%TF.GenerationSoftware,KiCad,Pcbnew,7.0.2*%
%TF.CreationDate,2025-03-07T15:38:25-05:00*%
%TF.ProjectId,2nPM1100,326e504d-3131-4303-902e-6b696361645f,rev?*%
%TF.SameCoordinates,Original*%
%TF.FileFunction,Copper,L2,Bot*%
%TF.FilePolarity,Positive*%
%FSLAX46Y46*%
G04 Gerber Fmt 4.6, Leading zero omitted, Abs format (unit mm)*
G04 Created by KiCad (PCBNEW 7.0.2) date 2025-03-07 15:38:25*
%MOMM*%
%LPD*%
G01*
G04 APERTURE LIST*
G04 Aperture macros list*
%AMRoundRect*
0 Rectangle with rounded corners*
0 $1 Rounding radius*
0 $2 $3 $4 $5 $6 $7 $8 $9 X,Y pos of 4 corners*
0 Add a 4 corners polygon primitive as box body*
4,1,4,$2,$3,$4,$5,$6,$7,$8,$9,$2,$3,0*
0 Add four circle primitives for the rounded corners*
1,1,$1+$1,$2,$3*
1,1,$1+$1,$4,$5*
1,1,$1+$1,$6,$7*
1,1,$1+$1,$8,$9*
0 Add four rect primitives between the rounded corners*
20,1,$1+$1,$2,$3,$4,$5,0*
20,1,$1+$1,$4,$5,$6,$7,0*
20,1,$1+$1,$6,$7,$8,$9,0*
20,1,$1+$1,$8,$9,$2,$3,0*%
G04 Aperture macros list end*
%TA.AperFunction,NonConductor*%
%ADD10C,0.200000*%
%TD*%
%TA.AperFunction,NonConductor*%
%ADD11C,1.150000*%
%TD*%
%ADD12C,0.300000*%
%TA.AperFunction,NonConductor*%
%ADD13C,0.300000*%
%TD*%
%TA.AperFunction,ComponentPad*%
%ADD14RoundRect,0.250000X-0.600000X-0.750000X0.600000X-0.750000X0.600000X0.750000X-0.600000X0.750000X0*%
%TD*%
%TA.AperFunction,ComponentPad*%
%ADD15O,1.700000X2.000000*%
%TD*%
%TA.AperFunction,ComponentPad*%
%ADD16R,1.700000X1.700000*%
%TD*%
%TA.AperFunction,ComponentPad*%
%ADD17O,1.700000X1.700000*%
%TD*%
%TA.AperFunction,ComponentPad*%
%ADD18C,3.000000*%
%TD*%
%TA.AperFunction,ComponentPad*%
%ADD19O,0.900000X2.000000*%
%TD*%
%TA.AperFunction,ComponentPad*%
%ADD20O,0.900000X1.700000*%
%TD*%
%TA.AperFunction,ViaPad*%
%ADD21C,1.270000*%
%TD*%
%TA.AperFunction,ViaPad*%
%ADD22C,1.200000*%
%TD*%
%TA.AperFunction,Conductor*%
%ADD23C,0.500000*%
%TD*%
%TA.AperFunction,Conductor*%
%ADD24C,0.250000*%
%TD*%
G04 APERTURE END LIST*
D10*
X111379000Y-66040000D02*
X111379000Y-100330000D01*
X111379000Y-100330000D02*
X77470000Y-100330000D01*
X77470000Y-66040000D02*
X111379000Y-66040000D01*
X77470000Y-100330000D02*
X77470000Y-66040000D01*
D11*
X108906000Y-97282000D02*
G75*
G03*
X108906000Y-97282000I-575000J0D01*
G01*
D12*
D13*
X105886285Y-93344000D02*
X105672000Y-93415428D01*
X105672000Y-93415428D02*
X105314857Y-93415428D01*
X105314857Y-93415428D02*
X105172000Y-93344000D01*
X105172000Y-93344000D02*
X105100571Y-93272571D01*
X105100571Y-93272571D02*
X105029142Y-93129714D01*
X105029142Y-93129714D02*
X105029142Y-92986857D01*
X105029142Y-92986857D02*
X105100571Y-92844000D01*
X105100571Y-92844000D02*
X105172000Y-92772571D01*
X105172000Y-92772571D02*
X105314857Y-92701142D01*
X105314857Y-92701142D02*
X105600571Y-92629714D01*
X105600571Y-92629714D02*
X105743428Y-92558285D01*
X105743428Y-92558285D02*
X105814857Y-92486857D01*
X105814857Y-92486857D02*
X105886285Y-92344000D01*
X105886285Y-92344000D02*
X105886285Y-92201142D01*
X105886285Y-92201142D02*
X105814857Y-92058285D01*
X105814857Y-92058285D02*
X105743428Y-91986857D01*
X105743428Y-91986857D02*
X105600571Y-91915428D01*
X105600571Y-91915428D02*
X105243428Y-91915428D01*
X105243428Y-91915428D02*
X105029142Y-91986857D01*
X104457714Y-92058285D02*
X104386286Y-91986857D01*
X104386286Y-91986857D02*
X104243429Y-91915428D01*
X104243429Y-91915428D02*
X103886286Y-91915428D01*
X103886286Y-91915428D02*
X103743429Y-91986857D01*
X103743429Y-91986857D02*
X103672000Y-92058285D01*
X103672000Y-92058285D02*
X103600571Y-92201142D01*
X103600571Y-92201142D02*
X103600571Y-92344000D01*
X103600571Y-92344000D02*
X103672000Y-92558285D01*
X103672000Y-92558285D02*
X104529143Y-93415428D01*
X104529143Y-93415428D02*
X103600571Y-93415428D01*
D14*
%TO.P,J1,1,Pin_1*%
%TO.N,Net-(J1-Pin_1)*%
X98592000Y-95123000D03*
D15*
%TO.P,J1,2,Pin_2*%
%TO.N,GND*%
X101092000Y-95123000D03*
%TD*%
D16*
%TO.P,J5,1,Pin_1*%
%TO.N,VSYS*%
X108077000Y-88524000D03*
D17*
%TO.P,J5,2,Pin_2*%
%TO.N,GND*%
X108077000Y-85984000D03*
%TD*%
D18*
%TO.P,J4,5,Shield*%
%TO.N,GND*%
X101440000Y-81754000D03*
X101440000Y-68614000D03*
%TD*%
D16*
%TO.P,J3,1,Pin_1*%
%TO.N,GND*%
X79756000Y-69850000D03*
D17*
%TO.P,J3,2,Pin_2*%
%TO.N,VBUS*%
X79756000Y-72390000D03*
%TO.P,J3,3,Pin_3*%
%TO.N,Net-(J3-Pin_3)*%
X79756000Y-74930000D03*
%TO.P,J3,4,Pin_4*%
%TO.N,Net-(J3-Pin_4)*%
X79756000Y-77470000D03*
%TO.P,J3,5,Pin_5*%
%TO.N,VOUTB*%
X79756000Y-80010000D03*
%TO.P,J3,6,Pin_6*%
X79756000Y-82550000D03*
%TO.P,J3,7,Pin_7*%
%TO.N,Net-(J3-Pin_7)*%
X79756000Y-85090000D03*
%TO.P,J3,8,Pin_8*%
%TO.N,SHPACT*%
X79756000Y-87630000D03*
%TO.P,J3,9,Pin_9*%
%TO.N,Net-(J3-Pin_9)*%
X79756000Y-90170000D03*
%TO.P,J3,10,Pin_10*%
%TO.N,CHG*%
X79756000Y-92710000D03*
%TO.P,J3,11,Pin_11*%
%TO.N,ERR*%
X79756000Y-95250000D03*
%TO.P,J3,12,Pin_12*%
%TO.N,Low_Batt*%
X79756000Y-97790000D03*
%TD*%
D19*
%TO.P,J2,S1,SHIELD*%
%TO.N,GND*%
X92712000Y-72288000D03*
D20*
X92712000Y-68118000D03*
D19*
X84072000Y-72288000D03*
D20*
X84072000Y-68118000D03*
%TD*%
D21*
%TO.N,VBUS*%
X94996000Y-72263000D03*
%TO.N,GND*%
X92329000Y-76835000D03*
X88011000Y-91567000D03*
X105029000Y-86995000D03*
X85471000Y-76962000D03*
%TO.N,VOUTB*%
X85598000Y-82550000D03*
X82296000Y-82550000D03*
%TO.N,Net-(J3-Pin_3)*%
X92583000Y-81280000D03*
X94331500Y-79756000D03*
X94996000Y-76327000D03*
%TO.N,Low_Batt*%
X102997000Y-87122000D03*
X84836000Y-97790000D03*
%TO.N,Net-(U1-SHPHLD)*%
X89789000Y-92771000D03*
X89789000Y-89662000D03*
%TO.N,Net-(J3-Pin_4)*%
X88011000Y-77343000D03*
X91313000Y-80010000D03*
X94966500Y-74422000D03*
D22*
%TO.N,Net-(U1-NTC)*%
X93853000Y-94488000D03*
X92329000Y-87249000D03*
%TD*%
D23*
%TO.N,VBUS*%
X81407000Y-72390000D02*
X83693000Y-70104000D01*
X94996000Y-70612000D02*
X94996000Y-72263000D01*
X79756000Y-72390000D02*
X81407000Y-72390000D01*
X94488000Y-70104000D02*
X94996000Y-70612000D01*
X83693000Y-70104000D02*
X94488000Y-70104000D01*
D24*
%TO.N,VOUTB*%
X82296000Y-82550000D02*
X85598000Y-82550000D01*
%TO.N,Net-(J3-Pin_3)*%
X94331500Y-79756000D02*
X94331500Y-79853500D01*
X94331500Y-78896500D02*
X94996000Y-78232000D01*
X91059000Y-78486000D02*
X83439000Y-78486000D01*
X94331500Y-79853500D02*
X94361000Y-79883000D01*
X92583000Y-81280000D02*
X92583000Y-80010000D01*
X92583000Y-80010000D02*
X91059000Y-78486000D01*
X94331500Y-79756000D02*
X94331500Y-78896500D01*
X82804000Y-77851000D02*
X82804000Y-75565000D01*
X83439000Y-78486000D02*
X82804000Y-77851000D01*
X82169000Y-74930000D02*
X79756000Y-74930000D01*
X82804000Y-75565000D02*
X82169000Y-74930000D01*
X94996000Y-78232000D02*
X94996000Y-76327000D01*
%TO.N,Low_Batt*%
X98298000Y-97790000D02*
X84836000Y-97790000D01*
X101600000Y-94488000D02*
X98298000Y-97790000D01*
X102997000Y-87122000D02*
X101600000Y-88519000D01*
X101600000Y-88519000D02*
X101600000Y-94488000D01*
%TO.N,Net-(U1-SHPHLD)*%
X89789000Y-92771000D02*
X89789000Y-89662000D01*
%TO.N,Net-(J3-Pin_4)*%
X91313000Y-82042000D02*
X91313000Y-80010000D01*
X93472000Y-75916500D02*
X93472000Y-81661000D01*
X93472000Y-81661000D02*
X92837000Y-82296000D01*
X88011000Y-77343000D02*
X88392000Y-77724000D01*
X90424000Y-79121000D02*
X82931000Y-79121000D01*
X88392000Y-77724000D02*
X91440000Y-77724000D01*
X81280000Y-77470000D02*
X79756000Y-77470000D01*
X91567000Y-82296000D02*
X91313000Y-82042000D01*
X91440000Y-77724000D02*
X93472000Y-79756000D01*
X82931000Y-79121000D02*
X81280000Y-77470000D01*
X94966500Y-74422000D02*
X93472000Y-75916500D01*
X91313000Y-80010000D02*
X90424000Y-79121000D01*
X92837000Y-82296000D02*
X91567000Y-82296000D01*
%TO.N,Net-(U1-NTC)*%
X93853000Y-94488000D02*
X93091000Y-93726000D01*
X93091000Y-93726000D02*
X93091000Y-88773000D01*
X93091000Y-88773000D02*
X92329000Y-88011000D01*
X92329000Y-88011000D02*
X92329000Y-87249000D01*
%TD*%
%TA.AperFunction,Conductor*%
%TO.N,Net-(J3-Pin_4)*%
G36*
X94390925Y-74183570D02*
G01*
X94962708Y-74419437D01*
X94969049Y-74425760D01*
X94969062Y-74425791D01*
X95204914Y-74997537D01*
X95204901Y-75006492D01*
X95198560Y-75012815D01*
X95198252Y-75012937D01*
X94163938Y-75405727D01*
X94154987Y-75405460D01*
X94151511Y-75403062D01*
X93985437Y-75236988D01*
X93982010Y-75228715D01*
X93982770Y-75224566D01*
X94375564Y-74190244D01*
X94381703Y-74183730D01*
X94390654Y-74183463D01*
X94390925Y-74183570D01*
G37*
%TD.AperFunction*%
%TD*%
%TA.AperFunction,Conductor*%
%TO.N,Net-(U1-SHPHLD)*%
G36*
X89914705Y-91504427D02*
G01*
X89917103Y-91507903D01*
X90370729Y-92517018D01*
X90370996Y-92525969D01*
X90364855Y-92532486D01*
X90364551Y-92532618D01*
X89793493Y-92770131D01*
X89784538Y-92770144D01*
X89784507Y-92770131D01*
X89517966Y-92659272D01*
X89213447Y-92532617D01*
X89207125Y-92526277D01*
X89207138Y-92517322D01*
X89207243Y-92517078D01*
X89660896Y-91507903D01*
X89667414Y-91501762D01*
X89671568Y-91501000D01*
X89906432Y-91501000D01*
X89914705Y-91504427D01*
G37*
%TD.AperFunction*%
%TD*%
%TA.AperFunction,Conductor*%
%TO.N,Low_Batt*%
G36*
X85089677Y-97208138D02*
G01*
X85089950Y-97208256D01*
X86099098Y-97661897D01*
X86105238Y-97668413D01*
X86106000Y-97672567D01*
X86106000Y-97907432D01*
X86102573Y-97915705D01*
X86099097Y-97918103D01*
X85089981Y-98371729D01*
X85081030Y-98371996D01*
X85074513Y-98365855D01*
X85074402Y-98365600D01*
X84836867Y-97794491D01*
X84836855Y-97785539D01*
X85074383Y-97214445D01*
X85080722Y-97208125D01*
X85089677Y-97208138D01*
G37*
%TD.AperFunction*%
%TD*%
%TA.AperFunction,Conductor*%
%TO.N,VOUTB*%
G36*
X85359486Y-81974144D02*
G01*
X85359618Y-81974448D01*
X85597131Y-82545506D01*
X85597144Y-82554461D01*
X85597131Y-82554492D01*
X85359618Y-83125551D01*
X85353277Y-83131874D01*
X85344322Y-83131861D01*
X85344018Y-83131729D01*
X84334903Y-82678103D01*
X84328762Y-82671586D01*
X84328000Y-82667432D01*
X84328000Y-82432567D01*
X84331427Y-82424294D01*
X84334899Y-82421898D01*
X85344020Y-81968269D01*
X85352969Y-81968003D01*
X85359486Y-81974144D01*
G37*
%TD.AperFunction*%
%TD*%
%TA.AperFunction,Conductor*%
%TO.N,Net-(U1-NTC)*%
G36*
X92335530Y-87251296D02*
G01*
X92874392Y-87474902D01*
X92880720Y-87481238D01*
X92881364Y-87488084D01*
X92727810Y-88228899D01*
X92724627Y-88234797D01*
X92559155Y-88400269D01*
X92550882Y-88403696D01*
X92542609Y-88400269D01*
X92542087Y-88399712D01*
X91911952Y-87681488D01*
X91909072Y-87673009D01*
X91912458Y-87665515D01*
X92322761Y-87253842D01*
X92331026Y-87250403D01*
X92335530Y-87251296D01*
G37*
%TD.AperFunction*%
%TD*%
%TA.AperFunction,Conductor*%
%TO.N,VBUS*%
G36*
X80091818Y-71609833D02*
G01*
X80092425Y-71610105D01*
X81263098Y-72177716D01*
X81266266Y-72179970D01*
X81606090Y-72519794D01*
X81609517Y-72528067D01*
X81606090Y-72536340D01*
X81602333Y-72538860D01*
X80092101Y-73170770D01*
X80083146Y-73170802D01*
X80076792Y-73164493D01*
X80076780Y-73164466D01*
X79757154Y-72395188D01*
X79757146Y-72386239D01*
X80076530Y-71616156D01*
X80082863Y-71609829D01*
X80091818Y-71609833D01*
G37*
%TD.AperFunction*%
%TD*%
%TA.AperFunction,Conductor*%
%TO.N,Net-(J3-Pin_4)*%
G36*
X91888552Y-80248382D02*
G01*
X91894874Y-80254722D01*
X91894861Y-80263677D01*
X91894729Y-80263981D01*
X91441103Y-81273097D01*
X91434586Y-81279238D01*
X91430432Y-81280000D01*
X91195568Y-81280000D01*
X91187295Y-81276573D01*
X91184897Y-81273097D01*
X90731270Y-80263981D01*
X90731003Y-80255030D01*
X90737144Y-80248513D01*
X90737375Y-80248412D01*
X91308508Y-80010867D01*
X91317460Y-80010855D01*
X91888552Y-80248382D01*
G37*
%TD.AperFunction*%
%TD*%
%TA.AperFunction,Conductor*%
%TO.N,Net-(U1-SHPHLD)*%
G36*
X90364552Y-89900382D02*
G01*
X90370874Y-89906722D01*
X90370861Y-89915677D01*
X90370729Y-89915981D01*
X89917103Y-90925097D01*
X89910586Y-90931238D01*
X89906432Y-90932000D01*
X89671568Y-90932000D01*
X89663295Y-90928573D01*
X89660897Y-90925097D01*
X89207270Y-89915981D01*
X89207003Y-89907030D01*
X89213144Y-89900513D01*
X89213375Y-89900412D01*
X89784508Y-89662867D01*
X89793460Y-89662855D01*
X90364552Y-89900382D01*
G37*
%TD.AperFunction*%
%TD*%
%TA.AperFunction,Conductor*%
%TO.N,Net-(J3-Pin_3)*%
G36*
X94541655Y-78526197D02*
G01*
X94542483Y-78526950D01*
X94707881Y-78692348D01*
X94710947Y-78697739D01*
X94915670Y-79503185D01*
X94914387Y-79512047D01*
X94908815Y-79516874D01*
X94338030Y-79753704D01*
X94329075Y-79753709D01*
X94325260Y-79751157D01*
X93889980Y-79314504D01*
X93886566Y-79306226D01*
X93889239Y-79298800D01*
X94525186Y-78527776D01*
X94533092Y-78523577D01*
X94541655Y-78526197D01*
G37*
%TD.AperFunction*%
%TD*%
%TA.AperFunction,Conductor*%
%TO.N,Net-(J3-Pin_3)*%
G36*
X80091836Y-74149791D02*
G01*
X80092413Y-74150049D01*
X81449366Y-74801814D01*
X81455339Y-74808484D01*
X81456000Y-74812360D01*
X81456000Y-75047639D01*
X81452573Y-75055912D01*
X81449366Y-75058186D01*
X80092413Y-75709950D01*
X80083471Y-75710442D01*
X80076800Y-75704469D01*
X80076542Y-75703892D01*
X79756865Y-74934488D01*
X79756856Y-74925533D01*
X79756856Y-74925532D01*
X80076542Y-74156106D01*
X80082881Y-74149782D01*
X80091836Y-74149791D01*
G37*
%TD.AperFunction*%
%TD*%
%TA.AperFunction,Conductor*%
%TO.N,VBUS*%
G36*
X95245796Y-70996427D02*
G01*
X95248641Y-71001055D01*
X95579290Y-72009706D01*
X95578611Y-72018635D01*
X95572665Y-72024154D01*
X95000493Y-72262131D01*
X94991538Y-72262144D01*
X94991507Y-72262131D01*
X94419334Y-72024154D01*
X94413011Y-72017813D01*
X94412709Y-72009706D01*
X94743359Y-71001055D01*
X94749193Y-70994261D01*
X94754477Y-70993000D01*
X95237523Y-70993000D01*
X95245796Y-70996427D01*
G37*
%TD.AperFunction*%
%TD*%
%TA.AperFunction,Conductor*%
%TO.N,Net-(J3-Pin_4)*%
G36*
X80091443Y-76690735D02*
G01*
X80092838Y-76691427D01*
X81479705Y-77498420D01*
X81485133Y-77505543D01*
X81483934Y-77514417D01*
X81482094Y-77516806D01*
X81317531Y-77681369D01*
X81314179Y-77683711D01*
X80092339Y-78250171D01*
X80083392Y-78250542D01*
X80076803Y-78244477D01*
X80076611Y-78244038D01*
X79757152Y-77473777D01*
X79757149Y-77464825D01*
X80076150Y-76697049D01*
X80082488Y-76690726D01*
X80091443Y-76690735D01*
G37*
%TD.AperFunction*%
%TD*%
%TA.AperFunction,Conductor*%
%TO.N,Net-(J3-Pin_3)*%
G36*
X92708705Y-80013427D02*
G01*
X92711103Y-80016903D01*
X93164729Y-81026018D01*
X93164996Y-81034969D01*
X93158855Y-81041486D01*
X93158551Y-81041618D01*
X92587493Y-81279131D01*
X92578538Y-81279144D01*
X92578507Y-81279131D01*
X92311966Y-81168272D01*
X92007447Y-81041617D01*
X92001125Y-81035277D01*
X92001138Y-81026322D01*
X92001243Y-81026078D01*
X92454896Y-80016903D01*
X92461414Y-80010762D01*
X92465568Y-80010000D01*
X92700432Y-80010000D01*
X92708705Y-80013427D01*
G37*
%TD.AperFunction*%
%TD*%
%TA.AperFunction,Conductor*%
%TO.N,VOUTB*%
G36*
X82549677Y-81968138D02*
G01*
X82549950Y-81968256D01*
X83559098Y-82421897D01*
X83565238Y-82428413D01*
X83566000Y-82432567D01*
X83566000Y-82667432D01*
X83562573Y-82675705D01*
X83559097Y-82678103D01*
X82549981Y-83131729D01*
X82541030Y-83131996D01*
X82534513Y-83125855D01*
X82534402Y-83125600D01*
X82296867Y-82554491D01*
X82296855Y-82545539D01*
X82534383Y-81974445D01*
X82540722Y-81968125D01*
X82549677Y-81968138D01*
G37*
%TD.AperFunction*%
%TD*%
%TA.AperFunction,Conductor*%
%TO.N,Low_Batt*%
G36*
X100140545Y-95143370D02*
G01*
X100141500Y-95148000D01*
X100141500Y-95321206D01*
X100141528Y-95321482D01*
X100141529Y-95321500D01*
X100156154Y-95465322D01*
X100214025Y-95649766D01*
X100214026Y-95649768D01*
X100307841Y-95818791D01*
X100433760Y-95965468D01*
X100586627Y-96083796D01*
X100760184Y-96168930D01*
X100778965Y-96173792D01*
X100786114Y-96179182D01*
X100787358Y-96188050D01*
X100781967Y-96195201D01*
X100778550Y-96196544D01*
X99873615Y-96396041D01*
X99864798Y-96394475D01*
X99862823Y-96392888D01*
X99696023Y-96226088D01*
X99692596Y-96217815D01*
X99693424Y-96213491D01*
X99745744Y-96081946D01*
X100118928Y-95143675D01*
X100125170Y-95137255D01*
X100134124Y-95137128D01*
X100140545Y-95143370D01*
G37*
%TD.AperFunction*%
%TD*%
%TA.AperFunction,Conductor*%
%TO.N,Net-(U1-NTC)*%
G36*
X93218011Y-93604396D02*
G01*
X94071364Y-93929389D01*
X94077875Y-93935535D01*
X94078133Y-93944486D01*
X94078011Y-93944792D01*
X93854857Y-94484507D01*
X93848529Y-94490844D01*
X93848506Y-94490853D01*
X93310639Y-94712674D01*
X93301684Y-94712660D01*
X93295362Y-94706319D01*
X93294971Y-94705219D01*
X92970493Y-93618678D01*
X92971410Y-93609770D01*
X92978357Y-93604119D01*
X92981705Y-93603630D01*
X93213847Y-93603630D01*
X93218011Y-93604396D01*
G37*
%TD.AperFunction*%
%TD*%
%TA.AperFunction,Conductor*%
%TO.N,Low_Batt*%
G36*
X102421425Y-86883570D02*
G01*
X102993208Y-87119437D01*
X102999549Y-87125760D01*
X102999562Y-87125791D01*
X103235414Y-87697537D01*
X103235401Y-87706492D01*
X103229060Y-87712815D01*
X103228752Y-87712937D01*
X102194438Y-88105727D01*
X102185487Y-88105460D01*
X102182011Y-88103062D01*
X102015937Y-87936988D01*
X102012510Y-87928715D01*
X102013270Y-87924566D01*
X102406064Y-86890244D01*
X102412203Y-86883730D01*
X102421154Y-86883463D01*
X102421425Y-86883570D01*
G37*
%TD.AperFunction*%
%TD*%
%TA.AperFunction,Conductor*%
%TO.N,Net-(J3-Pin_4)*%
G36*
X90427026Y-79001894D02*
G01*
X91544665Y-79419103D01*
X91551216Y-79425206D01*
X91551533Y-79434155D01*
X91551388Y-79434525D01*
X91315853Y-80005507D01*
X91309530Y-80011848D01*
X91309508Y-80011857D01*
X90738153Y-80248117D01*
X90729198Y-80248112D01*
X90722870Y-80241776D01*
X90722522Y-80240818D01*
X90411769Y-79247706D01*
X90411235Y-79244212D01*
X90411235Y-79012856D01*
X90414662Y-79004583D01*
X90422935Y-79001156D01*
X90427026Y-79001894D01*
G37*
%TD.AperFunction*%
%TD*%
%TA.AperFunction,Conductor*%
%TO.N,Low_Batt*%
G36*
X101723131Y-93463218D02*
G01*
X101726439Y-93469828D01*
X101805969Y-94024414D01*
X101855538Y-94370074D01*
X101853320Y-94378750D01*
X101845617Y-94383317D01*
X101836941Y-94381099D01*
X101835079Y-94379356D01*
X101750241Y-94280533D01*
X101597372Y-94162203D01*
X101423814Y-94077069D01*
X101236676Y-94028614D01*
X101052107Y-94019254D01*
X101043610Y-94018824D01*
X101043609Y-94018824D01*
X100875613Y-94044560D01*
X100866916Y-94042426D01*
X100862276Y-94034767D01*
X100864410Y-94026070D01*
X100865880Y-94024421D01*
X101471635Y-93462909D01*
X101479589Y-93459791D01*
X101714858Y-93459791D01*
X101723131Y-93463218D01*
G37*
%TD.AperFunction*%
%TD*%
%TA.AperFunction,Conductor*%
%TO.N,Net-(J3-Pin_3)*%
G36*
X95571552Y-76565382D02*
G01*
X95577874Y-76571722D01*
X95577861Y-76580677D01*
X95577729Y-76580981D01*
X95124103Y-77590097D01*
X95117586Y-77596238D01*
X95113432Y-77597000D01*
X94878568Y-77597000D01*
X94870295Y-77593573D01*
X94867897Y-77590097D01*
X94414270Y-76580981D01*
X94414003Y-76572030D01*
X94420144Y-76565513D01*
X94420375Y-76565412D01*
X94991508Y-76327867D01*
X95000460Y-76327855D01*
X95571552Y-76565382D01*
G37*
%TD.AperFunction*%
%TD*%
%TA.AperFunction,Conductor*%
%TO.N,Net-(J3-Pin_4)*%
G36*
X88468137Y-76902407D02*
G01*
X88468261Y-76902533D01*
X89137177Y-77595600D01*
X89140458Y-77603725D01*
X89140458Y-77838560D01*
X89137031Y-77846833D01*
X89130086Y-77850184D01*
X88024007Y-77976514D01*
X88015398Y-77974049D01*
X88011055Y-77966218D01*
X88010979Y-77964908D01*
X88010007Y-77347861D01*
X88013419Y-77339587D01*
X88451593Y-76902388D01*
X88459868Y-76898971D01*
X88468137Y-76902407D01*
G37*
%TD.AperFunction*%
%TD*%
%TA.AperFunction,Conductor*%
%TO.N,GND*%
G36*
X83409591Y-66609866D02*
G01*
X83484946Y-66664615D01*
X83531519Y-66745280D01*
X83541255Y-66837914D01*
X83512472Y-66926500D01*
X83472811Y-66976854D01*
X83347461Y-67096007D01*
X83237086Y-67254586D01*
X83160894Y-67432135D01*
X83122000Y-67621395D01*
X83122000Y-67868000D01*
X83772000Y-67868000D01*
X83772000Y-68368000D01*
X83122000Y-68368000D01*
X83122000Y-68560492D01*
X83122574Y-68571823D01*
X83136648Y-68710222D01*
X83194488Y-68894570D01*
X83288253Y-69063502D01*
X83375716Y-69165386D01*
X83420367Y-69247130D01*
X83427910Y-69339969D01*
X83397039Y-69427849D01*
X83343895Y-69487624D01*
X83282971Y-69535353D01*
X83272081Y-69543365D01*
X83225072Y-69575815D01*
X83187196Y-69618567D01*
X83177924Y-69628417D01*
X81289426Y-71516915D01*
X81211308Y-71567645D01*
X81119311Y-71582216D01*
X81033308Y-71560081D01*
X80913992Y-71502230D01*
X80840460Y-71445055D01*
X80796540Y-71362916D01*
X80789826Y-71270013D01*
X80821480Y-71182412D01*
X80877480Y-71121351D01*
X80963188Y-71057190D01*
X81049353Y-70942087D01*
X81099598Y-70807374D01*
X81105358Y-70753798D01*
X81106000Y-70741833D01*
X81106000Y-70100000D01*
X80189686Y-70100000D01*
X80215493Y-70059844D01*
X80256000Y-69921889D01*
X80256000Y-69778111D01*
X80215493Y-69640156D01*
X80189686Y-69600000D01*
X81106000Y-69600000D01*
X81106000Y-68958166D01*
X81105358Y-68946201D01*
X81099598Y-68892625D01*
X81049353Y-68757912D01*
X80963189Y-68642810D01*
X80848087Y-68556646D01*
X80713374Y-68506401D01*
X80659798Y-68500641D01*
X80647834Y-68500000D01*
X80006000Y-68500000D01*
X80006000Y-69414498D01*
X79898315Y-69365320D01*
X79791763Y-69350000D01*
X79720237Y-69350000D01*
X79613685Y-69365320D01*
X79506000Y-69414498D01*
X79506000Y-68500000D01*
X78864166Y-68500000D01*
X78852201Y-68500641D01*
X78798625Y-68506401D01*
X78663912Y-68556646D01*
X78548810Y-68642810D01*
X78462646Y-68757912D01*
X78454377Y-68780083D01*
X78404393Y-68858680D01*
X78326762Y-68910152D01*
X78234907Y-68925599D01*
X78144711Y-68902349D01*
X78071770Y-68844423D01*
X78028695Y-68761837D01*
X78020500Y-68701804D01*
X78020500Y-66814500D01*
X78039866Y-66723391D01*
X78094615Y-66648036D01*
X78175280Y-66601463D01*
X78244500Y-66590500D01*
X83318482Y-66590500D01*
X83409591Y-66609866D01*
G37*
%TD.AperFunction*%
%TA.AperFunction,Conductor*%
G36*
X92049591Y-66609866D02*
G01*
X92124946Y-66664615D01*
X92171519Y-66745280D01*
X92181255Y-66837914D01*
X92152472Y-66926500D01*
X92112811Y-66976854D01*
X91987461Y-67096007D01*
X91877086Y-67254586D01*
X91800894Y-67432135D01*
X91762000Y-67621395D01*
X91762000Y-67868000D01*
X92412000Y-67868000D01*
X92412000Y-68368000D01*
X91762000Y-68368000D01*
X91762000Y-68560492D01*
X91762574Y-68571823D01*
X91776648Y-68710222D01*
X91834486Y-68894566D01*
X91932300Y-69070792D01*
X91959583Y-69159852D01*
X91948283Y-69252308D01*
X91900355Y-69332175D01*
X91824086Y-69385644D01*
X91736446Y-69403500D01*
X85041957Y-69403500D01*
X84950848Y-69384134D01*
X84875493Y-69329385D01*
X84828920Y-69248720D01*
X84819184Y-69156086D01*
X84847967Y-69067500D01*
X84858107Y-69051535D01*
X84906913Y-68981413D01*
X84983105Y-68803864D01*
X85022000Y-68614604D01*
X85022000Y-68368000D01*
X84372000Y-68368000D01*
X84372000Y-67868000D01*
X85022000Y-67868000D01*
X85022000Y-67675507D01*
X85021425Y-67664176D01*
X85007351Y-67525777D01*
X84949511Y-67341429D01*
X84855748Y-67172500D01*
X84729890Y-67025892D01*
X84685632Y-66991634D01*
X84625439Y-66920552D01*
X84599361Y-66831132D01*
X84611909Y-66738837D01*
X84660911Y-66659624D01*
X84737896Y-66607191D01*
X84822743Y-66590500D01*
X91958482Y-66590500D01*
X92049591Y-66609866D01*
G37*
%TD.AperFunction*%
%TA.AperFunction,Conductor*%
G36*
X100223824Y-66609866D02*
G01*
X100299179Y-66664615D01*
X100345752Y-66745280D01*
X100355488Y-66837914D01*
X100326705Y-66926500D01*
X100266953Y-66993821D01*
X100213437Y-67033882D01*
X100820389Y-67640835D01*
X100661931Y-67760499D01*
X100518348Y-67918001D01*
X100469439Y-67996992D01*
X99859883Y-67387436D01*
X99859882Y-67387437D01*
X99753196Y-67529953D01*
X99616089Y-67781046D01*
X99516112Y-68049096D01*
X99455299Y-68328646D01*
X99434890Y-68614000D01*
X99455299Y-68899353D01*
X99516112Y-69178903D01*
X99616089Y-69446953D01*
X99753196Y-69698046D01*
X99859882Y-69840561D01*
X100469437Y-69231006D01*
X100518348Y-69309999D01*
X100661931Y-69467501D01*
X100820388Y-69587163D01*
X100213437Y-70194115D01*
X100355957Y-70300805D01*
X100607046Y-70437910D01*
X100875096Y-70537887D01*
X101154646Y-70598700D01*
X101440000Y-70619109D01*
X101725353Y-70598700D01*
X102004903Y-70537887D01*
X102272953Y-70437910D01*
X102524042Y-70300805D01*
X102666561Y-70194115D01*
X102059610Y-69587164D01*
X102218069Y-69467501D01*
X102361652Y-69309999D01*
X102410561Y-69231007D01*
X103020115Y-69840561D01*
X103126805Y-69698042D01*
X103263910Y-69446953D01*
X103363887Y-69178903D01*
X103424700Y-68899353D01*
X103445109Y-68613999D01*
X103424700Y-68328646D01*
X103363887Y-68049096D01*
X103263910Y-67781046D01*
X103126805Y-67529957D01*
X103020115Y-67387437D01*
X102410560Y-67996991D01*
X102361652Y-67918001D01*
X102218069Y-67760499D01*
X102059609Y-67640834D01*
X102666562Y-67033882D01*
X102613046Y-66993821D01*
X102551715Y-66923718D01*
X102524199Y-66834731D01*
X102535258Y-66742245D01*
X102582977Y-66662253D01*
X102659107Y-66608586D01*
X102747284Y-66590500D01*
X110604500Y-66590500D01*
X110695609Y-66609866D01*
X110770964Y-66664615D01*
X110817537Y-66745280D01*
X110828500Y-66814500D01*
X110828500Y-99555500D01*
X110809134Y-99646609D01*
X110754385Y-99721964D01*
X110673720Y-99768537D01*
X110604500Y-99779500D01*
X78244500Y-99779500D01*
X78153391Y-99760134D01*
X78078036Y-99705385D01*
X78031463Y-99624720D01*
X78020500Y-99555500D01*
X78020500Y-98005159D01*
X78039866Y-97914050D01*
X78094615Y-97838695D01*
X78175280Y-97792122D01*
X78191590Y-97790407D01*
X78116019Y-97758330D01*
X78052495Y-97690209D01*
X78022170Y-97602139D01*
X78020500Y-97574840D01*
X78020500Y-95465159D01*
X78039866Y-95374050D01*
X78094615Y-95298695D01*
X78175280Y-95252122D01*
X78191590Y-95250407D01*
X78116019Y-95218330D01*
X78052495Y-95150209D01*
X78022170Y-95062139D01*
X78020500Y-95034840D01*
X78020500Y-92925159D01*
X78039866Y-92834050D01*
X78094615Y-92758695D01*
X78175280Y-92712122D01*
X78191590Y-92710407D01*
X78116019Y-92678330D01*
X78052495Y-92610209D01*
X78022170Y-92522139D01*
X78020500Y-92494840D01*
X78020500Y-90385159D01*
X78039866Y-90294050D01*
X78094615Y-90218695D01*
X78175280Y-90172122D01*
X78191590Y-90170407D01*
X78116019Y-90138330D01*
X78052495Y-90070209D01*
X78022170Y-89982139D01*
X78020500Y-89954840D01*
X78020500Y-87845159D01*
X78039866Y-87754050D01*
X78094615Y-87678695D01*
X78175280Y-87632122D01*
X78191590Y-87630407D01*
X78116019Y-87598330D01*
X78052495Y-87530209D01*
X78022170Y-87442139D01*
X78020500Y-87414840D01*
X78020500Y-85305159D01*
X78039866Y-85214050D01*
X78094615Y-85138695D01*
X78175280Y-85092122D01*
X78191590Y-85090407D01*
X78116019Y-85058330D01*
X78052495Y-84990209D01*
X78022170Y-84902139D01*
X78020500Y-84874840D01*
X78020500Y-82765159D01*
X78039866Y-82674050D01*
X78094615Y-82598695D01*
X78175280Y-82552122D01*
X78191590Y-82550407D01*
X78116019Y-82518330D01*
X78052495Y-82450209D01*
X78022170Y-82362139D01*
X78020500Y-82334840D01*
X78020500Y-80225159D01*
X78039866Y-80134050D01*
X78094615Y-80058695D01*
X78175280Y-80012122D01*
X78191590Y-80010407D01*
X78116019Y-79978330D01*
X78052495Y-79910209D01*
X78022170Y-79822139D01*
X78020500Y-79794840D01*
X78020500Y-77685159D01*
X78039866Y-77594050D01*
X78094615Y-77518695D01*
X78175280Y-77472122D01*
X78191590Y-77470407D01*
X78116019Y-77438330D01*
X78052495Y-77370209D01*
X78022170Y-77282139D01*
X78020500Y-77254840D01*
X78020500Y-75145159D01*
X78039866Y-75054050D01*
X78094615Y-74978695D01*
X78175280Y-74932122D01*
X78191590Y-74930407D01*
X78116019Y-74898330D01*
X78052495Y-74830209D01*
X78022170Y-74742139D01*
X78020500Y-74714840D01*
X78020500Y-72605159D01*
X78039866Y-72514050D01*
X78094615Y-72438695D01*
X78175280Y-72392122D01*
X78191590Y-72390407D01*
X78116019Y-72358330D01*
X78052495Y-72290209D01*
X78022170Y-72202139D01*
X78020500Y-72174840D01*
X78020500Y-70998195D01*
X78039866Y-70907086D01*
X78094615Y-70831731D01*
X78175280Y-70785158D01*
X78267914Y-70775422D01*
X78356500Y-70804205D01*
X78425720Y-70866531D01*
X78454377Y-70919917D01*
X78462645Y-70942087D01*
X78548810Y-71057189D01*
X78663912Y-71143353D01*
X78701178Y-71157253D01*
X78779775Y-71207237D01*
X78831247Y-71284868D01*
X78846694Y-71376722D01*
X78823444Y-71466918D01*
X78781293Y-71525520D01*
X78755952Y-71550861D01*
X78625431Y-71737265D01*
X78529260Y-71943504D01*
X78470365Y-72163304D01*
X78467648Y-72194363D01*
X78440415Y-72283437D01*
X78379307Y-72353734D01*
X78297351Y-72391950D01*
X78356500Y-72411169D01*
X78425720Y-72473495D01*
X78463605Y-72558587D01*
X78467648Y-72585637D01*
X78470365Y-72616695D01*
X78529260Y-72836495D01*
X78625431Y-73042734D01*
X78755951Y-73229137D01*
X78916862Y-73390048D01*
X79040343Y-73476510D01*
X79103867Y-73544631D01*
X79134192Y-73632701D01*
X79126074Y-73725491D01*
X79080917Y-73806957D01*
X79040343Y-73843490D01*
X78916862Y-73929951D01*
X78755951Y-74090862D01*
X78625431Y-74277265D01*
X78529260Y-74483504D01*
X78470365Y-74703304D01*
X78467648Y-74734363D01*
X78440415Y-74823437D01*
X78379307Y-74893734D01*
X78297351Y-74931950D01*
X78356500Y-74951169D01*
X78425720Y-75013495D01*
X78463605Y-75098587D01*
X78467648Y-75125637D01*
X78470365Y-75156695D01*
X78529260Y-75376495D01*
X78625431Y-75582734D01*
X78755951Y-75769137D01*
X78916862Y-75930048D01*
X79040343Y-76016510D01*
X79103867Y-76084631D01*
X79134192Y-76172701D01*
X79126074Y-76265491D01*
X79080917Y-76346957D01*
X79040343Y-76383490D01*
X78916862Y-76469951D01*
X78755951Y-76630862D01*
X78625431Y-76817265D01*
X78529260Y-77023504D01*
X78470365Y-77243304D01*
X78467648Y-77274363D01*
X78440415Y-77363437D01*
X78379307Y-77433734D01*
X78297351Y-77471950D01*
X78356500Y-77491169D01*
X78425720Y-77553495D01*
X78463605Y-77638587D01*
X78467648Y-77665637D01*
X78470365Y-77696695D01*
X78529260Y-77916495D01*
X78625431Y-78122734D01*
X78755951Y-78309137D01*
X78916862Y-78470048D01*
X79040343Y-78556510D01*
X79103867Y-78624631D01*
X79134192Y-78712701D01*
X79126074Y-78805491D01*
X79080917Y-78886957D01*
X79040343Y-78923490D01*
X78916862Y-79009951D01*
X78755951Y-79170862D01*
X78625431Y-79357265D01*
X78529260Y-79563504D01*
X78470365Y-79783304D01*
X78467648Y-79814363D01*
X78440415Y-79903437D01*
X78379307Y-79973734D01*
X78297351Y-80011950D01*
X78356500Y-80031169D01*
X78425720Y-80093495D01*
X78463605Y-80178587D01*
X78467648Y-80205637D01*
X78470365Y-80236695D01*
X78529260Y-80456495D01*
X78625431Y-80662734D01*
X78755951Y-80849137D01*
X78916862Y-81010048D01*
X79040343Y-81096510D01*
X79103867Y-81164631D01*
X79134192Y-81252701D01*
X79126074Y-81345491D01*
X79080917Y-81426957D01*
X79040343Y-81463490D01*
X78916862Y-81549951D01*
X78755951Y-81710862D01*
X78625431Y-81897265D01*
X78529260Y-82103504D01*
X78470365Y-82323304D01*
X78467648Y-82354363D01*
X78440415Y-82443437D01*
X78379307Y-82513734D01*
X78297351Y-82551950D01*
X78356500Y-82571169D01*
X78425720Y-82633495D01*
X78463605Y-82718587D01*
X78467648Y-82745637D01*
X78470365Y-82776695D01*
X78529260Y-82996495D01*
X78625431Y-83202734D01*
X78755951Y-83389137D01*
X78755953Y-83389138D01*
X78755953Y-83389139D01*
X78916861Y-83550047D01*
X79040343Y-83636509D01*
X79103867Y-83704629D01*
X79134192Y-83792699D01*
X79126075Y-83885489D01*
X79080918Y-83966955D01*
X79040344Y-84003489D01*
X78916860Y-84089953D01*
X78755951Y-84250862D01*
X78625431Y-84437265D01*
X78529260Y-84643504D01*
X78470365Y-84863304D01*
X78467648Y-84894363D01*
X78440415Y-84983437D01*
X78379307Y-85053734D01*
X78297351Y-85091950D01*
X78356500Y-85111169D01*
X78425720Y-85173495D01*
X78463605Y-85258587D01*
X78467648Y-85285637D01*
X78470365Y-85316695D01*
X78529260Y-85536495D01*
X78625431Y-85742734D01*
X78755951Y-85929137D01*
X78916862Y-86090048D01*
X79040343Y-86176510D01*
X79103867Y-86244631D01*
X79134192Y-86332701D01*
X79126074Y-86425491D01*
X79080917Y-86506957D01*
X79040343Y-86543490D01*
X78916862Y-86629951D01*
X78755951Y-86790862D01*
X78625431Y-86977265D01*
X78529260Y-87183504D01*
X78470365Y-87403304D01*
X78467648Y-87434363D01*
X78440415Y-87523437D01*
X78379307Y-87593734D01*
X78297351Y-87631950D01*
X78356500Y-87651169D01*
X78425720Y-87713495D01*
X78463605Y-87798587D01*
X78467648Y-87825637D01*
X78470365Y-87856695D01*
X78529260Y-88076495D01*
X78625431Y-88282734D01*
X78755951Y-88469137D01*
X78916862Y-88630048D01*
X79040343Y-88716510D01*
X79103867Y-88784631D01*
X79134192Y-88872701D01*
X79126074Y-88965491D01*
X79080917Y-89046957D01*
X79040343Y-89083490D01*
X78916862Y-89169951D01*
X78755951Y-89330862D01*
X78625431Y-89517265D01*
X78529260Y-89723504D01*
X78470365Y-89943304D01*
X78467648Y-89974363D01*
X78440415Y-90063437D01*
X78379307Y-90133734D01*
X78297351Y-90171950D01*
X78356500Y-90191169D01*
X78425720Y-90253495D01*
X78463605Y-90338587D01*
X78467648Y-90365637D01*
X78470365Y-90396695D01*
X78529260Y-90616495D01*
X78625431Y-90822734D01*
X78755951Y-91009137D01*
X78755953Y-91009139D01*
X78916861Y-91170047D01*
X79040343Y-91256509D01*
X79103867Y-91324629D01*
X79134192Y-91412699D01*
X79126075Y-91505489D01*
X79080918Y-91586955D01*
X79040344Y-91623489D01*
X78916860Y-91709953D01*
X78755951Y-91870862D01*
X78625431Y-92057265D01*
X78529260Y-92263504D01*
X78470365Y-92483304D01*
X78467648Y-92514363D01*
X78440415Y-92603437D01*
X78379307Y-92673734D01*
X78297351Y-92711950D01*
X78356500Y-92731169D01*
X78425720Y-92793495D01*
X78463605Y-92878587D01*
X78467648Y-92905637D01*
X78470365Y-92936695D01*
X78529260Y-93156495D01*
X78625431Y-93362734D01*
X78755951Y-93549137D01*
X78916862Y-93710048D01*
X79040343Y-93796510D01*
X79103867Y-93864631D01*
X79134192Y-93952701D01*
X79126074Y-94045491D01*
X79080917Y-94126957D01*
X79040343Y-94163490D01*
X78916862Y-94249951D01*
X78755951Y-94410862D01*
X78625431Y-94597265D01*
X78529260Y-94803504D01*
X78470365Y-95023304D01*
X78467648Y-95054363D01*
X78440415Y-95143437D01*
X78379307Y-95213734D01*
X78297351Y-95251950D01*
X78356500Y-95271169D01*
X78425720Y-95333495D01*
X78463605Y-95418587D01*
X78467648Y-95445637D01*
X78470365Y-95476695D01*
X78529260Y-95696495D01*
X78625431Y-95902734D01*
X78755951Y-96089137D01*
X78916862Y-96250048D01*
X79040343Y-96336510D01*
X79103867Y-96404631D01*
X79134192Y-96492701D01*
X79126074Y-96585491D01*
X79080917Y-96666957D01*
X79040343Y-96703490D01*
X78916862Y-96789951D01*
X78755951Y-96950862D01*
X78625431Y-97137265D01*
X78529260Y-97343504D01*
X78470365Y-97563304D01*
X78467648Y-97594363D01*
X78440415Y-97683437D01*
X78379307Y-97753734D01*
X78297351Y-97791950D01*
X78356500Y-97811169D01*
X78425720Y-97873495D01*
X78463605Y-97958587D01*
X78467648Y-97985637D01*
X78470365Y-98016695D01*
X78529260Y-98236495D01*
X78625431Y-98442734D01*
X78755951Y-98629137D01*
X78916862Y-98790048D01*
X79103265Y-98920568D01*
X79309503Y-99016738D01*
X79309504Y-99016739D01*
X79529308Y-99075635D01*
X79756000Y-99095468D01*
X79982692Y-99075635D01*
X80202496Y-99016739D01*
X80408734Y-98920568D01*
X80595139Y-98790047D01*
X80756047Y-98629139D01*
X80886568Y-98442734D01*
X80982739Y-98236496D01*
X81041635Y-98016692D01*
X81061468Y-97790000D01*
X83745849Y-97790000D01*
X83764411Y-97990315D01*
X83819463Y-98183805D01*
X83909136Y-98363890D01*
X84030368Y-98524428D01*
X84179040Y-98659960D01*
X84350075Y-98765861D01*
X84412509Y-98790048D01*
X84537666Y-98838534D01*
X84735414Y-98875500D01*
X84936586Y-98875500D01*
X85134334Y-98838534D01*
X85231154Y-98801024D01*
X85251679Y-98794195D01*
X85276739Y-98787183D01*
X85276742Y-98787181D01*
X85276744Y-98787181D01*
X86170986Y-98385194D01*
X86262025Y-98365501D01*
X86262828Y-98365500D01*
X98245603Y-98365500D01*
X98274839Y-98367415D01*
X98298000Y-98370465D01*
X98335708Y-98365500D01*
X98335719Y-98365500D01*
X98335720Y-98365500D01*
X98448236Y-98350687D01*
X98588233Y-98292698D01*
X98622724Y-98266232D01*
X98678268Y-98223612D01*
X98678269Y-98223610D01*
X98707699Y-98201028D01*
X98707698Y-98201028D01*
X98708451Y-98200451D01*
X98722671Y-98181917D01*
X98741982Y-98159896D01*
X99619878Y-97282000D01*
X106725550Y-97282000D01*
X106745316Y-97533146D01*
X106804126Y-97778111D01*
X106900533Y-98010859D01*
X107032164Y-98225659D01*
X107195775Y-98417224D01*
X107321297Y-98524429D01*
X107387341Y-98580836D01*
X107466161Y-98629137D01*
X107602140Y-98712466D01*
X107834888Y-98808873D01*
X107957370Y-98838277D01*
X108079852Y-98867683D01*
X108331000Y-98887449D01*
X108582148Y-98867683D01*
X108827111Y-98808873D01*
X109059859Y-98712466D01*
X109274659Y-98580836D01*
X109466224Y-98417224D01*
X109629836Y-98225659D01*
X109761466Y-98010859D01*
X109857873Y-97778111D01*
X109916683Y-97533148D01*
X109936449Y-97282000D01*
X109916683Y-97030852D01*
X109861622Y-96801506D01*
X109857873Y-96785888D01*
X109761466Y-96553140D01*
X109629835Y-96338340D01*
X109466224Y-96146775D01*
X109274659Y-95983164D01*
X109059859Y-95851533D01*
X108827111Y-95755126D01*
X108582146Y-95696316D01*
X108331000Y-95676550D01*
X108079853Y-95696316D01*
X107834888Y-95755126D01*
X107602140Y-95851533D01*
X107387340Y-95983164D01*
X107195775Y-96146775D01*
X107032164Y-96338340D01*
X106900533Y-96553140D01*
X106804126Y-96785888D01*
X106745316Y-97030853D01*
X106725550Y-97282000D01*
X99619878Y-97282000D01*
X100040018Y-96861860D01*
X100118134Y-96811132D01*
X100150181Y-96801506D01*
X100876612Y-96641363D01*
X100945170Y-96620476D01*
X100948587Y-96619133D01*
X101048707Y-96564430D01*
X101048709Y-96564427D01*
X101062148Y-96557085D01*
X101151387Y-96530395D01*
X101243766Y-96542308D01*
X101305915Y-96575946D01*
X101342000Y-96603635D01*
X101555489Y-96546431D01*
X101769574Y-96446602D01*
X101963078Y-96311108D01*
X102130108Y-96144078D01*
X102265602Y-95950574D01*
X102365431Y-95736490D01*
X102426568Y-95508324D01*
X102438408Y-95373000D01*
X102069663Y-95373000D01*
X101978554Y-95353634D01*
X101903199Y-95298885D01*
X101856626Y-95218220D01*
X101846890Y-95125586D01*
X101875673Y-95037000D01*
X101911271Y-94990608D01*
X101963271Y-94938608D01*
X102041389Y-94887878D01*
X102121663Y-94873000D01*
X102438407Y-94873000D01*
X102426568Y-94737675D01*
X102375145Y-94545762D01*
X102370270Y-94452745D01*
X102403649Y-94365787D01*
X102469512Y-94299924D01*
X102556470Y-94266544D01*
X102591512Y-94263786D01*
X106836786Y-94263786D01*
X106836786Y-90684214D01*
X102399500Y-90684214D01*
X102308391Y-90664848D01*
X102233036Y-90610099D01*
X102186463Y-90529434D01*
X102175500Y-90460214D01*
X102175500Y-88850163D01*
X102194866Y-88759054D01*
X102241108Y-88691772D01*
X102395029Y-88537850D01*
X102473146Y-88487119D01*
X102473565Y-88486959D01*
X103396497Y-88136425D01*
X103396805Y-88136303D01*
X103441328Y-88115832D01*
X103441330Y-88115829D01*
X103460722Y-88106914D01*
X103473386Y-88101556D01*
X103482922Y-88097862D01*
X103495751Y-88089919D01*
X103653959Y-87991960D01*
X103653959Y-87991959D01*
X103653962Y-87991958D01*
X103802631Y-87856429D01*
X103923864Y-87695890D01*
X104013535Y-87515808D01*
X104030857Y-87454929D01*
X104068588Y-87322315D01*
X104087150Y-87121999D01*
X104068588Y-86921684D01*
X104013536Y-86728194D01*
X103923864Y-86548111D01*
X103923864Y-86548110D01*
X103802631Y-86387571D01*
X103724932Y-86316739D01*
X103653959Y-86252039D01*
X103624825Y-86234000D01*
X106746364Y-86234000D01*
X106803568Y-86447490D01*
X106903398Y-86661575D01*
X107038891Y-86855079D01*
X107088652Y-86904840D01*
X107139382Y-86982958D01*
X107153953Y-87074955D01*
X107129845Y-87164926D01*
X107071228Y-87237313D01*
X107025478Y-87262822D01*
X106904849Y-87351849D01*
X106824207Y-87461116D01*
X106779354Y-87589299D01*
X106779353Y-87589301D01*
X106779354Y-87589301D01*
X106776500Y-87619734D01*
X106776500Y-89428266D01*
X106779070Y-89455676D01*
X106779354Y-89458700D01*
X106824207Y-89586883D01*
X106904849Y-89696150D01*
X107014116Y-89776792D01*
X107014117Y-89776792D01*
X107014118Y-89776793D01*
X107142301Y-89821646D01*
X107172734Y-89824500D01*
X107177974Y-89824500D01*
X108976026Y-89824500D01*
X108981266Y-89824500D01*
X109011699Y-89821646D01*
X109139882Y-89776793D01*
X109249150Y-89696150D01*
X109329793Y-89586882D01*
X109374646Y-89458699D01*
X109377500Y-89428266D01*
X109377500Y-87619734D01*
X109374646Y-87589301D01*
X109329793Y-87461118D01*
X109329792Y-87461116D01*
X109249150Y-87351849D01*
X109120358Y-87256797D01*
X109070154Y-87226289D01*
X109017111Y-87149724D01*
X108999795Y-87058203D01*
X109021202Y-86967552D01*
X109065348Y-86904839D01*
X109115108Y-86855078D01*
X109250601Y-86661575D01*
X109350431Y-86447490D01*
X109407636Y-86234000D01*
X108510686Y-86234000D01*
X108536493Y-86193844D01*
X108577000Y-86055889D01*
X108577000Y-85912111D01*
X108536493Y-85774156D01*
X108510686Y-85734000D01*
X109407636Y-85734000D01*
X109350431Y-85520511D01*
X109250600Y-85306423D01*
X109115108Y-85112921D01*
X108948079Y-84945891D01*
X108754575Y-84810398D01*
X108540490Y-84710568D01*
X108326999Y-84653363D01*
X108326999Y-85548498D01*
X108219315Y-85499320D01*
X108112763Y-85484000D01*
X108041237Y-85484000D01*
X107934685Y-85499320D01*
X107826999Y-85548498D01*
X107826999Y-84653363D01*
X107613511Y-84710568D01*
X107399423Y-84810399D01*
X107205921Y-84945891D01*
X107038891Y-85112921D01*
X106903399Y-85306423D01*
X106803568Y-85520511D01*
X106746364Y-85734000D01*
X107643314Y-85734000D01*
X107617507Y-85774156D01*
X107577000Y-85912111D01*
X107577000Y-86055889D01*
X107617507Y-86193844D01*
X107643314Y-86234000D01*
X106746364Y-86234000D01*
X103624825Y-86234000D01*
X103482924Y-86146138D01*
X103295333Y-86073465D01*
X103097586Y-86036500D01*
X102896414Y-86036500D01*
X102698666Y-86073465D01*
X102511075Y-86146138D01*
X102340040Y-86252039D01*
X102191368Y-86387571D01*
X102070134Y-86548111D01*
X101983218Y-86722657D01*
X101980555Y-86727689D01*
X101632154Y-87645113D01*
X101581704Y-87723412D01*
X101581138Y-87723980D01*
X101230108Y-88075010D01*
X101208086Y-88094323D01*
X101189550Y-88108546D01*
X101166389Y-88138730D01*
X101167876Y-88136770D01*
X101113621Y-88207500D01*
X101097302Y-88228767D01*
X101039313Y-88368762D01*
X101024500Y-88481281D01*
X101024500Y-88481286D01*
X101019535Y-88518999D01*
X101022584Y-88542160D01*
X101024500Y-88571397D01*
X101024500Y-93158495D01*
X101005134Y-93249604D01*
X100952779Y-93322772D01*
X100558203Y-93688530D01*
X100558189Y-93688543D01*
X100556223Y-93690366D01*
X100554359Y-93692265D01*
X100554339Y-93692286D01*
X100543990Y-93702839D01*
X100525868Y-93721317D01*
X100524398Y-93722966D01*
X100523901Y-93723641D01*
X100523407Y-93724041D01*
X100522269Y-93725259D01*
X100523304Y-93724125D01*
X100452266Y-93781605D01*
X100445319Y-93784992D01*
X100414420Y-93799400D01*
X100220923Y-93934889D01*
X100126919Y-94028893D01*
X100048801Y-94079622D01*
X99956804Y-94094193D01*
X99866833Y-94070085D01*
X99794447Y-94011467D01*
X99776833Y-93986384D01*
X99747471Y-93937814D01*
X99627185Y-93817528D01*
X99538166Y-93763714D01*
X99481606Y-93729522D01*
X99319196Y-93678914D01*
X99253659Y-93672958D01*
X99253652Y-93672957D01*
X99248616Y-93672500D01*
X97935384Y-93672500D01*
X97930348Y-93672957D01*
X97930340Y-93672958D01*
X97864803Y-93678914D01*
X97702394Y-93729522D01*
X97556814Y-93817528D01*
X97436528Y-93937814D01*
X97348522Y-94083394D01*
X97297914Y-94245803D01*
X97292497Y-94305415D01*
X97291500Y-94316384D01*
X97291500Y-95929616D01*
X97291957Y-95934652D01*
X97291958Y-95934659D01*
X97296366Y-95983164D01*
X97297914Y-96000196D01*
X97348522Y-96162606D01*
X97436528Y-96308185D01*
X97556815Y-96428472D01*
X97702394Y-96516478D01*
X97864804Y-96567086D01*
X97935384Y-96573500D01*
X98159836Y-96573500D01*
X98250945Y-96592866D01*
X98326300Y-96647615D01*
X98372873Y-96728280D01*
X98382609Y-96820914D01*
X98353826Y-96909500D01*
X98318228Y-96955892D01*
X98125228Y-97148892D01*
X98047110Y-97199622D01*
X97966836Y-97214500D01*
X86262814Y-97214500D01*
X86171705Y-97195134D01*
X86170981Y-97194810D01*
X85272271Y-96790860D01*
X85272265Y-96790857D01*
X85270673Y-96790142D01*
X85270400Y-96790024D01*
X85267605Y-96788990D01*
X85267580Y-96788980D01*
X85213514Y-96768980D01*
X85187402Y-96762024D01*
X85134333Y-96741465D01*
X84936586Y-96704500D01*
X84735414Y-96704500D01*
X84537666Y-96741465D01*
X84350075Y-96814138D01*
X84179040Y-96920039D01*
X84030368Y-97055571D01*
X83909136Y-97216109D01*
X83819463Y-97396194D01*
X83764411Y-97589684D01*
X83745849Y-97790000D01*
X81061468Y-97790000D01*
X81041635Y-97563308D01*
X80982739Y-97343504D01*
X80923334Y-97216110D01*
X80886568Y-97137265D01*
X80756048Y-96950862D01*
X80595139Y-96789953D01*
X80471657Y-96703491D01*
X80408132Y-96635370D01*
X80377807Y-96547300D01*
X80385924Y-96454510D01*
X80431081Y-96373044D01*
X80471657Y-96336509D01*
X80595139Y-96250047D01*
X80756047Y-96089139D01*
X80886568Y-95902734D01*
X80982739Y-95696496D01*
X81041635Y-95476692D01*
X81061468Y-95250000D01*
X81041635Y-95023308D01*
X80997498Y-94858584D01*
X92866060Y-94858584D01*
X92866728Y-94860503D01*
X92866170Y-94858877D01*
X92866060Y-94858584D01*
X80997498Y-94858584D01*
X80982739Y-94803504D01*
X80957552Y-94749490D01*
X80886568Y-94597265D01*
X80756048Y-94410862D01*
X80595139Y-94249953D01*
X80471657Y-94163491D01*
X80408132Y-94095370D01*
X80377807Y-94007300D01*
X80385924Y-93914510D01*
X80431081Y-93833044D01*
X80471657Y-93796509D01*
X80488105Y-93784992D01*
X80595139Y-93710047D01*
X80756047Y-93549139D01*
X80886568Y-93362734D01*
X80982739Y-93156496D01*
X81041635Y-92936692D01*
X81056131Y-92771000D01*
X88698849Y-92771000D01*
X88717411Y-92971315D01*
X88772463Y-93164805D01*
X88862136Y-93344890D01*
X88983368Y-93505428D01*
X89132040Y-93640960D01*
X89303075Y-93746861D01*
X89392760Y-93781605D01*
X89490666Y-93819534D01*
X89688414Y-93856500D01*
X89889586Y-93856500D01*
X90087334Y-93819534D01*
X90274922Y-93746862D01*
X90311644Y-93724125D01*
X90445959Y-93640960D01*
X90445959Y-93640959D01*
X90445962Y-93640958D01*
X90594631Y-93505429D01*
X90715864Y-93344890D01*
X90805535Y-93164808D01*
X90860588Y-92971315D01*
X90879150Y-92771000D01*
X90860588Y-92570685D01*
X90805535Y-92377192D01*
X90800811Y-92367705D01*
X90787683Y-92333596D01*
X90384194Y-91436013D01*
X90364501Y-91344974D01*
X90364500Y-91344171D01*
X90364500Y-91088818D01*
X90383866Y-90997709D01*
X90384190Y-90996983D01*
X90788542Y-90097400D01*
X90788674Y-90097096D01*
X90795299Y-90079230D01*
X90804806Y-90057271D01*
X90805535Y-90055808D01*
X90826496Y-89982139D01*
X90860588Y-89862315D01*
X90879150Y-89662000D01*
X90860588Y-89461684D01*
X90805536Y-89268194D01*
X90756616Y-89169951D01*
X90715864Y-89088110D01*
X90594631Y-88927571D01*
X90509718Y-88850163D01*
X90445959Y-88792039D01*
X90274924Y-88686138D01*
X90087333Y-88613465D01*
X89889586Y-88576500D01*
X89688414Y-88576500D01*
X89490666Y-88613465D01*
X89303075Y-88686138D01*
X89132040Y-88792039D01*
X88983368Y-88927571D01*
X88862136Y-89088109D01*
X88772463Y-89268194D01*
X88717411Y-89461684D01*
X88698849Y-89662000D01*
X88717411Y-89862313D01*
X88772465Y-90055809D01*
X88777192Y-90065302D01*
X88790329Y-90099432D01*
X89193806Y-90996982D01*
X89213499Y-91088021D01*
X89213500Y-91088824D01*
X89213500Y-91344185D01*
X89194134Y-91435294D01*
X89193811Y-91436016D01*
X88789530Y-92335488D01*
X88789524Y-92335502D01*
X88788839Y-92337027D01*
X88788734Y-92337271D01*
X88787714Y-92340034D01*
X88787706Y-92340055D01*
X88782612Y-92353860D01*
X88772987Y-92376142D01*
X88772465Y-92377189D01*
X88717411Y-92570686D01*
X88698849Y-92771000D01*
X81056131Y-92771000D01*
X81061468Y-92710000D01*
X81041635Y-92483308D01*
X80982739Y-92263504D01*
X80886568Y-92057266D01*
X80886568Y-92057265D01*
X80756048Y-91870862D01*
X80595137Y-91709951D01*
X80471656Y-91623489D01*
X80408132Y-91555368D01*
X80377807Y-91467298D01*
X80385925Y-91374508D01*
X80431082Y-91293042D01*
X80471655Y-91256510D01*
X80595139Y-91170047D01*
X80756047Y-91009139D01*
X80886568Y-90822734D01*
X80982739Y-90616496D01*
X81041635Y-90396692D01*
X81061468Y-90170000D01*
X81041635Y-89943308D01*
X80982739Y-89723504D01*
X80886568Y-89517266D01*
X80886568Y-89517265D01*
X80756048Y-89330862D01*
X80595139Y-89169953D01*
X80478254Y-89088110D01*
X80471656Y-89083490D01*
X80408132Y-89015370D01*
X80377807Y-88927300D01*
X80385924Y-88834510D01*
X80431081Y-88753044D01*
X80471657Y-88716509D01*
X80478461Y-88711745D01*
X80595139Y-88630047D01*
X80756047Y-88469139D01*
X80886568Y-88282734D01*
X80982739Y-88076496D01*
X81041635Y-87856692D01*
X81061468Y-87630000D01*
X81041635Y-87403308D01*
X81000288Y-87248999D01*
X91273416Y-87248999D01*
X91293699Y-87454930D01*
X91293699Y-87454932D01*
X91293700Y-87454934D01*
X91353768Y-87652954D01*
X91431611Y-87798587D01*
X91451315Y-87835450D01*
X91554277Y-87960910D01*
X91569484Y-87981814D01*
X91569552Y-87981891D01*
X91569553Y-87981893D01*
X91707155Y-88138732D01*
X91780947Y-88222839D01*
X91819514Y-88284846D01*
X91826302Y-88301233D01*
X91895375Y-88391252D01*
X91886457Y-88380367D01*
X91889053Y-88385021D01*
X91895390Y-88391270D01*
X91918548Y-88421450D01*
X91937081Y-88435671D01*
X91959110Y-88454990D01*
X92161979Y-88657859D01*
X92171968Y-88668522D01*
X92199688Y-88700117D01*
X92209727Y-88711188D01*
X92210249Y-88711745D01*
X92251992Y-88751014D01*
X92251996Y-88751016D01*
X92269397Y-88767386D01*
X92269378Y-88767406D01*
X92279242Y-88775123D01*
X92449891Y-88945771D01*
X92500622Y-89023888D01*
X92515500Y-89104163D01*
X92515500Y-93599567D01*
X92515152Y-93612052D01*
X92514628Y-93621434D01*
X92515500Y-93633810D01*
X92515500Y-93673602D01*
X92513584Y-93702839D01*
X92510534Y-93725999D01*
X92515500Y-93763714D01*
X92515500Y-93763719D01*
X92530313Y-93876237D01*
X92575490Y-93985303D01*
X92586328Y-94011467D01*
X92588302Y-94016233D01*
X92604991Y-94037982D01*
X92641914Y-94110248D01*
X92858517Y-94835559D01*
X92859385Y-94838273D01*
X92865254Y-94856177D01*
X92865265Y-94856206D01*
X92865779Y-94857777D01*
X92866170Y-94858877D01*
X92867780Y-94862550D01*
X92868917Y-94865419D01*
X92875025Y-94882912D01*
X92877768Y-94891954D01*
X92975315Y-95074450D01*
X93106590Y-95234410D01*
X93266550Y-95365685D01*
X93449046Y-95463232D01*
X93647066Y-95523300D01*
X93801516Y-95538512D01*
X93852999Y-95543583D01*
X93852999Y-95543582D01*
X93853000Y-95543583D01*
X94058934Y-95523300D01*
X94256954Y-95463232D01*
X94439450Y-95365685D01*
X94599410Y-95234410D01*
X94730685Y-95074450D01*
X94828232Y-94891954D01*
X94888300Y-94693934D01*
X94908583Y-94488000D01*
X94888300Y-94282066D01*
X94828232Y-94084046D01*
X94730685Y-93901550D01*
X94599410Y-93741590D01*
X94439450Y-93610315D01*
X94256954Y-93512768D01*
X94256952Y-93512767D01*
X94249511Y-93508790D01*
X94249169Y-93509690D01*
X94233482Y-93503715D01*
X94233479Y-93503714D01*
X93810776Y-93342730D01*
X93732526Y-93292207D01*
X93681590Y-93214223D01*
X93666500Y-93133398D01*
X93666500Y-88825404D01*
X93668416Y-88796167D01*
X93668959Y-88792039D01*
X93671466Y-88773000D01*
X93651687Y-88622765D01*
X93647835Y-88613466D01*
X93625814Y-88560302D01*
X93593699Y-88482768D01*
X93524612Y-88392732D01*
X93524609Y-88392729D01*
X93501451Y-88362549D01*
X93482910Y-88348322D01*
X93460889Y-88329009D01*
X93307281Y-88175401D01*
X93256551Y-88097283D01*
X93241980Y-88005286D01*
X93246335Y-87971546D01*
X93270141Y-87856695D01*
X93327383Y-87580534D01*
X93327383Y-87580527D01*
X93327883Y-87578117D01*
X93332861Y-87558575D01*
X93364300Y-87454934D01*
X93384583Y-87249000D01*
X93364300Y-87043066D01*
X93304232Y-86845046D01*
X93206685Y-86662550D01*
X93075410Y-86502590D01*
X92915450Y-86371315D01*
X92732954Y-86273768D01*
X92534934Y-86213700D01*
X92534932Y-86213699D01*
X92534930Y-86213699D01*
X92329000Y-86193416D01*
X92123069Y-86213699D01*
X92123065Y-86213700D01*
X92123066Y-86213700D01*
X91925046Y-86273768D01*
X91925044Y-86273768D01*
X91925044Y-86273769D01*
X91742553Y-86371313D01*
X91742551Y-86371314D01*
X91742550Y-86371315D01*
X91582590Y-86502590D01*
X91452116Y-86661575D01*
X91451313Y-86662553D01*
X91382731Y-86790861D01*
X91353768Y-86845046D01*
X91330520Y-86921685D01*
X91293699Y-87043069D01*
X91273416Y-87248999D01*
X81000288Y-87248999D01*
X80982739Y-87183504D01*
X80954059Y-87121999D01*
X80886568Y-86977265D01*
X80756048Y-86790862D01*
X80595139Y-86629953D01*
X80478254Y-86548110D01*
X80471656Y-86543490D01*
X80408132Y-86475370D01*
X80377807Y-86387300D01*
X80385924Y-86294510D01*
X80431081Y-86213044D01*
X80471657Y-86176509D01*
X80595139Y-86090047D01*
X80756047Y-85929139D01*
X80886568Y-85742734D01*
X80982739Y-85536496D01*
X81041635Y-85316692D01*
X81061468Y-85090000D01*
X81041635Y-84863308D01*
X80982739Y-84643504D01*
X80886568Y-84437266D01*
X80886568Y-84437265D01*
X80756048Y-84250862D01*
X80595137Y-84089951D01*
X80471656Y-84003489D01*
X80408132Y-83935368D01*
X80377807Y-83847298D01*
X80385925Y-83754508D01*
X80431082Y-83673042D01*
X80471655Y-83636510D01*
X80595139Y-83550047D01*
X80756047Y-83389139D01*
X80886568Y-83202734D01*
X80942530Y-83082723D01*
X80998584Y-83008337D01*
X81080050Y-82963179D01*
X81172840Y-82955061D01*
X81260910Y-82985385D01*
X81329032Y-83048909D01*
X81346057Y-83077543D01*
X81369134Y-83123887D01*
X81490368Y-83284428D01*
X81639040Y-83419960D01*
X81810075Y-83525861D01*
X81926585Y-83570997D01*
X81997666Y-83598534D01*
X82195414Y-83635500D01*
X82396586Y-83635500D01*
X82594334Y-83598534D01*
X82691154Y-83561024D01*
X82711679Y-83554195D01*
X82736739Y-83547183D01*
X82736742Y-83547181D01*
X82736744Y-83547181D01*
X83630986Y-83145194D01*
X83722025Y-83125501D01*
X83722828Y-83125500D01*
X84171180Y-83125500D01*
X84262289Y-83144866D01*
X84263015Y-83145190D01*
X84496440Y-83250111D01*
X85162599Y-83549542D01*
X85162903Y-83549674D01*
X85209429Y-83566929D01*
X85209431Y-83566929D01*
X85220399Y-83570997D01*
X85246597Y-83577975D01*
X85299666Y-83598534D01*
X85497414Y-83635500D01*
X85698586Y-83635500D01*
X85896334Y-83598534D01*
X86083922Y-83525862D01*
X86254962Y-83419958D01*
X86403631Y-83284429D01*
X86524864Y-83123890D01*
X86614535Y-82943808D01*
X86669588Y-82750315D01*
X86688150Y-82550000D01*
X86670742Y-82362139D01*
X86669588Y-82349684D01*
X86614536Y-82156194D01*
X86576456Y-82079720D01*
X86524864Y-81976110D01*
X86403631Y-81815571D01*
X86398875Y-81811235D01*
X86254959Y-81680039D01*
X86083924Y-81574138D01*
X85896333Y-81501465D01*
X85698586Y-81464500D01*
X85497414Y-81464500D01*
X85299667Y-81501465D01*
X85202860Y-81538968D01*
X85182312Y-81545805D01*
X85157261Y-81552815D01*
X84263014Y-81954806D01*
X84171975Y-81974499D01*
X84171172Y-81974500D01*
X83722814Y-81974500D01*
X83631705Y-81955134D01*
X83630981Y-81954810D01*
X82732271Y-81550860D01*
X82732265Y-81550857D01*
X82730673Y-81550142D01*
X82730400Y-81550024D01*
X82727605Y-81548990D01*
X82727580Y-81548980D01*
X82673514Y-81528980D01*
X82647402Y-81522024D01*
X82594333Y-81501465D01*
X82396586Y-81464500D01*
X82195414Y-81464500D01*
X81997666Y-81501465D01*
X81810075Y-81574138D01*
X81639040Y-81680039D01*
X81490368Y-81815571D01*
X81369134Y-81976112D01*
X81346056Y-82022458D01*
X81288109Y-82095382D01*
X81205510Y-82138432D01*
X81112542Y-82144164D01*
X81025280Y-82111587D01*
X80958812Y-82046334D01*
X80942529Y-82017274D01*
X80886568Y-81897265D01*
X80756048Y-81710862D01*
X80595139Y-81549953D01*
X80525890Y-81501465D01*
X80471656Y-81463490D01*
X80408132Y-81395370D01*
X80377807Y-81307300D01*
X80385924Y-81214510D01*
X80431081Y-81133044D01*
X80471657Y-81096509D01*
X80595139Y-81010047D01*
X80756047Y-80849139D01*
X80886568Y-80662734D01*
X80982739Y-80456496D01*
X81041635Y-80236692D01*
X81061468Y-80010000D01*
X81041635Y-79783308D01*
X80982739Y-79563504D01*
X80913541Y-79415109D01*
X80886568Y-79357265D01*
X80756048Y-79170862D01*
X80595138Y-79009952D01*
X80492040Y-78937763D01*
X80428515Y-78869641D01*
X80398190Y-78781572D01*
X80406307Y-78688782D01*
X80451464Y-78607316D01*
X80525851Y-78551259D01*
X80705613Y-78467919D01*
X81081839Y-78293497D01*
X81172642Y-78272745D01*
X81264035Y-78290720D01*
X81334447Y-78338327D01*
X82487009Y-79490889D01*
X82506322Y-79512910D01*
X82520549Y-79531451D01*
X82550729Y-79554609D01*
X82550732Y-79554612D01*
X82640768Y-79623699D01*
X82722776Y-79657667D01*
X82780764Y-79681687D01*
X82893280Y-79696500D01*
X82931000Y-79701466D01*
X82954166Y-79698416D01*
X82983404Y-79696500D01*
X89910303Y-79696500D01*
X90001412Y-79715866D01*
X90076767Y-79770615D01*
X90123340Y-79851280D01*
X90124082Y-79853607D01*
X90287807Y-80376844D01*
X90288597Y-80379226D01*
X90292311Y-80390175D01*
X90295540Y-80400557D01*
X90296466Y-80403810D01*
X90301196Y-80413311D01*
X90314331Y-80447435D01*
X90496404Y-80852463D01*
X90708041Y-81323261D01*
X90717806Y-81344982D01*
X90737499Y-81436021D01*
X90737500Y-81436824D01*
X90737500Y-81989602D01*
X90735584Y-82018839D01*
X90732534Y-82041999D01*
X90737500Y-82079714D01*
X90737500Y-82079719D01*
X90752313Y-82192237D01*
X90795294Y-82296001D01*
X90806605Y-82323308D01*
X90810302Y-82332233D01*
X90879388Y-82422268D01*
X90879390Y-82422270D01*
X90885865Y-82430708D01*
X90885866Y-82430710D01*
X90902548Y-82452450D01*
X90921081Y-82466671D01*
X90943110Y-82485990D01*
X91123009Y-82665889D01*
X91142322Y-82687910D01*
X91156549Y-82706451D01*
X91186729Y-82729609D01*
X91186732Y-82729612D01*
X91213713Y-82750315D01*
X91276767Y-82798698D01*
X91416764Y-82856687D01*
X91529279Y-82871499D01*
X91526710Y-82871331D01*
X91529290Y-82871500D01*
X91549875Y-82874210D01*
X91566998Y-82876465D01*
X91566999Y-82876464D01*
X91567000Y-82876465D01*
X91590160Y-82873415D01*
X91619397Y-82871500D01*
X92784603Y-82871500D01*
X92813839Y-82873415D01*
X92837000Y-82876465D01*
X92874708Y-82871500D01*
X92874719Y-82871500D01*
X92874720Y-82871500D01*
X92987236Y-82856687D01*
X93127233Y-82798698D01*
X93190287Y-82750315D01*
X93217268Y-82729612D01*
X93217268Y-82729610D01*
X93246696Y-82707031D01*
X93246702Y-82707025D01*
X93247451Y-82706451D01*
X93261673Y-82687916D01*
X93280982Y-82665896D01*
X93841896Y-82104982D01*
X93863917Y-82085671D01*
X93882451Y-82071451D01*
X93882723Y-82071095D01*
X93883024Y-82070705D01*
X93933990Y-82004285D01*
X93974699Y-81951232D01*
X94026952Y-81825081D01*
X94032687Y-81811236D01*
X94040222Y-81754000D01*
X99434890Y-81754000D01*
X99455299Y-82039353D01*
X99516112Y-82318903D01*
X99616089Y-82586953D01*
X99753196Y-82838046D01*
X99859882Y-82980561D01*
X100469437Y-82371006D01*
X100518348Y-82449999D01*
X100661931Y-82607501D01*
X100820388Y-82727163D01*
X100213437Y-83334115D01*
X100355957Y-83440805D01*
X100607046Y-83577910D01*
X100875096Y-83677887D01*
X101154646Y-83738700D01*
X101440000Y-83759109D01*
X101725353Y-83738700D01*
X102004903Y-83677887D01*
X102272953Y-83577910D01*
X102524042Y-83440805D01*
X102666561Y-83334115D01*
X102059610Y-82727164D01*
X102218069Y-82607501D01*
X102361652Y-82449999D01*
X102410561Y-82371007D01*
X103020115Y-82980561D01*
X103126805Y-82838042D01*
X103263910Y-82586953D01*
X103363887Y-82318903D01*
X103424700Y-82039353D01*
X103445109Y-81753999D01*
X103424700Y-81468646D01*
X103363887Y-81189096D01*
X103263910Y-80921046D01*
X103126805Y-80669957D01*
X103020115Y-80527437D01*
X102410560Y-81136991D01*
X102361652Y-81058001D01*
X102218069Y-80900499D01*
X102059609Y-80780834D01*
X102666562Y-80173882D01*
X102524046Y-80067196D01*
X102272953Y-79930089D01*
X102004903Y-79830112D01*
X101725353Y-79769299D01*
X101440000Y-79748890D01*
X101154646Y-79769299D01*
X100875096Y-79830112D01*
X100607046Y-79930089D01*
X100355953Y-80067196D01*
X100213437Y-80173882D01*
X100213437Y-80173883D01*
X100820389Y-80780835D01*
X100661931Y-80900499D01*
X100518348Y-81058001D01*
X100469438Y-81136992D01*
X99859883Y-80527437D01*
X99859882Y-80527437D01*
X99753196Y-80669953D01*
X99616089Y-80921046D01*
X99516112Y-81189096D01*
X99455299Y-81468646D01*
X99434890Y-81754000D01*
X94040222Y-81754000D01*
X94047500Y-81698720D01*
X94052466Y-81661000D01*
X94049416Y-81637832D01*
X94047500Y-81608595D01*
X94047500Y-81065500D01*
X94066866Y-80974391D01*
X94121615Y-80899036D01*
X94202280Y-80852463D01*
X94271500Y-80841500D01*
X94432086Y-80841500D01*
X94629834Y-80804534D01*
X94817422Y-80731862D01*
X94988462Y-80625958D01*
X95137131Y-80490429D01*
X95258364Y-80329890D01*
X95348035Y-80149808D01*
X95352519Y-80134050D01*
X95403088Y-79956315D01*
X95418051Y-79794840D01*
X95421650Y-79756000D01*
X95416136Y-79696500D01*
X95409390Y-79623698D01*
X95403088Y-79555685D01*
X95363091Y-79415109D01*
X95361579Y-79407174D01*
X95361270Y-79407253D01*
X95245392Y-78951354D01*
X95241717Y-78858282D01*
X95276216Y-78771761D01*
X95304092Y-78737786D01*
X95365896Y-78675982D01*
X95387917Y-78656671D01*
X95406451Y-78642451D01*
X95407021Y-78641707D01*
X95407025Y-78641704D01*
X95438590Y-78600568D01*
X95498699Y-78522233D01*
X95509086Y-78497154D01*
X95551897Y-78393802D01*
X95556685Y-78382240D01*
X95556687Y-78382236D01*
X95571500Y-78269720D01*
X95571500Y-78269714D01*
X95576465Y-78232000D01*
X95575896Y-78227681D01*
X95573416Y-78208839D01*
X95571500Y-78179602D01*
X95571500Y-77753818D01*
X95590866Y-77662709D01*
X95591190Y-77661983D01*
X95644530Y-77543315D01*
X95995542Y-76762400D01*
X95995674Y-76762096D01*
X96002299Y-76744230D01*
X96011806Y-76722271D01*
X96012535Y-76720808D01*
X96067588Y-76527315D01*
X96086150Y-76327000D01*
X96083438Y-76297727D01*
X96067588Y-76126684D01*
X96012536Y-75933194D01*
X96004223Y-75916499D01*
X95922864Y-75753110D01*
X95801631Y-75592571D01*
X95729253Y-75526590D01*
X95674970Y-75450899D01*
X95656166Y-75359673D01*
X95676093Y-75268685D01*
X95729254Y-75195515D01*
X95772131Y-75156429D01*
X95893364Y-74995890D01*
X95983035Y-74815808D01*
X96003996Y-74742139D01*
X96038088Y-74622315D01*
X96056650Y-74422000D01*
X96038088Y-74221684D01*
X95983036Y-74028194D01*
X95893364Y-73848111D01*
X95893364Y-73848110D01*
X95772131Y-73687571D01*
X95623462Y-73552042D01*
X95611493Y-73544631D01*
X95607372Y-73542079D01*
X95540105Y-73477650D01*
X95504860Y-73391431D01*
X95507730Y-73298331D01*
X95548219Y-73214447D01*
X95607372Y-73161185D01*
X95652962Y-73132958D01*
X95801631Y-72997429D01*
X95922864Y-72836890D01*
X96012535Y-72656808D01*
X96046339Y-72538000D01*
X96067588Y-72463315D01*
X96086150Y-72262999D01*
X96067588Y-72062686D01*
X96067588Y-72062685D01*
X96015474Y-71879523D01*
X96014388Y-71874714D01*
X96013632Y-71872408D01*
X96011034Y-71863919D01*
X96009609Y-71858912D01*
X96007607Y-71854028D01*
X95992518Y-71808000D01*
X95707645Y-70938987D01*
X95696500Y-70869210D01*
X95696500Y-70639922D01*
X95696909Y-70626395D01*
X95700357Y-70569395D01*
X95690061Y-70513211D01*
X95688025Y-70499834D01*
X95681140Y-70443128D01*
X95680770Y-70442152D01*
X95669881Y-70403090D01*
X95669694Y-70402068D01*
X95646245Y-70349968D01*
X95641084Y-70337509D01*
X95620818Y-70284070D01*
X95620224Y-70283209D01*
X95600300Y-70247884D01*
X95599877Y-70246943D01*
X95599875Y-70246940D01*
X95599874Y-70246938D01*
X95564663Y-70201996D01*
X95556642Y-70191096D01*
X95524183Y-70144071D01*
X95481423Y-70106189D01*
X95471571Y-70096915D01*
X95003077Y-69628420D01*
X94993803Y-69618568D01*
X94955929Y-69575817D01*
X94908922Y-69543370D01*
X94898027Y-69535353D01*
X94853053Y-69500119D01*
X94852096Y-69499688D01*
X94816794Y-69479777D01*
X94815934Y-69479183D01*
X94762531Y-69458930D01*
X94750032Y-69453753D01*
X94697933Y-69430305D01*
X94697480Y-69430222D01*
X94696891Y-69430114D01*
X94657845Y-69419229D01*
X94656871Y-69418859D01*
X94600164Y-69411973D01*
X94586793Y-69409938D01*
X94530605Y-69399641D01*
X94476641Y-69402906D01*
X94473591Y-69403091D01*
X94460065Y-69403500D01*
X93681957Y-69403500D01*
X93590848Y-69384134D01*
X93515493Y-69329385D01*
X93468920Y-69248720D01*
X93459184Y-69156086D01*
X93487967Y-69067500D01*
X93498107Y-69051535D01*
X93546913Y-68981413D01*
X93623105Y-68803864D01*
X93662000Y-68614604D01*
X93662000Y-68368000D01*
X93012000Y-68368000D01*
X93012000Y-67868000D01*
X93662000Y-67868000D01*
X93662000Y-67675507D01*
X93661425Y-67664176D01*
X93647351Y-67525777D01*
X93589511Y-67341429D01*
X93495748Y-67172500D01*
X93369890Y-67025892D01*
X93325632Y-66991634D01*
X93265439Y-66920552D01*
X93239361Y-66831132D01*
X93251909Y-66738837D01*
X93300911Y-66659624D01*
X93377896Y-66607191D01*
X93462743Y-66590500D01*
X100132715Y-66590500D01*
X100223824Y-66609866D01*
G37*
%TD.AperFunction*%
%TA.AperFunction,Conductor*%
G36*
X91866561Y-70823866D02*
G01*
X91941916Y-70878615D01*
X91988489Y-70959280D01*
X91998225Y-71051914D01*
X91969442Y-71140500D01*
X91959303Y-71156465D01*
X91877086Y-71274588D01*
X91835117Y-71372387D01*
X91781391Y-71448475D01*
X91701362Y-71496132D01*
X91608868Y-71507119D01*
X91527578Y-71483636D01*
X91407303Y-71422353D01*
X91313520Y-71407500D01*
X91313519Y-71407500D01*
X91250481Y-71407500D01*
X91250480Y-71407500D01*
X91156695Y-71422354D01*
X91043659Y-71479948D01*
X90953948Y-71569659D01*
X90896354Y-71682695D01*
X90876507Y-71808000D01*
X90896354Y-71933304D01*
X90953948Y-72046340D01*
X91043659Y-72136051D01*
X91097147Y-72163304D01*
X91156696Y-72193646D01*
X91235625Y-72206147D01*
X91250480Y-72208500D01*
X91250481Y-72208500D01*
X91313520Y-72208500D01*
X91326342Y-72206468D01*
X91407304Y-72193646D01*
X91520342Y-72136050D01*
X91552784Y-72103607D01*
X91630902Y-72052878D01*
X91711176Y-72038000D01*
X92412000Y-72038000D01*
X92412000Y-72538000D01*
X91762000Y-72538000D01*
X91762000Y-72880492D01*
X91762574Y-72891823D01*
X91776648Y-73030222D01*
X91834488Y-73214570D01*
X91928251Y-73383499D01*
X92054107Y-73530105D01*
X92206895Y-73648372D01*
X92380358Y-73733459D01*
X92461999Y-73754596D01*
X92462000Y-73754595D01*
X92462000Y-73004110D01*
X92486457Y-73043610D01*
X92575962Y-73111201D01*
X92683840Y-73141895D01*
X92795521Y-73131546D01*
X92895922Y-73081552D01*
X92962000Y-73009069D01*
X92962000Y-73758470D01*
X93132530Y-73695313D01*
X93296497Y-73593111D01*
X93436538Y-73459992D01*
X93546913Y-73301413D01*
X93623105Y-73123865D01*
X93665180Y-72919128D01*
X93702490Y-72833783D01*
X93771287Y-72770990D01*
X93859676Y-72741609D01*
X93952374Y-72750720D01*
X94033352Y-72796746D01*
X94063351Y-72829229D01*
X94157932Y-72954476D01*
X94190369Y-72997429D01*
X94339038Y-73132958D01*
X94349841Y-73139647D01*
X94355125Y-73142919D01*
X94422393Y-73207348D01*
X94457639Y-73293566D01*
X94454769Y-73386666D01*
X94414281Y-73470551D01*
X94355126Y-73523815D01*
X94309537Y-73552042D01*
X94160868Y-73687571D01*
X94039634Y-73848111D01*
X93952718Y-74022657D01*
X93950055Y-74027689D01*
X93601654Y-74945113D01*
X93551204Y-75023412D01*
X93550638Y-75023980D01*
X93102108Y-75472510D01*
X93080086Y-75491823D01*
X93061550Y-75506046D01*
X93040655Y-75533276D01*
X93040640Y-75533295D01*
X93038390Y-75536229D01*
X93038388Y-75536232D01*
X93034835Y-75540861D01*
X93034832Y-75540865D01*
X93016314Y-75565000D01*
X92969302Y-75626267D01*
X92911313Y-75766262D01*
X92911312Y-75766264D01*
X92911313Y-75766264D01*
X92896500Y-75878780D01*
X92896500Y-75878785D01*
X92891535Y-75916500D01*
X92893733Y-75933194D01*
X92894584Y-75939660D01*
X92896500Y-75968897D01*
X92896500Y-77825836D01*
X92877134Y-77916945D01*
X92822385Y-77992300D01*
X92741720Y-78038873D01*
X92649086Y-78048609D01*
X92560500Y-78019826D01*
X92514108Y-77984228D01*
X91883990Y-77354110D01*
X91864671Y-77332081D01*
X91850450Y-77313548D01*
X91840642Y-77306022D01*
X91840638Y-77306019D01*
X91820270Y-77290390D01*
X91820268Y-77290388D01*
X91743715Y-77231647D01*
X91730232Y-77221301D01*
X91713295Y-77214286D01*
X91590237Y-77163313D01*
X91477726Y-77148500D01*
X91477707Y-77148499D01*
X91440000Y-77143534D01*
X91416840Y-77146584D01*
X91387603Y-77148500D01*
X89433826Y-77148500D01*
X89342717Y-77129134D01*
X89272651Y-77080059D01*
X88798014Y-76588288D01*
X88795883Y-76586080D01*
X88793632Y-76583991D01*
X88755020Y-76548159D01*
X88729293Y-76528953D01*
X88727496Y-76527315D01*
X88667962Y-76473042D01*
X88536355Y-76391554D01*
X88496921Y-76367137D01*
X88309333Y-76294465D01*
X88111586Y-76257500D01*
X87910414Y-76257500D01*
X87712666Y-76294465D01*
X87525075Y-76367138D01*
X87354040Y-76473039D01*
X87205368Y-76608571D01*
X87084136Y-76769109D01*
X86994463Y-76949194D01*
X86939411Y-77142684D01*
X86920849Y-77343000D01*
X86939411Y-77543314D01*
X86962710Y-77625201D01*
X86969016Y-77718131D01*
X86936979Y-77805593D01*
X86872138Y-77872462D01*
X86785704Y-77907177D01*
X86747261Y-77910500D01*
X83770164Y-77910500D01*
X83679055Y-77891134D01*
X83611772Y-77844892D01*
X83445108Y-77678228D01*
X83394378Y-77600110D01*
X83379500Y-77519836D01*
X83379500Y-75617404D01*
X83381416Y-75588167D01*
X83382131Y-75582734D01*
X83384466Y-75565000D01*
X83367048Y-75432698D01*
X83364687Y-75414764D01*
X83313819Y-75291958D01*
X83306699Y-75274768D01*
X83237612Y-75184732D01*
X83237609Y-75184729D01*
X83216098Y-75156695D01*
X83214452Y-75154550D01*
X83214451Y-75154549D01*
X83195910Y-75140322D01*
X83173889Y-75121009D01*
X82612990Y-74560110D01*
X82593671Y-74538081D01*
X82579450Y-74519548D01*
X82569642Y-74512022D01*
X82569638Y-74512019D01*
X82549270Y-74496390D01*
X82549268Y-74496388D01*
X82459233Y-74427302D01*
X82372126Y-74391221D01*
X82319237Y-74369313D01*
X82206726Y-74354500D01*
X82206707Y-74354499D01*
X82169000Y-74349534D01*
X82145840Y-74352584D01*
X82116603Y-74354500D01*
X81621133Y-74354500D01*
X81530024Y-74335134D01*
X81524172Y-74332426D01*
X80563995Y-73871239D01*
X80490253Y-73814336D01*
X80446031Y-73732359D01*
X80438976Y-73639482D01*
X80470306Y-73551765D01*
X80534606Y-73484375D01*
X80574506Y-73462688D01*
X81436541Y-73101996D01*
X81482614Y-73088308D01*
X81505822Y-73084055D01*
X81519161Y-73082025D01*
X81575872Y-73075140D01*
X81576846Y-73074770D01*
X81615900Y-73063884D01*
X81616932Y-73063695D01*
X81669043Y-73040240D01*
X81681505Y-73035078D01*
X81734930Y-73014818D01*
X81735791Y-73014223D01*
X81771111Y-72994303D01*
X81772057Y-72993878D01*
X81817032Y-72958641D01*
X81827921Y-72950630D01*
X81831369Y-72948250D01*
X81874929Y-72918183D01*
X81912811Y-72875420D01*
X81922054Y-72865601D01*
X82777440Y-72010216D01*
X82855554Y-71959489D01*
X82947551Y-71944918D01*
X83037522Y-71969026D01*
X83094221Y-72010220D01*
X83122001Y-72038000D01*
X83772000Y-72038000D01*
X83772000Y-72538000D01*
X83122000Y-72538000D01*
X83122000Y-72880492D01*
X83122574Y-72891823D01*
X83136648Y-73030222D01*
X83194488Y-73214570D01*
X83288251Y-73383499D01*
X83414107Y-73530105D01*
X83566895Y-73648372D01*
X83740358Y-73733459D01*
X83821999Y-73754596D01*
X83822000Y-73754595D01*
X83822000Y-73004110D01*
X83846457Y-73043610D01*
X83935962Y-73111201D01*
X84043840Y-73141895D01*
X84155521Y-73131546D01*
X84255922Y-73081552D01*
X84322000Y-73009069D01*
X84322000Y-73758470D01*
X84492530Y-73695313D01*
X84656497Y-73593111D01*
X84796538Y-73459992D01*
X84906913Y-73301413D01*
X84983105Y-73123864D01*
X85022000Y-72934604D01*
X85022000Y-72538000D01*
X84372000Y-72538000D01*
X84372000Y-72038000D01*
X85072824Y-72038000D01*
X85163933Y-72057366D01*
X85231216Y-72103608D01*
X85263659Y-72136051D01*
X85317147Y-72163304D01*
X85376696Y-72193646D01*
X85455626Y-72206147D01*
X85470480Y-72208500D01*
X85470481Y-72208500D01*
X85533520Y-72208500D01*
X85546342Y-72206468D01*
X85627304Y-72193646D01*
X85740342Y-72136050D01*
X85830050Y-72046342D01*
X85887646Y-71933304D01*
X85907492Y-71808000D01*
X85887646Y-71682696D01*
X85836449Y-71582216D01*
X85830051Y-71569659D01*
X85740340Y-71479948D01*
X85627304Y-71422354D01*
X85533520Y-71407500D01*
X85533519Y-71407500D01*
X85470481Y-71407500D01*
X85470480Y-71407500D01*
X85376696Y-71422353D01*
X85260966Y-71481321D01*
X85170996Y-71505428D01*
X85078998Y-71490857D01*
X85000881Y-71440127D01*
X84962141Y-71380473D01*
X84960567Y-71381347D01*
X84855746Y-71192497D01*
X84840215Y-71174405D01*
X84795564Y-71092661D01*
X84788022Y-70999822D01*
X84818893Y-70911942D01*
X84882839Y-70844216D01*
X84968803Y-70808355D01*
X85010179Y-70804500D01*
X91775452Y-70804500D01*
X91866561Y-70823866D01*
G37*
%TD.AperFunction*%
%TD*%
M02*
