%TF.GenerationSoftware,KiCad,Pcbnew,7.0.2*%
%TF.CreationDate,2025-03-07T15:38:25-05:00*%
%TF.ProjectId,2nPM1100,326e504d-3131-4303-902e-6b696361645f,rev?*%
%TF.SameCoordinates,Original*%
%TF.FileFunction,Legend,Top*%
%TF.FilePolarity,Positive*%
%FSLAX46Y46*%
G04 Gerber Fmt 4.6, Leading zero omitted, Abs format (unit mm)*
G04 Created by KiCad (PCBNEW 7.0.2) date 2025-03-07 15:38:25*
%MOMM*%
%LPD*%
G01*
G04 APERTURE LIST*
%ADD10C,0.150000*%
%ADD11C,1.150000*%
%ADD12C,0.125000*%
%ADD13C,0.120000*%
%ADD14C,0.203200*%
%ADD15C,0.127000*%
%ADD16C,0.200000*%
G04 APERTURE END LIST*
D10*
X111379000Y-100330000D02*
X77470000Y-100330000D01*
D11*
X108906000Y-97282000D02*
G75*
G03*
X108906000Y-97282000I-575000J0D01*
G01*
D10*
X111379000Y-66040000D02*
X111379000Y-100330000D01*
X77470000Y-66040000D02*
X111379000Y-66040000D01*
X77470000Y-100330000D02*
X77470000Y-66040000D01*
X82365000Y-88785714D02*
X82393571Y-88700000D01*
X82393571Y-88700000D02*
X82393571Y-88557142D01*
X82393571Y-88557142D02*
X82365000Y-88500000D01*
X82365000Y-88500000D02*
X82336428Y-88471428D01*
X82336428Y-88471428D02*
X82279285Y-88442857D01*
X82279285Y-88442857D02*
X82222142Y-88442857D01*
X82222142Y-88442857D02*
X82165000Y-88471428D01*
X82165000Y-88471428D02*
X82136428Y-88500000D01*
X82136428Y-88500000D02*
X82107857Y-88557142D01*
X82107857Y-88557142D02*
X82079285Y-88671428D01*
X82079285Y-88671428D02*
X82050714Y-88728571D01*
X82050714Y-88728571D02*
X82022142Y-88757142D01*
X82022142Y-88757142D02*
X81965000Y-88785714D01*
X81965000Y-88785714D02*
X81907857Y-88785714D01*
X81907857Y-88785714D02*
X81850714Y-88757142D01*
X81850714Y-88757142D02*
X81822142Y-88728571D01*
X81822142Y-88728571D02*
X81793571Y-88671428D01*
X81793571Y-88671428D02*
X81793571Y-88528571D01*
X81793571Y-88528571D02*
X81822142Y-88442857D01*
X82393571Y-88185713D02*
X81793571Y-88185713D01*
X82079285Y-88185713D02*
X82079285Y-87842856D01*
X82393571Y-87842856D02*
X81793571Y-87842856D01*
X83365571Y-88757142D02*
X82765571Y-88757142D01*
X82765571Y-88757142D02*
X82765571Y-88528571D01*
X82765571Y-88528571D02*
X82794142Y-88471428D01*
X82794142Y-88471428D02*
X82822714Y-88442857D01*
X82822714Y-88442857D02*
X82879857Y-88414285D01*
X82879857Y-88414285D02*
X82965571Y-88414285D01*
X82965571Y-88414285D02*
X83022714Y-88442857D01*
X83022714Y-88442857D02*
X83051285Y-88471428D01*
X83051285Y-88471428D02*
X83079857Y-88528571D01*
X83079857Y-88528571D02*
X83079857Y-88757142D01*
X83194142Y-88185714D02*
X83194142Y-87900000D01*
X83365571Y-88242857D02*
X82765571Y-88042857D01*
X82765571Y-88042857D02*
X83365571Y-87842857D01*
X83308428Y-87299999D02*
X83337000Y-87328571D01*
X83337000Y-87328571D02*
X83365571Y-87414285D01*
X83365571Y-87414285D02*
X83365571Y-87471428D01*
X83365571Y-87471428D02*
X83337000Y-87557142D01*
X83337000Y-87557142D02*
X83279857Y-87614285D01*
X83279857Y-87614285D02*
X83222714Y-87642856D01*
X83222714Y-87642856D02*
X83108428Y-87671428D01*
X83108428Y-87671428D02*
X83022714Y-87671428D01*
X83022714Y-87671428D02*
X82908428Y-87642856D01*
X82908428Y-87642856D02*
X82851285Y-87614285D01*
X82851285Y-87614285D02*
X82794142Y-87557142D01*
X82794142Y-87557142D02*
X82765571Y-87471428D01*
X82765571Y-87471428D02*
X82765571Y-87414285D01*
X82765571Y-87414285D02*
X82794142Y-87328571D01*
X82794142Y-87328571D02*
X82822714Y-87299999D01*
X82765571Y-87128571D02*
X82765571Y-86785714D01*
X83365571Y-86957142D02*
X82765571Y-86957142D01*
X82222571Y-77835142D02*
X81622571Y-77835142D01*
X81622571Y-77835142D02*
X81622571Y-77692285D01*
X81622571Y-77692285D02*
X81651142Y-77606571D01*
X81651142Y-77606571D02*
X81708285Y-77549428D01*
X81708285Y-77549428D02*
X81765428Y-77520857D01*
X81765428Y-77520857D02*
X81879714Y-77492285D01*
X81879714Y-77492285D02*
X81965428Y-77492285D01*
X81965428Y-77492285D02*
X82079714Y-77520857D01*
X82079714Y-77520857D02*
X82136857Y-77549428D01*
X82136857Y-77549428D02*
X82194000Y-77606571D01*
X82194000Y-77606571D02*
X82222571Y-77692285D01*
X82222571Y-77692285D02*
X82222571Y-77835142D01*
X81994000Y-77235142D02*
X81994000Y-76778000D01*
X82222571Y-77006571D02*
X81765428Y-77006571D01*
X81778142Y-70281857D02*
X81749571Y-70339000D01*
X81749571Y-70339000D02*
X81749571Y-70424714D01*
X81749571Y-70424714D02*
X81778142Y-70510428D01*
X81778142Y-70510428D02*
X81835285Y-70567571D01*
X81835285Y-70567571D02*
X81892428Y-70596142D01*
X81892428Y-70596142D02*
X82006714Y-70624714D01*
X82006714Y-70624714D02*
X82092428Y-70624714D01*
X82092428Y-70624714D02*
X82206714Y-70596142D01*
X82206714Y-70596142D02*
X82263857Y-70567571D01*
X82263857Y-70567571D02*
X82321000Y-70510428D01*
X82321000Y-70510428D02*
X82349571Y-70424714D01*
X82349571Y-70424714D02*
X82349571Y-70367571D01*
X82349571Y-70367571D02*
X82321000Y-70281857D01*
X82321000Y-70281857D02*
X82292428Y-70253285D01*
X82292428Y-70253285D02*
X82092428Y-70253285D01*
X82092428Y-70253285D02*
X82092428Y-70367571D01*
X82349571Y-69996142D02*
X81749571Y-69996142D01*
X81749571Y-69996142D02*
X82349571Y-69653285D01*
X82349571Y-69653285D02*
X81749571Y-69653285D01*
X82349571Y-69367571D02*
X81749571Y-69367571D01*
X81749571Y-69367571D02*
X81749571Y-69224714D01*
X81749571Y-69224714D02*
X81778142Y-69139000D01*
X81778142Y-69139000D02*
X81835285Y-69081857D01*
X81835285Y-69081857D02*
X81892428Y-69053286D01*
X81892428Y-69053286D02*
X82006714Y-69024714D01*
X82006714Y-69024714D02*
X82092428Y-69024714D01*
X82092428Y-69024714D02*
X82206714Y-69053286D01*
X82206714Y-69053286D02*
X82263857Y-69081857D01*
X82263857Y-69081857D02*
X82321000Y-69139000D01*
X82321000Y-69139000D02*
X82349571Y-69224714D01*
X82349571Y-69224714D02*
X82349571Y-69367571D01*
X82349571Y-91551142D02*
X81749571Y-91551142D01*
X81749571Y-91551142D02*
X82178142Y-91351142D01*
X82178142Y-91351142D02*
X81749571Y-91151142D01*
X81749571Y-91151142D02*
X82349571Y-91151142D01*
X81749571Y-90751143D02*
X81749571Y-90636857D01*
X81749571Y-90636857D02*
X81778142Y-90579714D01*
X81778142Y-90579714D02*
X81835285Y-90522571D01*
X81835285Y-90522571D02*
X81949571Y-90494000D01*
X81949571Y-90494000D02*
X82149571Y-90494000D01*
X82149571Y-90494000D02*
X82263857Y-90522571D01*
X82263857Y-90522571D02*
X82321000Y-90579714D01*
X82321000Y-90579714D02*
X82349571Y-90636857D01*
X82349571Y-90636857D02*
X82349571Y-90751143D01*
X82349571Y-90751143D02*
X82321000Y-90808286D01*
X82321000Y-90808286D02*
X82263857Y-90865428D01*
X82263857Y-90865428D02*
X82149571Y-90894000D01*
X82149571Y-90894000D02*
X81949571Y-90894000D01*
X81949571Y-90894000D02*
X81835285Y-90865428D01*
X81835285Y-90865428D02*
X81778142Y-90808286D01*
X81778142Y-90808286D02*
X81749571Y-90751143D01*
X82349571Y-90236857D02*
X81749571Y-90236857D01*
X81749571Y-90236857D02*
X81749571Y-90094000D01*
X81749571Y-90094000D02*
X81778142Y-90008286D01*
X81778142Y-90008286D02*
X81835285Y-89951143D01*
X81835285Y-89951143D02*
X81892428Y-89922572D01*
X81892428Y-89922572D02*
X82006714Y-89894000D01*
X82006714Y-89894000D02*
X82092428Y-89894000D01*
X82092428Y-89894000D02*
X82206714Y-89922572D01*
X82206714Y-89922572D02*
X82263857Y-89951143D01*
X82263857Y-89951143D02*
X82321000Y-90008286D01*
X82321000Y-90008286D02*
X82349571Y-90094000D01*
X82349571Y-90094000D02*
X82349571Y-90236857D01*
X82035285Y-89636857D02*
X82035285Y-89436857D01*
X82349571Y-89351143D02*
X82349571Y-89636857D01*
X82349571Y-89636857D02*
X81749571Y-89636857D01*
X81749571Y-89636857D02*
X81749571Y-89351143D01*
X82393571Y-98377428D02*
X82393571Y-98663142D01*
X82393571Y-98663142D02*
X81793571Y-98663142D01*
X81793571Y-98063143D02*
X81793571Y-97948857D01*
X81793571Y-97948857D02*
X81822142Y-97891714D01*
X81822142Y-97891714D02*
X81879285Y-97834571D01*
X81879285Y-97834571D02*
X81993571Y-97806000D01*
X81993571Y-97806000D02*
X82193571Y-97806000D01*
X82193571Y-97806000D02*
X82307857Y-97834571D01*
X82307857Y-97834571D02*
X82365000Y-97891714D01*
X82365000Y-97891714D02*
X82393571Y-97948857D01*
X82393571Y-97948857D02*
X82393571Y-98063143D01*
X82393571Y-98063143D02*
X82365000Y-98120286D01*
X82365000Y-98120286D02*
X82307857Y-98177428D01*
X82307857Y-98177428D02*
X82193571Y-98206000D01*
X82193571Y-98206000D02*
X81993571Y-98206000D01*
X81993571Y-98206000D02*
X81879285Y-98177428D01*
X81879285Y-98177428D02*
X81822142Y-98120286D01*
X81822142Y-98120286D02*
X81793571Y-98063143D01*
X81793571Y-97606000D02*
X82393571Y-97463143D01*
X82393571Y-97463143D02*
X81965000Y-97348857D01*
X81965000Y-97348857D02*
X82393571Y-97234572D01*
X82393571Y-97234572D02*
X81793571Y-97091715D01*
X83051285Y-98463142D02*
X83079857Y-98377428D01*
X83079857Y-98377428D02*
X83108428Y-98348857D01*
X83108428Y-98348857D02*
X83165571Y-98320285D01*
X83165571Y-98320285D02*
X83251285Y-98320285D01*
X83251285Y-98320285D02*
X83308428Y-98348857D01*
X83308428Y-98348857D02*
X83337000Y-98377428D01*
X83337000Y-98377428D02*
X83365571Y-98434571D01*
X83365571Y-98434571D02*
X83365571Y-98663142D01*
X83365571Y-98663142D02*
X82765571Y-98663142D01*
X82765571Y-98663142D02*
X82765571Y-98463142D01*
X82765571Y-98463142D02*
X82794142Y-98406000D01*
X82794142Y-98406000D02*
X82822714Y-98377428D01*
X82822714Y-98377428D02*
X82879857Y-98348857D01*
X82879857Y-98348857D02*
X82937000Y-98348857D01*
X82937000Y-98348857D02*
X82994142Y-98377428D01*
X82994142Y-98377428D02*
X83022714Y-98406000D01*
X83022714Y-98406000D02*
X83051285Y-98463142D01*
X83051285Y-98463142D02*
X83051285Y-98663142D01*
X83194142Y-98091714D02*
X83194142Y-97806000D01*
X83365571Y-98148857D02*
X82765571Y-97948857D01*
X82765571Y-97948857D02*
X83365571Y-97748857D01*
X82765571Y-97634571D02*
X82765571Y-97291714D01*
X83365571Y-97463142D02*
X82765571Y-97463142D01*
X82765571Y-97177428D02*
X82765571Y-96834571D01*
X83365571Y-97005999D02*
X82765571Y-97005999D01*
D12*
X100838047Y-99196119D02*
X100790428Y-99172309D01*
X100790428Y-99172309D02*
X100718999Y-99172309D01*
X100718999Y-99172309D02*
X100647571Y-99196119D01*
X100647571Y-99196119D02*
X100599952Y-99243738D01*
X100599952Y-99243738D02*
X100576142Y-99291357D01*
X100576142Y-99291357D02*
X100552333Y-99386595D01*
X100552333Y-99386595D02*
X100552333Y-99458023D01*
X100552333Y-99458023D02*
X100576142Y-99553261D01*
X100576142Y-99553261D02*
X100599952Y-99600880D01*
X100599952Y-99600880D02*
X100647571Y-99648500D01*
X100647571Y-99648500D02*
X100718999Y-99672309D01*
X100718999Y-99672309D02*
X100766618Y-99672309D01*
X100766618Y-99672309D02*
X100838047Y-99648500D01*
X100838047Y-99648500D02*
X100861856Y-99624690D01*
X100861856Y-99624690D02*
X100861856Y-99458023D01*
X100861856Y-99458023D02*
X100766618Y-99458023D01*
X101076142Y-99672309D02*
X101076142Y-99172309D01*
X101076142Y-99172309D02*
X101361856Y-99672309D01*
X101361856Y-99672309D02*
X101361856Y-99172309D01*
X101599952Y-99672309D02*
X101599952Y-99172309D01*
X101599952Y-99172309D02*
X101719000Y-99172309D01*
X101719000Y-99172309D02*
X101790428Y-99196119D01*
X101790428Y-99196119D02*
X101838047Y-99243738D01*
X101838047Y-99243738D02*
X101861857Y-99291357D01*
X101861857Y-99291357D02*
X101885666Y-99386595D01*
X101885666Y-99386595D02*
X101885666Y-99458023D01*
X101885666Y-99458023D02*
X101861857Y-99553261D01*
X101861857Y-99553261D02*
X101838047Y-99600880D01*
X101838047Y-99600880D02*
X101790428Y-99648500D01*
X101790428Y-99648500D02*
X101719000Y-99672309D01*
X101719000Y-99672309D02*
X101599952Y-99672309D01*
X110094309Y-89503141D02*
X110594309Y-89336475D01*
X110594309Y-89336475D02*
X110094309Y-89169808D01*
X110570500Y-89026951D02*
X110594309Y-88955523D01*
X110594309Y-88955523D02*
X110594309Y-88836475D01*
X110594309Y-88836475D02*
X110570500Y-88788856D01*
X110570500Y-88788856D02*
X110546690Y-88765047D01*
X110546690Y-88765047D02*
X110499071Y-88741237D01*
X110499071Y-88741237D02*
X110451452Y-88741237D01*
X110451452Y-88741237D02*
X110403833Y-88765047D01*
X110403833Y-88765047D02*
X110380023Y-88788856D01*
X110380023Y-88788856D02*
X110356214Y-88836475D01*
X110356214Y-88836475D02*
X110332404Y-88931713D01*
X110332404Y-88931713D02*
X110308595Y-88979332D01*
X110308595Y-88979332D02*
X110284785Y-89003142D01*
X110284785Y-89003142D02*
X110237166Y-89026951D01*
X110237166Y-89026951D02*
X110189547Y-89026951D01*
X110189547Y-89026951D02*
X110141928Y-89003142D01*
X110141928Y-89003142D02*
X110118119Y-88979332D01*
X110118119Y-88979332D02*
X110094309Y-88931713D01*
X110094309Y-88931713D02*
X110094309Y-88812666D01*
X110094309Y-88812666D02*
X110118119Y-88741237D01*
X110356214Y-88431714D02*
X110594309Y-88431714D01*
X110094309Y-88598380D02*
X110356214Y-88431714D01*
X110356214Y-88431714D02*
X110094309Y-88265047D01*
X110570500Y-88122190D02*
X110594309Y-88050762D01*
X110594309Y-88050762D02*
X110594309Y-87931714D01*
X110594309Y-87931714D02*
X110570500Y-87884095D01*
X110570500Y-87884095D02*
X110546690Y-87860286D01*
X110546690Y-87860286D02*
X110499071Y-87836476D01*
X110499071Y-87836476D02*
X110451452Y-87836476D01*
X110451452Y-87836476D02*
X110403833Y-87860286D01*
X110403833Y-87860286D02*
X110380023Y-87884095D01*
X110380023Y-87884095D02*
X110356214Y-87931714D01*
X110356214Y-87931714D02*
X110332404Y-88026952D01*
X110332404Y-88026952D02*
X110308595Y-88074571D01*
X110308595Y-88074571D02*
X110284785Y-88098381D01*
X110284785Y-88098381D02*
X110237166Y-88122190D01*
X110237166Y-88122190D02*
X110189547Y-88122190D01*
X110189547Y-88122190D02*
X110141928Y-88098381D01*
X110141928Y-88098381D02*
X110118119Y-88074571D01*
X110118119Y-88074571D02*
X110094309Y-88026952D01*
X110094309Y-88026952D02*
X110094309Y-87907905D01*
X110094309Y-87907905D02*
X110118119Y-87836476D01*
D10*
X81749571Y-73348857D02*
X82349571Y-73148857D01*
X82349571Y-73148857D02*
X81749571Y-72948857D01*
X82035285Y-72548856D02*
X82063857Y-72463142D01*
X82063857Y-72463142D02*
X82092428Y-72434571D01*
X82092428Y-72434571D02*
X82149571Y-72405999D01*
X82149571Y-72405999D02*
X82235285Y-72405999D01*
X82235285Y-72405999D02*
X82292428Y-72434571D01*
X82292428Y-72434571D02*
X82321000Y-72463142D01*
X82321000Y-72463142D02*
X82349571Y-72520285D01*
X82349571Y-72520285D02*
X82349571Y-72748856D01*
X82349571Y-72748856D02*
X81749571Y-72748856D01*
X81749571Y-72748856D02*
X81749571Y-72548856D01*
X81749571Y-72548856D02*
X81778142Y-72491714D01*
X81778142Y-72491714D02*
X81806714Y-72463142D01*
X81806714Y-72463142D02*
X81863857Y-72434571D01*
X81863857Y-72434571D02*
X81921000Y-72434571D01*
X81921000Y-72434571D02*
X81978142Y-72463142D01*
X81978142Y-72463142D02*
X82006714Y-72491714D01*
X82006714Y-72491714D02*
X82035285Y-72548856D01*
X82035285Y-72548856D02*
X82035285Y-72748856D01*
X81749571Y-72148856D02*
X82235285Y-72148856D01*
X82235285Y-72148856D02*
X82292428Y-72120285D01*
X82292428Y-72120285D02*
X82321000Y-72091714D01*
X82321000Y-72091714D02*
X82349571Y-72034571D01*
X82349571Y-72034571D02*
X82349571Y-71920285D01*
X82349571Y-71920285D02*
X82321000Y-71863142D01*
X82321000Y-71863142D02*
X82292428Y-71834571D01*
X82292428Y-71834571D02*
X82235285Y-71805999D01*
X82235285Y-71805999D02*
X81749571Y-71805999D01*
X82321000Y-71548857D02*
X82349571Y-71463143D01*
X82349571Y-71463143D02*
X82349571Y-71320285D01*
X82349571Y-71320285D02*
X82321000Y-71263143D01*
X82321000Y-71263143D02*
X82292428Y-71234571D01*
X82292428Y-71234571D02*
X82235285Y-71206000D01*
X82235285Y-71206000D02*
X82178142Y-71206000D01*
X82178142Y-71206000D02*
X82121000Y-71234571D01*
X82121000Y-71234571D02*
X82092428Y-71263143D01*
X82092428Y-71263143D02*
X82063857Y-71320285D01*
X82063857Y-71320285D02*
X82035285Y-71434571D01*
X82035285Y-71434571D02*
X82006714Y-71491714D01*
X82006714Y-71491714D02*
X81978142Y-71520285D01*
X81978142Y-71520285D02*
X81921000Y-71548857D01*
X81921000Y-71548857D02*
X81863857Y-71548857D01*
X81863857Y-71548857D02*
X81806714Y-71520285D01*
X81806714Y-71520285D02*
X81778142Y-71491714D01*
X81778142Y-71491714D02*
X81749571Y-71434571D01*
X81749571Y-71434571D02*
X81749571Y-71291714D01*
X81749571Y-71291714D02*
X81778142Y-71206000D01*
X82292428Y-93494285D02*
X82321000Y-93522857D01*
X82321000Y-93522857D02*
X82349571Y-93608571D01*
X82349571Y-93608571D02*
X82349571Y-93665714D01*
X82349571Y-93665714D02*
X82321000Y-93751428D01*
X82321000Y-93751428D02*
X82263857Y-93808571D01*
X82263857Y-93808571D02*
X82206714Y-93837142D01*
X82206714Y-93837142D02*
X82092428Y-93865714D01*
X82092428Y-93865714D02*
X82006714Y-93865714D01*
X82006714Y-93865714D02*
X81892428Y-93837142D01*
X81892428Y-93837142D02*
X81835285Y-93808571D01*
X81835285Y-93808571D02*
X81778142Y-93751428D01*
X81778142Y-93751428D02*
X81749571Y-93665714D01*
X81749571Y-93665714D02*
X81749571Y-93608571D01*
X81749571Y-93608571D02*
X81778142Y-93522857D01*
X81778142Y-93522857D02*
X81806714Y-93494285D01*
X82349571Y-93237142D02*
X81749571Y-93237142D01*
X82035285Y-93237142D02*
X82035285Y-92894285D01*
X82349571Y-92894285D02*
X81749571Y-92894285D01*
X81778142Y-92294286D02*
X81749571Y-92351429D01*
X81749571Y-92351429D02*
X81749571Y-92437143D01*
X81749571Y-92437143D02*
X81778142Y-92522857D01*
X81778142Y-92522857D02*
X81835285Y-92580000D01*
X81835285Y-92580000D02*
X81892428Y-92608571D01*
X81892428Y-92608571D02*
X82006714Y-92637143D01*
X82006714Y-92637143D02*
X82092428Y-92637143D01*
X82092428Y-92637143D02*
X82206714Y-92608571D01*
X82206714Y-92608571D02*
X82263857Y-92580000D01*
X82263857Y-92580000D02*
X82321000Y-92522857D01*
X82321000Y-92522857D02*
X82349571Y-92437143D01*
X82349571Y-92437143D02*
X82349571Y-92380000D01*
X82349571Y-92380000D02*
X82321000Y-92294286D01*
X82321000Y-92294286D02*
X82292428Y-92265714D01*
X82292428Y-92265714D02*
X82092428Y-92265714D01*
X82092428Y-92265714D02*
X82092428Y-92380000D01*
D12*
X110118119Y-86486952D02*
X110094309Y-86534571D01*
X110094309Y-86534571D02*
X110094309Y-86606000D01*
X110094309Y-86606000D02*
X110118119Y-86677428D01*
X110118119Y-86677428D02*
X110165738Y-86725047D01*
X110165738Y-86725047D02*
X110213357Y-86748857D01*
X110213357Y-86748857D02*
X110308595Y-86772666D01*
X110308595Y-86772666D02*
X110380023Y-86772666D01*
X110380023Y-86772666D02*
X110475261Y-86748857D01*
X110475261Y-86748857D02*
X110522880Y-86725047D01*
X110522880Y-86725047D02*
X110570500Y-86677428D01*
X110570500Y-86677428D02*
X110594309Y-86606000D01*
X110594309Y-86606000D02*
X110594309Y-86558381D01*
X110594309Y-86558381D02*
X110570500Y-86486952D01*
X110570500Y-86486952D02*
X110546690Y-86463143D01*
X110546690Y-86463143D02*
X110380023Y-86463143D01*
X110380023Y-86463143D02*
X110380023Y-86558381D01*
X110594309Y-86248857D02*
X110094309Y-86248857D01*
X110094309Y-86248857D02*
X110594309Y-85963143D01*
X110594309Y-85963143D02*
X110094309Y-85963143D01*
X110594309Y-85725047D02*
X110094309Y-85725047D01*
X110094309Y-85725047D02*
X110094309Y-85605999D01*
X110094309Y-85605999D02*
X110118119Y-85534571D01*
X110118119Y-85534571D02*
X110165738Y-85486952D01*
X110165738Y-85486952D02*
X110213357Y-85463142D01*
X110213357Y-85463142D02*
X110308595Y-85439333D01*
X110308595Y-85439333D02*
X110380023Y-85439333D01*
X110380023Y-85439333D02*
X110475261Y-85463142D01*
X110475261Y-85463142D02*
X110522880Y-85486952D01*
X110522880Y-85486952D02*
X110570500Y-85534571D01*
X110570500Y-85534571D02*
X110594309Y-85605999D01*
X110594309Y-85605999D02*
X110594309Y-85725047D01*
D10*
X82349571Y-86471142D02*
X81749571Y-86471142D01*
X82321000Y-86214000D02*
X82349571Y-86128286D01*
X82349571Y-86128286D02*
X82349571Y-85985428D01*
X82349571Y-85985428D02*
X82321000Y-85928286D01*
X82321000Y-85928286D02*
X82292428Y-85899714D01*
X82292428Y-85899714D02*
X82235285Y-85871143D01*
X82235285Y-85871143D02*
X82178142Y-85871143D01*
X82178142Y-85871143D02*
X82121000Y-85899714D01*
X82121000Y-85899714D02*
X82092428Y-85928286D01*
X82092428Y-85928286D02*
X82063857Y-85985428D01*
X82063857Y-85985428D02*
X82035285Y-86099714D01*
X82035285Y-86099714D02*
X82006714Y-86156857D01*
X82006714Y-86156857D02*
X81978142Y-86185428D01*
X81978142Y-86185428D02*
X81921000Y-86214000D01*
X81921000Y-86214000D02*
X81863857Y-86214000D01*
X81863857Y-86214000D02*
X81806714Y-86185428D01*
X81806714Y-86185428D02*
X81778142Y-86156857D01*
X81778142Y-86156857D02*
X81749571Y-86099714D01*
X81749571Y-86099714D02*
X81749571Y-85956857D01*
X81749571Y-85956857D02*
X81778142Y-85871143D01*
X82035285Y-85613999D02*
X82035285Y-85413999D01*
X82349571Y-85328285D02*
X82349571Y-85613999D01*
X82349571Y-85613999D02*
X81749571Y-85613999D01*
X81749571Y-85613999D02*
X81749571Y-85328285D01*
X81749571Y-85156857D02*
X81749571Y-84814000D01*
X82349571Y-84985428D02*
X81749571Y-84985428D01*
D12*
X97857572Y-99172309D02*
X98024238Y-99672309D01*
X98024238Y-99672309D02*
X98190905Y-99172309D01*
X98524238Y-99410404D02*
X98595666Y-99434214D01*
X98595666Y-99434214D02*
X98619476Y-99458023D01*
X98619476Y-99458023D02*
X98643285Y-99505642D01*
X98643285Y-99505642D02*
X98643285Y-99577071D01*
X98643285Y-99577071D02*
X98619476Y-99624690D01*
X98619476Y-99624690D02*
X98595666Y-99648500D01*
X98595666Y-99648500D02*
X98548047Y-99672309D01*
X98548047Y-99672309D02*
X98357571Y-99672309D01*
X98357571Y-99672309D02*
X98357571Y-99172309D01*
X98357571Y-99172309D02*
X98524238Y-99172309D01*
X98524238Y-99172309D02*
X98571857Y-99196119D01*
X98571857Y-99196119D02*
X98595666Y-99219928D01*
X98595666Y-99219928D02*
X98619476Y-99267547D01*
X98619476Y-99267547D02*
X98619476Y-99315166D01*
X98619476Y-99315166D02*
X98595666Y-99362785D01*
X98595666Y-99362785D02*
X98571857Y-99386595D01*
X98571857Y-99386595D02*
X98524238Y-99410404D01*
X98524238Y-99410404D02*
X98357571Y-99410404D01*
X98833762Y-99529452D02*
X99071857Y-99529452D01*
X98786143Y-99672309D02*
X98952809Y-99172309D01*
X98952809Y-99172309D02*
X99119476Y-99672309D01*
X99214714Y-99172309D02*
X99500428Y-99172309D01*
X99357571Y-99672309D02*
X99357571Y-99172309D01*
D10*
X82035285Y-95996142D02*
X82035285Y-95796142D01*
X82349571Y-95710428D02*
X82349571Y-95996142D01*
X82349571Y-95996142D02*
X81749571Y-95996142D01*
X81749571Y-95996142D02*
X81749571Y-95710428D01*
X82349571Y-95110428D02*
X82063857Y-95310428D01*
X82349571Y-95453285D02*
X81749571Y-95453285D01*
X81749571Y-95453285D02*
X81749571Y-95224714D01*
X81749571Y-95224714D02*
X81778142Y-95167571D01*
X81778142Y-95167571D02*
X81806714Y-95139000D01*
X81806714Y-95139000D02*
X81863857Y-95110428D01*
X81863857Y-95110428D02*
X81949571Y-95110428D01*
X81949571Y-95110428D02*
X82006714Y-95139000D01*
X82006714Y-95139000D02*
X82035285Y-95167571D01*
X82035285Y-95167571D02*
X82063857Y-95224714D01*
X82063857Y-95224714D02*
X82063857Y-95453285D01*
X82349571Y-94510428D02*
X82063857Y-94710428D01*
X82349571Y-94853285D02*
X81749571Y-94853285D01*
X81749571Y-94853285D02*
X81749571Y-94624714D01*
X81749571Y-94624714D02*
X81778142Y-94567571D01*
X81778142Y-94567571D02*
X81806714Y-94539000D01*
X81806714Y-94539000D02*
X81863857Y-94510428D01*
X81863857Y-94510428D02*
X81949571Y-94510428D01*
X81949571Y-94510428D02*
X82006714Y-94539000D01*
X82006714Y-94539000D02*
X82035285Y-94567571D01*
X82035285Y-94567571D02*
X82063857Y-94624714D01*
X82063857Y-94624714D02*
X82063857Y-94853285D01*
X83146571Y-83000857D02*
X83746571Y-82800857D01*
X83746571Y-82800857D02*
X83146571Y-82600857D01*
X83146571Y-82286571D02*
X83146571Y-82172285D01*
X83146571Y-82172285D02*
X83175142Y-82115142D01*
X83175142Y-82115142D02*
X83232285Y-82057999D01*
X83232285Y-82057999D02*
X83346571Y-82029428D01*
X83346571Y-82029428D02*
X83546571Y-82029428D01*
X83546571Y-82029428D02*
X83660857Y-82057999D01*
X83660857Y-82057999D02*
X83718000Y-82115142D01*
X83718000Y-82115142D02*
X83746571Y-82172285D01*
X83746571Y-82172285D02*
X83746571Y-82286571D01*
X83746571Y-82286571D02*
X83718000Y-82343714D01*
X83718000Y-82343714D02*
X83660857Y-82400856D01*
X83660857Y-82400856D02*
X83546571Y-82429428D01*
X83546571Y-82429428D02*
X83346571Y-82429428D01*
X83346571Y-82429428D02*
X83232285Y-82400856D01*
X83232285Y-82400856D02*
X83175142Y-82343714D01*
X83175142Y-82343714D02*
X83146571Y-82286571D01*
X83146571Y-81772285D02*
X83632285Y-81772285D01*
X83632285Y-81772285D02*
X83689428Y-81743714D01*
X83689428Y-81743714D02*
X83718000Y-81715143D01*
X83718000Y-81715143D02*
X83746571Y-81658000D01*
X83746571Y-81658000D02*
X83746571Y-81543714D01*
X83746571Y-81543714D02*
X83718000Y-81486571D01*
X83718000Y-81486571D02*
X83689428Y-81458000D01*
X83689428Y-81458000D02*
X83632285Y-81429428D01*
X83632285Y-81429428D02*
X83146571Y-81429428D01*
X83146571Y-81229429D02*
X83146571Y-80886572D01*
X83746571Y-81058000D02*
X83146571Y-81058000D01*
X83432285Y-80486571D02*
X83460857Y-80400857D01*
X83460857Y-80400857D02*
X83489428Y-80372286D01*
X83489428Y-80372286D02*
X83546571Y-80343714D01*
X83546571Y-80343714D02*
X83632285Y-80343714D01*
X83632285Y-80343714D02*
X83689428Y-80372286D01*
X83689428Y-80372286D02*
X83718000Y-80400857D01*
X83718000Y-80400857D02*
X83746571Y-80458000D01*
X83746571Y-80458000D02*
X83746571Y-80686571D01*
X83746571Y-80686571D02*
X83146571Y-80686571D01*
X83146571Y-80686571D02*
X83146571Y-80486571D01*
X83146571Y-80486571D02*
X83175142Y-80429429D01*
X83175142Y-80429429D02*
X83203714Y-80400857D01*
X83203714Y-80400857D02*
X83260857Y-80372286D01*
X83260857Y-80372286D02*
X83318000Y-80372286D01*
X83318000Y-80372286D02*
X83375142Y-80400857D01*
X83375142Y-80400857D02*
X83403714Y-80429429D01*
X83403714Y-80429429D02*
X83432285Y-80486571D01*
X83432285Y-80486571D02*
X83432285Y-80686571D01*
X83746571Y-80143714D02*
X83346571Y-79829429D01*
X83346571Y-80143714D02*
X83746571Y-79829429D01*
X83203714Y-79629429D02*
X83175142Y-79600857D01*
X83175142Y-79600857D02*
X83146571Y-79543715D01*
X83146571Y-79543715D02*
X83146571Y-79400857D01*
X83146571Y-79400857D02*
X83175142Y-79343715D01*
X83175142Y-79343715D02*
X83203714Y-79315143D01*
X83203714Y-79315143D02*
X83260857Y-79286572D01*
X83260857Y-79286572D02*
X83318000Y-79286572D01*
X83318000Y-79286572D02*
X83403714Y-79315143D01*
X83403714Y-79315143D02*
X83746571Y-79658000D01*
X83746571Y-79658000D02*
X83746571Y-79286572D01*
X82222571Y-75422142D02*
X81622571Y-75422142D01*
X81622571Y-75422142D02*
X81622571Y-75279285D01*
X81622571Y-75279285D02*
X81651142Y-75193571D01*
X81651142Y-75193571D02*
X81708285Y-75136428D01*
X81708285Y-75136428D02*
X81765428Y-75107857D01*
X81765428Y-75107857D02*
X81879714Y-75079285D01*
X81879714Y-75079285D02*
X81965428Y-75079285D01*
X81965428Y-75079285D02*
X82079714Y-75107857D01*
X82079714Y-75107857D02*
X82136857Y-75136428D01*
X82136857Y-75136428D02*
X82194000Y-75193571D01*
X82194000Y-75193571D02*
X82222571Y-75279285D01*
X82222571Y-75279285D02*
X82222571Y-75422142D01*
X81994000Y-74822142D02*
X81994000Y-74365000D01*
D12*
%TO.C,R3*%
X95608309Y-80601333D02*
X95370214Y-80767999D01*
X95608309Y-80887047D02*
X95108309Y-80887047D01*
X95108309Y-80887047D02*
X95108309Y-80696571D01*
X95108309Y-80696571D02*
X95132119Y-80648952D01*
X95132119Y-80648952D02*
X95155928Y-80625142D01*
X95155928Y-80625142D02*
X95203547Y-80601333D01*
X95203547Y-80601333D02*
X95274976Y-80601333D01*
X95274976Y-80601333D02*
X95322595Y-80625142D01*
X95322595Y-80625142D02*
X95346404Y-80648952D01*
X95346404Y-80648952D02*
X95370214Y-80696571D01*
X95370214Y-80696571D02*
X95370214Y-80887047D01*
X95108309Y-80434666D02*
X95108309Y-80125142D01*
X95108309Y-80125142D02*
X95298785Y-80291809D01*
X95298785Y-80291809D02*
X95298785Y-80220380D01*
X95298785Y-80220380D02*
X95322595Y-80172761D01*
X95322595Y-80172761D02*
X95346404Y-80148952D01*
X95346404Y-80148952D02*
X95394023Y-80125142D01*
X95394023Y-80125142D02*
X95513071Y-80125142D01*
X95513071Y-80125142D02*
X95560690Y-80148952D01*
X95560690Y-80148952D02*
X95584500Y-80172761D01*
X95584500Y-80172761D02*
X95608309Y-80220380D01*
X95608309Y-80220380D02*
X95608309Y-80363237D01*
X95608309Y-80363237D02*
X95584500Y-80410856D01*
X95584500Y-80410856D02*
X95560690Y-80434666D01*
%TO.C,C5*%
X94658666Y-89464690D02*
X94634857Y-89488500D01*
X94634857Y-89488500D02*
X94563428Y-89512309D01*
X94563428Y-89512309D02*
X94515809Y-89512309D01*
X94515809Y-89512309D02*
X94444381Y-89488500D01*
X94444381Y-89488500D02*
X94396762Y-89440880D01*
X94396762Y-89440880D02*
X94372952Y-89393261D01*
X94372952Y-89393261D02*
X94349143Y-89298023D01*
X94349143Y-89298023D02*
X94349143Y-89226595D01*
X94349143Y-89226595D02*
X94372952Y-89131357D01*
X94372952Y-89131357D02*
X94396762Y-89083738D01*
X94396762Y-89083738D02*
X94444381Y-89036119D01*
X94444381Y-89036119D02*
X94515809Y-89012309D01*
X94515809Y-89012309D02*
X94563428Y-89012309D01*
X94563428Y-89012309D02*
X94634857Y-89036119D01*
X94634857Y-89036119D02*
X94658666Y-89059928D01*
X95111047Y-89012309D02*
X94872952Y-89012309D01*
X94872952Y-89012309D02*
X94849143Y-89250404D01*
X94849143Y-89250404D02*
X94872952Y-89226595D01*
X94872952Y-89226595D02*
X94920571Y-89202785D01*
X94920571Y-89202785D02*
X95039619Y-89202785D01*
X95039619Y-89202785D02*
X95087238Y-89226595D01*
X95087238Y-89226595D02*
X95111047Y-89250404D01*
X95111047Y-89250404D02*
X95134857Y-89298023D01*
X95134857Y-89298023D02*
X95134857Y-89417071D01*
X95134857Y-89417071D02*
X95111047Y-89464690D01*
X95111047Y-89464690D02*
X95087238Y-89488500D01*
X95087238Y-89488500D02*
X95039619Y-89512309D01*
X95039619Y-89512309D02*
X94920571Y-89512309D01*
X94920571Y-89512309D02*
X94872952Y-89488500D01*
X94872952Y-89488500D02*
X94849143Y-89464690D01*
%TO.C,U2*%
X100330047Y-87996309D02*
X100330047Y-88401071D01*
X100330047Y-88401071D02*
X100353857Y-88448690D01*
X100353857Y-88448690D02*
X100377666Y-88472500D01*
X100377666Y-88472500D02*
X100425285Y-88496309D01*
X100425285Y-88496309D02*
X100520523Y-88496309D01*
X100520523Y-88496309D02*
X100568142Y-88472500D01*
X100568142Y-88472500D02*
X100591952Y-88448690D01*
X100591952Y-88448690D02*
X100615761Y-88401071D01*
X100615761Y-88401071D02*
X100615761Y-87996309D01*
X100830048Y-88043928D02*
X100853857Y-88020119D01*
X100853857Y-88020119D02*
X100901476Y-87996309D01*
X100901476Y-87996309D02*
X101020524Y-87996309D01*
X101020524Y-87996309D02*
X101068143Y-88020119D01*
X101068143Y-88020119D02*
X101091952Y-88043928D01*
X101091952Y-88043928D02*
X101115762Y-88091547D01*
X101115762Y-88091547D02*
X101115762Y-88139166D01*
X101115762Y-88139166D02*
X101091952Y-88210595D01*
X101091952Y-88210595D02*
X100806238Y-88496309D01*
X100806238Y-88496309D02*
X101115762Y-88496309D01*
%TO.C,SW1*%
X86328334Y-96981500D02*
X86399762Y-97005309D01*
X86399762Y-97005309D02*
X86518810Y-97005309D01*
X86518810Y-97005309D02*
X86566429Y-96981500D01*
X86566429Y-96981500D02*
X86590238Y-96957690D01*
X86590238Y-96957690D02*
X86614048Y-96910071D01*
X86614048Y-96910071D02*
X86614048Y-96862452D01*
X86614048Y-96862452D02*
X86590238Y-96814833D01*
X86590238Y-96814833D02*
X86566429Y-96791023D01*
X86566429Y-96791023D02*
X86518810Y-96767214D01*
X86518810Y-96767214D02*
X86423572Y-96743404D01*
X86423572Y-96743404D02*
X86375953Y-96719595D01*
X86375953Y-96719595D02*
X86352143Y-96695785D01*
X86352143Y-96695785D02*
X86328334Y-96648166D01*
X86328334Y-96648166D02*
X86328334Y-96600547D01*
X86328334Y-96600547D02*
X86352143Y-96552928D01*
X86352143Y-96552928D02*
X86375953Y-96529119D01*
X86375953Y-96529119D02*
X86423572Y-96505309D01*
X86423572Y-96505309D02*
X86542619Y-96505309D01*
X86542619Y-96505309D02*
X86614048Y-96529119D01*
X86780714Y-96505309D02*
X86899762Y-97005309D01*
X86899762Y-97005309D02*
X86995000Y-96648166D01*
X86995000Y-96648166D02*
X87090238Y-97005309D01*
X87090238Y-97005309D02*
X87209286Y-96505309D01*
X87661667Y-97005309D02*
X87375953Y-97005309D01*
X87518810Y-97005309D02*
X87518810Y-96505309D01*
X87518810Y-96505309D02*
X87471191Y-96576738D01*
X87471191Y-96576738D02*
X87423572Y-96624357D01*
X87423572Y-96624357D02*
X87375953Y-96648166D01*
%TO.C,LD1*%
X97328959Y-84812602D02*
X97090864Y-84812602D01*
X97090864Y-84812602D02*
X97090864Y-84312602D01*
X97495626Y-84812602D02*
X97495626Y-84312602D01*
X97495626Y-84312602D02*
X97614674Y-84312602D01*
X97614674Y-84312602D02*
X97686102Y-84336412D01*
X97686102Y-84336412D02*
X97733721Y-84384031D01*
X97733721Y-84384031D02*
X97757531Y-84431650D01*
X97757531Y-84431650D02*
X97781340Y-84526888D01*
X97781340Y-84526888D02*
X97781340Y-84598316D01*
X97781340Y-84598316D02*
X97757531Y-84693554D01*
X97757531Y-84693554D02*
X97733721Y-84741173D01*
X97733721Y-84741173D02*
X97686102Y-84788793D01*
X97686102Y-84788793D02*
X97614674Y-84812602D01*
X97614674Y-84812602D02*
X97495626Y-84812602D01*
X98257531Y-84812602D02*
X97971817Y-84812602D01*
X98114674Y-84812602D02*
X98114674Y-84312602D01*
X98114674Y-84312602D02*
X98067055Y-84384031D01*
X98067055Y-84384031D02*
X98019436Y-84431650D01*
X98019436Y-84431650D02*
X97971817Y-84455459D01*
%TO.C,C2*%
X84498666Y-85400690D02*
X84474857Y-85424500D01*
X84474857Y-85424500D02*
X84403428Y-85448309D01*
X84403428Y-85448309D02*
X84355809Y-85448309D01*
X84355809Y-85448309D02*
X84284381Y-85424500D01*
X84284381Y-85424500D02*
X84236762Y-85376880D01*
X84236762Y-85376880D02*
X84212952Y-85329261D01*
X84212952Y-85329261D02*
X84189143Y-85234023D01*
X84189143Y-85234023D02*
X84189143Y-85162595D01*
X84189143Y-85162595D02*
X84212952Y-85067357D01*
X84212952Y-85067357D02*
X84236762Y-85019738D01*
X84236762Y-85019738D02*
X84284381Y-84972119D01*
X84284381Y-84972119D02*
X84355809Y-84948309D01*
X84355809Y-84948309D02*
X84403428Y-84948309D01*
X84403428Y-84948309D02*
X84474857Y-84972119D01*
X84474857Y-84972119D02*
X84498666Y-84995928D01*
X84689143Y-84995928D02*
X84712952Y-84972119D01*
X84712952Y-84972119D02*
X84760571Y-84948309D01*
X84760571Y-84948309D02*
X84879619Y-84948309D01*
X84879619Y-84948309D02*
X84927238Y-84972119D01*
X84927238Y-84972119D02*
X84951047Y-84995928D01*
X84951047Y-84995928D02*
X84974857Y-85043547D01*
X84974857Y-85043547D02*
X84974857Y-85091166D01*
X84974857Y-85091166D02*
X84951047Y-85162595D01*
X84951047Y-85162595D02*
X84665333Y-85448309D01*
X84665333Y-85448309D02*
X84974857Y-85448309D01*
%TO.C,LD3*%
X97767309Y-83391333D02*
X97767309Y-83629428D01*
X97767309Y-83629428D02*
X97267309Y-83629428D01*
X97767309Y-83224666D02*
X97267309Y-83224666D01*
X97267309Y-83224666D02*
X97267309Y-83105618D01*
X97267309Y-83105618D02*
X97291119Y-83034190D01*
X97291119Y-83034190D02*
X97338738Y-82986571D01*
X97338738Y-82986571D02*
X97386357Y-82962761D01*
X97386357Y-82962761D02*
X97481595Y-82938952D01*
X97481595Y-82938952D02*
X97553023Y-82938952D01*
X97553023Y-82938952D02*
X97648261Y-82962761D01*
X97648261Y-82962761D02*
X97695880Y-82986571D01*
X97695880Y-82986571D02*
X97743500Y-83034190D01*
X97743500Y-83034190D02*
X97767309Y-83105618D01*
X97767309Y-83105618D02*
X97767309Y-83224666D01*
X97267309Y-82772285D02*
X97267309Y-82462761D01*
X97267309Y-82462761D02*
X97457785Y-82629428D01*
X97457785Y-82629428D02*
X97457785Y-82557999D01*
X97457785Y-82557999D02*
X97481595Y-82510380D01*
X97481595Y-82510380D02*
X97505404Y-82486571D01*
X97505404Y-82486571D02*
X97553023Y-82462761D01*
X97553023Y-82462761D02*
X97672071Y-82462761D01*
X97672071Y-82462761D02*
X97719690Y-82486571D01*
X97719690Y-82486571D02*
X97743500Y-82510380D01*
X97743500Y-82510380D02*
X97767309Y-82557999D01*
X97767309Y-82557999D02*
X97767309Y-82700856D01*
X97767309Y-82700856D02*
X97743500Y-82748475D01*
X97743500Y-82748475D02*
X97719690Y-82772285D01*
D10*
%TO.C,R1*%
X104608333Y-83995619D02*
X104275000Y-83519428D01*
X104036905Y-83995619D02*
X104036905Y-82995619D01*
X104036905Y-82995619D02*
X104417857Y-82995619D01*
X104417857Y-82995619D02*
X104513095Y-83043238D01*
X104513095Y-83043238D02*
X104560714Y-83090857D01*
X104560714Y-83090857D02*
X104608333Y-83186095D01*
X104608333Y-83186095D02*
X104608333Y-83328952D01*
X104608333Y-83328952D02*
X104560714Y-83424190D01*
X104560714Y-83424190D02*
X104513095Y-83471809D01*
X104513095Y-83471809D02*
X104417857Y-83519428D01*
X104417857Y-83519428D02*
X104036905Y-83519428D01*
X105560714Y-83995619D02*
X104989286Y-83995619D01*
X105275000Y-83995619D02*
X105275000Y-82995619D01*
X105275000Y-82995619D02*
X105179762Y-83138476D01*
X105179762Y-83138476D02*
X105084524Y-83233714D01*
X105084524Y-83233714D02*
X104989286Y-83281333D01*
%TO.C,J1*%
X99508666Y-91035619D02*
X99508666Y-91749904D01*
X99508666Y-91749904D02*
X99461047Y-91892761D01*
X99461047Y-91892761D02*
X99365809Y-91988000D01*
X99365809Y-91988000D02*
X99222952Y-92035619D01*
X99222952Y-92035619D02*
X99127714Y-92035619D01*
X100508666Y-92035619D02*
X99937238Y-92035619D01*
X100222952Y-92035619D02*
X100222952Y-91035619D01*
X100222952Y-91035619D02*
X100127714Y-91178476D01*
X100127714Y-91178476D02*
X100032476Y-91273714D01*
X100032476Y-91273714D02*
X99937238Y-91321333D01*
%TO.C,R_1*%
X92062619Y-94654619D02*
X91586428Y-94987952D01*
X92062619Y-95226047D02*
X91062619Y-95226047D01*
X91062619Y-95226047D02*
X91062619Y-94845095D01*
X91062619Y-94845095D02*
X91110238Y-94749857D01*
X91110238Y-94749857D02*
X91157857Y-94702238D01*
X91157857Y-94702238D02*
X91253095Y-94654619D01*
X91253095Y-94654619D02*
X91395952Y-94654619D01*
X91395952Y-94654619D02*
X91491190Y-94702238D01*
X91491190Y-94702238D02*
X91538809Y-94749857D01*
X91538809Y-94749857D02*
X91586428Y-94845095D01*
X91586428Y-94845095D02*
X91586428Y-95226047D01*
X92157857Y-94464143D02*
X92157857Y-93702238D01*
X92062619Y-92940333D02*
X92062619Y-93511761D01*
X92062619Y-93226047D02*
X91062619Y-93226047D01*
X91062619Y-93226047D02*
X91205476Y-93321285D01*
X91205476Y-93321285D02*
X91300714Y-93416523D01*
X91300714Y-93416523D02*
X91348333Y-93511761D01*
D12*
%TO.C,L1*%
X86530666Y-79733309D02*
X86292571Y-79733309D01*
X86292571Y-79733309D02*
X86292571Y-79233309D01*
X86959238Y-79733309D02*
X86673524Y-79733309D01*
X86816381Y-79733309D02*
X86816381Y-79233309D01*
X86816381Y-79233309D02*
X86768762Y-79304738D01*
X86768762Y-79304738D02*
X86721143Y-79352357D01*
X86721143Y-79352357D02*
X86673524Y-79376166D01*
%TO.C,RCC1*%
X89713666Y-76304309D02*
X89547000Y-76066214D01*
X89427952Y-76304309D02*
X89427952Y-75804309D01*
X89427952Y-75804309D02*
X89618428Y-75804309D01*
X89618428Y-75804309D02*
X89666047Y-75828119D01*
X89666047Y-75828119D02*
X89689857Y-75851928D01*
X89689857Y-75851928D02*
X89713666Y-75899547D01*
X89713666Y-75899547D02*
X89713666Y-75970976D01*
X89713666Y-75970976D02*
X89689857Y-76018595D01*
X89689857Y-76018595D02*
X89666047Y-76042404D01*
X89666047Y-76042404D02*
X89618428Y-76066214D01*
X89618428Y-76066214D02*
X89427952Y-76066214D01*
X90213666Y-76256690D02*
X90189857Y-76280500D01*
X90189857Y-76280500D02*
X90118428Y-76304309D01*
X90118428Y-76304309D02*
X90070809Y-76304309D01*
X90070809Y-76304309D02*
X89999381Y-76280500D01*
X89999381Y-76280500D02*
X89951762Y-76232880D01*
X89951762Y-76232880D02*
X89927952Y-76185261D01*
X89927952Y-76185261D02*
X89904143Y-76090023D01*
X89904143Y-76090023D02*
X89904143Y-76018595D01*
X89904143Y-76018595D02*
X89927952Y-75923357D01*
X89927952Y-75923357D02*
X89951762Y-75875738D01*
X89951762Y-75875738D02*
X89999381Y-75828119D01*
X89999381Y-75828119D02*
X90070809Y-75804309D01*
X90070809Y-75804309D02*
X90118428Y-75804309D01*
X90118428Y-75804309D02*
X90189857Y-75828119D01*
X90189857Y-75828119D02*
X90213666Y-75851928D01*
X90713666Y-76256690D02*
X90689857Y-76280500D01*
X90689857Y-76280500D02*
X90618428Y-76304309D01*
X90618428Y-76304309D02*
X90570809Y-76304309D01*
X90570809Y-76304309D02*
X90499381Y-76280500D01*
X90499381Y-76280500D02*
X90451762Y-76232880D01*
X90451762Y-76232880D02*
X90427952Y-76185261D01*
X90427952Y-76185261D02*
X90404143Y-76090023D01*
X90404143Y-76090023D02*
X90404143Y-76018595D01*
X90404143Y-76018595D02*
X90427952Y-75923357D01*
X90427952Y-75923357D02*
X90451762Y-75875738D01*
X90451762Y-75875738D02*
X90499381Y-75828119D01*
X90499381Y-75828119D02*
X90570809Y-75804309D01*
X90570809Y-75804309D02*
X90618428Y-75804309D01*
X90618428Y-75804309D02*
X90689857Y-75828119D01*
X90689857Y-75828119D02*
X90713666Y-75851928D01*
X91189857Y-76304309D02*
X90904143Y-76304309D01*
X91047000Y-76304309D02*
X91047000Y-75804309D01*
X91047000Y-75804309D02*
X90999381Y-75875738D01*
X90999381Y-75875738D02*
X90951762Y-75923357D01*
X90951762Y-75923357D02*
X90904143Y-75947166D01*
%TO.C,C1*%
X91623690Y-81998333D02*
X91647500Y-82022142D01*
X91647500Y-82022142D02*
X91671309Y-82093571D01*
X91671309Y-82093571D02*
X91671309Y-82141190D01*
X91671309Y-82141190D02*
X91647500Y-82212618D01*
X91647500Y-82212618D02*
X91599880Y-82260237D01*
X91599880Y-82260237D02*
X91552261Y-82284047D01*
X91552261Y-82284047D02*
X91457023Y-82307856D01*
X91457023Y-82307856D02*
X91385595Y-82307856D01*
X91385595Y-82307856D02*
X91290357Y-82284047D01*
X91290357Y-82284047D02*
X91242738Y-82260237D01*
X91242738Y-82260237D02*
X91195119Y-82212618D01*
X91195119Y-82212618D02*
X91171309Y-82141190D01*
X91171309Y-82141190D02*
X91171309Y-82093571D01*
X91171309Y-82093571D02*
X91195119Y-82022142D01*
X91195119Y-82022142D02*
X91218928Y-81998333D01*
X91671309Y-81522142D02*
X91671309Y-81807856D01*
X91671309Y-81664999D02*
X91171309Y-81664999D01*
X91171309Y-81664999D02*
X91242738Y-81712618D01*
X91242738Y-81712618D02*
X91290357Y-81760237D01*
X91290357Y-81760237D02*
X91314166Y-81807856D01*
%TO.C,RCC2*%
X85903666Y-76177309D02*
X85737000Y-75939214D01*
X85617952Y-76177309D02*
X85617952Y-75677309D01*
X85617952Y-75677309D02*
X85808428Y-75677309D01*
X85808428Y-75677309D02*
X85856047Y-75701119D01*
X85856047Y-75701119D02*
X85879857Y-75724928D01*
X85879857Y-75724928D02*
X85903666Y-75772547D01*
X85903666Y-75772547D02*
X85903666Y-75843976D01*
X85903666Y-75843976D02*
X85879857Y-75891595D01*
X85879857Y-75891595D02*
X85856047Y-75915404D01*
X85856047Y-75915404D02*
X85808428Y-75939214D01*
X85808428Y-75939214D02*
X85617952Y-75939214D01*
X86403666Y-76129690D02*
X86379857Y-76153500D01*
X86379857Y-76153500D02*
X86308428Y-76177309D01*
X86308428Y-76177309D02*
X86260809Y-76177309D01*
X86260809Y-76177309D02*
X86189381Y-76153500D01*
X86189381Y-76153500D02*
X86141762Y-76105880D01*
X86141762Y-76105880D02*
X86117952Y-76058261D01*
X86117952Y-76058261D02*
X86094143Y-75963023D01*
X86094143Y-75963023D02*
X86094143Y-75891595D01*
X86094143Y-75891595D02*
X86117952Y-75796357D01*
X86117952Y-75796357D02*
X86141762Y-75748738D01*
X86141762Y-75748738D02*
X86189381Y-75701119D01*
X86189381Y-75701119D02*
X86260809Y-75677309D01*
X86260809Y-75677309D02*
X86308428Y-75677309D01*
X86308428Y-75677309D02*
X86379857Y-75701119D01*
X86379857Y-75701119D02*
X86403666Y-75724928D01*
X86903666Y-76129690D02*
X86879857Y-76153500D01*
X86879857Y-76153500D02*
X86808428Y-76177309D01*
X86808428Y-76177309D02*
X86760809Y-76177309D01*
X86760809Y-76177309D02*
X86689381Y-76153500D01*
X86689381Y-76153500D02*
X86641762Y-76105880D01*
X86641762Y-76105880D02*
X86617952Y-76058261D01*
X86617952Y-76058261D02*
X86594143Y-75963023D01*
X86594143Y-75963023D02*
X86594143Y-75891595D01*
X86594143Y-75891595D02*
X86617952Y-75796357D01*
X86617952Y-75796357D02*
X86641762Y-75748738D01*
X86641762Y-75748738D02*
X86689381Y-75701119D01*
X86689381Y-75701119D02*
X86760809Y-75677309D01*
X86760809Y-75677309D02*
X86808428Y-75677309D01*
X86808428Y-75677309D02*
X86879857Y-75701119D01*
X86879857Y-75701119D02*
X86903666Y-75724928D01*
X87094143Y-75724928D02*
X87117952Y-75701119D01*
X87117952Y-75701119D02*
X87165571Y-75677309D01*
X87165571Y-75677309D02*
X87284619Y-75677309D01*
X87284619Y-75677309D02*
X87332238Y-75701119D01*
X87332238Y-75701119D02*
X87356047Y-75724928D01*
X87356047Y-75724928D02*
X87379857Y-75772547D01*
X87379857Y-75772547D02*
X87379857Y-75820166D01*
X87379857Y-75820166D02*
X87356047Y-75891595D01*
X87356047Y-75891595D02*
X87070333Y-76177309D01*
X87070333Y-76177309D02*
X87379857Y-76177309D01*
D10*
%TO.C,R6*%
X98004333Y-89616619D02*
X97671000Y-89140428D01*
X97432905Y-89616619D02*
X97432905Y-88616619D01*
X97432905Y-88616619D02*
X97813857Y-88616619D01*
X97813857Y-88616619D02*
X97909095Y-88664238D01*
X97909095Y-88664238D02*
X97956714Y-88711857D01*
X97956714Y-88711857D02*
X98004333Y-88807095D01*
X98004333Y-88807095D02*
X98004333Y-88949952D01*
X98004333Y-88949952D02*
X97956714Y-89045190D01*
X97956714Y-89045190D02*
X97909095Y-89092809D01*
X97909095Y-89092809D02*
X97813857Y-89140428D01*
X97813857Y-89140428D02*
X97432905Y-89140428D01*
X98861476Y-88616619D02*
X98671000Y-88616619D01*
X98671000Y-88616619D02*
X98575762Y-88664238D01*
X98575762Y-88664238D02*
X98528143Y-88711857D01*
X98528143Y-88711857D02*
X98432905Y-88854714D01*
X98432905Y-88854714D02*
X98385286Y-89045190D01*
X98385286Y-89045190D02*
X98385286Y-89426142D01*
X98385286Y-89426142D02*
X98432905Y-89521380D01*
X98432905Y-89521380D02*
X98480524Y-89569000D01*
X98480524Y-89569000D02*
X98575762Y-89616619D01*
X98575762Y-89616619D02*
X98766238Y-89616619D01*
X98766238Y-89616619D02*
X98861476Y-89569000D01*
X98861476Y-89569000D02*
X98909095Y-89521380D01*
X98909095Y-89521380D02*
X98956714Y-89426142D01*
X98956714Y-89426142D02*
X98956714Y-89188047D01*
X98956714Y-89188047D02*
X98909095Y-89092809D01*
X98909095Y-89092809D02*
X98861476Y-89045190D01*
X98861476Y-89045190D02*
X98766238Y-88997571D01*
X98766238Y-88997571D02*
X98575762Y-88997571D01*
X98575762Y-88997571D02*
X98480524Y-89045190D01*
X98480524Y-89045190D02*
X98432905Y-89092809D01*
X98432905Y-89092809D02*
X98385286Y-89188047D01*
%TO.C,J5*%
X107743666Y-90316619D02*
X107743666Y-91030904D01*
X107743666Y-91030904D02*
X107696047Y-91173761D01*
X107696047Y-91173761D02*
X107600809Y-91269000D01*
X107600809Y-91269000D02*
X107457952Y-91316619D01*
X107457952Y-91316619D02*
X107362714Y-91316619D01*
X108696047Y-90316619D02*
X108219857Y-90316619D01*
X108219857Y-90316619D02*
X108172238Y-90792809D01*
X108172238Y-90792809D02*
X108219857Y-90745190D01*
X108219857Y-90745190D02*
X108315095Y-90697571D01*
X108315095Y-90697571D02*
X108553190Y-90697571D01*
X108553190Y-90697571D02*
X108648428Y-90745190D01*
X108648428Y-90745190D02*
X108696047Y-90792809D01*
X108696047Y-90792809D02*
X108743666Y-90888047D01*
X108743666Y-90888047D02*
X108743666Y-91126142D01*
X108743666Y-91126142D02*
X108696047Y-91221380D01*
X108696047Y-91221380D02*
X108648428Y-91269000D01*
X108648428Y-91269000D02*
X108553190Y-91316619D01*
X108553190Y-91316619D02*
X108315095Y-91316619D01*
X108315095Y-91316619D02*
X108219857Y-91269000D01*
X108219857Y-91269000D02*
X108172238Y-91221380D01*
D12*
%TO.C,C3*%
X93401690Y-86443333D02*
X93425500Y-86467142D01*
X93425500Y-86467142D02*
X93449309Y-86538571D01*
X93449309Y-86538571D02*
X93449309Y-86586190D01*
X93449309Y-86586190D02*
X93425500Y-86657618D01*
X93425500Y-86657618D02*
X93377880Y-86705237D01*
X93377880Y-86705237D02*
X93330261Y-86729047D01*
X93330261Y-86729047D02*
X93235023Y-86752856D01*
X93235023Y-86752856D02*
X93163595Y-86752856D01*
X93163595Y-86752856D02*
X93068357Y-86729047D01*
X93068357Y-86729047D02*
X93020738Y-86705237D01*
X93020738Y-86705237D02*
X92973119Y-86657618D01*
X92973119Y-86657618D02*
X92949309Y-86586190D01*
X92949309Y-86586190D02*
X92949309Y-86538571D01*
X92949309Y-86538571D02*
X92973119Y-86467142D01*
X92973119Y-86467142D02*
X92996928Y-86443333D01*
X92949309Y-86276666D02*
X92949309Y-85967142D01*
X92949309Y-85967142D02*
X93139785Y-86133809D01*
X93139785Y-86133809D02*
X93139785Y-86062380D01*
X93139785Y-86062380D02*
X93163595Y-86014761D01*
X93163595Y-86014761D02*
X93187404Y-85990952D01*
X93187404Y-85990952D02*
X93235023Y-85967142D01*
X93235023Y-85967142D02*
X93354071Y-85967142D01*
X93354071Y-85967142D02*
X93401690Y-85990952D01*
X93401690Y-85990952D02*
X93425500Y-86014761D01*
X93425500Y-86014761D02*
X93449309Y-86062380D01*
X93449309Y-86062380D02*
X93449309Y-86205237D01*
X93449309Y-86205237D02*
X93425500Y-86252856D01*
X93425500Y-86252856D02*
X93401690Y-86276666D01*
D10*
%TO.C,J3*%
X79422666Y-66772619D02*
X79422666Y-67486904D01*
X79422666Y-67486904D02*
X79375047Y-67629761D01*
X79375047Y-67629761D02*
X79279809Y-67725000D01*
X79279809Y-67725000D02*
X79136952Y-67772619D01*
X79136952Y-67772619D02*
X79041714Y-67772619D01*
X79803619Y-66772619D02*
X80422666Y-66772619D01*
X80422666Y-66772619D02*
X80089333Y-67153571D01*
X80089333Y-67153571D02*
X80232190Y-67153571D01*
X80232190Y-67153571D02*
X80327428Y-67201190D01*
X80327428Y-67201190D02*
X80375047Y-67248809D01*
X80375047Y-67248809D02*
X80422666Y-67344047D01*
X80422666Y-67344047D02*
X80422666Y-67582142D01*
X80422666Y-67582142D02*
X80375047Y-67677380D01*
X80375047Y-67677380D02*
X80327428Y-67725000D01*
X80327428Y-67725000D02*
X80232190Y-67772619D01*
X80232190Y-67772619D02*
X79946476Y-67772619D01*
X79946476Y-67772619D02*
X79851238Y-67725000D01*
X79851238Y-67725000D02*
X79803619Y-67677380D01*
D12*
%TO.C,R_ICHG1*%
X93068309Y-91705761D02*
X92830214Y-91872427D01*
X93068309Y-91991475D02*
X92568309Y-91991475D01*
X92568309Y-91991475D02*
X92568309Y-91800999D01*
X92568309Y-91800999D02*
X92592119Y-91753380D01*
X92592119Y-91753380D02*
X92615928Y-91729570D01*
X92615928Y-91729570D02*
X92663547Y-91705761D01*
X92663547Y-91705761D02*
X92734976Y-91705761D01*
X92734976Y-91705761D02*
X92782595Y-91729570D01*
X92782595Y-91729570D02*
X92806404Y-91753380D01*
X92806404Y-91753380D02*
X92830214Y-91800999D01*
X92830214Y-91800999D02*
X92830214Y-91991475D01*
X93115928Y-91610523D02*
X93115928Y-91229570D01*
X93068309Y-91110523D02*
X92568309Y-91110523D01*
X93020690Y-90586714D02*
X93044500Y-90610523D01*
X93044500Y-90610523D02*
X93068309Y-90681952D01*
X93068309Y-90681952D02*
X93068309Y-90729571D01*
X93068309Y-90729571D02*
X93044500Y-90800999D01*
X93044500Y-90800999D02*
X92996880Y-90848618D01*
X92996880Y-90848618D02*
X92949261Y-90872428D01*
X92949261Y-90872428D02*
X92854023Y-90896237D01*
X92854023Y-90896237D02*
X92782595Y-90896237D01*
X92782595Y-90896237D02*
X92687357Y-90872428D01*
X92687357Y-90872428D02*
X92639738Y-90848618D01*
X92639738Y-90848618D02*
X92592119Y-90800999D01*
X92592119Y-90800999D02*
X92568309Y-90729571D01*
X92568309Y-90729571D02*
X92568309Y-90681952D01*
X92568309Y-90681952D02*
X92592119Y-90610523D01*
X92592119Y-90610523D02*
X92615928Y-90586714D01*
X93068309Y-90372428D02*
X92568309Y-90372428D01*
X92806404Y-90372428D02*
X92806404Y-90086714D01*
X93068309Y-90086714D02*
X92568309Y-90086714D01*
X92592119Y-89586713D02*
X92568309Y-89634332D01*
X92568309Y-89634332D02*
X92568309Y-89705761D01*
X92568309Y-89705761D02*
X92592119Y-89777189D01*
X92592119Y-89777189D02*
X92639738Y-89824808D01*
X92639738Y-89824808D02*
X92687357Y-89848618D01*
X92687357Y-89848618D02*
X92782595Y-89872427D01*
X92782595Y-89872427D02*
X92854023Y-89872427D01*
X92854023Y-89872427D02*
X92949261Y-89848618D01*
X92949261Y-89848618D02*
X92996880Y-89824808D01*
X92996880Y-89824808D02*
X93044500Y-89777189D01*
X93044500Y-89777189D02*
X93068309Y-89705761D01*
X93068309Y-89705761D02*
X93068309Y-89658142D01*
X93068309Y-89658142D02*
X93044500Y-89586713D01*
X93044500Y-89586713D02*
X93020690Y-89562904D01*
X93020690Y-89562904D02*
X92854023Y-89562904D01*
X92854023Y-89562904D02*
X92854023Y-89658142D01*
X93068309Y-89086713D02*
X93068309Y-89372427D01*
X93068309Y-89229570D02*
X92568309Y-89229570D01*
X92568309Y-89229570D02*
X92639738Y-89277189D01*
X92639738Y-89277189D02*
X92687357Y-89324808D01*
X92687357Y-89324808D02*
X92711166Y-89372427D01*
%TO.C,C4*%
X88575690Y-79331333D02*
X88599500Y-79355142D01*
X88599500Y-79355142D02*
X88623309Y-79426571D01*
X88623309Y-79426571D02*
X88623309Y-79474190D01*
X88623309Y-79474190D02*
X88599500Y-79545618D01*
X88599500Y-79545618D02*
X88551880Y-79593237D01*
X88551880Y-79593237D02*
X88504261Y-79617047D01*
X88504261Y-79617047D02*
X88409023Y-79640856D01*
X88409023Y-79640856D02*
X88337595Y-79640856D01*
X88337595Y-79640856D02*
X88242357Y-79617047D01*
X88242357Y-79617047D02*
X88194738Y-79593237D01*
X88194738Y-79593237D02*
X88147119Y-79545618D01*
X88147119Y-79545618D02*
X88123309Y-79474190D01*
X88123309Y-79474190D02*
X88123309Y-79426571D01*
X88123309Y-79426571D02*
X88147119Y-79355142D01*
X88147119Y-79355142D02*
X88170928Y-79331333D01*
X88289976Y-78902761D02*
X88623309Y-78902761D01*
X88099500Y-79021809D02*
X88456642Y-79140856D01*
X88456642Y-79140856D02*
X88456642Y-78831333D01*
D10*
%TO.C,TH1*%
X91805286Y-97379619D02*
X92376714Y-97379619D01*
X92091000Y-98379619D02*
X92091000Y-97379619D01*
X92710048Y-98379619D02*
X92710048Y-97379619D01*
X92710048Y-97855809D02*
X93281476Y-97855809D01*
X93281476Y-98379619D02*
X93281476Y-97379619D01*
X94281476Y-98379619D02*
X93710048Y-98379619D01*
X93995762Y-98379619D02*
X93995762Y-97379619D01*
X93995762Y-97379619D02*
X93900524Y-97522476D01*
X93900524Y-97522476D02*
X93805286Y-97617714D01*
X93805286Y-97617714D02*
X93710048Y-97665333D01*
D13*
%TO.C,R3*%
X95137500Y-82312742D02*
X95137500Y-82787258D01*
X94092500Y-82312742D02*
X94092500Y-82787258D01*
%TO.C,C5*%
X94474420Y-87628000D02*
X94755580Y-87628000D01*
X94474420Y-88648000D02*
X94755580Y-88648000D01*
D14*
%TO.C,U2*%
X101879400Y-86512400D02*
X101220600Y-86512400D01*
X101879400Y-85699600D02*
X101879400Y-86512400D01*
X99693400Y-86512400D02*
X99034600Y-86512400D01*
X99034600Y-86512400D02*
X99034600Y-85699600D01*
D15*
%TO.C,SW1*%
X87987000Y-96119000D02*
X84987000Y-96119000D01*
X87987000Y-93619000D02*
X84987000Y-93619000D01*
D16*
X89287000Y-95069000D02*
G75*
G03*
X89287000Y-95069000I-100000J0D01*
G01*
D13*
%TO.C,LD1*%
X95542293Y-85116293D02*
X95542293Y-86586293D01*
X95542293Y-86586293D02*
X97827293Y-86586293D01*
X97827293Y-85116293D02*
X95542293Y-85116293D01*
%TO.C,C2*%
X84722580Y-84457000D02*
X84441420Y-84457000D01*
X84722580Y-83437000D02*
X84441420Y-83437000D01*
%TO.C,LD3*%
X97001000Y-81192000D02*
X95531000Y-81192000D01*
X95531000Y-81192000D02*
X95531000Y-83477000D01*
X97001000Y-83477000D02*
X97001000Y-81192000D01*
%TO.C,R1*%
X103648742Y-84440500D02*
X104123258Y-84440500D01*
X103648742Y-85485500D02*
X104123258Y-85485500D01*
%TO.C,J1*%
X95742000Y-92373000D02*
X95742000Y-93623000D01*
X96032000Y-92663000D02*
X96032000Y-98633000D01*
X96032000Y-98633000D02*
X103652000Y-98633000D01*
X96042000Y-92673000D02*
X96042000Y-93423000D01*
X96042000Y-93423000D02*
X97842000Y-93423000D01*
X96042000Y-94923000D02*
X96792000Y-94923000D01*
X96792000Y-94923000D02*
X96792000Y-97873000D01*
X96792000Y-97873000D02*
X99842000Y-97873000D01*
X96992000Y-92373000D02*
X95742000Y-92373000D01*
X97842000Y-92673000D02*
X96042000Y-92673000D01*
X97842000Y-93423000D02*
X97842000Y-92673000D01*
X99342000Y-92673000D02*
X99342000Y-93423000D01*
X99342000Y-93423000D02*
X100342000Y-93423000D01*
X100342000Y-92673000D02*
X99342000Y-92673000D01*
X100342000Y-93423000D02*
X100342000Y-92673000D01*
X101842000Y-92673000D02*
X101842000Y-93423000D01*
X101842000Y-93423000D02*
X103642000Y-93423000D01*
X102892000Y-94923000D02*
X102892000Y-97873000D01*
X102892000Y-97873000D02*
X99842000Y-97873000D01*
X103642000Y-92673000D02*
X101842000Y-92673000D01*
X103642000Y-93423000D02*
X103642000Y-92673000D01*
X103642000Y-94923000D02*
X102892000Y-94923000D01*
X103652000Y-92663000D02*
X96032000Y-92663000D01*
X103652000Y-98633000D02*
X103652000Y-92663000D01*
%TO.C,R_1*%
X90692500Y-95012742D02*
X90692500Y-95487258D01*
X89647500Y-95012742D02*
X89647500Y-95487258D01*
%TO.C,L1*%
X86214378Y-80212000D02*
X87013622Y-80212000D01*
X86214378Y-81332000D02*
X87013622Y-81332000D01*
%TO.C,RCC1*%
X91042258Y-75325500D02*
X90567742Y-75325500D01*
X91042258Y-74280500D02*
X90567742Y-74280500D01*
%TO.C,C1*%
X93220000Y-83425420D02*
X93220000Y-83706580D01*
X92200000Y-83425420D02*
X92200000Y-83706580D01*
%TO.C,RCC2*%
X85614742Y-74280500D02*
X86089258Y-74280500D01*
X85614742Y-75325500D02*
X86089258Y-75325500D01*
%TO.C,R6*%
X97933742Y-87107500D02*
X98408258Y-87107500D01*
X97933742Y-88152500D02*
X98408258Y-88152500D01*
%TO.C,J5*%
X109407000Y-89854000D02*
X108077000Y-89854000D01*
X109407000Y-88524000D02*
X109407000Y-89854000D01*
X109407000Y-87254000D02*
X109407000Y-84654000D01*
X109407000Y-87254000D02*
X106747000Y-87254000D01*
X109407000Y-84654000D02*
X106747000Y-84654000D01*
X106747000Y-87254000D02*
X106747000Y-84654000D01*
%TO.C,C3*%
X93851000Y-85865580D02*
X93851000Y-85584420D01*
X94871000Y-85865580D02*
X94871000Y-85584420D01*
%TO.C,J4*%
X111310000Y-82614000D02*
X111830000Y-82614000D01*
X111830000Y-82614000D02*
X111830000Y-67754000D01*
X97610000Y-81844000D02*
X99680000Y-81844000D01*
X97610000Y-81844000D02*
X97610000Y-79534000D01*
X111310000Y-81844000D02*
X111310000Y-82614000D01*
X111310000Y-81844000D02*
X103200000Y-81844000D01*
X96320000Y-79534000D02*
X97610000Y-79534000D01*
X97620000Y-77854000D02*
X97620000Y-77034000D01*
X97620000Y-75354000D02*
X97620000Y-75014000D01*
X97620000Y-73334000D02*
X97620000Y-72514000D01*
X97610000Y-70834000D02*
X97610000Y-68524000D01*
X97610000Y-68524000D02*
X99680000Y-68524000D01*
X103200000Y-68524000D02*
X111310000Y-68524000D01*
X111310000Y-67754000D02*
X111310000Y-68524000D01*
X111830000Y-67754000D02*
X111310000Y-67754000D01*
D15*
%TO.C,U1*%
X87038000Y-83217000D02*
X87038000Y-83512000D01*
X87038000Y-83217000D02*
X87333000Y-83217000D01*
X87038000Y-87217000D02*
X87038000Y-86922000D01*
X87038000Y-87217000D02*
X87333000Y-87217000D01*
X91038000Y-83217000D02*
X90743000Y-83217000D01*
X91038000Y-83217000D02*
X91038000Y-83512000D01*
X91038000Y-87217000D02*
X90743000Y-87217000D01*
X91038000Y-87217000D02*
X91038000Y-86922000D01*
D16*
X86178000Y-83967000D02*
G75*
G03*
X86178000Y-83967000I-100000J0D01*
G01*
D13*
%TO.C,J3*%
X78426000Y-68520000D02*
X79756000Y-68520000D01*
X78426000Y-69850000D02*
X78426000Y-68520000D01*
X78426000Y-71120000D02*
X78426000Y-99120000D01*
X78426000Y-71120000D02*
X81086000Y-71120000D01*
X78426000Y-99120000D02*
X81086000Y-99120000D01*
X81086000Y-71120000D02*
X81086000Y-99120000D01*
%TO.C,J2*%
X92862000Y-71028000D02*
X92862000Y-69228000D01*
X92862000Y-65518000D02*
X92862000Y-66978000D01*
X83922000Y-71028000D02*
X83922000Y-69228000D01*
X83922000Y-65518000D02*
X92862000Y-65518000D01*
X83922000Y-65518000D02*
X83922000Y-66978000D01*
%TO.C,R_ICHG1*%
X92216500Y-89678742D02*
X92216500Y-90153258D01*
X91171500Y-89678742D02*
X91171500Y-90153258D01*
%TO.C,C4*%
X89025000Y-80277580D02*
X89025000Y-79996420D01*
X90045000Y-80277580D02*
X90045000Y-79996420D01*
%TO.C,TH1*%
X92853742Y-95870500D02*
X93328258Y-95870500D01*
X92853742Y-96915500D02*
X93328258Y-96915500D01*
%TD*%
M02*
