%TF.GenerationSoftware,KiCad,Pcbnew,7.0.2*%
%TF.CreationDate,2025-03-07T15:38:25-05:00*%
%TF.ProjectId,2nPM1100,326e504d-3131-4303-902e-6b696361645f,rev?*%
%TF.SameCoordinates,Original*%
%TF.FileFunction,Copper,L1,Top*%
%TF.FilePolarity,Positive*%
%FSLAX46Y46*%
G04 Gerber Fmt 4.6, Leading zero omitted, Abs format (unit mm)*
G04 Created by KiCad (PCBNEW 7.0.2) date 2025-03-07 15:38:25*
%MOMM*%
%LPD*%
G01*
G04 APERTURE LIST*
G04 Aperture macros list*
%AMRoundRect*
0 Rectangle with rounded corners*
0 $1 Rounding radius*
0 $2 $3 $4 $5 $6 $7 $8 $9 X,Y pos of 4 corners*
0 Add a 4 corners polygon primitive as box body*
4,1,4,$2,$3,$4,$5,$6,$7,$8,$9,$2,$3,0*
0 Add four circle primitives for the rounded corners*
1,1,$1+$1,$2,$3*
1,1,$1+$1,$4,$5*
1,1,$1+$1,$6,$7*
1,1,$1+$1,$8,$9*
0 Add four rect primitives between the rounded corners*
20,1,$1+$1,$2,$3,$4,$5,0*
20,1,$1+$1,$4,$5,$6,$7,0*
20,1,$1+$1,$6,$7,$8,$9,0*
20,1,$1+$1,$8,$9,$2,$3,0*%
G04 Aperture macros list end*
%TA.AperFunction,NonConductor*%
%ADD10C,0.200000*%
%TD*%
%TA.AperFunction,NonConductor*%
%ADD11C,1.150000*%
%TD*%
%TA.AperFunction,SMDPad,CuDef*%
%ADD12RoundRect,0.200000X-0.275000X0.200000X-0.275000X-0.200000X0.275000X-0.200000X0.275000X0.200000X0*%
%TD*%
%TA.AperFunction,SMDPad,CuDef*%
%ADD13RoundRect,0.225000X-0.225000X-0.250000X0.225000X-0.250000X0.225000X0.250000X-0.225000X0.250000X0*%
%TD*%
%TA.AperFunction,SMDPad,CuDef*%
%ADD14R,1.000000X1.400000*%
%TD*%
%TA.AperFunction,SMDPad,CuDef*%
%ADD15R,0.800000X1.700000*%
%TD*%
%TA.AperFunction,SMDPad,CuDef*%
%ADD16RoundRect,0.218750X-0.218750X-0.256250X0.218750X-0.256250X0.218750X0.256250X-0.218750X0.256250X0*%
%TD*%
%TA.AperFunction,SMDPad,CuDef*%
%ADD17RoundRect,0.225000X0.225000X0.250000X-0.225000X0.250000X-0.225000X-0.250000X0.225000X-0.250000X0*%
%TD*%
%TA.AperFunction,SMDPad,CuDef*%
%ADD18RoundRect,0.218750X-0.256250X0.218750X-0.256250X-0.218750X0.256250X-0.218750X0.256250X0.218750X0*%
%TD*%
%TA.AperFunction,SMDPad,CuDef*%
%ADD19RoundRect,0.200000X-0.200000X-0.275000X0.200000X-0.275000X0.200000X0.275000X-0.200000X0.275000X0*%
%TD*%
%TA.AperFunction,ComponentPad*%
%ADD20RoundRect,0.250000X-0.600000X-0.750000X0.600000X-0.750000X0.600000X0.750000X-0.600000X0.750000X0*%
%TD*%
%TA.AperFunction,ComponentPad*%
%ADD21O,1.700000X2.000000*%
%TD*%
%TA.AperFunction,SMDPad,CuDef*%
%ADD22RoundRect,0.218750X-0.218750X-0.381250X0.218750X-0.381250X0.218750X0.381250X-0.218750X0.381250X0*%
%TD*%
%TA.AperFunction,SMDPad,CuDef*%
%ADD23RoundRect,0.200000X0.200000X0.275000X-0.200000X0.275000X-0.200000X-0.275000X0.200000X-0.275000X0*%
%TD*%
%TA.AperFunction,SMDPad,CuDef*%
%ADD24RoundRect,0.225000X-0.250000X0.225000X-0.250000X-0.225000X0.250000X-0.225000X0.250000X0.225000X0*%
%TD*%
%TA.AperFunction,ComponentPad*%
%ADD25R,1.700000X1.700000*%
%TD*%
%TA.AperFunction,ComponentPad*%
%ADD26O,1.700000X1.700000*%
%TD*%
%TA.AperFunction,SMDPad,CuDef*%
%ADD27RoundRect,0.225000X0.250000X-0.225000X0.250000X0.225000X-0.250000X0.225000X-0.250000X-0.225000X0*%
%TD*%
%TA.AperFunction,SMDPad,CuDef*%
%ADD28R,3.000000X1.250000*%
%TD*%
%TA.AperFunction,ComponentPad*%
%ADD29C,3.000000*%
%TD*%
%TA.AperFunction,SMDPad,CuDef*%
%ADD30RoundRect,0.033750X-0.371250X-0.101250X0.371250X-0.101250X0.371250X0.101250X-0.371250X0.101250X0*%
%TD*%
%TA.AperFunction,SMDPad,CuDef*%
%ADD31RoundRect,0.033750X-0.101250X-0.371250X0.101250X-0.371250X0.101250X0.371250X-0.101250X0.371250X0*%
%TD*%
%TA.AperFunction,SMDPad,CuDef*%
%ADD32R,2.700000X2.700000*%
%TD*%
%TA.AperFunction,SMDPad,CuDef*%
%ADD33R,0.600000X1.160000*%
%TD*%
%TA.AperFunction,SMDPad,CuDef*%
%ADD34R,0.300000X1.160000*%
%TD*%
%TA.AperFunction,ComponentPad*%
%ADD35O,0.900000X2.000000*%
%TD*%
%TA.AperFunction,ComponentPad*%
%ADD36O,0.900000X1.700000*%
%TD*%
%TA.AperFunction,ViaPad*%
%ADD37C,1.270000*%
%TD*%
%TA.AperFunction,ViaPad*%
%ADD38C,1.200000*%
%TD*%
%TA.AperFunction,Conductor*%
%ADD39C,0.250000*%
%TD*%
%TA.AperFunction,Conductor*%
%ADD40C,0.500000*%
%TD*%
G04 APERTURE END LIST*
D10*
X77470000Y-66040000D02*
X111379000Y-66040000D01*
X77470000Y-66040000D02*
X77470000Y-100330000D01*
X77470000Y-100330000D02*
X111379000Y-100330000D01*
D11*
X108906000Y-97282000D02*
G75*
G03*
X108906000Y-97282000I-575000J0D01*
G01*
D10*
X111379000Y-66040000D02*
X111379000Y-100330000D01*
D12*
%TO.P,R3,1*%
%TO.N,VBUS*%
X94615000Y-81725000D03*
%TO.P,R3,2*%
%TO.N,Net-(LD3-A)*%
X94615000Y-83375000D03*
%TD*%
D13*
%TO.P,C5,1*%
%TO.N,Net-(J1-Pin_1)*%
X93840000Y-88138000D03*
%TO.P,C5,2*%
%TO.N,GND*%
X95390000Y-88138000D03*
%TD*%
D14*
%TO.P,U2,1*%
%TO.N,Low_Batt*%
X101407000Y-84752000D03*
%TO.P,U2,2*%
%TO.N,Net-(LD1-K)*%
X99507000Y-84752000D03*
%TO.P,U2,3*%
%TO.N,GND*%
X100457000Y-86952000D03*
%TD*%
D15*
%TO.P,SW1,1*%
%TO.N,Net-(U1-SHPHLD)*%
X88187000Y-94869000D03*
%TO.P,SW1,2*%
%TO.N,GND*%
X84787000Y-94869000D03*
%TD*%
D16*
%TO.P,LD1,1,K*%
%TO.N,Net-(LD1-K)*%
X96239793Y-85851293D03*
%TO.P,LD1,2,A*%
%TO.N,Net-(LD1-A)*%
X97814793Y-85851293D03*
%TD*%
D17*
%TO.P,C2,1*%
%TO.N,VOUTB*%
X85357000Y-83947000D03*
%TO.P,C2,2*%
%TO.N,GND*%
X83807000Y-83947000D03*
%TD*%
D18*
%TO.P,LD3,1,K*%
%TO.N,GND*%
X96266000Y-81889500D03*
%TO.P,LD3,2,A*%
%TO.N,Net-(LD3-A)*%
X96266000Y-83464500D03*
%TD*%
D19*
%TO.P,R1,1*%
%TO.N,Low_Batt*%
X103061000Y-84963000D03*
%TO.P,R1,2*%
%TO.N,GND*%
X104711000Y-84963000D03*
%TD*%
D20*
%TO.P,J1,1,Pin_1*%
%TO.N,Net-(J1-Pin_1)*%
X98592000Y-95123000D03*
D21*
%TO.P,J1,2,Pin_2*%
%TO.N,GND*%
X101092000Y-95123000D03*
%TD*%
D12*
%TO.P,R_1,1*%
%TO.N,Net-(J1-Pin_1)*%
X90170000Y-94425000D03*
%TO.P,R_1,2*%
%TO.N,Net-(U1-SHPHLD)*%
X90170000Y-96075000D03*
%TD*%
D22*
%TO.P,L1,1,1*%
%TO.N,VOUTB*%
X85551500Y-80772000D03*
%TO.P,L1,2,2*%
%TO.N,Net-(U1-SW)*%
X87676500Y-80772000D03*
%TD*%
D23*
%TO.P,RCC1,1*%
%TO.N,GND*%
X91630000Y-74803000D03*
%TO.P,RCC1,2*%
%TO.N,Net-(J2-CC1)*%
X89980000Y-74803000D03*
%TD*%
D24*
%TO.P,C1,1*%
%TO.N,VBUS*%
X92710000Y-82791000D03*
%TO.P,C1,2*%
%TO.N,GND*%
X92710000Y-84341000D03*
%TD*%
D19*
%TO.P,RCC2,1*%
%TO.N,GND*%
X85027000Y-74803000D03*
%TO.P,RCC2,2*%
%TO.N,Net-(J2-CC2)*%
X86677000Y-74803000D03*
%TD*%
%TO.P,R6,1*%
%TO.N,VSYS*%
X97346000Y-87630000D03*
%TO.P,R6,2*%
%TO.N,Net-(LD1-A)*%
X98996000Y-87630000D03*
%TD*%
D25*
%TO.P,J5,1,Pin_1*%
%TO.N,VSYS*%
X108077000Y-88524000D03*
D26*
%TO.P,J5,2,Pin_2*%
%TO.N,GND*%
X108077000Y-85984000D03*
%TD*%
D27*
%TO.P,C3,1*%
%TO.N,VSYS*%
X94361000Y-86500000D03*
%TO.P,C3,2*%
%TO.N,GND*%
X94361000Y-84950000D03*
%TD*%
D28*
%TO.P,J4,1,VBUS*%
%TO.N,VBUS*%
X97760000Y-78684000D03*
%TO.P,J4,2,D-*%
%TO.N,Net-(J3-Pin_3)*%
X97760000Y-76184000D03*
%TO.P,J4,3,D+*%
%TO.N,Net-(J3-Pin_4)*%
X97760000Y-74184000D03*
%TO.P,J4,4,GND*%
%TO.N,GND*%
X97760000Y-71684000D03*
D29*
%TO.P,J4,5,Shield*%
X101440000Y-81754000D03*
X101440000Y-68614000D03*
%TD*%
D30*
%TO.P,U1,1,VOUTB*%
%TO.N,VOUTB*%
X87088000Y-83967000D03*
%TO.P,U1,2,VOUTBSET1*%
%TO.N,GND*%
X87088000Y-84467000D03*
%TO.P,U1,3,VOUTBSET2*%
X87088000Y-84967000D03*
%TO.P,U1,4,NC*%
%TO.N,unconnected-(U1-NC-Pad4)*%
X87088000Y-85467000D03*
%TO.P,U1,5,ISET*%
%TO.N,Net-(J3-Pin_7)*%
X87088000Y-85967000D03*
%TO.P,U1,6,SHPACT*%
%TO.N,SHPACT*%
X87088000Y-86467000D03*
D31*
%TO.P,U1,7,MODE*%
%TO.N,Net-(J3-Pin_9)*%
X87788000Y-87167000D03*
%TO.P,U1,8,CHG*%
%TO.N,CHG*%
X88288000Y-87167000D03*
%TO.P,U1,9,VTERMSET*%
%TO.N,unconnected-(U1-VTERMSET-Pad9)*%
X88788000Y-87167000D03*
%TO.P,U1,10,ERR*%
%TO.N,ERR*%
X89288000Y-87167000D03*
%TO.P,U1,11,SHPHLD*%
%TO.N,Net-(U1-SHPHLD)*%
X89788000Y-87167000D03*
%TO.P,U1,12,ICHG*%
%TO.N,Net-(U1-ICHG)*%
X90288000Y-87167000D03*
D30*
%TO.P,U1,13,NC__1*%
%TO.N,unconnected-(U1-NC__1-Pad13)*%
X90988000Y-86467000D03*
%TO.P,U1,14,NTC*%
%TO.N,Net-(U1-NTC)*%
X90988000Y-85967000D03*
%TO.P,U1,15,VBAT*%
%TO.N,Net-(J1-Pin_1)*%
X90988000Y-85467000D03*
%TO.P,U1,16,VSYS*%
%TO.N,VSYS*%
X90988000Y-84967000D03*
%TO.P,U1,17,VBUS*%
%TO.N,VBUS*%
X90988000Y-84467000D03*
%TO.P,U1,18,NC__2*%
%TO.N,unconnected-(U1-NC__2-Pad18)*%
X90988000Y-83967000D03*
D31*
%TO.P,U1,19,D-*%
%TO.N,Net-(J3-Pin_3)*%
X90288000Y-83267000D03*
%TO.P,U1,20,D+*%
%TO.N,Net-(J3-Pin_4)*%
X89788000Y-83267000D03*
%TO.P,U1,21,DEC*%
%TO.N,Net-(U1-DEC)*%
X89288000Y-83267000D03*
%TO.P,U1,22,SW*%
%TO.N,Net-(U1-SW)*%
X88788000Y-83267000D03*
%TO.P,U1,23,PVSS*%
%TO.N,GND*%
X88288000Y-83267000D03*
%TO.P,U1,24,NC__3*%
%TO.N,unconnected-(U1-NC__3-Pad24)*%
X87788000Y-83267000D03*
D32*
%TO.P,U1,25,EXP*%
%TO.N,GND*%
X89038000Y-85217000D03*
%TD*%
D25*
%TO.P,J3,1,Pin_1*%
%TO.N,GND*%
X79756000Y-69850000D03*
D26*
%TO.P,J3,2,Pin_2*%
%TO.N,VBUS*%
X79756000Y-72390000D03*
%TO.P,J3,3,Pin_3*%
%TO.N,Net-(J3-Pin_3)*%
X79756000Y-74930000D03*
%TO.P,J3,4,Pin_4*%
%TO.N,Net-(J3-Pin_4)*%
X79756000Y-77470000D03*
%TO.P,J3,5,Pin_5*%
%TO.N,VOUTB*%
X79756000Y-80010000D03*
%TO.P,J3,6,Pin_6*%
X79756000Y-82550000D03*
%TO.P,J3,7,Pin_7*%
%TO.N,Net-(J3-Pin_7)*%
X79756000Y-85090000D03*
%TO.P,J3,8,Pin_8*%
%TO.N,SHPACT*%
X79756000Y-87630000D03*
%TO.P,J3,9,Pin_9*%
%TO.N,Net-(J3-Pin_9)*%
X79756000Y-90170000D03*
%TO.P,J3,10,Pin_10*%
%TO.N,CHG*%
X79756000Y-92710000D03*
%TO.P,J3,11,Pin_11*%
%TO.N,ERR*%
X79756000Y-95250000D03*
%TO.P,J3,12,Pin_12*%
%TO.N,Low_Batt*%
X79756000Y-97790000D03*
%TD*%
D33*
%TO.P,J2,A1,GND*%
%TO.N,GND*%
X91592000Y-72868000D03*
%TO.P,J2,A4,VBUS*%
%TO.N,VBUS*%
X90792000Y-72868000D03*
D34*
%TO.P,J2,A5,CC1*%
%TO.N,Net-(J2-CC1)*%
X89642000Y-72868000D03*
%TO.P,J2,A6,D+*%
%TO.N,Net-(J3-Pin_4)*%
X88642000Y-72868000D03*
%TO.P,J2,A7,D-*%
%TO.N,Net-(J3-Pin_3)*%
X88142000Y-72868000D03*
%TO.P,J2,A8,SBU1*%
%TO.N,unconnected-(J2-SBU1-PadA8)*%
X87142000Y-72868000D03*
D33*
%TO.P,J2,A9,VBUS*%
%TO.N,VBUS*%
X85992000Y-72868000D03*
%TO.P,J2,A12,GND*%
%TO.N,GND*%
X85192000Y-72868000D03*
%TO.P,J2,B1,GND*%
X85192000Y-72868000D03*
%TO.P,J2,B4,VBUS*%
%TO.N,VBUS*%
X85992000Y-72868000D03*
D34*
%TO.P,J2,B5,CC2*%
%TO.N,Net-(J2-CC2)*%
X86642000Y-72868000D03*
%TO.P,J2,B6,D+*%
%TO.N,Net-(J3-Pin_4)*%
X87642000Y-72868000D03*
%TO.P,J2,B7,D-*%
%TO.N,Net-(J3-Pin_3)*%
X89142000Y-72868000D03*
%TO.P,J2,B8,SBU2*%
%TO.N,unconnected-(J2-SBU2-PadB8)*%
X90142000Y-72868000D03*
D33*
%TO.P,J2,B9,VBUS*%
%TO.N,VBUS*%
X90792000Y-72868000D03*
%TO.P,J2,B12,GND*%
%TO.N,GND*%
X91592000Y-72868000D03*
D35*
%TO.P,J2,S1,SHIELD*%
X92712000Y-72288000D03*
D36*
X92712000Y-68118000D03*
D35*
X84072000Y-72288000D03*
D36*
X84072000Y-68118000D03*
%TD*%
D12*
%TO.P,R_ICHG1,1*%
%TO.N,Net-(U1-ICHG)*%
X91694000Y-89091000D03*
%TO.P,R_ICHG1,2*%
%TO.N,GND*%
X91694000Y-90741000D03*
%TD*%
D27*
%TO.P,C4,1*%
%TO.N,Net-(U1-DEC)*%
X89535000Y-80912000D03*
%TO.P,C4,2*%
%TO.N,GND*%
X89535000Y-79362000D03*
%TD*%
D19*
%TO.P,TH1,1*%
%TO.N,GND*%
X92266000Y-96393000D03*
%TO.P,TH1,2*%
%TO.N,Net-(U1-NTC)*%
X93916000Y-96393000D03*
%TD*%
D37*
%TO.N,VBUS*%
X94996000Y-72263000D03*
%TO.N,GND*%
X92329000Y-76835000D03*
X88011000Y-91567000D03*
X105029000Y-86995000D03*
X85471000Y-76962000D03*
%TO.N,VOUTB*%
X85598000Y-82550000D03*
X82296000Y-82550000D03*
%TO.N,Net-(J3-Pin_3)*%
X92583000Y-81280000D03*
X94331500Y-79756000D03*
X94996000Y-76327000D03*
%TO.N,Low_Batt*%
X102997000Y-87122000D03*
X84836000Y-97790000D03*
%TO.N,Net-(U1-SHPHLD)*%
X89789000Y-92771000D03*
X89789000Y-89662000D03*
%TO.N,Net-(J3-Pin_4)*%
X88011000Y-77343000D03*
X91313000Y-80010000D03*
X94966500Y-74422000D03*
D38*
%TO.N,Net-(U1-NTC)*%
X93853000Y-94488000D03*
X92329000Y-87249000D03*
%TD*%
D39*
%TO.N,VBUS*%
X94361000Y-70104000D02*
X94996000Y-70739000D01*
D40*
X95321000Y-78684000D02*
X95321000Y-80320000D01*
D39*
X91718000Y-83288000D02*
X92215000Y-82791000D01*
D40*
X94297000Y-81725000D02*
X93231000Y-82791000D01*
D39*
X97760000Y-78811000D02*
X97633000Y-78684000D01*
D40*
X93853000Y-77216000D02*
X95321000Y-78684000D01*
D39*
X91694000Y-70104000D02*
X87503000Y-70104000D01*
X94996000Y-70739000D02*
X94996000Y-72263000D01*
D40*
X93231000Y-82791000D02*
X92710000Y-82791000D01*
D39*
X87503000Y-70104000D02*
X86487000Y-71120000D01*
X91694000Y-70104000D02*
X90678000Y-71120000D01*
D40*
X94615000Y-81026000D02*
X94615000Y-81725000D01*
D39*
X90988000Y-84467000D02*
X91555000Y-84467000D01*
X94361000Y-70104000D02*
X91694000Y-70104000D01*
D40*
X95321000Y-78684000D02*
X97760000Y-78684000D01*
D39*
X91555000Y-84467000D02*
X91718000Y-84304000D01*
X86487000Y-71543000D02*
X85992000Y-72038000D01*
X85992000Y-72038000D02*
X85992000Y-72868000D01*
X97633000Y-78684000D02*
X95321000Y-78684000D01*
D40*
X94996000Y-72263000D02*
X93853000Y-73406000D01*
X94615000Y-81725000D02*
X94297000Y-81725000D01*
D39*
X91718000Y-84304000D02*
X91718000Y-83288000D01*
X86487000Y-71120000D02*
X86487000Y-71543000D01*
X90678000Y-72754000D02*
X90792000Y-72868000D01*
D40*
X93853000Y-73406000D02*
X93853000Y-77216000D01*
D39*
X90678000Y-71120000D02*
X90678000Y-72754000D01*
D40*
X95321000Y-80320000D02*
X94615000Y-81026000D01*
D39*
X92215000Y-82791000D02*
X92710000Y-82791000D01*
%TO.N,GND*%
X87088000Y-84967000D02*
X88788000Y-84967000D01*
X85471000Y-76962000D02*
X86614000Y-78105000D01*
X101092000Y-92964000D02*
X101092000Y-95123000D01*
X87757000Y-82042000D02*
X88288000Y-82573000D01*
X83807000Y-84569000D02*
X83807000Y-83947000D01*
D40*
X97536000Y-83693000D02*
X97536000Y-82677000D01*
D39*
X83693000Y-83833000D02*
X83807000Y-83947000D01*
X88788000Y-84967000D02*
X89038000Y-85217000D01*
X81661000Y-69850000D02*
X82296000Y-70485000D01*
X85192000Y-74638000D02*
X85027000Y-74803000D01*
X87088000Y-84967000D02*
X84205000Y-84967000D01*
X87088000Y-84467000D02*
X87088000Y-84967000D01*
D40*
X96380000Y-84950000D02*
X94361000Y-84950000D01*
D39*
X87871000Y-79362000D02*
X86614000Y-78105000D01*
D40*
X97536000Y-82677000D02*
X96748500Y-81889500D01*
D39*
X95390000Y-88138000D02*
X96266000Y-88138000D01*
X87122000Y-82042000D02*
X87757000Y-82042000D01*
X89535000Y-79362000D02*
X87871000Y-79362000D01*
D40*
X97536000Y-83820000D02*
X96393000Y-84963000D01*
D39*
X82296000Y-70485000D02*
X82296000Y-80264000D01*
X84205000Y-84967000D02*
X83807000Y-84569000D01*
D40*
X96748500Y-81889500D02*
X96266000Y-81889500D01*
D39*
X79756000Y-69850000D02*
X81661000Y-69850000D01*
X86614000Y-78105000D02*
X86614000Y-81534000D01*
X85192000Y-72868000D02*
X85192000Y-74638000D01*
X88288000Y-82573000D02*
X88288000Y-83267000D01*
X96266000Y-88138000D02*
X101092000Y-92964000D01*
X91592000Y-72868000D02*
X91592000Y-74765000D01*
X87088000Y-84467000D02*
X88288000Y-84467000D01*
D40*
X92710000Y-84341000D02*
X94247000Y-84341000D01*
D39*
X88288000Y-83267000D02*
X88288000Y-84467000D01*
X83693000Y-81661000D02*
X83693000Y-83833000D01*
X82296000Y-80264000D02*
X83693000Y-81661000D01*
D40*
X96393000Y-84963000D02*
X96380000Y-84950000D01*
D39*
X86614000Y-81534000D02*
X87122000Y-82042000D01*
D40*
X97536000Y-83693000D02*
X97536000Y-83820000D01*
D39*
X91592000Y-74765000D02*
X91630000Y-74803000D01*
D40*
X94247000Y-84341000D02*
X94361000Y-84455000D01*
D39*
X88288000Y-84467000D02*
X89038000Y-85217000D01*
%TO.N,VOUTB*%
X85357000Y-82690000D02*
X85357000Y-83947000D01*
X82296000Y-82550000D02*
X79756000Y-82550000D01*
X85217000Y-82550000D02*
X85357000Y-82690000D01*
X85598000Y-82550000D02*
X85598000Y-82169000D01*
X87068000Y-83947000D02*
X87088000Y-83967000D01*
X85598000Y-82169000D02*
X85551500Y-82215500D01*
X85217000Y-82550000D02*
X85217000Y-82550000D01*
X85551500Y-82215500D02*
X85551500Y-80772000D01*
X79756000Y-80010000D02*
X79756000Y-82550000D01*
X85357000Y-83947000D02*
X87068000Y-83947000D01*
X85217000Y-82550000D02*
X85598000Y-82550000D01*
%TO.N,VSYS*%
X97346000Y-87530248D02*
X97395876Y-87580124D01*
D40*
X104648000Y-90551000D02*
X106675000Y-88524000D01*
D39*
X94361000Y-86500000D02*
X93599000Y-85738000D01*
D40*
X106675000Y-88524000D02*
X108077000Y-88524000D01*
X94361000Y-86500000D02*
X94882000Y-86500000D01*
X94882000Y-86500000D02*
X95504000Y-87122000D01*
X95504000Y-87122000D02*
X96838000Y-87122000D01*
X100267000Y-90551000D02*
X104648000Y-90551000D01*
X96838000Y-87122000D02*
X100267000Y-90551000D01*
D39*
X93599000Y-85738000D02*
X92723000Y-85738000D01*
X91952000Y-84967000D02*
X90988000Y-84967000D01*
X92723000Y-85738000D02*
X91952000Y-84967000D01*
%TO.N,Net-(U1-DEC)*%
X89288000Y-83267000D02*
X89288000Y-82303421D01*
X89535000Y-82056421D02*
X89535000Y-80912000D01*
X89288000Y-82303421D02*
X89535000Y-82056421D01*
%TO.N,Net-(J1-Pin_1)*%
X91817000Y-85467000D02*
X93840000Y-87490000D01*
X93840000Y-87490000D02*
X93840000Y-88138000D01*
D40*
X93840000Y-91580000D02*
X90995000Y-94425000D01*
X98592000Y-95123000D02*
X96901000Y-95123000D01*
X93840000Y-88138000D02*
X93840000Y-91580000D01*
D39*
X93840000Y-88138000D02*
X93713000Y-88265000D01*
X93840000Y-92062000D02*
X93840000Y-88138000D01*
X90988000Y-85467000D02*
X91817000Y-85467000D01*
D40*
X96901000Y-95123000D02*
X93840000Y-92062000D01*
D39*
X93967000Y-88519000D02*
X93586000Y-88519000D01*
D40*
X90995000Y-94425000D02*
X90170000Y-94425000D01*
D39*
%TO.N,Net-(J2-CC1)*%
X89642000Y-74595000D02*
X89723000Y-74676000D01*
X89642000Y-72868000D02*
X89642000Y-74595000D01*
%TO.N,Net-(J3-Pin_3)*%
X92583000Y-81280000D02*
X92583000Y-81661000D01*
X88773000Y-71501000D02*
X89142000Y-71870000D01*
X90977000Y-83267000D02*
X90288000Y-83267000D01*
X94234000Y-79756000D02*
X92710000Y-81280000D01*
X92710000Y-81280000D02*
X92583000Y-81280000D01*
X95139000Y-76184000D02*
X97760000Y-76184000D01*
X88142000Y-72868000D02*
X88142000Y-71751000D01*
X94996000Y-76327000D02*
X95123000Y-76200000D01*
X89154000Y-77724000D02*
X89535000Y-78105000D01*
X89154000Y-76481000D02*
X89154000Y-77724000D01*
X88392000Y-71501000D02*
X88773000Y-71501000D01*
X92583000Y-81661000D02*
X90977000Y-83267000D01*
X89142000Y-71870000D02*
X89142000Y-72868000D01*
X89142000Y-72868000D02*
X89142000Y-76469000D01*
X92583000Y-79883000D02*
X92583000Y-81280000D01*
X88142000Y-71751000D02*
X88392000Y-71501000D01*
X94331500Y-79756000D02*
X94234000Y-79756000D01*
X89535000Y-78105000D02*
X90805000Y-78105000D01*
X90805000Y-78105000D02*
X92583000Y-79883000D01*
X94996000Y-76327000D02*
X95139000Y-76184000D01*
X89142000Y-76469000D02*
X89154000Y-76481000D01*
%TO.N,Net-(J2-CC2)*%
X86642000Y-74765000D02*
X86553000Y-74676000D01*
X86642000Y-72868000D02*
X86642000Y-74765000D01*
%TO.N,ERR*%
X89288000Y-88385000D02*
X87503000Y-90170000D01*
X87503000Y-90170000D02*
X86106000Y-90170000D01*
X89288000Y-87167000D02*
X89288000Y-88385000D01*
X86106000Y-90170000D02*
X81026000Y-95250000D01*
X81026000Y-95250000D02*
X79756000Y-95250000D01*
%TO.N,CHG*%
X82550000Y-92710000D02*
X85598000Y-89662000D01*
X86868000Y-89662000D02*
X85598000Y-89662000D01*
X79756000Y-92710000D02*
X82550000Y-92710000D01*
X88288000Y-87167000D02*
X88288000Y-88242000D01*
X88288000Y-88242000D02*
X86868000Y-89662000D01*
%TO.N,SHPACT*%
X79756000Y-87630000D02*
X83947000Y-87630000D01*
X83947000Y-87630000D02*
X85110000Y-86467000D01*
X87088000Y-86467000D02*
X85110000Y-86467000D01*
%TO.N,Low_Batt*%
X101577000Y-84963000D02*
X101407000Y-85133000D01*
X84836000Y-97790000D02*
X79756000Y-97790000D01*
X102997000Y-87122000D02*
X102997000Y-85133000D01*
X103061000Y-84963000D02*
X101577000Y-84963000D01*
%TO.N,Net-(U1-SW)*%
X87676500Y-80772000D02*
X88265000Y-80772000D01*
X88392000Y-80899000D02*
X88392000Y-81915000D01*
X88392000Y-81915000D02*
X88788000Y-82311000D01*
X88788000Y-82311000D02*
X88788000Y-83267000D01*
X88265000Y-80772000D02*
X88392000Y-80899000D01*
%TO.N,Net-(LD1-K)*%
X97028000Y-85598000D02*
X97028000Y-85090000D01*
X96774000Y-85852000D02*
X97028000Y-85598000D01*
X96240500Y-85852000D02*
X96774000Y-85852000D01*
X97366000Y-84752000D02*
X99507000Y-84752000D01*
X97028000Y-85090000D02*
X97366000Y-84752000D01*
%TO.N,Net-(LD1-A)*%
X98996000Y-86423000D02*
X98996000Y-87630000D01*
X97815500Y-85852000D02*
X98425000Y-85852000D01*
X98425000Y-85852000D02*
X98996000Y-86423000D01*
%TO.N,Net-(LD3-A)*%
X94615000Y-83375000D02*
X96176500Y-83375000D01*
X96176500Y-83375000D02*
X96266000Y-83464500D01*
%TO.N,Net-(U1-SHPHLD)*%
X89789000Y-92771000D02*
X89723000Y-92837000D01*
X89723000Y-92837000D02*
X88900000Y-92837000D01*
X88187000Y-93550000D02*
X88187000Y-94869000D01*
X89788000Y-89661000D02*
X89788000Y-87167000D01*
D40*
X88392000Y-96139000D02*
X90106000Y-96139000D01*
D39*
X88187000Y-95934000D02*
X88392000Y-96139000D01*
D40*
X88187000Y-94869000D02*
X88187000Y-95934000D01*
D39*
X90106000Y-96139000D02*
X90170000Y-96075000D01*
X89789000Y-89662000D02*
X89789000Y-89156000D01*
X89789000Y-89662000D02*
X89788000Y-89661000D01*
X89789000Y-89156000D02*
X89788000Y-89155000D01*
X89789000Y-92771000D02*
X89584000Y-92976000D01*
X88900000Y-92837000D02*
X88187000Y-93550000D01*
%TO.N,Net-(U1-ICHG)*%
X90288000Y-88322000D02*
X91057000Y-89091000D01*
X90288000Y-87167000D02*
X90288000Y-88322000D01*
X91057000Y-89091000D02*
X91694000Y-89091000D01*
%TO.N,Net-(J3-Pin_4)*%
X88392000Y-73914000D02*
X88642000Y-73664000D01*
X87757000Y-77089000D02*
X88011000Y-77089000D01*
X91313000Y-80773396D02*
X89788000Y-82298396D01*
X87642000Y-72868000D02*
X87642000Y-73545000D01*
X94966500Y-74422000D02*
X95204500Y-74184000D01*
X87642000Y-73545000D02*
X88011000Y-73914000D01*
X88011000Y-77089000D02*
X88011000Y-77343000D01*
X79740000Y-77454000D02*
X79756000Y-77470000D01*
X88011000Y-77089000D02*
X88392000Y-77089000D01*
X88642000Y-73664000D02*
X88642000Y-72868000D01*
X95204500Y-74184000D02*
X97760000Y-74184000D01*
X89788000Y-82298396D02*
X89788000Y-83267000D01*
X88011000Y-73914000D02*
X88392000Y-73914000D01*
X88011000Y-77343000D02*
X88011000Y-73914000D01*
X91313000Y-80010000D02*
X91313000Y-80773396D01*
%TO.N,Net-(J3-Pin_7)*%
X79756000Y-85090000D02*
X81661000Y-85090000D01*
X81661000Y-85090000D02*
X82538000Y-85967000D01*
X84062000Y-85967000D02*
X84328000Y-85967000D01*
X82538000Y-85967000D02*
X84328000Y-85967000D01*
X84328000Y-85967000D02*
X87088000Y-85967000D01*
%TO.N,Net-(J3-Pin_9)*%
X85217000Y-89027000D02*
X84074000Y-90170000D01*
X84074000Y-90170000D02*
X79756000Y-90170000D01*
X86741000Y-89027000D02*
X85217000Y-89027000D01*
X87788000Y-87167000D02*
X87788000Y-87980000D01*
X87788000Y-87980000D02*
X86741000Y-89027000D01*
%TO.N,Net-(U1-NTC)*%
X91822026Y-85967000D02*
X90988000Y-85967000D01*
X93853000Y-94488000D02*
X93853000Y-96330000D01*
X93853000Y-96330000D02*
X93916000Y-96393000D01*
X92329000Y-87249000D02*
X92329000Y-86473974D01*
X92329000Y-86473974D02*
X91822026Y-85967000D01*
%TD*%
%TA.AperFunction,Conductor*%
%TO.N,Net-(J3-Pin_9)*%
G36*
X80091836Y-89389791D02*
G01*
X80092413Y-89390049D01*
X81449366Y-90041814D01*
X81455339Y-90048484D01*
X81456000Y-90052360D01*
X81456000Y-90287639D01*
X81452573Y-90295912D01*
X81449366Y-90298186D01*
X80092413Y-90949950D01*
X80083471Y-90950442D01*
X80076800Y-90944469D01*
X80076542Y-90943892D01*
X79756865Y-90174489D01*
X79756856Y-90165534D01*
X79756865Y-90165511D01*
X80076542Y-89396107D01*
X80082881Y-89389782D01*
X80091836Y-89389791D01*
G37*
%TD.AperFunction*%
%TD*%
%TA.AperFunction,Conductor*%
%TO.N,Net-(U1-NTC)*%
G36*
X92124515Y-86094000D02*
G01*
X92125103Y-86094633D01*
X92271864Y-86265211D01*
X92746196Y-86816521D01*
X92748994Y-86825028D01*
X92745614Y-86832411D01*
X92335240Y-87244155D01*
X92326972Y-87247596D01*
X92322469Y-87246703D01*
X91783705Y-87023138D01*
X91777377Y-87016802D01*
X91776758Y-87009837D01*
X91939378Y-86265209D01*
X91942534Y-86259436D01*
X92107972Y-86093998D01*
X92116242Y-86090573D01*
X92124515Y-86094000D01*
G37*
%TD.AperFunction*%
%TD*%
%TA.AperFunction,Conductor*%
%TO.N,Net-(J3-Pin_3)*%
G36*
X96266395Y-75561663D02*
G01*
X97735060Y-76173199D01*
X97741381Y-76179543D01*
X97741364Y-76188497D01*
X97735060Y-76194801D01*
X96266395Y-76806336D01*
X96257441Y-76806353D01*
X96254589Y-76804671D01*
X95639391Y-76312512D01*
X95635072Y-76304668D01*
X95635000Y-76303376D01*
X95635000Y-76064623D01*
X95638427Y-76056350D01*
X95639391Y-76055487D01*
X96254590Y-75563327D01*
X96263190Y-75560836D01*
X96266395Y-75561663D01*
G37*
%TD.AperFunction*%
%TD*%
%TA.AperFunction,Conductor*%
%TO.N,Net-(U1-DEC)*%
G36*
X89541833Y-80915918D02*
G01*
X89976503Y-81228770D01*
X89981216Y-81236384D01*
X89979863Y-81244007D01*
X89663356Y-81806041D01*
X89656310Y-81811568D01*
X89653161Y-81812000D01*
X89416839Y-81812000D01*
X89408566Y-81808573D01*
X89406644Y-81806041D01*
X89090136Y-81244007D01*
X89089063Y-81235117D01*
X89093494Y-81228772D01*
X89528165Y-80915918D01*
X89536882Y-80913867D01*
X89541833Y-80915918D01*
G37*
%TD.AperFunction*%
%TD*%
%TA.AperFunction,Conductor*%
%TO.N,VBUS*%
G36*
X94147044Y-81540764D02*
G01*
X94610189Y-81722132D01*
X94616642Y-81728338D01*
X94617229Y-81730019D01*
X94719347Y-82114191D01*
X94718161Y-82123067D01*
X94711552Y-82128357D01*
X94040701Y-82339488D01*
X94031781Y-82338703D01*
X94028916Y-82336601D01*
X93688741Y-81996426D01*
X93685314Y-81988153D01*
X93688741Y-81979880D01*
X93688747Y-81979873D01*
X94134594Y-81543298D01*
X94142903Y-81539960D01*
X94147044Y-81540764D01*
G37*
%TD.AperFunction*%
%TD*%
%TA.AperFunction,Conductor*%
%TO.N,VOUTB*%
G36*
X79760489Y-80010865D02*
G01*
X80529892Y-80330542D01*
X80536217Y-80336881D01*
X80536208Y-80345836D01*
X80535950Y-80346413D01*
X79884186Y-81703366D01*
X79877515Y-81709339D01*
X79873639Y-81710000D01*
X79638361Y-81710000D01*
X79630088Y-81706573D01*
X79627814Y-81703366D01*
X78976049Y-80346413D01*
X78975557Y-80337471D01*
X78981530Y-80330800D01*
X78982095Y-80330547D01*
X79751511Y-80010864D01*
X79760466Y-80010856D01*
X79760489Y-80010865D01*
G37*
%TD.AperFunction*%
%TD*%
%TA.AperFunction,Conductor*%
%TO.N,Low_Batt*%
G36*
X84597486Y-97214144D02*
G01*
X84597618Y-97214448D01*
X84835131Y-97785507D01*
X84835144Y-97794462D01*
X84835131Y-97794493D01*
X84597618Y-98365551D01*
X84591277Y-98371874D01*
X84582322Y-98371861D01*
X84582018Y-98371729D01*
X83572903Y-97918103D01*
X83566762Y-97911586D01*
X83566000Y-97907432D01*
X83566000Y-97672567D01*
X83569427Y-97664294D01*
X83572899Y-97661898D01*
X84582020Y-97208269D01*
X84590969Y-97208003D01*
X84597486Y-97214144D01*
G37*
%TD.AperFunction*%
%TD*%
%TA.AperFunction,Conductor*%
%TO.N,VOUTB*%
G36*
X82057486Y-81974144D02*
G01*
X82057618Y-81974448D01*
X82295131Y-82545507D01*
X82295144Y-82554462D01*
X82295131Y-82554493D01*
X82057618Y-83125551D01*
X82051277Y-83131874D01*
X82042322Y-83131861D01*
X82042018Y-83131729D01*
X81032903Y-82678103D01*
X81026762Y-82671586D01*
X81026000Y-82667432D01*
X81026000Y-82432567D01*
X81029427Y-82424294D01*
X81032899Y-82421898D01*
X82042020Y-81968269D01*
X82050969Y-81968003D01*
X82057486Y-81974144D01*
G37*
%TD.AperFunction*%
%TD*%
%TA.AperFunction,Conductor*%
%TO.N,SHPACT*%
G36*
X80091836Y-86849791D02*
G01*
X80092413Y-86850049D01*
X81449366Y-87501814D01*
X81455339Y-87508484D01*
X81456000Y-87512360D01*
X81456000Y-87747639D01*
X81452573Y-87755912D01*
X81449366Y-87758186D01*
X80092413Y-88409950D01*
X80083471Y-88410442D01*
X80076800Y-88404469D01*
X80076542Y-88403892D01*
X79756865Y-87634489D01*
X79756856Y-87625534D01*
X79756865Y-87625511D01*
X80076542Y-86856107D01*
X80082881Y-86849782D01*
X80091836Y-86849791D01*
G37*
%TD.AperFunction*%
%TD*%
%TA.AperFunction,Conductor*%
%TO.N,Net-(J3-Pin_4)*%
G36*
X96180063Y-74056923D02*
G01*
X96187366Y-74062105D01*
X96189159Y-74068329D01*
X96189159Y-74303038D01*
X96185732Y-74311311D01*
X96184335Y-74312504D01*
X95423587Y-74865147D01*
X95414880Y-74867237D01*
X95408447Y-74863963D01*
X94971049Y-74427537D01*
X94967613Y-74419268D01*
X94968510Y-74414762D01*
X95011041Y-74312504D01*
X95205716Y-73844442D01*
X95212056Y-73838121D01*
X95219119Y-73837531D01*
X96180063Y-74056923D01*
G37*
%TD.AperFunction*%
%TD*%
%TA.AperFunction,Conductor*%
%TO.N,VBUS*%
G36*
X96266395Y-78061663D02*
G01*
X97735060Y-78673199D01*
X97741381Y-78679543D01*
X97741364Y-78688497D01*
X97735060Y-78694801D01*
X96266395Y-79306336D01*
X96257441Y-79306353D01*
X96254589Y-79304671D01*
X95639391Y-78812512D01*
X95635072Y-78804668D01*
X95635000Y-78803376D01*
X95635000Y-78564623D01*
X95638427Y-78556350D01*
X95639391Y-78555487D01*
X96254590Y-78063327D01*
X96263190Y-78060836D01*
X96266395Y-78061663D01*
G37*
%TD.AperFunction*%
%TD*%
%TA.AperFunction,Conductor*%
%TO.N,VBUS*%
G36*
X96265452Y-78061270D02*
G01*
X97735060Y-78673199D01*
X97741381Y-78679543D01*
X97741364Y-78688497D01*
X97735060Y-78694801D01*
X96265452Y-79306729D01*
X96256498Y-79306746D01*
X96254935Y-79305961D01*
X95640680Y-78937408D01*
X95635349Y-78930213D01*
X95635000Y-78927375D01*
X95635000Y-78440625D01*
X95638427Y-78432352D01*
X95640680Y-78430592D01*
X95640679Y-78430592D01*
X96254937Y-78062037D01*
X96263793Y-78060720D01*
X96265452Y-78061270D01*
G37*
%TD.AperFunction*%
%TD*%
%TA.AperFunction,Conductor*%
%TO.N,VBUS*%
G36*
X85947310Y-71923098D02*
G01*
X85949573Y-71924863D01*
X86115509Y-72090799D01*
X86115955Y-72091270D01*
X86286617Y-72281985D01*
X86289580Y-72290435D01*
X86288288Y-72295167D01*
X86002130Y-72847777D01*
X85995282Y-72853548D01*
X85986360Y-72852787D01*
X85981173Y-72847421D01*
X85717902Y-72293657D01*
X85717445Y-72284713D01*
X85718426Y-72282631D01*
X85931262Y-71927125D01*
X85938451Y-71921788D01*
X85947310Y-71923098D01*
G37*
%TD.AperFunction*%
%TD*%
%TA.AperFunction,Conductor*%
%TO.N,VOUTB*%
G36*
X85689006Y-83502135D02*
G01*
X85694974Y-83505496D01*
X86251041Y-83818644D01*
X86256568Y-83825690D01*
X86257000Y-83828839D01*
X86257000Y-84065160D01*
X86253573Y-84073433D01*
X86251041Y-84075355D01*
X85689008Y-84391863D01*
X85680118Y-84392936D01*
X85673771Y-84388503D01*
X85447000Y-84073433D01*
X85360918Y-83953834D01*
X85358867Y-83945118D01*
X85360919Y-83940165D01*
X85441046Y-83828839D01*
X85673772Y-83505494D01*
X85681385Y-83500783D01*
X85689006Y-83502135D01*
G37*
%TD.AperFunction*%
%TD*%
%TA.AperFunction,Conductor*%
%TO.N,Low_Batt*%
G36*
X102715119Y-84570371D02*
G01*
X103055155Y-84955253D01*
X103058065Y-84963722D01*
X103055155Y-84970747D01*
X102715119Y-85355628D01*
X102707073Y-85359559D01*
X102700226Y-85357850D01*
X102266575Y-85091425D01*
X102261320Y-85084174D01*
X102261000Y-85081456D01*
X102261000Y-84844543D01*
X102264427Y-84836270D01*
X102266570Y-84834577D01*
X102700226Y-84568148D01*
X102709069Y-84566738D01*
X102715119Y-84570371D01*
G37*
%TD.AperFunction*%
%TD*%
%TA.AperFunction,Conductor*%
%TO.N,VOUTB*%
G36*
X85603536Y-82554548D02*
G01*
X86039942Y-82991926D01*
X86043360Y-83000203D01*
X86041106Y-83007094D01*
X85485505Y-83767267D01*
X85477856Y-83771924D01*
X85476059Y-83772063D01*
X85241357Y-83772063D01*
X85233084Y-83768636D01*
X85229943Y-83762935D01*
X85057767Y-82999013D01*
X85013498Y-82802598D01*
X85015022Y-82793776D01*
X85020416Y-82789227D01*
X85590762Y-82552009D01*
X85599717Y-82551997D01*
X85603536Y-82554548D01*
G37*
%TD.AperFunction*%
%TD*%
%TA.AperFunction,Conductor*%
%TO.N,Net-(J3-Pin_3)*%
G36*
X93445750Y-80372629D02*
G01*
X93448412Y-80374623D01*
X93614514Y-80540725D01*
X93617941Y-80548998D01*
X93616864Y-80553900D01*
X93174368Y-81512808D01*
X93167790Y-81518884D01*
X93159283Y-81518722D01*
X92948398Y-81431729D01*
X92586791Y-81282562D01*
X92580450Y-81276239D01*
X92580437Y-81276208D01*
X92344957Y-80705363D01*
X92344970Y-80696408D01*
X92351311Y-80690085D01*
X92352464Y-80689679D01*
X93436848Y-80371669D01*
X93445750Y-80372629D01*
G37*
%TD.AperFunction*%
%TD*%
%TA.AperFunction,Conductor*%
%TO.N,Net-(J3-Pin_3)*%
G36*
X89152079Y-72907863D02*
G01*
X89153329Y-72910880D01*
X89291380Y-73445599D01*
X89291592Y-73450447D01*
X89268630Y-73588223D01*
X89263890Y-73595821D01*
X89257089Y-73598000D01*
X89026911Y-73598000D01*
X89018638Y-73594573D01*
X89015370Y-73588223D01*
X88992407Y-73450443D01*
X88992618Y-73445603D01*
X89130671Y-72910879D01*
X89136058Y-72903726D01*
X89144925Y-72902476D01*
X89152079Y-72907863D01*
G37*
%TD.AperFunction*%
%TD*%
%TA.AperFunction,Conductor*%
%TO.N,VBUS*%
G36*
X85947310Y-71923098D02*
G01*
X85949573Y-71924863D01*
X86115509Y-72090799D01*
X86115955Y-72091270D01*
X86286617Y-72281985D01*
X86289580Y-72290435D01*
X86288288Y-72295167D01*
X86002130Y-72847777D01*
X85995282Y-72853548D01*
X85986360Y-72852787D01*
X85981173Y-72847421D01*
X85717902Y-72293657D01*
X85717445Y-72284713D01*
X85718426Y-72282631D01*
X85931262Y-71927125D01*
X85938451Y-71921788D01*
X85947310Y-71923098D01*
G37*
%TD.AperFunction*%
%TD*%
%TA.AperFunction,Conductor*%
%TO.N,Net-(LD1-K)*%
G36*
X96551482Y-85396500D02*
G01*
X96924476Y-85521261D01*
X96929036Y-85524083D01*
X97095942Y-85690989D01*
X97099369Y-85699262D01*
X97096292Y-85707169D01*
X96671256Y-86170682D01*
X96663139Y-86174464D01*
X96655505Y-86172053D01*
X96248431Y-85859342D01*
X96243958Y-85851585D01*
X96245795Y-85843618D01*
X96538011Y-85401147D01*
X96545428Y-85396134D01*
X96551482Y-85396500D01*
G37*
%TD.AperFunction*%
%TD*%
%TA.AperFunction,Conductor*%
%TO.N,ERR*%
G36*
X81239079Y-94856680D02*
G01*
X81243599Y-94859488D01*
X81409022Y-95024911D01*
X81412449Y-95033184D01*
X81409022Y-95041457D01*
X81407884Y-95042457D01*
X80365173Y-95844783D01*
X80356526Y-95847112D01*
X80349776Y-95843793D01*
X79760836Y-95256237D01*
X79757400Y-95247969D01*
X79758293Y-95243473D01*
X80077088Y-94474810D01*
X80083422Y-94468482D01*
X80091645Y-94468211D01*
X81239079Y-94856680D01*
G37*
%TD.AperFunction*%
%TD*%
%TA.AperFunction,Conductor*%
%TO.N,Net-(LD1-A)*%
G36*
X98235475Y-85506595D02*
G01*
X98692467Y-85943079D01*
X98696083Y-85951272D01*
X98692847Y-85959621D01*
X98692659Y-85959813D01*
X98525870Y-86126602D01*
X98522384Y-86129005D01*
X98127033Y-86306281D01*
X98118082Y-86306539D01*
X98112483Y-86302053D01*
X97820498Y-85859931D01*
X97818798Y-85851139D01*
X97822671Y-85844579D01*
X98219807Y-85506150D01*
X98228325Y-85503393D01*
X98235475Y-85506595D01*
G37*
%TD.AperFunction*%
%TD*%
%TA.AperFunction,Conductor*%
%TO.N,VOUTB*%
G36*
X85677537Y-81292676D02*
G01*
X85679732Y-81295722D01*
X86179063Y-82295780D01*
X86179693Y-82304713D01*
X86173822Y-82311475D01*
X86173088Y-82311810D01*
X85602493Y-82549131D01*
X85593538Y-82549144D01*
X85593507Y-82549131D01*
X85022065Y-82311458D01*
X85015742Y-82305117D01*
X85015725Y-82296236D01*
X85423530Y-81296530D01*
X85429828Y-81290164D01*
X85434363Y-81289249D01*
X85669264Y-81289249D01*
X85677537Y-81292676D01*
G37*
%TD.AperFunction*%
%TD*%
%TA.AperFunction,Conductor*%
%TO.N,Low_Batt*%
G36*
X103122705Y-85855427D02*
G01*
X103125103Y-85858903D01*
X103578729Y-86868018D01*
X103578996Y-86876969D01*
X103572855Y-86883486D01*
X103572551Y-86883618D01*
X103001492Y-87121131D01*
X102992537Y-87121143D01*
X102421447Y-86883617D01*
X102415125Y-86877277D01*
X102415138Y-86868322D01*
X102415243Y-86868078D01*
X102868896Y-85858903D01*
X102875414Y-85852762D01*
X102879568Y-85852000D01*
X103114432Y-85852000D01*
X103122705Y-85855427D01*
G37*
%TD.AperFunction*%
%TD*%
%TA.AperFunction,Conductor*%
%TO.N,Net-(LD3-A)*%
G36*
X94974419Y-82994135D02*
G01*
X95483502Y-83246775D01*
X95489388Y-83253521D01*
X95490000Y-83257254D01*
X95490000Y-83492745D01*
X95486573Y-83501018D01*
X95483501Y-83503225D01*
X94974420Y-83755863D01*
X94965486Y-83756471D01*
X94960592Y-83753287D01*
X94729459Y-83501018D01*
X94621240Y-83382902D01*
X94618179Y-83374489D01*
X94621240Y-83367097D01*
X94960593Y-82996711D01*
X94968708Y-82992927D01*
X94974419Y-82994135D01*
G37*
%TD.AperFunction*%
%TD*%
%TA.AperFunction,Conductor*%
%TO.N,VSYS*%
G36*
X93744374Y-85702459D02*
G01*
X94536845Y-86045434D01*
X94543077Y-86051865D01*
X94543016Y-86060629D01*
X94363735Y-86495783D01*
X94357415Y-86502127D01*
X94356661Y-86502411D01*
X93896360Y-86657896D01*
X93887426Y-86657297D01*
X93881810Y-86651294D01*
X93563296Y-85883301D01*
X93563293Y-85874347D01*
X93565828Y-85870550D01*
X93731455Y-85704923D01*
X93739727Y-85701497D01*
X93744374Y-85702459D01*
G37*
%TD.AperFunction*%
%TD*%
%TA.AperFunction,Conductor*%
%TO.N,VOUTB*%
G36*
X79881912Y-80853427D02*
G01*
X79884186Y-80856634D01*
X80535950Y-82213586D01*
X80536442Y-82222528D01*
X80530469Y-82229199D01*
X80529892Y-82229457D01*
X79760489Y-82549134D01*
X79751534Y-82549143D01*
X79751511Y-82549134D01*
X78982107Y-82229457D01*
X78975782Y-82223118D01*
X78975791Y-82214163D01*
X78976049Y-82213586D01*
X79627814Y-80856634D01*
X79634485Y-80850661D01*
X79638361Y-80850000D01*
X79873639Y-80850000D01*
X79881912Y-80853427D01*
G37*
%TD.AperFunction*%
%TD*%
%TA.AperFunction,Conductor*%
%TO.N,Net-(U1-NTC)*%
G36*
X94396281Y-94713014D02*
G01*
X94402603Y-94719355D01*
X94402589Y-94728310D01*
X94402487Y-94728550D01*
X93981082Y-95681034D01*
X93974600Y-95687213D01*
X93970382Y-95688000D01*
X93735618Y-95688000D01*
X93727345Y-95684573D01*
X93724918Y-95681034D01*
X93303512Y-94728550D01*
X93303299Y-94719598D01*
X93309478Y-94713116D01*
X93309643Y-94713045D01*
X93848507Y-94488868D01*
X93857458Y-94488855D01*
X94396281Y-94713014D01*
G37*
%TD.AperFunction*%
%TD*%
%TA.AperFunction,Conductor*%
%TO.N,VOUTB*%
G36*
X85559342Y-80779772D02*
G01*
X85560175Y-80780605D01*
X85857832Y-81110169D01*
X85966917Y-81230948D01*
X85969919Y-81239384D01*
X85968628Y-81244161D01*
X85679770Y-81803171D01*
X85672928Y-81808948D01*
X85669376Y-81809500D01*
X85433624Y-81809500D01*
X85425351Y-81806073D01*
X85423230Y-81803171D01*
X85134371Y-81244161D01*
X85133617Y-81235238D01*
X85136080Y-81230950D01*
X85542818Y-80780612D01*
X85550906Y-80776770D01*
X85559342Y-80779772D01*
G37*
%TD.AperFunction*%
%TD*%
%TA.AperFunction,Conductor*%
%TO.N,VBUS*%
G36*
X92260174Y-82489655D02*
G01*
X92701730Y-82784303D01*
X92706710Y-82791745D01*
X92705461Y-82799722D01*
X92463839Y-83234097D01*
X92456822Y-83239662D01*
X92452163Y-83240020D01*
X92003315Y-83183941D01*
X91996493Y-83180604D01*
X91830051Y-83014162D01*
X91826624Y-83005889D01*
X91829276Y-82998472D01*
X92244634Y-82491966D01*
X92252529Y-82487744D01*
X92260174Y-82489655D01*
G37*
%TD.AperFunction*%
%TD*%
%TA.AperFunction,Conductor*%
%TO.N,Net-(J3-Pin_4)*%
G36*
X96266395Y-73561663D02*
G01*
X97735060Y-74173199D01*
X97741381Y-74179543D01*
X97741364Y-74188497D01*
X97735060Y-74194801D01*
X96266395Y-74806336D01*
X96257441Y-74806353D01*
X96254589Y-74804671D01*
X95639391Y-74312512D01*
X95635072Y-74304668D01*
X95635000Y-74303376D01*
X95635000Y-74064623D01*
X95638427Y-74056350D01*
X95639391Y-74055487D01*
X96254590Y-73563327D01*
X96263190Y-73560836D01*
X96266395Y-73561663D01*
G37*
%TD.AperFunction*%
%TD*%
%TA.AperFunction,Conductor*%
%TO.N,Net-(J2-CC2)*%
G36*
X86768434Y-73931427D02*
G01*
X86770354Y-73933957D01*
X87017716Y-74373222D01*
X87057218Y-74443369D01*
X87058291Y-74452259D01*
X87054927Y-74457737D01*
X86684904Y-74796758D01*
X86676489Y-74799820D01*
X86669096Y-74796758D01*
X86298348Y-74457074D01*
X86294563Y-74448958D01*
X86295501Y-74443831D01*
X86295700Y-74443369D01*
X86513958Y-73935083D01*
X86520371Y-73928834D01*
X86524709Y-73928000D01*
X86760161Y-73928000D01*
X86768434Y-73931427D01*
G37*
%TD.AperFunction*%
%TD*%
%TA.AperFunction,Conductor*%
%TO.N,VOUTB*%
G36*
X85483187Y-83025427D02*
G01*
X85485283Y-83028279D01*
X85785349Y-83602243D01*
X85786145Y-83611163D01*
X85782169Y-83616895D01*
X85364189Y-83942401D01*
X85355556Y-83944781D01*
X85349811Y-83942401D01*
X84931830Y-83616895D01*
X84927408Y-83609108D01*
X84928649Y-83602245D01*
X85228717Y-83028278D01*
X85235587Y-83022535D01*
X85239086Y-83022000D01*
X85474914Y-83022000D01*
X85483187Y-83025427D01*
G37*
%TD.AperFunction*%
%TD*%
%TA.AperFunction,Conductor*%
%TO.N,Net-(J1-Pin_1)*%
G36*
X90529509Y-94044369D02*
G01*
X90851979Y-94212036D01*
X90854855Y-94214144D01*
X91194030Y-94553319D01*
X91197457Y-94561592D01*
X91194030Y-94569865D01*
X91189671Y-94572618D01*
X90528837Y-94807184D01*
X90519894Y-94806722D01*
X90516300Y-94804066D01*
X90176532Y-94433600D01*
X90173466Y-94425187D01*
X90176518Y-94417800D01*
X90362614Y-94214144D01*
X90515475Y-94046857D01*
X90523585Y-94043062D01*
X90529509Y-94044369D01*
G37*
%TD.AperFunction*%
%TD*%
%TA.AperFunction,Conductor*%
%TO.N,Net-(J3-Pin_4)*%
G36*
X87652391Y-72912555D02*
G01*
X87653948Y-72916056D01*
X87790866Y-73443631D01*
X87789906Y-73451998D01*
X87768692Y-73492508D01*
X87766600Y-73495353D01*
X87604802Y-73657151D01*
X87596529Y-73660578D01*
X87588256Y-73657151D01*
X87585353Y-73652341D01*
X87522970Y-73450867D01*
X87522687Y-73445057D01*
X87631162Y-72916641D01*
X87636183Y-72909227D01*
X87644976Y-72907534D01*
X87652391Y-72912555D01*
G37*
%TD.AperFunction*%
%TD*%
%TA.AperFunction,Conductor*%
%TO.N,Net-(LD1-K)*%
G36*
X99014175Y-84259161D02*
G01*
X99499702Y-84743719D01*
X99503137Y-84751988D01*
X99499718Y-84760265D01*
X99499702Y-84760281D01*
X99014175Y-85244838D01*
X99005898Y-85248257D01*
X98998890Y-85245917D01*
X98511680Y-84880509D01*
X98507118Y-84872804D01*
X98507000Y-84871149D01*
X98507000Y-84632849D01*
X98510427Y-84624576D01*
X98511671Y-84623496D01*
X98998891Y-84258081D01*
X99007565Y-84255860D01*
X99014175Y-84259161D01*
G37*
%TD.AperFunction*%
%TD*%
%TA.AperFunction,Conductor*%
%TO.N,Net-(U1-SHPHLD)*%
G36*
X88198276Y-94893734D02*
G01*
X88584103Y-95712851D01*
X88584528Y-95721796D01*
X88583093Y-95724561D01*
X88406785Y-95975596D01*
X88405483Y-95977145D01*
X88238608Y-96144020D01*
X88230335Y-96147447D01*
X88222062Y-96144020D01*
X88221247Y-96143115D01*
X88085430Y-95975596D01*
X87881560Y-95724139D01*
X87879012Y-95715556D01*
X87879650Y-95712785D01*
X88176694Y-94894725D01*
X88182738Y-94888120D01*
X88191684Y-94887723D01*
X88198276Y-94893734D01*
G37*
%TD.AperFunction*%
%TD*%
%TA.AperFunction,Conductor*%
%TO.N,Net-(J1-Pin_1)*%
G36*
X93847187Y-88142597D02*
G01*
X94165857Y-88390764D01*
X94266487Y-88469131D01*
X94270909Y-88476918D01*
X94270472Y-88481832D01*
X94092556Y-89054770D01*
X94086829Y-89061654D01*
X94081382Y-89063000D01*
X93598618Y-89063000D01*
X93590345Y-89059573D01*
X93587444Y-89054770D01*
X93409527Y-88481832D01*
X93410347Y-88472915D01*
X93413510Y-88469132D01*
X93832811Y-88142597D01*
X93841444Y-88140218D01*
X93847187Y-88142597D01*
G37*
%TD.AperFunction*%
%TD*%
%TA.AperFunction,Conductor*%
%TO.N,Net-(J3-Pin_3)*%
G36*
X96229413Y-76056401D02*
G01*
X96236253Y-76062181D01*
X96237556Y-76067547D01*
X96237556Y-76302407D01*
X96234129Y-76310680D01*
X96231916Y-76312415D01*
X95250642Y-76906616D01*
X95241790Y-76907970D01*
X95234574Y-76902668D01*
X95233779Y-76901101D01*
X94996868Y-76331492D01*
X94996855Y-76322539D01*
X95234878Y-75750254D01*
X95241219Y-75743932D01*
X95249238Y-75743602D01*
X96229413Y-76056401D01*
G37*
%TD.AperFunction*%
%TD*%
%TA.AperFunction,Conductor*%
%TO.N,Net-(U1-SHPHLD)*%
G36*
X89913712Y-88395626D02*
G01*
X89916106Y-88399093D01*
X90370715Y-89408013D01*
X90370990Y-89416963D01*
X90364854Y-89423486D01*
X90364541Y-89423622D01*
X89793492Y-89661131D01*
X89784537Y-89661143D01*
X89699271Y-89625680D01*
X89213441Y-89423614D01*
X89207118Y-89417273D01*
X89207131Y-89408318D01*
X89207259Y-89408022D01*
X89659899Y-88399110D01*
X89666412Y-88392964D01*
X89670574Y-88392199D01*
X89905439Y-88392199D01*
X89913712Y-88395626D01*
G37*
%TD.AperFunction*%
%TD*%
%TA.AperFunction,Conductor*%
%TO.N,GND*%
G36*
X83409591Y-66609866D02*
G01*
X83484946Y-66664615D01*
X83531519Y-66745280D01*
X83541255Y-66837914D01*
X83512472Y-66926500D01*
X83472811Y-66976854D01*
X83347461Y-67096007D01*
X83237086Y-67254586D01*
X83160894Y-67432135D01*
X83122000Y-67621395D01*
X83122000Y-67868000D01*
X83772000Y-67868000D01*
X83772000Y-68368000D01*
X83122000Y-68368000D01*
X83122000Y-68560492D01*
X83122574Y-68571823D01*
X83136648Y-68710222D01*
X83194488Y-68894570D01*
X83288251Y-69063499D01*
X83414107Y-69210105D01*
X83566895Y-69328372D01*
X83740358Y-69413459D01*
X83821999Y-69434596D01*
X83822000Y-69434595D01*
X83822000Y-68684110D01*
X83846457Y-68723610D01*
X83935962Y-68791201D01*
X84043840Y-68821895D01*
X84155521Y-68811546D01*
X84255922Y-68761552D01*
X84322000Y-68689069D01*
X84322000Y-69438470D01*
X84492530Y-69375313D01*
X84656497Y-69273111D01*
X84796538Y-69139992D01*
X84906913Y-68981413D01*
X84983105Y-68803864D01*
X85022000Y-68614604D01*
X85022000Y-68368000D01*
X84372000Y-68368000D01*
X84372000Y-67868000D01*
X85022000Y-67868000D01*
X85022000Y-67675507D01*
X85021425Y-67664176D01*
X85007351Y-67525777D01*
X84949511Y-67341429D01*
X84855748Y-67172500D01*
X84729890Y-67025892D01*
X84685632Y-66991634D01*
X84625439Y-66920552D01*
X84599361Y-66831132D01*
X84611909Y-66738837D01*
X84660911Y-66659624D01*
X84737896Y-66607191D01*
X84822743Y-66590500D01*
X91958482Y-66590500D01*
X92049591Y-66609866D01*
X92124946Y-66664615D01*
X92171519Y-66745280D01*
X92181255Y-66837914D01*
X92152472Y-66926500D01*
X92112811Y-66976854D01*
X91987461Y-67096007D01*
X91877086Y-67254586D01*
X91800894Y-67432135D01*
X91762000Y-67621395D01*
X91762000Y-67868000D01*
X92412000Y-67868000D01*
X92412000Y-68368000D01*
X91762000Y-68368000D01*
X91762000Y-68560492D01*
X91762574Y-68571823D01*
X91776648Y-68710222D01*
X91834488Y-68894570D01*
X91928251Y-69063499D01*
X92009886Y-69158593D01*
X92054537Y-69240338D01*
X92062080Y-69333176D01*
X92031210Y-69421056D01*
X91967264Y-69488783D01*
X91881300Y-69524645D01*
X91839923Y-69528500D01*
X91746397Y-69528500D01*
X91717160Y-69526584D01*
X91702431Y-69524645D01*
X91694000Y-69523535D01*
X91685569Y-69524645D01*
X91670840Y-69526584D01*
X91641603Y-69528500D01*
X87555397Y-69528500D01*
X87526160Y-69526584D01*
X87502999Y-69523534D01*
X87465291Y-69528499D01*
X87465281Y-69528500D01*
X87465280Y-69528500D01*
X87427774Y-69533437D01*
X87352762Y-69543313D01*
X87212768Y-69601301D01*
X87212766Y-69601302D01*
X87212767Y-69601302D01*
X87122733Y-69670387D01*
X87122695Y-69670415D01*
X87092546Y-69693550D01*
X87078323Y-69712086D01*
X87059010Y-69734108D01*
X86117108Y-70676010D01*
X86095086Y-70695323D01*
X86076550Y-70709546D01*
X86053389Y-70739730D01*
X86053210Y-70739963D01*
X85955836Y-70866861D01*
X85946564Y-70920821D01*
X85945462Y-70923531D01*
X85926314Y-70969759D01*
X85926313Y-70969762D01*
X85926313Y-70969764D01*
X85915828Y-71049406D01*
X85911500Y-71082281D01*
X85911500Y-71082286D01*
X85906535Y-71119999D01*
X85909584Y-71143160D01*
X85911500Y-71172397D01*
X85911500Y-71205096D01*
X85892134Y-71296205D01*
X85837385Y-71371560D01*
X85756720Y-71418133D01*
X85664086Y-71427869D01*
X85652459Y-71426338D01*
X85533520Y-71407500D01*
X85533519Y-71407500D01*
X85470481Y-71407500D01*
X85470480Y-71407500D01*
X85376696Y-71422353D01*
X85260966Y-71481321D01*
X85170996Y-71505428D01*
X85078998Y-71490857D01*
X85000881Y-71440127D01*
X84962141Y-71380473D01*
X84960567Y-71381347D01*
X84855748Y-71192500D01*
X84729892Y-71045894D01*
X84577104Y-70927628D01*
X84403640Y-70842540D01*
X84322001Y-70821402D01*
X84322000Y-70821403D01*
X84322000Y-71571889D01*
X84297543Y-71532390D01*
X84208038Y-71464799D01*
X84100160Y-71434105D01*
X83988479Y-71444454D01*
X83888078Y-71494448D01*
X83822000Y-71566930D01*
X83822000Y-70817529D01*
X83821999Y-70817528D01*
X83651468Y-70880687D01*
X83487504Y-70982886D01*
X83347461Y-71116007D01*
X83237086Y-71274586D01*
X83160894Y-71452135D01*
X83122000Y-71641395D01*
X83122000Y-72038000D01*
X83772000Y-72038000D01*
X83772000Y-72538000D01*
X83122000Y-72538000D01*
X83122000Y-72880492D01*
X83122574Y-72891823D01*
X83136648Y-73030222D01*
X83194488Y-73214570D01*
X83288251Y-73383499D01*
X83414107Y-73530105D01*
X83566895Y-73648372D01*
X83740358Y-73733459D01*
X83821999Y-73754596D01*
X83822000Y-73754595D01*
X83822000Y-73004110D01*
X83846457Y-73043610D01*
X83935962Y-73111201D01*
X84043840Y-73141895D01*
X84155521Y-73131546D01*
X84255922Y-73081552D01*
X84321999Y-73009069D01*
X84322000Y-73777704D01*
X84333776Y-73790262D01*
X84364349Y-73878246D01*
X84356492Y-73971059D01*
X84311563Y-74052651D01*
X84300490Y-74064560D01*
X84271925Y-74093124D01*
X84183980Y-74238602D01*
X84133409Y-74400892D01*
X84127458Y-74466375D01*
X84127000Y-74476496D01*
X84127000Y-74553000D01*
X84777000Y-74553000D01*
X84777000Y-74012000D01*
X84796366Y-73920891D01*
X84851115Y-73845536D01*
X84931780Y-73798963D01*
X84956808Y-73794999D01*
X84972726Y-73784662D01*
X85064723Y-73770091D01*
X85154694Y-73794199D01*
X85227081Y-73852816D01*
X85269367Y-73935809D01*
X85277000Y-73993784D01*
X85277000Y-75777999D01*
X85278501Y-75777999D01*
X85288628Y-75777539D01*
X85354101Y-75771591D01*
X85516400Y-75721017D01*
X85661873Y-75633075D01*
X85728608Y-75566340D01*
X85806725Y-75515609D01*
X85898723Y-75501038D01*
X85988694Y-75525145D01*
X86045393Y-75566339D01*
X86075135Y-75596081D01*
X86216602Y-75679744D01*
X86374431Y-75725598D01*
X86374435Y-75725599D01*
X86406895Y-75728153D01*
X86406898Y-75728153D01*
X86411306Y-75728500D01*
X86415713Y-75728500D01*
X86938287Y-75728500D01*
X86942694Y-75728500D01*
X86947102Y-75728153D01*
X86947104Y-75728153D01*
X86961084Y-75727052D01*
X86979569Y-75725598D01*
X87084781Y-75695030D01*
X87149005Y-75676372D01*
X87241899Y-75669549D01*
X87329537Y-75701100D01*
X87396765Y-75765569D01*
X87431960Y-75851809D01*
X87435500Y-75891477D01*
X87435500Y-75916185D01*
X87416134Y-76007294D01*
X87415811Y-76008016D01*
X87011530Y-76907488D01*
X87011524Y-76907502D01*
X87010839Y-76909027D01*
X87010734Y-76909271D01*
X87009714Y-76912034D01*
X87009706Y-76912055D01*
X87004612Y-76925860D01*
X86994987Y-76948142D01*
X86994465Y-76949189D01*
X86939411Y-77142686D01*
X86920849Y-77343000D01*
X86939411Y-77543315D01*
X86994463Y-77736805D01*
X87084136Y-77916890D01*
X87205368Y-78077428D01*
X87354040Y-78212960D01*
X87525075Y-78318861D01*
X87566972Y-78335092D01*
X87712666Y-78391534D01*
X87910414Y-78428500D01*
X88111586Y-78428500D01*
X88309334Y-78391534D01*
X88455029Y-78335091D01*
X88546978Y-78320238D01*
X88637022Y-78344068D01*
X88709589Y-78402462D01*
X88752132Y-78485324D01*
X88757293Y-78578325D01*
X88725607Y-78661635D01*
X88726172Y-78661984D01*
X88724353Y-78664931D01*
X88724181Y-78665386D01*
X88723723Y-78665952D01*
X88623452Y-78828517D01*
X88570143Y-78989392D01*
X88560580Y-79083005D01*
X88560000Y-79094392D01*
X88560000Y-79112000D01*
X89561000Y-79112000D01*
X89652109Y-79131366D01*
X89727464Y-79186115D01*
X89774037Y-79266780D01*
X89785000Y-79336000D01*
X89785000Y-79388000D01*
X89765634Y-79479109D01*
X89710885Y-79554464D01*
X89630220Y-79601037D01*
X89561000Y-79612000D01*
X88560001Y-79612000D01*
X88560001Y-79613410D01*
X88540635Y-79704519D01*
X88485886Y-79779874D01*
X88405221Y-79826447D01*
X88312587Y-79836183D01*
X88224001Y-79807400D01*
X88220118Y-79805105D01*
X88171936Y-79775978D01*
X88016774Y-79727627D01*
X87954386Y-79721958D01*
X87954368Y-79721957D01*
X87949337Y-79721500D01*
X87944266Y-79721500D01*
X87408737Y-79721500D01*
X87408715Y-79721500D01*
X87403664Y-79721501D01*
X87398615Y-79721959D01*
X87398609Y-79721960D01*
X87336229Y-79727627D01*
X87181063Y-79775979D01*
X87041979Y-79860058D01*
X86927058Y-79974979D01*
X86842978Y-80114064D01*
X86827856Y-80162592D01*
X86782260Y-80243814D01*
X86707571Y-80299469D01*
X86616703Y-80319933D01*
X86525367Y-80301668D01*
X86449356Y-80247833D01*
X86401813Y-80167735D01*
X86400141Y-80162587D01*
X86385021Y-80114064D01*
X86300941Y-79974979D01*
X86186020Y-79860058D01*
X86046934Y-79775977D01*
X85891774Y-79727627D01*
X85829386Y-79721958D01*
X85829368Y-79721957D01*
X85824337Y-79721500D01*
X85819266Y-79721500D01*
X85283737Y-79721500D01*
X85283715Y-79721500D01*
X85278664Y-79721501D01*
X85273615Y-79721959D01*
X85273609Y-79721960D01*
X85211229Y-79727627D01*
X85056063Y-79775979D01*
X84916979Y-79860058D01*
X84802058Y-79974979D01*
X84717977Y-80114065D01*
X84669627Y-80269225D01*
X84663958Y-80331613D01*
X84663957Y-80331632D01*
X84663500Y-80336663D01*
X84663500Y-80341732D01*
X84663500Y-80341733D01*
X84663500Y-81202262D01*
X84663500Y-81202283D01*
X84663501Y-81207336D01*
X84663959Y-81212385D01*
X84663960Y-81212390D01*
X84669627Y-81274768D01*
X84669627Y-81274770D01*
X84669628Y-81274772D01*
X84717979Y-81429936D01*
X84719798Y-81435773D01*
X84721196Y-81438777D01*
X84722003Y-81438361D01*
X84729702Y-81453261D01*
X84729704Y-81453266D01*
X84759369Y-81510676D01*
X84783989Y-81600506D01*
X84769942Y-81692585D01*
X84767773Y-81698110D01*
X84594913Y-82121868D01*
X84593966Y-82124190D01*
X84593143Y-82126498D01*
X84593121Y-82126557D01*
X84589817Y-82135829D01*
X84582089Y-82153997D01*
X84526411Y-82349686D01*
X84507849Y-82550000D01*
X84527959Y-82767021D01*
X84517083Y-82859528D01*
X84469520Y-82939614D01*
X84393496Y-82993430D01*
X84302155Y-83011672D01*
X84234457Y-83000319D01*
X84179607Y-82982143D01*
X84085994Y-82972580D01*
X84074608Y-82972000D01*
X84057000Y-82972000D01*
X84057000Y-84921999D01*
X84074605Y-84921999D01*
X84085996Y-84921418D01*
X84179606Y-84911856D01*
X84340482Y-84858547D01*
X84507016Y-84755828D01*
X84509061Y-84759144D01*
X84547494Y-84734178D01*
X84639489Y-84719592D01*
X84729464Y-84743686D01*
X84743677Y-84751587D01*
X84840962Y-84810398D01*
X84852732Y-84817513D01*
X85009340Y-84866315D01*
X85070759Y-84871896D01*
X85077406Y-84872500D01*
X85082476Y-84872500D01*
X85631524Y-84872500D01*
X85636594Y-84872500D01*
X85704657Y-84866315D01*
X85861270Y-84817512D01*
X85861270Y-84817511D01*
X85887237Y-84809420D01*
X85888288Y-84812795D01*
X85931065Y-84797929D01*
X86023878Y-84805781D01*
X86105473Y-84850705D01*
X86161741Y-84924933D01*
X86182954Y-85015629D01*
X86183000Y-85020178D01*
X86183000Y-85103338D01*
X86183799Y-85116679D01*
X86186695Y-85140799D01*
X86178328Y-85233566D01*
X86132952Y-85314911D01*
X86058413Y-85370767D01*
X85967600Y-85391476D01*
X85964292Y-85391500D01*
X82869164Y-85391500D01*
X82778055Y-85372134D01*
X82710772Y-85325892D01*
X82104990Y-84720110D01*
X82085671Y-84698081D01*
X82071451Y-84679549D01*
X82041270Y-84656390D01*
X82041268Y-84656388D01*
X81951233Y-84587302D01*
X81951232Y-84587301D01*
X81951230Y-84587300D01*
X81926959Y-84577247D01*
X81811237Y-84529313D01*
X81698726Y-84514500D01*
X81698707Y-84514499D01*
X81660998Y-84509534D01*
X81647672Y-84511289D01*
X81554815Y-84503980D01*
X81521456Y-84491122D01*
X80909104Y-84197000D01*
X82857001Y-84197000D01*
X82857001Y-84239605D01*
X82857581Y-84250996D01*
X82867143Y-84344606D01*
X82920452Y-84505482D01*
X83009426Y-84649731D01*
X83129268Y-84769573D01*
X83273517Y-84858547D01*
X83434392Y-84911856D01*
X83528008Y-84921420D01*
X83539390Y-84921999D01*
X83557000Y-84921998D01*
X83557000Y-84197000D01*
X82857001Y-84197000D01*
X80909104Y-84197000D01*
X80544583Y-84021915D01*
X80470841Y-83965012D01*
X80426619Y-83883035D01*
X80419564Y-83790158D01*
X80450894Y-83702441D01*
X80515194Y-83635051D01*
X80544580Y-83618085D01*
X81160639Y-83322182D01*
X81251149Y-83300193D01*
X81342779Y-83316918D01*
X81349456Y-83319790D01*
X81858895Y-83548777D01*
X81858914Y-83548784D01*
X81860599Y-83549542D01*
X81860903Y-83549674D01*
X81907429Y-83566929D01*
X81907431Y-83566929D01*
X81918399Y-83570997D01*
X81944597Y-83577975D01*
X81997666Y-83598534D01*
X82195414Y-83635500D01*
X82396586Y-83635500D01*
X82614737Y-83594720D01*
X82615559Y-83599117D01*
X82668414Y-83590550D01*
X82758471Y-83614332D01*
X82815892Y-83655892D01*
X82857000Y-83697000D01*
X83557000Y-83697000D01*
X83557000Y-82972000D01*
X83547343Y-82962343D01*
X83501660Y-82952635D01*
X83426303Y-82897889D01*
X83379728Y-82817225D01*
X83369718Y-82727329D01*
X83379853Y-82617952D01*
X83386150Y-82550000D01*
X83386133Y-82549811D01*
X83367588Y-82349684D01*
X83312536Y-82156194D01*
X83296600Y-82124190D01*
X83222864Y-81976110D01*
X83101631Y-81815571D01*
X83049471Y-81768021D01*
X82952959Y-81680039D01*
X82781924Y-81574138D01*
X82594333Y-81501465D01*
X82396586Y-81464500D01*
X82195414Y-81464500D01*
X81997667Y-81501465D01*
X81900860Y-81538968D01*
X81880312Y-81545805D01*
X81855261Y-81552815D01*
X81349442Y-81780196D01*
X81258403Y-81799889D01*
X81167225Y-81780849D01*
X81160660Y-81777826D01*
X80804276Y-81606650D01*
X80730536Y-81549748D01*
X80699350Y-81501727D01*
X80639431Y-81376976D01*
X80617443Y-81286470D01*
X80634169Y-81194840D01*
X80639434Y-81183016D01*
X80946543Y-80543627D01*
X80951774Y-80532345D01*
X80952032Y-80531768D01*
X80967523Y-80490652D01*
X80974116Y-80474986D01*
X80982739Y-80456496D01*
X80982739Y-80456494D01*
X80982741Y-80456491D01*
X81041634Y-80236697D01*
X81041634Y-80236695D01*
X81041635Y-80236692D01*
X81061468Y-80010000D01*
X81041635Y-79783308D01*
X80982739Y-79563504D01*
X80939309Y-79470369D01*
X80886568Y-79357265D01*
X80756048Y-79170862D01*
X80595139Y-79009953D01*
X80592520Y-79008119D01*
X80471656Y-78923490D01*
X80408132Y-78855370D01*
X80377807Y-78767300D01*
X80385924Y-78674510D01*
X80431081Y-78593044D01*
X80471657Y-78556509D01*
X80595139Y-78470047D01*
X80756047Y-78309139D01*
X80886568Y-78122734D01*
X80982739Y-77916496D01*
X81041635Y-77696692D01*
X81061468Y-77470000D01*
X81041635Y-77243308D01*
X81035726Y-77221257D01*
X80982739Y-77023504D01*
X80886568Y-76817265D01*
X80756048Y-76630862D01*
X80595139Y-76469953D01*
X80595136Y-76469951D01*
X80471656Y-76383490D01*
X80408132Y-76315370D01*
X80377807Y-76227300D01*
X80385924Y-76134510D01*
X80431081Y-76053044D01*
X80471657Y-76016509D01*
X80595139Y-75930047D01*
X80756047Y-75769139D01*
X80886568Y-75582734D01*
X80982739Y-75376496D01*
X81041635Y-75156692D01*
X81050707Y-75053000D01*
X84127001Y-75053000D01*
X84127001Y-75129500D01*
X84127460Y-75139628D01*
X84133408Y-75205101D01*
X84183982Y-75367400D01*
X84271925Y-75512874D01*
X84392125Y-75633074D01*
X84537602Y-75721019D01*
X84699892Y-75771590D01*
X84765361Y-75777539D01*
X84775510Y-75777999D01*
X84777000Y-75777999D01*
X84777000Y-75053000D01*
X84127001Y-75053000D01*
X81050707Y-75053000D01*
X81061468Y-74930000D01*
X81041635Y-74703308D01*
X80982739Y-74483504D01*
X80982739Y-74483503D01*
X80886568Y-74277265D01*
X80756048Y-74090862D01*
X80595139Y-73929953D01*
X80541166Y-73892161D01*
X80471656Y-73843490D01*
X80408132Y-73775370D01*
X80377807Y-73687300D01*
X80385924Y-73594510D01*
X80431081Y-73513044D01*
X80471657Y-73476509D01*
X80595139Y-73390047D01*
X80756047Y-73229139D01*
X80886568Y-73042734D01*
X80982739Y-72836496D01*
X81041635Y-72616692D01*
X81061468Y-72390000D01*
X81041635Y-72163308D01*
X80982739Y-71943504D01*
X80934639Y-71840354D01*
X80886568Y-71737265D01*
X80756048Y-71550862D01*
X80730708Y-71525522D01*
X80679978Y-71447404D01*
X80665407Y-71355407D01*
X80689515Y-71265436D01*
X80748132Y-71193049D01*
X80810822Y-71157253D01*
X80848087Y-71143354D01*
X80963189Y-71057189D01*
X81049353Y-70942087D01*
X81099598Y-70807374D01*
X81105358Y-70753798D01*
X81106000Y-70741833D01*
X81106000Y-70100000D01*
X80189686Y-70100000D01*
X80215493Y-70059844D01*
X80256000Y-69921889D01*
X80256000Y-69778111D01*
X80215493Y-69640156D01*
X80189686Y-69600000D01*
X81106000Y-69600000D01*
X81106000Y-68958166D01*
X81105358Y-68946201D01*
X81099598Y-68892625D01*
X81049353Y-68757912D01*
X80963189Y-68642810D01*
X80848087Y-68556646D01*
X80713374Y-68506401D01*
X80659798Y-68500641D01*
X80647834Y-68500000D01*
X80006000Y-68500000D01*
X80006000Y-69414498D01*
X79898315Y-69365320D01*
X79791763Y-69350000D01*
X79720237Y-69350000D01*
X79613685Y-69365320D01*
X79506000Y-69414498D01*
X79506000Y-68500000D01*
X78864166Y-68500000D01*
X78852201Y-68500641D01*
X78798625Y-68506401D01*
X78663912Y-68556646D01*
X78548810Y-68642810D01*
X78462646Y-68757912D01*
X78454377Y-68780083D01*
X78404393Y-68858680D01*
X78326762Y-68910152D01*
X78234907Y-68925599D01*
X78144711Y-68902349D01*
X78071770Y-68844423D01*
X78028695Y-68761837D01*
X78020500Y-68701804D01*
X78020500Y-66814500D01*
X78039866Y-66723391D01*
X78094615Y-66648036D01*
X78175280Y-66601463D01*
X78244500Y-66590500D01*
X83318482Y-66590500D01*
X83409591Y-66609866D01*
G37*
%TD.AperFunction*%
%TA.AperFunction,Conductor*%
G36*
X100223824Y-66609866D02*
G01*
X100299179Y-66664615D01*
X100345752Y-66745280D01*
X100355488Y-66837914D01*
X100326705Y-66926500D01*
X100266953Y-66993821D01*
X100213437Y-67033882D01*
X100820389Y-67640835D01*
X100661931Y-67760499D01*
X100518348Y-67918001D01*
X100469439Y-67996992D01*
X99859883Y-67387436D01*
X99859882Y-67387437D01*
X99753196Y-67529953D01*
X99616089Y-67781046D01*
X99516112Y-68049096D01*
X99455299Y-68328646D01*
X99434890Y-68614000D01*
X99455299Y-68899353D01*
X99516112Y-69178903D01*
X99616089Y-69446953D01*
X99753196Y-69698046D01*
X99859882Y-69840561D01*
X100469437Y-69231006D01*
X100518348Y-69309999D01*
X100661931Y-69467501D01*
X100820388Y-69587163D01*
X100213437Y-70194115D01*
X100355957Y-70300805D01*
X100607046Y-70437910D01*
X100875096Y-70537887D01*
X101154646Y-70598700D01*
X101440000Y-70619109D01*
X101725353Y-70598700D01*
X102004903Y-70537887D01*
X102272953Y-70437910D01*
X102524042Y-70300805D01*
X102666561Y-70194115D01*
X102059610Y-69587164D01*
X102218069Y-69467501D01*
X102361652Y-69309999D01*
X102410561Y-69231007D01*
X103020115Y-69840561D01*
X103126805Y-69698042D01*
X103263910Y-69446953D01*
X103363887Y-69178903D01*
X103424700Y-68899353D01*
X103445109Y-68613999D01*
X103424700Y-68328646D01*
X103363887Y-68049096D01*
X103263910Y-67781046D01*
X103126805Y-67529957D01*
X103020115Y-67387437D01*
X102410560Y-67996991D01*
X102361652Y-67918001D01*
X102218069Y-67760499D01*
X102059609Y-67640834D01*
X102666562Y-67033882D01*
X102613046Y-66993821D01*
X102551715Y-66923718D01*
X102524199Y-66834731D01*
X102535258Y-66742245D01*
X102582977Y-66662253D01*
X102659107Y-66608586D01*
X102747284Y-66590500D01*
X110604500Y-66590500D01*
X110695609Y-66609866D01*
X110770964Y-66664615D01*
X110817537Y-66745280D01*
X110828500Y-66814500D01*
X110828500Y-99555500D01*
X110809134Y-99646609D01*
X110754385Y-99721964D01*
X110673720Y-99768537D01*
X110604500Y-99779500D01*
X78244500Y-99779500D01*
X78153391Y-99760134D01*
X78078036Y-99705385D01*
X78031463Y-99624720D01*
X78020500Y-99555500D01*
X78020500Y-98005159D01*
X78039866Y-97914050D01*
X78094615Y-97838695D01*
X78175280Y-97792122D01*
X78191590Y-97790407D01*
X78116019Y-97758330D01*
X78052495Y-97690209D01*
X78022170Y-97602139D01*
X78020500Y-97574840D01*
X78020500Y-95465159D01*
X78039866Y-95374050D01*
X78094615Y-95298695D01*
X78175280Y-95252122D01*
X78191590Y-95250407D01*
X78116019Y-95218330D01*
X78052495Y-95150209D01*
X78022170Y-95062139D01*
X78020500Y-95034840D01*
X78020500Y-92925159D01*
X78039866Y-92834050D01*
X78094615Y-92758695D01*
X78175280Y-92712122D01*
X78191590Y-92710407D01*
X78116019Y-92678330D01*
X78052495Y-92610209D01*
X78022170Y-92522139D01*
X78020500Y-92494840D01*
X78020500Y-90385159D01*
X78039866Y-90294050D01*
X78094615Y-90218695D01*
X78175280Y-90172122D01*
X78191590Y-90170407D01*
X78116019Y-90138330D01*
X78052495Y-90070209D01*
X78022170Y-89982139D01*
X78020500Y-89954840D01*
X78020500Y-87845159D01*
X78039866Y-87754050D01*
X78094615Y-87678695D01*
X78175280Y-87632122D01*
X78191590Y-87630407D01*
X78116019Y-87598330D01*
X78052495Y-87530209D01*
X78022170Y-87442139D01*
X78020500Y-87414840D01*
X78020500Y-85305159D01*
X78039866Y-85214050D01*
X78094615Y-85138695D01*
X78175280Y-85092122D01*
X78191590Y-85090407D01*
X78116019Y-85058330D01*
X78052495Y-84990209D01*
X78022170Y-84902139D01*
X78020500Y-84874840D01*
X78020500Y-82765159D01*
X78039866Y-82674050D01*
X78094615Y-82598695D01*
X78175280Y-82552122D01*
X78191590Y-82550407D01*
X78116019Y-82518330D01*
X78052495Y-82450209D01*
X78022170Y-82362139D01*
X78020500Y-82334840D01*
X78020500Y-80225159D01*
X78039866Y-80134050D01*
X78094615Y-80058695D01*
X78175280Y-80012122D01*
X78191590Y-80010407D01*
X78116019Y-79978330D01*
X78052495Y-79910209D01*
X78022170Y-79822139D01*
X78020500Y-79794840D01*
X78020500Y-77685159D01*
X78039866Y-77594050D01*
X78094615Y-77518695D01*
X78175280Y-77472122D01*
X78191590Y-77470407D01*
X78116019Y-77438330D01*
X78052495Y-77370209D01*
X78022170Y-77282139D01*
X78020500Y-77254840D01*
X78020500Y-75145159D01*
X78039866Y-75054050D01*
X78094615Y-74978695D01*
X78175280Y-74932122D01*
X78191590Y-74930407D01*
X78116019Y-74898330D01*
X78052495Y-74830209D01*
X78022170Y-74742139D01*
X78020500Y-74714840D01*
X78020500Y-72605159D01*
X78039866Y-72514050D01*
X78094615Y-72438695D01*
X78175280Y-72392122D01*
X78191590Y-72390407D01*
X78116019Y-72358330D01*
X78052495Y-72290209D01*
X78022170Y-72202139D01*
X78020500Y-72174840D01*
X78020500Y-70998195D01*
X78039866Y-70907086D01*
X78094615Y-70831731D01*
X78175280Y-70785158D01*
X78267914Y-70775422D01*
X78356500Y-70804205D01*
X78425720Y-70866531D01*
X78454377Y-70919917D01*
X78462645Y-70942087D01*
X78548810Y-71057189D01*
X78663912Y-71143353D01*
X78701178Y-71157253D01*
X78779775Y-71207237D01*
X78831247Y-71284868D01*
X78846694Y-71376722D01*
X78823444Y-71466918D01*
X78781293Y-71525520D01*
X78755952Y-71550861D01*
X78625431Y-71737265D01*
X78529260Y-71943504D01*
X78470365Y-72163304D01*
X78467648Y-72194363D01*
X78440415Y-72283437D01*
X78379307Y-72353734D01*
X78297351Y-72391950D01*
X78356500Y-72411169D01*
X78425720Y-72473495D01*
X78463605Y-72558587D01*
X78467648Y-72585637D01*
X78470365Y-72616695D01*
X78529260Y-72836495D01*
X78625431Y-73042734D01*
X78755951Y-73229137D01*
X78916862Y-73390048D01*
X79040343Y-73476510D01*
X79103867Y-73544631D01*
X79134192Y-73632701D01*
X79126074Y-73725491D01*
X79080917Y-73806957D01*
X79040343Y-73843490D01*
X78916862Y-73929951D01*
X78755951Y-74090862D01*
X78625431Y-74277265D01*
X78529260Y-74483504D01*
X78470365Y-74703304D01*
X78467648Y-74734363D01*
X78440415Y-74823437D01*
X78379307Y-74893734D01*
X78297351Y-74931950D01*
X78356500Y-74951169D01*
X78425720Y-75013495D01*
X78463605Y-75098587D01*
X78467648Y-75125637D01*
X78470365Y-75156695D01*
X78529260Y-75376495D01*
X78625431Y-75582734D01*
X78755951Y-75769137D01*
X78916862Y-75930048D01*
X79040343Y-76016510D01*
X79103867Y-76084631D01*
X79134192Y-76172701D01*
X79126074Y-76265491D01*
X79080917Y-76346957D01*
X79040343Y-76383490D01*
X78916862Y-76469951D01*
X78755951Y-76630862D01*
X78625431Y-76817265D01*
X78529260Y-77023504D01*
X78470365Y-77243304D01*
X78467648Y-77274363D01*
X78440415Y-77363437D01*
X78379307Y-77433734D01*
X78297351Y-77471950D01*
X78356500Y-77491169D01*
X78425720Y-77553495D01*
X78463605Y-77638587D01*
X78467648Y-77665637D01*
X78470365Y-77696695D01*
X78529260Y-77916495D01*
X78625431Y-78122734D01*
X78755951Y-78309137D01*
X78916862Y-78470048D01*
X79040343Y-78556510D01*
X79103867Y-78624631D01*
X79134192Y-78712701D01*
X79126074Y-78805491D01*
X79080917Y-78886957D01*
X79040343Y-78923490D01*
X78916862Y-79009951D01*
X78755951Y-79170862D01*
X78625431Y-79357265D01*
X78529260Y-79563504D01*
X78470365Y-79783304D01*
X78467648Y-79814363D01*
X78440415Y-79903437D01*
X78379307Y-79973734D01*
X78297351Y-80011950D01*
X78356500Y-80031169D01*
X78425720Y-80093495D01*
X78463605Y-80178587D01*
X78467648Y-80205637D01*
X78470365Y-80236695D01*
X78529260Y-80456495D01*
X78550332Y-80501683D01*
X78561435Y-80530544D01*
X78565457Y-80543631D01*
X78872563Y-81183016D01*
X78894553Y-81273527D01*
X78877828Y-81365158D01*
X78872567Y-81376974D01*
X78565456Y-82016372D01*
X78565045Y-82017259D01*
X78561017Y-82025942D01*
X78561002Y-82025976D01*
X78560225Y-82027654D01*
X78559967Y-82028231D01*
X78558788Y-82031359D01*
X78558781Y-82031377D01*
X78544472Y-82069353D01*
X78537875Y-82085030D01*
X78529259Y-82103508D01*
X78470365Y-82323302D01*
X78467648Y-82354363D01*
X78440415Y-82443437D01*
X78379307Y-82513734D01*
X78297351Y-82551950D01*
X78356500Y-82571169D01*
X78425720Y-82633495D01*
X78463605Y-82718587D01*
X78467648Y-82745637D01*
X78470365Y-82776695D01*
X78529260Y-82996495D01*
X78625431Y-83202734D01*
X78755951Y-83389137D01*
X78755953Y-83389138D01*
X78755953Y-83389139D01*
X78916861Y-83550047D01*
X79040343Y-83636509D01*
X79103867Y-83704629D01*
X79134192Y-83792699D01*
X79126075Y-83885489D01*
X79080918Y-83966955D01*
X79040344Y-84003489D01*
X78916860Y-84089953D01*
X78755951Y-84250862D01*
X78625431Y-84437265D01*
X78529260Y-84643504D01*
X78470365Y-84863304D01*
X78467648Y-84894363D01*
X78440415Y-84983437D01*
X78379307Y-85053734D01*
X78297351Y-85091950D01*
X78356500Y-85111169D01*
X78425720Y-85173495D01*
X78463605Y-85258587D01*
X78467648Y-85285637D01*
X78470365Y-85316695D01*
X78529260Y-85536495D01*
X78625431Y-85742734D01*
X78755951Y-85929137D01*
X78916862Y-86090048D01*
X79040343Y-86176510D01*
X79103867Y-86244631D01*
X79134192Y-86332701D01*
X79126074Y-86425491D01*
X79080917Y-86506957D01*
X79040343Y-86543490D01*
X78916862Y-86629951D01*
X78755951Y-86790862D01*
X78625431Y-86977265D01*
X78529260Y-87183504D01*
X78470365Y-87403304D01*
X78467648Y-87434363D01*
X78440415Y-87523437D01*
X78379307Y-87593734D01*
X78297351Y-87631950D01*
X78356500Y-87651169D01*
X78425720Y-87713495D01*
X78463605Y-87798587D01*
X78467648Y-87825637D01*
X78470365Y-87856695D01*
X78529260Y-88076495D01*
X78625431Y-88282734D01*
X78755951Y-88469137D01*
X78916862Y-88630048D01*
X79040343Y-88716510D01*
X79103867Y-88784631D01*
X79134192Y-88872701D01*
X79126074Y-88965491D01*
X79080917Y-89046957D01*
X79040343Y-89083490D01*
X78916862Y-89169951D01*
X78755951Y-89330862D01*
X78625431Y-89517265D01*
X78529260Y-89723504D01*
X78470365Y-89943304D01*
X78467648Y-89974363D01*
X78440415Y-90063437D01*
X78379307Y-90133734D01*
X78297351Y-90171950D01*
X78356500Y-90191169D01*
X78425720Y-90253495D01*
X78463605Y-90338587D01*
X78467648Y-90365637D01*
X78470365Y-90396695D01*
X78529260Y-90616495D01*
X78625431Y-90822734D01*
X78755951Y-91009137D01*
X78755953Y-91009139D01*
X78916861Y-91170047D01*
X79040343Y-91256509D01*
X79103867Y-91324629D01*
X79134192Y-91412699D01*
X79126075Y-91505489D01*
X79080918Y-91586955D01*
X79040344Y-91623489D01*
X78916860Y-91709953D01*
X78755951Y-91870862D01*
X78625431Y-92057265D01*
X78529260Y-92263504D01*
X78470365Y-92483304D01*
X78467648Y-92514363D01*
X78440415Y-92603437D01*
X78379307Y-92673734D01*
X78297351Y-92711950D01*
X78356500Y-92731169D01*
X78425720Y-92793495D01*
X78463605Y-92878587D01*
X78467648Y-92905637D01*
X78470365Y-92936695D01*
X78529260Y-93156495D01*
X78625431Y-93362734D01*
X78755951Y-93549137D01*
X78916862Y-93710048D01*
X79040343Y-93796510D01*
X79103867Y-93864631D01*
X79134192Y-93952701D01*
X79126074Y-94045491D01*
X79080917Y-94126957D01*
X79040343Y-94163490D01*
X78916862Y-94249951D01*
X78755951Y-94410862D01*
X78625431Y-94597265D01*
X78529260Y-94803504D01*
X78470365Y-95023304D01*
X78467648Y-95054363D01*
X78440415Y-95143437D01*
X78379307Y-95213734D01*
X78297351Y-95251950D01*
X78356500Y-95271169D01*
X78425720Y-95333495D01*
X78463605Y-95418587D01*
X78467648Y-95445637D01*
X78470365Y-95476695D01*
X78529260Y-95696495D01*
X78625431Y-95902734D01*
X78755951Y-96089137D01*
X78916862Y-96250048D01*
X79040343Y-96336510D01*
X79103867Y-96404631D01*
X79134192Y-96492701D01*
X79126074Y-96585491D01*
X79080917Y-96666957D01*
X79040343Y-96703490D01*
X78916862Y-96789951D01*
X78755951Y-96950862D01*
X78625431Y-97137265D01*
X78529260Y-97343504D01*
X78470365Y-97563304D01*
X78467648Y-97594363D01*
X78440415Y-97683437D01*
X78379307Y-97753734D01*
X78297351Y-97791950D01*
X78356500Y-97811169D01*
X78425720Y-97873495D01*
X78463605Y-97958587D01*
X78467648Y-97985637D01*
X78470365Y-98016695D01*
X78529260Y-98236495D01*
X78625431Y-98442734D01*
X78755951Y-98629137D01*
X78916862Y-98790048D01*
X79103265Y-98920568D01*
X79309503Y-99016738D01*
X79309504Y-99016739D01*
X79529308Y-99075635D01*
X79756000Y-99095468D01*
X79982692Y-99075635D01*
X79982695Y-99075634D01*
X79982697Y-99075634D01*
X80202490Y-99016741D01*
X80202491Y-99016740D01*
X80202496Y-99016739D01*
X80247692Y-98995662D01*
X80276545Y-98984562D01*
X80289627Y-98980543D01*
X81524149Y-98387584D01*
X81614661Y-98365594D01*
X81621133Y-98365500D01*
X83409180Y-98365500D01*
X83500289Y-98384866D01*
X83501015Y-98385190D01*
X83734440Y-98490111D01*
X84400599Y-98789542D01*
X84400903Y-98789674D01*
X84447429Y-98806929D01*
X84447431Y-98806929D01*
X84458399Y-98810997D01*
X84484597Y-98817975D01*
X84537666Y-98838534D01*
X84735414Y-98875500D01*
X84936586Y-98875500D01*
X85134334Y-98838534D01*
X85321922Y-98765862D01*
X85492962Y-98659958D01*
X85641631Y-98524429D01*
X85762864Y-98363890D01*
X85852535Y-98183808D01*
X85907588Y-97990315D01*
X85926150Y-97790000D01*
X85908742Y-97602139D01*
X85907588Y-97589684D01*
X85852536Y-97396194D01*
X85838267Y-97367539D01*
X85762864Y-97216110D01*
X85641631Y-97055571D01*
X85503209Y-96929383D01*
X85492959Y-96920039D01*
X85321924Y-96814138D01*
X85134333Y-96741465D01*
X84936586Y-96704500D01*
X84735414Y-96704500D01*
X84537667Y-96741465D01*
X84440860Y-96778968D01*
X84420312Y-96785805D01*
X84395261Y-96792815D01*
X83501014Y-97194806D01*
X83409975Y-97214499D01*
X83409172Y-97214500D01*
X81621133Y-97214500D01*
X81530024Y-97195134D01*
X81524172Y-97192426D01*
X80948930Y-96916129D01*
X80520010Y-96710112D01*
X80446268Y-96653209D01*
X80402046Y-96571231D01*
X80394991Y-96478355D01*
X80426321Y-96390638D01*
X80488511Y-96324707D01*
X80595139Y-96250047D01*
X80617289Y-96227895D01*
X80639079Y-96208761D01*
X80811370Y-96076189D01*
X81109823Y-95846540D01*
X81160699Y-95817122D01*
X81176233Y-95810687D01*
X81176236Y-95810687D01*
X81316233Y-95752698D01*
X81363883Y-95716135D01*
X81406268Y-95683612D01*
X81406270Y-95683609D01*
X81415469Y-95676551D01*
X81418528Y-95674203D01*
X81436451Y-95660451D01*
X81450671Y-95641917D01*
X81469982Y-95619896D01*
X81682284Y-95407594D01*
X81698354Y-95393013D01*
X81708556Y-95384622D01*
X81709357Y-95383918D01*
X81709369Y-95383918D01*
X81711326Y-95382228D01*
X81709694Y-95383622D01*
X81709369Y-95383918D01*
X81709357Y-95383918D01*
X81709694Y-95383622D01*
X81759767Y-95332074D01*
X81759769Y-95332069D01*
X81776857Y-95314479D01*
X81782091Y-95307787D01*
X81970878Y-95119000D01*
X83887000Y-95119000D01*
X83887000Y-95760833D01*
X83887641Y-95772798D01*
X83893401Y-95826374D01*
X83943646Y-95961087D01*
X84029810Y-96076189D01*
X84144912Y-96162353D01*
X84279625Y-96212598D01*
X84333201Y-96218358D01*
X84345166Y-96219000D01*
X84537000Y-96219000D01*
X84537000Y-95119000D01*
X85037000Y-95119000D01*
X85037000Y-96219000D01*
X85228834Y-96219000D01*
X85240798Y-96218358D01*
X85294374Y-96212598D01*
X85429087Y-96162353D01*
X85544189Y-96076189D01*
X85630353Y-95961087D01*
X85680598Y-95826374D01*
X85686358Y-95772798D01*
X85687000Y-95760833D01*
X85687000Y-95119000D01*
X85037000Y-95119000D01*
X84537000Y-95119000D01*
X83887000Y-95119000D01*
X81970878Y-95119000D01*
X82470878Y-94619000D01*
X83887000Y-94619000D01*
X84537000Y-94619000D01*
X84537000Y-93519000D01*
X85037000Y-93519000D01*
X85037000Y-94619000D01*
X85687000Y-94619000D01*
X85687000Y-93977166D01*
X85686358Y-93965201D01*
X85680598Y-93911625D01*
X85630353Y-93776912D01*
X85544189Y-93661810D01*
X85429087Y-93575646D01*
X85294374Y-93525401D01*
X85240798Y-93519641D01*
X85228834Y-93519000D01*
X85037000Y-93519000D01*
X84537000Y-93519000D01*
X84345166Y-93519000D01*
X84333201Y-93519641D01*
X84279625Y-93525401D01*
X84144909Y-93575647D01*
X84143574Y-93576647D01*
X84059031Y-93615741D01*
X83983442Y-93616818D01*
X83986564Y-93676381D01*
X83953184Y-93763339D01*
X83944647Y-93775574D01*
X83943647Y-93776909D01*
X83893401Y-93911625D01*
X83887641Y-93965201D01*
X83887000Y-93977166D01*
X83887000Y-94619000D01*
X82470878Y-94619000D01*
X83606934Y-93482945D01*
X83685048Y-93432218D01*
X83777045Y-93417647D01*
X83787244Y-93420379D01*
X83795338Y-93331146D01*
X83840756Y-93249825D01*
X83850926Y-93238952D01*
X86098879Y-90991000D01*
X90719001Y-90991000D01*
X90719001Y-90992500D01*
X90719460Y-91002628D01*
X90725408Y-91068101D01*
X90775982Y-91230400D01*
X90863925Y-91375874D01*
X90984125Y-91496074D01*
X91129602Y-91584019D01*
X91291892Y-91634590D01*
X91357376Y-91640541D01*
X91367495Y-91640999D01*
X91444000Y-91640999D01*
X91444000Y-90991000D01*
X90719001Y-90991000D01*
X86098879Y-90991000D01*
X86278771Y-90811108D01*
X86356890Y-90760378D01*
X86437164Y-90745500D01*
X87450603Y-90745500D01*
X87479839Y-90747415D01*
X87503000Y-90750465D01*
X87540708Y-90745500D01*
X87540719Y-90745500D01*
X87540720Y-90745500D01*
X87653236Y-90730687D01*
X87793233Y-90672698D01*
X87840986Y-90636056D01*
X87883268Y-90603612D01*
X87883268Y-90603610D01*
X87912688Y-90581037D01*
X87912698Y-90581028D01*
X87913451Y-90580451D01*
X87927671Y-90561917D01*
X87946982Y-90539896D01*
X88438842Y-90048036D01*
X88516958Y-89997308D01*
X88608955Y-89982737D01*
X88698926Y-90006845D01*
X88771313Y-90065462D01*
X88797748Y-90106583D01*
X88862136Y-90235890D01*
X88983369Y-90396429D01*
X88983661Y-90396695D01*
X89132040Y-90531960D01*
X89303075Y-90637861D01*
X89303078Y-90637862D01*
X89490666Y-90710534D01*
X89688414Y-90747500D01*
X89889586Y-90747500D01*
X90087334Y-90710534D01*
X90274922Y-90637862D01*
X90330238Y-90603612D01*
X90445954Y-90531963D01*
X90445954Y-90531962D01*
X90445962Y-90531958D01*
X90452157Y-90526310D01*
X90532527Y-90479244D01*
X90625099Y-90468934D01*
X90694468Y-90491000D01*
X92668999Y-90491000D01*
X92668999Y-90489499D01*
X92668539Y-90479371D01*
X92662591Y-90413898D01*
X92612017Y-90251599D01*
X92524074Y-90106125D01*
X92457339Y-90039390D01*
X92406609Y-89961272D01*
X92392038Y-89869275D01*
X92416146Y-89779304D01*
X92457338Y-89722607D01*
X92487081Y-89692865D01*
X92570744Y-89551398D01*
X92616598Y-89393569D01*
X92616598Y-89393566D01*
X92616599Y-89393564D01*
X92619153Y-89361104D01*
X92619153Y-89361102D01*
X92619500Y-89356694D01*
X92619500Y-88950319D01*
X92638866Y-88859210D01*
X92693615Y-88783855D01*
X92774280Y-88737282D01*
X92866914Y-88727546D01*
X92955500Y-88756329D01*
X93024720Y-88818655D01*
X93057422Y-88883887D01*
X93128570Y-89112999D01*
X93129423Y-89115746D01*
X93139500Y-89182177D01*
X93139500Y-91197058D01*
X93120134Y-91288167D01*
X93073892Y-91355450D01*
X92988955Y-91440387D01*
X92910837Y-91491117D01*
X92818840Y-91505688D01*
X92728869Y-91481580D01*
X92656482Y-91422963D01*
X92614196Y-91339970D01*
X92609321Y-91246954D01*
X92616706Y-91215353D01*
X92662591Y-91068105D01*
X92668541Y-91002624D01*
X92669000Y-90992503D01*
X92669000Y-90991000D01*
X91944000Y-90991000D01*
X91944000Y-91640999D01*
X92020501Y-91640999D01*
X92030628Y-91640539D01*
X92096104Y-91634591D01*
X92243352Y-91588706D01*
X92336097Y-91580089D01*
X92424329Y-91609940D01*
X92492791Y-91673097D01*
X92529646Y-91758640D01*
X92528521Y-91851778D01*
X92489610Y-91936406D01*
X92468386Y-91960955D01*
X91232875Y-93196466D01*
X91154757Y-93247196D01*
X91062760Y-93261767D01*
X90972789Y-93237659D01*
X90900402Y-93179042D01*
X90858116Y-93096049D01*
X90853241Y-93003033D01*
X90859030Y-92976788D01*
X90860588Y-92971315D01*
X90879150Y-92771000D01*
X90873535Y-92710407D01*
X90860588Y-92570684D01*
X90805536Y-92377194D01*
X90775313Y-92316498D01*
X90715864Y-92197110D01*
X90594631Y-92036571D01*
X90538784Y-91985660D01*
X90445959Y-91901039D01*
X90274924Y-91795138D01*
X90087333Y-91722465D01*
X89889586Y-91685500D01*
X89688414Y-91685500D01*
X89490666Y-91722465D01*
X89303075Y-91795138D01*
X89132040Y-91901039D01*
X89068814Y-91958677D01*
X89038218Y-91982086D01*
X89032600Y-91985662D01*
X88680338Y-92292467D01*
X88618947Y-92330499D01*
X88609766Y-92334301D01*
X88519746Y-92403377D01*
X88519730Y-92403389D01*
X88489546Y-92426550D01*
X88475323Y-92445086D01*
X88456010Y-92467108D01*
X88300754Y-92622364D01*
X88289486Y-92632882D01*
X88261769Y-92657024D01*
X88251002Y-92666743D01*
X88250976Y-92666768D01*
X88249680Y-92667939D01*
X88249103Y-92668479D01*
X88246677Y-92671055D01*
X88246671Y-92671062D01*
X88193203Y-92727859D01*
X88193176Y-92727833D01*
X88185595Y-92737523D01*
X87817108Y-93106010D01*
X87795086Y-93125323D01*
X87776550Y-93139546D01*
X87753389Y-93169730D01*
X87753388Y-93169732D01*
X87701674Y-93237127D01*
X87684301Y-93259767D01*
X87626312Y-93399764D01*
X87625364Y-93406968D01*
X87594269Y-93494768D01*
X87587867Y-93504624D01*
X87417476Y-93752467D01*
X87417450Y-93752507D01*
X87415447Y-93755421D01*
X87413625Y-93758471D01*
X87413611Y-93758494D01*
X87394869Y-93789880D01*
X87384359Y-93805678D01*
X87376434Y-93828325D01*
X87374378Y-93833958D01*
X87343340Y-93915564D01*
X87339498Y-93932762D01*
X87339024Y-93937815D01*
X87336500Y-93964734D01*
X87336500Y-93969973D01*
X87336500Y-94005770D01*
X87335313Y-94028801D01*
X87334430Y-94037344D01*
X87334847Y-94046287D01*
X87335091Y-94048894D01*
X87335093Y-94048919D01*
X87335523Y-94053499D01*
X87336500Y-94074395D01*
X87336500Y-95773266D01*
X87337097Y-95779627D01*
X87339354Y-95803700D01*
X87384207Y-95931883D01*
X87474538Y-96054277D01*
X87503752Y-96107861D01*
X87545657Y-96218358D01*
X87562182Y-96261930D01*
X87658817Y-96401929D01*
X87786148Y-96514734D01*
X87786149Y-96514734D01*
X87789325Y-96517548D01*
X87808453Y-96536676D01*
X87811265Y-96539850D01*
X87811266Y-96539852D01*
X87924071Y-96667183D01*
X88064070Y-96763818D01*
X88064071Y-96763818D01*
X88064072Y-96763819D01*
X88141231Y-96793081D01*
X88223128Y-96824140D01*
X88349628Y-96839500D01*
X89211668Y-96839500D01*
X89243446Y-96841765D01*
X89762274Y-96916130D01*
X89792133Y-96922575D01*
X89823564Y-96925048D01*
X89829306Y-96925500D01*
X89833082Y-96925500D01*
X89835788Y-96925636D01*
X89896763Y-96929383D01*
X89900534Y-96929309D01*
X89908935Y-96928062D01*
X89909873Y-96927924D01*
X89942737Y-96925500D01*
X90506287Y-96925500D01*
X90510694Y-96925500D01*
X90515102Y-96925153D01*
X90515104Y-96925153D01*
X90547564Y-96922599D01*
X90547566Y-96922598D01*
X90547569Y-96922598D01*
X90705398Y-96876744D01*
X90846865Y-96793081D01*
X90963081Y-96676865D01*
X90963081Y-96676864D01*
X90983091Y-96656855D01*
X90984453Y-96658217D01*
X91018509Y-96621180D01*
X91103992Y-96584186D01*
X91197131Y-96585158D01*
X91281822Y-96623930D01*
X91343422Y-96693797D01*
X91371278Y-96782678D01*
X91371354Y-96783495D01*
X91372408Y-96795101D01*
X91422982Y-96957400D01*
X91510925Y-97102874D01*
X91631125Y-97223074D01*
X91776602Y-97311019D01*
X91938892Y-97361590D01*
X92004361Y-97367539D01*
X92014510Y-97367999D01*
X92016000Y-97367999D01*
X92016000Y-95418000D01*
X92014485Y-95418000D01*
X92004384Y-95418459D01*
X91938898Y-95424408D01*
X91776599Y-95474982D01*
X91631125Y-95562925D01*
X91510922Y-95683128D01*
X91475137Y-95742323D01*
X91411429Y-95810273D01*
X91325592Y-95846436D01*
X91232466Y-95844559D01*
X91148155Y-95804967D01*
X91087237Y-95734505D01*
X91068338Y-95688930D01*
X91067916Y-95687479D01*
X91046744Y-95614602D01*
X91043637Y-95609348D01*
X90950746Y-95452277D01*
X90921036Y-95363998D01*
X90929802Y-95271267D01*
X90975527Y-95190118D01*
X91050305Y-95134583D01*
X91116551Y-95115885D01*
X91163872Y-95110140D01*
X91164846Y-95109770D01*
X91203900Y-95098884D01*
X91204932Y-95098695D01*
X91257043Y-95075240D01*
X91269505Y-95070078D01*
X91322930Y-95049818D01*
X91323791Y-95049223D01*
X91359111Y-95029303D01*
X91360057Y-95028878D01*
X91405032Y-94993641D01*
X91415921Y-94985630D01*
X91416913Y-94984945D01*
X91462929Y-94953183D01*
X91500811Y-94910420D01*
X91510055Y-94900600D01*
X92485429Y-93925226D01*
X92563542Y-93874499D01*
X92655540Y-93859928D01*
X92745511Y-93884035D01*
X92817898Y-93942653D01*
X92860184Y-94025645D01*
X92865059Y-94118662D01*
X92858172Y-94148643D01*
X92817699Y-94282066D01*
X92797416Y-94488000D01*
X92817699Y-94693930D01*
X92817699Y-94693932D01*
X92817700Y-94693934D01*
X92875779Y-94885398D01*
X92878379Y-94893967D01*
X92880843Y-94899020D01*
X92953012Y-95062139D01*
X92988980Y-95143437D01*
X92996804Y-95161120D01*
X93015956Y-95252274D01*
X92996378Y-95343337D01*
X92941453Y-95418564D01*
X92860679Y-95464948D01*
X92768022Y-95474468D01*
X92725316Y-95465607D01*
X92593107Y-95424409D01*
X92527624Y-95418458D01*
X92517503Y-95418000D01*
X92516000Y-95418000D01*
X92516000Y-97367999D01*
X92517501Y-97367999D01*
X92527628Y-97367539D01*
X92593101Y-97361591D01*
X92755400Y-97311017D01*
X92900873Y-97223075D01*
X92967608Y-97156340D01*
X93045725Y-97105609D01*
X93137723Y-97091038D01*
X93227694Y-97115145D01*
X93284393Y-97156339D01*
X93314135Y-97186081D01*
X93455602Y-97269744D01*
X93613431Y-97315598D01*
X93613435Y-97315599D01*
X93645895Y-97318153D01*
X93645898Y-97318153D01*
X93650306Y-97318500D01*
X93654713Y-97318500D01*
X94177287Y-97318500D01*
X94181694Y-97318500D01*
X94186102Y-97318153D01*
X94186104Y-97318153D01*
X94218564Y-97315599D01*
X94218566Y-97315598D01*
X94218569Y-97315598D01*
X94334213Y-97282000D01*
X106725550Y-97282000D01*
X106745316Y-97533146D01*
X106804126Y-97778111D01*
X106900533Y-98010859D01*
X107032164Y-98225659D01*
X107195775Y-98417224D01*
X107321297Y-98524429D01*
X107387341Y-98580836D01*
X107466161Y-98629137D01*
X107602140Y-98712466D01*
X107834888Y-98808873D01*
X107957370Y-98838277D01*
X108079852Y-98867683D01*
X108331000Y-98887449D01*
X108582148Y-98867683D01*
X108827111Y-98808873D01*
X109059859Y-98712466D01*
X109274659Y-98580836D01*
X109466224Y-98417224D01*
X109629836Y-98225659D01*
X109761466Y-98010859D01*
X109857873Y-97778111D01*
X109916683Y-97533148D01*
X109936449Y-97282000D01*
X109916683Y-97030852D01*
X109859600Y-96793081D01*
X109857873Y-96785888D01*
X109761466Y-96553140D01*
X109629835Y-96338340D01*
X109466224Y-96146775D01*
X109274659Y-95983164D01*
X109059859Y-95851533D01*
X108827111Y-95755126D01*
X108582146Y-95696316D01*
X108331000Y-95676550D01*
X108079853Y-95696316D01*
X107834888Y-95755126D01*
X107602140Y-95851533D01*
X107387340Y-95983164D01*
X107195775Y-96146775D01*
X107032164Y-96338340D01*
X106900533Y-96553140D01*
X106804126Y-96785888D01*
X106745316Y-97030853D01*
X106725550Y-97282000D01*
X94334213Y-97282000D01*
X94376398Y-97269744D01*
X94517865Y-97186081D01*
X94634081Y-97069865D01*
X94717744Y-96928398D01*
X94763598Y-96770569D01*
X94763598Y-96770566D01*
X94763599Y-96770564D01*
X94766153Y-96738104D01*
X94766153Y-96738102D01*
X94766500Y-96733694D01*
X94766500Y-96052306D01*
X94765622Y-96041150D01*
X94763599Y-96015435D01*
X94744755Y-95950574D01*
X94717744Y-95857602D01*
X94686464Y-95804711D01*
X94674279Y-95780599D01*
X94596855Y-95654721D01*
X94565618Y-95566970D01*
X94572773Y-95474101D01*
X94582798Y-95446754D01*
X94821698Y-94906715D01*
X94822395Y-94905089D01*
X94820944Y-94908593D01*
X94827440Y-94894562D01*
X94828229Y-94891958D01*
X94828232Y-94891954D01*
X94831721Y-94880448D01*
X94835754Y-94868401D01*
X94839831Y-94857279D01*
X94843019Y-94843205D01*
X94888300Y-94693934D01*
X94895044Y-94625452D01*
X94923247Y-94536680D01*
X94985118Y-94467053D01*
X95069960Y-94428612D01*
X95163102Y-94428002D01*
X95248440Y-94465329D01*
X95276358Y-94489015D01*
X96369012Y-95581669D01*
X96375093Y-95588637D01*
X96376824Y-95590169D01*
X96395996Y-95609334D01*
X96433071Y-95651183D01*
X96480096Y-95683642D01*
X96490966Y-95691641D01*
X96535944Y-95726878D01*
X96536894Y-95727305D01*
X96572209Y-95747224D01*
X96573070Y-95747818D01*
X96573071Y-95747818D01*
X96574544Y-95748835D01*
X96613346Y-95768485D01*
X97371059Y-96259616D01*
X97399255Y-96277892D01*
X97435811Y-96307468D01*
X97436528Y-96308184D01*
X97436528Y-96308185D01*
X97556815Y-96428472D01*
X97702394Y-96516478D01*
X97864804Y-96567086D01*
X97935384Y-96573500D01*
X97940454Y-96573500D01*
X99243546Y-96573500D01*
X99248616Y-96573500D01*
X99319196Y-96567086D01*
X99481606Y-96516478D01*
X99627185Y-96428472D01*
X99747472Y-96308185D01*
X99776835Y-96259612D01*
X99840539Y-96191665D01*
X99926376Y-96155501D01*
X100019502Y-96157376D01*
X100103814Y-96196967D01*
X100126921Y-96217108D01*
X100220920Y-96311108D01*
X100414424Y-96446601D01*
X100628510Y-96546431D01*
X100841999Y-96603635D01*
X100842000Y-96603635D01*
X100842000Y-95558501D01*
X100949685Y-95607680D01*
X101056237Y-95623000D01*
X101127763Y-95623000D01*
X101234315Y-95607680D01*
X101342000Y-95558501D01*
X101342000Y-96603635D01*
X101555489Y-96546431D01*
X101769574Y-96446602D01*
X101963078Y-96311108D01*
X102130108Y-96144078D01*
X102265602Y-95950574D01*
X102365431Y-95736490D01*
X102426568Y-95508324D01*
X102438408Y-95373000D01*
X101525686Y-95373000D01*
X101551493Y-95332844D01*
X101592000Y-95194889D01*
X101592000Y-95051111D01*
X101551493Y-94913156D01*
X101525686Y-94873000D01*
X102438407Y-94873000D01*
X102426568Y-94737675D01*
X102365431Y-94509509D01*
X102265602Y-94295425D01*
X102130108Y-94101921D01*
X101963079Y-93934891D01*
X101769575Y-93799398D01*
X101555490Y-93699568D01*
X101342000Y-93642363D01*
X101342000Y-94687498D01*
X101234315Y-94638320D01*
X101127763Y-94623000D01*
X101056237Y-94623000D01*
X100949685Y-94638320D01*
X100842000Y-94687498D01*
X100842000Y-93642363D01*
X100628511Y-93699568D01*
X100414423Y-93799399D01*
X100220920Y-93934891D01*
X100126919Y-94028893D01*
X100048801Y-94079622D01*
X99956804Y-94094193D01*
X99866833Y-94070085D01*
X99794447Y-94011467D01*
X99776833Y-93986384D01*
X99772315Y-93978910D01*
X99747472Y-93937815D01*
X99627185Y-93817528D01*
X99481606Y-93729522D01*
X99319196Y-93678914D01*
X99253659Y-93672958D01*
X99253652Y-93672957D01*
X99248616Y-93672500D01*
X97935384Y-93672500D01*
X97930348Y-93672957D01*
X97930340Y-93672958D01*
X97864803Y-93678914D01*
X97702394Y-93729522D01*
X97556812Y-93817529D01*
X97436527Y-93937815D01*
X97426812Y-93953885D01*
X97390629Y-93999217D01*
X97231969Y-94152248D01*
X97152948Y-94201559D01*
X97060703Y-94214467D01*
X96971182Y-94188739D01*
X96918071Y-94149414D01*
X94603778Y-91835121D01*
X94553048Y-91757003D01*
X94538477Y-91665006D01*
X94541839Y-91636350D01*
X94544358Y-91622606D01*
X94540909Y-91565592D01*
X94540500Y-91552065D01*
X94540500Y-89255033D01*
X94559866Y-89163924D01*
X94614615Y-89088569D01*
X94695280Y-89041996D01*
X94787914Y-89032260D01*
X94834959Y-89042403D01*
X95017394Y-89102856D01*
X95111008Y-89112420D01*
X95122390Y-89112999D01*
X95140000Y-89112998D01*
X95140000Y-88112000D01*
X95159366Y-88020891D01*
X95214115Y-87945536D01*
X95294780Y-87898963D01*
X95364000Y-87888000D01*
X95416000Y-87888000D01*
X95507109Y-87907366D01*
X95582464Y-87962115D01*
X95629037Y-88042780D01*
X95640000Y-88112000D01*
X95640000Y-89112999D01*
X95657605Y-89112999D01*
X95668996Y-89112418D01*
X95762606Y-89102856D01*
X95923482Y-89049547D01*
X96067731Y-88960573D01*
X96187573Y-88840731D01*
X96276547Y-88696482D01*
X96329856Y-88535607D01*
X96330778Y-88526583D01*
X96359303Y-88437914D01*
X96421426Y-88368513D01*
X96506407Y-88330380D01*
X96599551Y-88330108D01*
X96684753Y-88367745D01*
X96712010Y-88390956D01*
X96744135Y-88423081D01*
X96885602Y-88506744D01*
X97043431Y-88552598D01*
X97043435Y-88552599D01*
X97075895Y-88555153D01*
X97075898Y-88555153D01*
X97080306Y-88555500D01*
X97188059Y-88555500D01*
X97279168Y-88574866D01*
X97346451Y-88621108D01*
X99751930Y-91026587D01*
X99761188Y-91036422D01*
X99789257Y-91068105D01*
X99799073Y-91079185D01*
X99846088Y-91111637D01*
X99856987Y-91119656D01*
X99901943Y-91154877D01*
X99902883Y-91155300D01*
X99938205Y-91175221D01*
X99939070Y-91175818D01*
X99992509Y-91196084D01*
X100004965Y-91201244D01*
X100057068Y-91224694D01*
X100058092Y-91224881D01*
X100097152Y-91235770D01*
X100098128Y-91236140D01*
X100154840Y-91243025D01*
X100168207Y-91245060D01*
X100224394Y-91255357D01*
X100224394Y-91255356D01*
X100224395Y-91255357D01*
X100249200Y-91253856D01*
X100281398Y-91251908D01*
X100294923Y-91251500D01*
X104620065Y-91251500D01*
X104633592Y-91251909D01*
X104690606Y-91255358D01*
X104746805Y-91245059D01*
X104760171Y-91243024D01*
X104816872Y-91236140D01*
X104817846Y-91235770D01*
X104856900Y-91224884D01*
X104857932Y-91224695D01*
X104910043Y-91201240D01*
X104922505Y-91196078D01*
X104975930Y-91175818D01*
X104976791Y-91175223D01*
X105012111Y-91155303D01*
X105013057Y-91154878D01*
X105058032Y-91119641D01*
X105068921Y-91111630D01*
X105069913Y-91110945D01*
X105115929Y-91079183D01*
X105153811Y-91036420D01*
X105163054Y-91026601D01*
X106531966Y-89657689D01*
X106610082Y-89606961D01*
X106702079Y-89592390D01*
X106792050Y-89616498D01*
X106829136Y-89640254D01*
X106936616Y-89725092D01*
X106949276Y-89734730D01*
X106961050Y-89740915D01*
X106961391Y-89741094D01*
X106990231Y-89759164D01*
X107014118Y-89776793D01*
X107044165Y-89787307D01*
X107064455Y-89796129D01*
X107073318Y-89799205D01*
X107073323Y-89799206D01*
X107076727Y-89800388D01*
X107092539Y-89804761D01*
X107106794Y-89809221D01*
X107142301Y-89821646D01*
X107172734Y-89824500D01*
X107177974Y-89824500D01*
X108976026Y-89824500D01*
X108981266Y-89824500D01*
X109011699Y-89821646D01*
X109139882Y-89776793D01*
X109249150Y-89696150D01*
X109329793Y-89586882D01*
X109374646Y-89458699D01*
X109377500Y-89428266D01*
X109377500Y-87619734D01*
X109374646Y-87589301D01*
X109329793Y-87461118D01*
X109329792Y-87461116D01*
X109249150Y-87351849D01*
X109120358Y-87256797D01*
X109070154Y-87226289D01*
X109017111Y-87149724D01*
X108999795Y-87058203D01*
X109021202Y-86967552D01*
X109065348Y-86904839D01*
X109115108Y-86855078D01*
X109250601Y-86661575D01*
X109350431Y-86447490D01*
X109407636Y-86234000D01*
X108510686Y-86234000D01*
X108536493Y-86193844D01*
X108577000Y-86055889D01*
X108577000Y-85912111D01*
X108536493Y-85774156D01*
X108510686Y-85734000D01*
X109407636Y-85734000D01*
X109350431Y-85520511D01*
X109250600Y-85306423D01*
X109115108Y-85112921D01*
X108948079Y-84945891D01*
X108754575Y-84810398D01*
X108540490Y-84710568D01*
X108326999Y-84653363D01*
X108326999Y-85548498D01*
X108219315Y-85499320D01*
X108112763Y-85484000D01*
X108041237Y-85484000D01*
X107934685Y-85499320D01*
X107826999Y-85548498D01*
X107826999Y-84653363D01*
X107613511Y-84710568D01*
X107399423Y-84810399D01*
X107205921Y-84945891D01*
X107038891Y-85112921D01*
X106903399Y-85306423D01*
X106803568Y-85520511D01*
X106746364Y-85734000D01*
X107643314Y-85734000D01*
X107617507Y-85774156D01*
X107577000Y-85912111D01*
X107577000Y-86055889D01*
X107617507Y-86193844D01*
X107643314Y-86234000D01*
X106746364Y-86234000D01*
X106803568Y-86447490D01*
X106903398Y-86661575D01*
X107038891Y-86855079D01*
X107088652Y-86904840D01*
X107139382Y-86982958D01*
X107153953Y-87074955D01*
X107129845Y-87164926D01*
X107071228Y-87237313D01*
X107025478Y-87262822D01*
X106904849Y-87351849D01*
X106824206Y-87461118D01*
X106815703Y-87485419D01*
X106767332Y-87565018D01*
X106747411Y-87583735D01*
X106689370Y-87631950D01*
X106413738Y-87860917D01*
X106350046Y-87898052D01*
X106347071Y-87899180D01*
X106346201Y-87899781D01*
X106310903Y-87919689D01*
X106309945Y-87920120D01*
X106264970Y-87955354D01*
X106254081Y-87963366D01*
X106207070Y-87995816D01*
X106169196Y-88038567D01*
X106159924Y-88048417D01*
X106029349Y-88178992D01*
X106014108Y-88192890D01*
X106007534Y-88198351D01*
X106006304Y-88199374D01*
X106006260Y-88199411D01*
X106004301Y-88201098D01*
X105991488Y-88212278D01*
X105991461Y-88212304D01*
X105990193Y-88213409D01*
X105989409Y-88214125D01*
X105986745Y-88216919D01*
X105986724Y-88216941D01*
X105929035Y-88277479D01*
X105922466Y-88285875D01*
X104423451Y-89784892D01*
X104345334Y-89835622D01*
X104265059Y-89850500D01*
X100649941Y-89850500D01*
X100558832Y-89831134D01*
X100491549Y-89784892D01*
X99507901Y-88801244D01*
X99457171Y-88723126D01*
X99442600Y-88631129D01*
X99466708Y-88541158D01*
X99525325Y-88468771D01*
X99552260Y-88450051D01*
X99597865Y-88423081D01*
X99714081Y-88306865D01*
X99740628Y-88261975D01*
X99783696Y-88215139D01*
X105988277Y-88215139D01*
X105989409Y-88214125D01*
X105989599Y-88213944D01*
X105988277Y-88215139D01*
X99783696Y-88215139D01*
X99803675Y-88193412D01*
X99889158Y-88156420D01*
X99933435Y-88152000D01*
X100207000Y-88152000D01*
X100207000Y-87202000D01*
X100707000Y-87202000D01*
X100707000Y-88152000D01*
X100998834Y-88152000D01*
X101010798Y-88151358D01*
X101064374Y-88145598D01*
X101199087Y-88095353D01*
X101314189Y-88009189D01*
X101400353Y-87894087D01*
X101450598Y-87759374D01*
X101456358Y-87705798D01*
X101457000Y-87693833D01*
X101457000Y-87202000D01*
X100707000Y-87202000D01*
X100207000Y-87202000D01*
X100207000Y-86926000D01*
X100226366Y-86834891D01*
X100281115Y-86759536D01*
X100361780Y-86712963D01*
X100431000Y-86702000D01*
X101457000Y-86702000D01*
X101457000Y-86210166D01*
X101456359Y-86198204D01*
X101451224Y-86150447D01*
X101460738Y-86057790D01*
X101507118Y-85977013D01*
X101582342Y-85922084D01*
X101673404Y-85902501D01*
X101673940Y-85902500D01*
X101956026Y-85902500D01*
X101961266Y-85902500D01*
X101984126Y-85900356D01*
X102076645Y-85911130D01*
X102156784Y-85958603D01*
X102210685Y-86034567D01*
X102229028Y-86125888D01*
X102209354Y-86215207D01*
X101997525Y-86686499D01*
X101997518Y-86686514D01*
X101996839Y-86688027D01*
X101996734Y-86688271D01*
X101995714Y-86691034D01*
X101995706Y-86691055D01*
X101990612Y-86704860D01*
X101980987Y-86727142D01*
X101980465Y-86728189D01*
X101925411Y-86921686D01*
X101906849Y-87121999D01*
X101925411Y-87322315D01*
X101980463Y-87515805D01*
X102070136Y-87695890D01*
X102168660Y-87826358D01*
X102191369Y-87856429D01*
X102191661Y-87856695D01*
X102340040Y-87991960D01*
X102511075Y-88097861D01*
X102685408Y-88165398D01*
X102698666Y-88170534D01*
X102896414Y-88207500D01*
X103097586Y-88207500D01*
X103295334Y-88170534D01*
X103482922Y-88097862D01*
X103486975Y-88095353D01*
X103653959Y-87991960D01*
X103653959Y-87991959D01*
X103653962Y-87991958D01*
X103802631Y-87856429D01*
X103923864Y-87695890D01*
X104013535Y-87515808D01*
X104034496Y-87442139D01*
X104068588Y-87322315D01*
X104087150Y-87121999D01*
X104068588Y-86921686D01*
X104049637Y-86855079D01*
X104013535Y-86728192D01*
X104008811Y-86718705D01*
X103995683Y-86684596D01*
X103702488Y-86032369D01*
X103682795Y-85941330D01*
X103701835Y-85850152D01*
X103756313Y-85774601D01*
X103836811Y-85727740D01*
X103929410Y-85717672D01*
X104018098Y-85746137D01*
X104065186Y-85782135D01*
X104076125Y-85793074D01*
X104221602Y-85881019D01*
X104383892Y-85931590D01*
X104449361Y-85937539D01*
X104459510Y-85937999D01*
X104461000Y-85937999D01*
X104461000Y-85213000D01*
X104961000Y-85213000D01*
X104961000Y-85937999D01*
X104962501Y-85937999D01*
X104972628Y-85937539D01*
X105038101Y-85931591D01*
X105200400Y-85881017D01*
X105345874Y-85793074D01*
X105466074Y-85672874D01*
X105554019Y-85527397D01*
X105604590Y-85365107D01*
X105610541Y-85299624D01*
X105611000Y-85289503D01*
X105611000Y-85213000D01*
X104961000Y-85213000D01*
X104461000Y-85213000D01*
X104461000Y-84712999D01*
X104960999Y-84712999D01*
X104961000Y-84713000D01*
X105610999Y-84713000D01*
X105610999Y-84636499D01*
X105610539Y-84626371D01*
X105604591Y-84560898D01*
X105554017Y-84398599D01*
X105466074Y-84253125D01*
X105345874Y-84132925D01*
X105200397Y-84044980D01*
X105038107Y-83994409D01*
X104972624Y-83988458D01*
X104962503Y-83988000D01*
X104961000Y-83988000D01*
X104960999Y-84712999D01*
X104461000Y-84712999D01*
X104461000Y-83988000D01*
X104459485Y-83988000D01*
X104449384Y-83988459D01*
X104383898Y-83994408D01*
X104221599Y-84044982D01*
X104076125Y-84132925D01*
X104009389Y-84199661D01*
X103931271Y-84250390D01*
X103839273Y-84264961D01*
X103749303Y-84240853D01*
X103692606Y-84199660D01*
X103662865Y-84169919D01*
X103630376Y-84150705D01*
X103521398Y-84086256D01*
X103447509Y-84064789D01*
X103363564Y-84040400D01*
X103331104Y-84037846D01*
X103331077Y-84037844D01*
X103326694Y-84037500D01*
X102795306Y-84037500D01*
X102790923Y-84037844D01*
X102790895Y-84037846D01*
X102758435Y-84040400D01*
X102674491Y-84064789D01*
X102618947Y-84080926D01*
X102526054Y-84087748D01*
X102438416Y-84056196D01*
X102371188Y-83991727D01*
X102345024Y-83939803D01*
X102329202Y-83894586D01*
X102309793Y-83839118D01*
X102309791Y-83839116D01*
X102304024Y-83822633D01*
X102275743Y-83760374D01*
X102275044Y-83667233D01*
X102312289Y-83581859D01*
X102381039Y-83519015D01*
X102387141Y-83515558D01*
X102524044Y-83440803D01*
X102666561Y-83334115D01*
X102059610Y-82727164D01*
X102218069Y-82607501D01*
X102361652Y-82449999D01*
X102410561Y-82371007D01*
X103020115Y-82980561D01*
X103126805Y-82838042D01*
X103263910Y-82586953D01*
X103363887Y-82318903D01*
X103424700Y-82039353D01*
X103445109Y-81753999D01*
X103424700Y-81468646D01*
X103363887Y-81189096D01*
X103263910Y-80921046D01*
X103126805Y-80669957D01*
X103020115Y-80527437D01*
X102410560Y-81136991D01*
X102361652Y-81058001D01*
X102218069Y-80900499D01*
X102059609Y-80780834D01*
X102666562Y-80173882D01*
X102524046Y-80067196D01*
X102272953Y-79930089D01*
X102004903Y-79830112D01*
X101725353Y-79769299D01*
X101440000Y-79748890D01*
X101154646Y-79769299D01*
X100875096Y-79830112D01*
X100607046Y-79930089D01*
X100355953Y-80067196D01*
X100213437Y-80173882D01*
X100213437Y-80173883D01*
X100820389Y-80780835D01*
X100661931Y-80900499D01*
X100518348Y-81058001D01*
X100469438Y-81136992D01*
X99859883Y-80527437D01*
X99859882Y-80527437D01*
X99753196Y-80669953D01*
X99616089Y-80921046D01*
X99516112Y-81189096D01*
X99455299Y-81468646D01*
X99434890Y-81754000D01*
X99455299Y-82039353D01*
X99516112Y-82318903D01*
X99616089Y-82586953D01*
X99753196Y-82838046D01*
X99859882Y-82980561D01*
X100469437Y-82371006D01*
X100518348Y-82449999D01*
X100661931Y-82607501D01*
X100820388Y-82727163D01*
X100213436Y-83334116D01*
X100215396Y-83361521D01*
X100202579Y-83453780D01*
X100153345Y-83532849D01*
X100076207Y-83585056D01*
X99991967Y-83601500D01*
X98952734Y-83601500D01*
X98928345Y-83603787D01*
X98922299Y-83604354D01*
X98794116Y-83649207D01*
X98684849Y-83729849D01*
X98604206Y-83839118D01*
X98557638Y-83972200D01*
X98509267Y-84051800D01*
X98480611Y-84077415D01*
X98408234Y-84131699D01*
X98323728Y-84170872D01*
X98273832Y-84176500D01*
X97418397Y-84176500D01*
X97389156Y-84174583D01*
X97346472Y-84168963D01*
X97258671Y-84137870D01*
X97191107Y-84073753D01*
X97155463Y-83987698D01*
X97157903Y-83894586D01*
X97161856Y-83880238D01*
X97185372Y-83804772D01*
X97187919Y-83776739D01*
X97191500Y-83737337D01*
X97191499Y-83191664D01*
X97185372Y-83124228D01*
X97137021Y-82969064D01*
X97054830Y-82833103D01*
X97024270Y-82745118D01*
X97032138Y-82652307D01*
X97077077Y-82570720D01*
X97088138Y-82558826D01*
X97089888Y-82557075D01*
X97178093Y-82414073D01*
X97230943Y-82254584D01*
X97240419Y-82161822D01*
X97241000Y-82150435D01*
X97241000Y-82139500D01*
X96240000Y-82139500D01*
X96148891Y-82120134D01*
X96073536Y-82065385D01*
X96026963Y-81984720D01*
X96016000Y-81915500D01*
X96016000Y-80952000D01*
X96516000Y-80952000D01*
X96516000Y-81639500D01*
X97240999Y-81639500D01*
X97240999Y-81628566D01*
X97240418Y-81617173D01*
X97230943Y-81524417D01*
X97178093Y-81364926D01*
X97089887Y-81221922D01*
X96971077Y-81103112D01*
X96828073Y-81014906D01*
X96668584Y-80962056D01*
X96575822Y-80952580D01*
X96564436Y-80952000D01*
X96516000Y-80952000D01*
X96016000Y-80952000D01*
X96016000Y-80951999D01*
X95982309Y-80918309D01*
X95931578Y-80840191D01*
X95917007Y-80748194D01*
X95936974Y-80673671D01*
X95936171Y-80673367D01*
X95939187Y-80665412D01*
X95941114Y-80658223D01*
X95943311Y-80654537D01*
X95945815Y-80647934D01*
X95945818Y-80647930D01*
X95966084Y-80594490D01*
X95971232Y-80582059D01*
X95994695Y-80529931D01*
X95994882Y-80528905D01*
X96005769Y-80489848D01*
X96006140Y-80488872D01*
X96013024Y-80432170D01*
X96015059Y-80418804D01*
X96025358Y-80362606D01*
X96021909Y-80305592D01*
X96021500Y-80292065D01*
X96021500Y-79986267D01*
X96040866Y-79895158D01*
X96095615Y-79819803D01*
X96176280Y-79773230D01*
X96245089Y-79762267D01*
X96257355Y-79762243D01*
X96257363Y-79762245D01*
X96266317Y-79762228D01*
X96305942Y-79760300D01*
X96316943Y-79759765D01*
X96327828Y-79759500D01*
X99309026Y-79759500D01*
X99314266Y-79759500D01*
X99344699Y-79756646D01*
X99472882Y-79711793D01*
X99582150Y-79631150D01*
X99662793Y-79521882D01*
X99707646Y-79393699D01*
X99710500Y-79363266D01*
X99710500Y-78004734D01*
X99707646Y-77974301D01*
X99662793Y-77846118D01*
X99642288Y-77818334D01*
X99582150Y-77736849D01*
X99472882Y-77656207D01*
X99442083Y-77645430D01*
X99362483Y-77597060D01*
X99309438Y-77520495D01*
X99292121Y-77428974D01*
X99313526Y-77338323D01*
X99369952Y-77264215D01*
X99442083Y-77222570D01*
X99445835Y-77221257D01*
X99472882Y-77211793D01*
X99582150Y-77131150D01*
X99662793Y-77021882D01*
X99707646Y-76893699D01*
X99710500Y-76863266D01*
X99710500Y-75504734D01*
X99707646Y-75474301D01*
X99662793Y-75346118D01*
X99657095Y-75338398D01*
X99641315Y-75317016D01*
X99602794Y-75232211D01*
X99602097Y-75139069D01*
X99639344Y-75053696D01*
X99641315Y-75050984D01*
X99662792Y-75021883D01*
X99662791Y-75021883D01*
X99662793Y-75021882D01*
X99707646Y-74893699D01*
X99710500Y-74863266D01*
X99710500Y-73504734D01*
X99707646Y-73474301D01*
X99662793Y-73346118D01*
X99599934Y-73260947D01*
X99582151Y-73236851D01*
X99555420Y-73217123D01*
X99472882Y-73156207D01*
X99472881Y-73156206D01*
X99451937Y-73140749D01*
X99390131Y-73071065D01*
X99362011Y-72982267D01*
X99372440Y-72889708D01*
X99419614Y-72809393D01*
X99495377Y-72755209D01*
X99501673Y-72752663D01*
X99617189Y-72666189D01*
X99703353Y-72551087D01*
X99753598Y-72416374D01*
X99759358Y-72362798D01*
X99760000Y-72350833D01*
X99760000Y-71934000D01*
X97734000Y-71934000D01*
X97642891Y-71914634D01*
X97567536Y-71859885D01*
X97520963Y-71779220D01*
X97510000Y-71710000D01*
X97510000Y-70559000D01*
X98010000Y-70559000D01*
X98010000Y-71434000D01*
X99760000Y-71434000D01*
X99760000Y-71017166D01*
X99759358Y-71005201D01*
X99753598Y-70951625D01*
X99703353Y-70816912D01*
X99617189Y-70701810D01*
X99502087Y-70615646D01*
X99367374Y-70565401D01*
X99313798Y-70559641D01*
X99301834Y-70559000D01*
X98010000Y-70559000D01*
X97510000Y-70559000D01*
X96218166Y-70559000D01*
X96206201Y-70559641D01*
X96152625Y-70565401D01*
X96017909Y-70615647D01*
X95905190Y-70700028D01*
X95820648Y-70739125D01*
X95727513Y-70740455D01*
X95641889Y-70703788D01*
X95578581Y-70635466D01*
X95564003Y-70606427D01*
X95498700Y-70448770D01*
X95498699Y-70448769D01*
X95498699Y-70448768D01*
X95429612Y-70358732D01*
X95429609Y-70358729D01*
X95406451Y-70328549D01*
X95387910Y-70314322D01*
X95365889Y-70295009D01*
X94804990Y-69734110D01*
X94785671Y-69712081D01*
X94771451Y-69693549D01*
X94768047Y-69690937D01*
X94741270Y-69670390D01*
X94741268Y-69670388D01*
X94680571Y-69623813D01*
X94664716Y-69606885D01*
X94511235Y-69543312D01*
X94398759Y-69528504D01*
X94398727Y-69528500D01*
X94398720Y-69528500D01*
X94398717Y-69528500D01*
X94398707Y-69528499D01*
X94361000Y-69523534D01*
X94337840Y-69526584D01*
X94308603Y-69528500D01*
X93588602Y-69528500D01*
X93497493Y-69509134D01*
X93422138Y-69454385D01*
X93375565Y-69373720D01*
X93365829Y-69281086D01*
X93394612Y-69192500D01*
X93434274Y-69142146D01*
X93436536Y-69139995D01*
X93546913Y-68981413D01*
X93623105Y-68803864D01*
X93662000Y-68614604D01*
X93662000Y-68368000D01*
X93012000Y-68368000D01*
X93012000Y-67868000D01*
X93662000Y-67868000D01*
X93662000Y-67675507D01*
X93661425Y-67664176D01*
X93647351Y-67525777D01*
X93589511Y-67341429D01*
X93495748Y-67172500D01*
X93369890Y-67025892D01*
X93325632Y-66991634D01*
X93265439Y-66920552D01*
X93239361Y-66831132D01*
X93251909Y-66738837D01*
X93300911Y-66659624D01*
X93377896Y-66607191D01*
X93462743Y-66590500D01*
X100132715Y-66590500D01*
X100223824Y-66609866D01*
G37*
%TD.AperFunction*%
%TA.AperFunction,Conductor*%
G36*
X95627521Y-84234219D02*
G01*
X95733063Y-84298021D01*
X95888225Y-84346372D01*
X95934755Y-84350600D01*
X95955663Y-84352500D01*
X96414276Y-84352499D01*
X96505384Y-84371865D01*
X96580739Y-84426613D01*
X96627312Y-84507279D01*
X96637048Y-84599913D01*
X96608265Y-84688499D01*
X96591986Y-84712861D01*
X96527177Y-84797322D01*
X96507358Y-84823156D01*
X96506391Y-84822414D01*
X96477616Y-84864281D01*
X96398196Y-84912946D01*
X96323429Y-84925793D01*
X95972030Y-84925793D01*
X95972008Y-84925793D01*
X95966957Y-84925794D01*
X95961908Y-84926252D01*
X95961902Y-84926253D01*
X95899522Y-84931920D01*
X95744356Y-84980272D01*
X95605272Y-85064351D01*
X95535232Y-85134392D01*
X95457114Y-85185122D01*
X95376840Y-85200000D01*
X94335000Y-85200000D01*
X94243891Y-85180634D01*
X94168536Y-85125885D01*
X94121963Y-85045220D01*
X94111000Y-84976000D01*
X94111000Y-84924000D01*
X94130366Y-84832891D01*
X94185115Y-84757536D01*
X94265780Y-84710963D01*
X94335000Y-84700000D01*
X95335999Y-84700000D01*
X95335999Y-84682394D01*
X95335418Y-84671003D01*
X95325856Y-84577395D01*
X95299008Y-84496373D01*
X95288733Y-84403797D01*
X95317000Y-84315045D01*
X95378921Y-84245464D01*
X95463791Y-84207084D01*
X95556934Y-84206542D01*
X95627521Y-84234219D01*
G37*
%TD.AperFunction*%
%TA.AperFunction,Conductor*%
G36*
X86717200Y-81251183D02*
G01*
X86789356Y-81310085D01*
X86828578Y-81383724D01*
X86840640Y-81422431D01*
X86842979Y-81429936D01*
X86927058Y-81569020D01*
X87041980Y-81683942D01*
X87065417Y-81698110D01*
X87181065Y-81768022D01*
X87336225Y-81816372D01*
X87398150Y-81821999D01*
X87403663Y-81822500D01*
X87602914Y-81822499D01*
X87694021Y-81841864D01*
X87769377Y-81896613D01*
X87815949Y-81977278D01*
X87824996Y-82017259D01*
X87826855Y-82031377D01*
X87831313Y-82065236D01*
X87846470Y-82101829D01*
X87863444Y-82193411D01*
X87841700Y-82283982D01*
X87784998Y-82357878D01*
X87703141Y-82402323D01*
X87651513Y-82411227D01*
X87646417Y-82411500D01*
X87640428Y-82411500D01*
X87634478Y-82412139D01*
X87634471Y-82412140D01*
X87582756Y-82417700D01*
X87452284Y-82466363D01*
X87340811Y-82549811D01*
X87257363Y-82661284D01*
X87208700Y-82791756D01*
X87208700Y-82791757D01*
X87202500Y-82849428D01*
X87202500Y-82855423D01*
X87202500Y-83147500D01*
X87183134Y-83238609D01*
X87128385Y-83313964D01*
X87047720Y-83360537D01*
X86978500Y-83371500D01*
X86763342Y-83371500D01*
X86672233Y-83352134D01*
X86596878Y-83297385D01*
X86550305Y-83216720D01*
X86540569Y-83124086D01*
X86562826Y-83047654D01*
X86601959Y-82969063D01*
X86614535Y-82943808D01*
X86669588Y-82750315D01*
X86688150Y-82550000D01*
X86669588Y-82349685D01*
X86614535Y-82156192D01*
X86601230Y-82129474D01*
X86588661Y-82098697D01*
X86586587Y-82092300D01*
X86554309Y-82027654D01*
X86370326Y-81659176D01*
X86346954Y-81569017D01*
X86362274Y-81477141D01*
X86370217Y-81459632D01*
X86368092Y-81464028D01*
X86370547Y-81458582D01*
X86373295Y-81453265D01*
X86374479Y-81450213D01*
X86384858Y-81430456D01*
X86385018Y-81429939D01*
X86385021Y-81429936D01*
X86393564Y-81402519D01*
X86398611Y-81388080D01*
X86400303Y-81383724D01*
X86405917Y-81369267D01*
X86456954Y-81291351D01*
X86535271Y-81240929D01*
X86627325Y-81226721D01*
X86717200Y-81251183D01*
G37*
%TD.AperFunction*%
%TA.AperFunction,Conductor*%
G36*
X85108609Y-72637366D02*
G01*
X85183964Y-72692115D01*
X85230537Y-72772780D01*
X85241500Y-72842000D01*
X85241500Y-72894000D01*
X85222134Y-72985109D01*
X85167385Y-73060464D01*
X85086720Y-73107037D01*
X85017500Y-73118000D01*
X84576000Y-73118000D01*
X84484891Y-73098634D01*
X84409536Y-73043885D01*
X84362963Y-72963220D01*
X84357812Y-72930702D01*
X84372000Y-72894080D01*
X84372000Y-72750018D01*
X84426115Y-72675536D01*
X84506780Y-72628963D01*
X84576000Y-72618000D01*
X85017500Y-72618000D01*
X85108609Y-72637366D01*
G37*
%TD.AperFunction*%
%TA.AperFunction,Conductor*%
G36*
X92486457Y-73043610D02*
G01*
X92575962Y-73111201D01*
X92683840Y-73141895D01*
X92795521Y-73131546D01*
X92895922Y-73081552D01*
X92962000Y-73009069D01*
X92962000Y-73758470D01*
X93056464Y-73824219D01*
X93120180Y-73892161D01*
X93150753Y-73980146D01*
X93152500Y-74008070D01*
X93152500Y-77188065D01*
X93152091Y-77201593D01*
X93148641Y-77258605D01*
X93158938Y-77314793D01*
X93160973Y-77328164D01*
X93167859Y-77384871D01*
X93168229Y-77385845D01*
X93179115Y-77424894D01*
X93179305Y-77425933D01*
X93202753Y-77478032D01*
X93207930Y-77490531D01*
X93228183Y-77543934D01*
X93228777Y-77544794D01*
X93248688Y-77580096D01*
X93249119Y-77581053D01*
X93284353Y-77626027D01*
X93292370Y-77636922D01*
X93324817Y-77683929D01*
X93367568Y-77721803D01*
X93377420Y-77731077D01*
X94021194Y-78374851D01*
X94071924Y-78452969D01*
X94086495Y-78544966D01*
X94062387Y-78634937D01*
X94003770Y-78707324D01*
X93943721Y-78742117D01*
X93845574Y-78780139D01*
X93674540Y-78886039D01*
X93525868Y-79021571D01*
X93404634Y-79182112D01*
X93341442Y-79309017D01*
X93330087Y-79329146D01*
X93323506Y-79339521D01*
X93311610Y-79366473D01*
X93257103Y-79442004D01*
X93176587Y-79488835D01*
X93083985Y-79498868D01*
X92995307Y-79470369D01*
X92948293Y-79434413D01*
X91248990Y-77735110D01*
X91229671Y-77713081D01*
X91219565Y-77699911D01*
X91215451Y-77694549D01*
X91185270Y-77671390D01*
X91185268Y-77671388D01*
X91107030Y-77611354D01*
X91095232Y-77602301D01*
X91026339Y-77573765D01*
X90955238Y-77544314D01*
X90955236Y-77544313D01*
X90900943Y-77537165D01*
X90842726Y-77529500D01*
X90842707Y-77529499D01*
X90805000Y-77524534D01*
X90781840Y-77527584D01*
X90752603Y-77529500D01*
X89953500Y-77529500D01*
X89862391Y-77510134D01*
X89787036Y-77455385D01*
X89740463Y-77374720D01*
X89729500Y-77305500D01*
X89729500Y-76533404D01*
X89731416Y-76504167D01*
X89731507Y-76503471D01*
X89734466Y-76481000D01*
X89723407Y-76396998D01*
X89719416Y-76366683D01*
X89717500Y-76337445D01*
X89717500Y-75952500D01*
X89736866Y-75861391D01*
X89791615Y-75786036D01*
X89872280Y-75739463D01*
X89941500Y-75728500D01*
X90241287Y-75728500D01*
X90245694Y-75728500D01*
X90250102Y-75728153D01*
X90250104Y-75728153D01*
X90282564Y-75725599D01*
X90282566Y-75725598D01*
X90282569Y-75725598D01*
X90440398Y-75679744D01*
X90581865Y-75596081D01*
X90611606Y-75566339D01*
X90689721Y-75515610D01*
X90781719Y-75501038D01*
X90871690Y-75525145D01*
X90928390Y-75566339D01*
X90995125Y-75633074D01*
X91140602Y-75721019D01*
X91302892Y-75771590D01*
X91368361Y-75777539D01*
X91378510Y-75777999D01*
X91380000Y-75777999D01*
X91380000Y-75053000D01*
X91880000Y-75053000D01*
X91880000Y-75777999D01*
X91881501Y-75777999D01*
X91891628Y-75777539D01*
X91957101Y-75771591D01*
X92119400Y-75721017D01*
X92264874Y-75633074D01*
X92385074Y-75512874D01*
X92473019Y-75367397D01*
X92523590Y-75205107D01*
X92529541Y-75139624D01*
X92530000Y-75129503D01*
X92530000Y-75053000D01*
X91880000Y-75053000D01*
X91380000Y-75053000D01*
X91380000Y-73895216D01*
X91380346Y-73895216D01*
X91378147Y-73881333D01*
X91402255Y-73791362D01*
X91421605Y-73760047D01*
X91437774Y-73738139D01*
X91507459Y-73676337D01*
X91596258Y-73648219D01*
X91688816Y-73658650D01*
X91769130Y-73705826D01*
X91792487Y-73738487D01*
X91814392Y-73760392D01*
X91865122Y-73838510D01*
X91880000Y-73918784D01*
X91880000Y-74553000D01*
X92529999Y-74553000D01*
X92529999Y-74476499D01*
X92529539Y-74466371D01*
X92523591Y-74400898D01*
X92473017Y-74238599D01*
X92373454Y-74073902D01*
X92342893Y-73985914D01*
X92350762Y-73893102D01*
X92395700Y-73811515D01*
X92428037Y-73780884D01*
X92462000Y-73754594D01*
X92462000Y-73004110D01*
X92486457Y-73043610D01*
G37*
%TD.AperFunction*%
%TD*%
%TA.AperFunction,Conductor*%
%TO.N,Net-(J3-Pin_3)*%
G36*
X92708705Y-80013427D02*
G01*
X92711103Y-80016903D01*
X93164729Y-81026018D01*
X93164996Y-81034969D01*
X93158855Y-81041486D01*
X93158551Y-81041618D01*
X92587493Y-81279131D01*
X92578538Y-81279144D01*
X92578507Y-81279131D01*
X92311966Y-81168272D01*
X92007447Y-81041617D01*
X92001125Y-81035277D01*
X92001138Y-81026322D01*
X92001243Y-81026078D01*
X92454896Y-80016903D01*
X92461414Y-80010762D01*
X92465568Y-80010000D01*
X92700432Y-80010000D01*
X92708705Y-80013427D01*
G37*
%TD.AperFunction*%
%TD*%
%TA.AperFunction,Conductor*%
%TO.N,Net-(U1-SHPHLD)*%
G36*
X89347707Y-92329683D02*
G01*
X89784157Y-92764760D01*
X89787597Y-92773028D01*
X89786704Y-92777530D01*
X89549715Y-93348699D01*
X89543379Y-93355027D01*
X89536498Y-93355664D01*
X88731667Y-93186229D01*
X88725804Y-93183053D01*
X88560350Y-93017599D01*
X88556923Y-93009326D01*
X88560350Y-93001053D01*
X88560927Y-93000513D01*
X89331766Y-92329146D01*
X89340254Y-92326298D01*
X89347707Y-92329683D01*
G37*
%TD.AperFunction*%
%TD*%
%TA.AperFunction,Conductor*%
%TO.N,Net-(J1-Pin_1)*%
G36*
X93740464Y-87214345D02*
G01*
X93740779Y-87214672D01*
X94197181Y-87707990D01*
X94200284Y-87716390D01*
X94197467Y-87723562D01*
X93847964Y-88130261D01*
X93839972Y-88134302D01*
X93831912Y-88131875D01*
X93413799Y-87807079D01*
X93409368Y-87799297D01*
X93409948Y-87793933D01*
X93554861Y-87385011D01*
X93557613Y-87380650D01*
X93723919Y-87214344D01*
X93732191Y-87210918D01*
X93740464Y-87214345D01*
G37*
%TD.AperFunction*%
%TD*%
%TA.AperFunction,Conductor*%
%TO.N,Net-(U1-SHPHLD)*%
G36*
X89804411Y-95703817D02*
G01*
X89807864Y-95706240D01*
X90029219Y-95931023D01*
X90164212Y-96068107D01*
X90167576Y-96076406D01*
X90165506Y-96082961D01*
X89899116Y-96469034D01*
X89891597Y-96473897D01*
X89887826Y-96473971D01*
X89305040Y-96390439D01*
X89297337Y-96385873D01*
X89295000Y-96378857D01*
X89295000Y-95897140D01*
X89298427Y-95888867D01*
X89302631Y-95886171D01*
X89795464Y-95703480D01*
X89804411Y-95703817D01*
G37*
%TD.AperFunction*%
%TD*%
%TA.AperFunction,Conductor*%
%TO.N,Net-(J3-Pin_4)*%
G36*
X91317119Y-80012716D02*
G01*
X91317141Y-80012738D01*
X91753997Y-80450972D01*
X91757411Y-80459250D01*
X91754216Y-80467266D01*
X91051432Y-81211256D01*
X91043260Y-81214917D01*
X91034893Y-81211727D01*
X91034654Y-81211495D01*
X90868971Y-81045812D01*
X90865734Y-81039638D01*
X90680513Y-80023783D01*
X90682400Y-80015029D01*
X90689924Y-80010174D01*
X90692005Y-80009984D01*
X91308842Y-80009298D01*
X91317119Y-80012716D01*
G37*
%TD.AperFunction*%
%TD*%
%TA.AperFunction,Conductor*%
%TO.N,Net-(J1-Pin_1)*%
G36*
X93847187Y-88142597D02*
G01*
X94265169Y-88468104D01*
X94269591Y-88475891D01*
X94268349Y-88482756D01*
X93968283Y-89056721D01*
X93961413Y-89062465D01*
X93957914Y-89063000D01*
X93722086Y-89063000D01*
X93713813Y-89059573D01*
X93711717Y-89056721D01*
X93411650Y-88482756D01*
X93410854Y-88473836D01*
X93414828Y-88468106D01*
X93832811Y-88142597D01*
X93841444Y-88140218D01*
X93847187Y-88142597D01*
G37*
%TD.AperFunction*%
%TD*%
%TA.AperFunction,Conductor*%
%TO.N,VBUS*%
G36*
X95121705Y-70996427D02*
G01*
X95124103Y-70999903D01*
X95577729Y-72009018D01*
X95577996Y-72017969D01*
X95571855Y-72024486D01*
X95571551Y-72024618D01*
X95000493Y-72262131D01*
X94991538Y-72262144D01*
X94991507Y-72262131D01*
X94724966Y-72151272D01*
X94420447Y-72024617D01*
X94414125Y-72018277D01*
X94414138Y-72009322D01*
X94414243Y-72009078D01*
X94867896Y-70999903D01*
X94874414Y-70993762D01*
X94878568Y-70993000D01*
X95113432Y-70993000D01*
X95121705Y-70996427D01*
G37*
%TD.AperFunction*%
%TD*%
%TA.AperFunction,Conductor*%
%TO.N,Net-(LD1-A)*%
G36*
X99122018Y-86758427D02*
G01*
X99124225Y-86761499D01*
X99376863Y-87270579D01*
X99377471Y-87279513D01*
X99374287Y-87284407D01*
X99003904Y-87623758D01*
X98995489Y-87626820D01*
X98988096Y-87623758D01*
X98617712Y-87284407D01*
X98613927Y-87276291D01*
X98615135Y-87270580D01*
X98867774Y-86761499D01*
X98874522Y-86755612D01*
X98878255Y-86755000D01*
X99113745Y-86755000D01*
X99122018Y-86758427D01*
G37*
%TD.AperFunction*%
%TD*%
%TA.AperFunction,Conductor*%
%TO.N,Net-(J3-Pin_3)*%
G36*
X89265362Y-72141427D02*
G01*
X89268630Y-72147777D01*
X89291592Y-72285552D01*
X89291380Y-72290400D01*
X89153329Y-72825119D01*
X89147942Y-72832273D01*
X89139075Y-72833523D01*
X89131921Y-72828136D01*
X89130671Y-72825119D01*
X89130289Y-72823641D01*
X88992618Y-72290397D01*
X88992407Y-72285556D01*
X89015370Y-72147774D01*
X89020111Y-72140179D01*
X89026911Y-72138000D01*
X89257089Y-72138000D01*
X89265362Y-72141427D01*
G37*
%TD.AperFunction*%
%TD*%
%TA.AperFunction,Conductor*%
%TO.N,VSYS*%
G36*
X94821829Y-86188598D02*
G01*
X95334286Y-86600723D01*
X95338586Y-86608578D01*
X95336071Y-86617172D01*
X95335227Y-86618113D01*
X94994406Y-86958934D01*
X94986133Y-86962361D01*
X94985927Y-86962359D01*
X94298415Y-86950239D01*
X94290203Y-86946667D01*
X94286923Y-86938335D01*
X94287081Y-86936619D01*
X94359479Y-86504152D01*
X94364223Y-86496560D01*
X94807819Y-86188108D01*
X94816566Y-86186199D01*
X94821829Y-86188598D01*
G37*
%TD.AperFunction*%
%TD*%
%TA.AperFunction,Conductor*%
%TO.N,Net-(J2-CC2)*%
G36*
X86652079Y-72907863D02*
G01*
X86653329Y-72910880D01*
X86791380Y-73445599D01*
X86791592Y-73450447D01*
X86768630Y-73588223D01*
X86763890Y-73595821D01*
X86757089Y-73598000D01*
X86526911Y-73598000D01*
X86518638Y-73594573D01*
X86515370Y-73588223D01*
X86492407Y-73450443D01*
X86492618Y-73445603D01*
X86630671Y-72910879D01*
X86636058Y-72903726D01*
X86644925Y-72902476D01*
X86652079Y-72907863D01*
G37*
%TD.AperFunction*%
%TD*%
%TA.AperFunction,Conductor*%
%TO.N,Net-(U1-SHPHLD)*%
G36*
X88314119Y-93622427D02*
G01*
X88315487Y-93624072D01*
X88583197Y-94013468D01*
X88585060Y-94022226D01*
X88584145Y-94025073D01*
X88197589Y-94847471D01*
X88190968Y-94853501D01*
X88182023Y-94853083D01*
X88176411Y-94847471D01*
X88003490Y-94479582D01*
X87789853Y-94025071D01*
X87789436Y-94016128D01*
X87790798Y-94013475D01*
X88058512Y-93624072D01*
X88066024Y-93619196D01*
X88068154Y-93619000D01*
X88305846Y-93619000D01*
X88314119Y-93622427D01*
G37*
%TD.AperFunction*%
%TD*%
%TA.AperFunction,Conductor*%
%TO.N,Net-(J2-CC1)*%
G36*
X89770167Y-73986753D02*
G01*
X90211993Y-74329940D01*
X90216425Y-74337721D01*
X90215231Y-74344512D01*
X89982582Y-74798956D01*
X89975761Y-74804758D01*
X89974440Y-74805101D01*
X89593016Y-74880653D01*
X89584235Y-74878899D01*
X89579266Y-74871449D01*
X89579072Y-74869994D01*
X89574447Y-74804000D01*
X89517877Y-73996810D01*
X89520717Y-73988318D01*
X89528730Y-73984322D01*
X89529548Y-73984293D01*
X89762990Y-73984293D01*
X89770167Y-73986753D01*
G37*
%TD.AperFunction*%
%TD*%
%TA.AperFunction,Conductor*%
%TO.N,VSYS*%
G36*
X107234507Y-87784084D02*
G01*
X108068312Y-88515057D01*
X108072274Y-88523087D01*
X108069397Y-88531567D01*
X108068872Y-88532127D01*
X107234356Y-89366643D01*
X107226083Y-89370070D01*
X107218834Y-89367554D01*
X106641595Y-88911917D01*
X106640571Y-88911006D01*
X106296579Y-88567014D01*
X106293152Y-88558741D01*
X106296579Y-88550468D01*
X106297363Y-88549752D01*
X107219320Y-87783882D01*
X107227872Y-87781233D01*
X107234507Y-87784084D01*
G37*
%TD.AperFunction*%
%TD*%
%TA.AperFunction,Conductor*%
%TO.N,VBUS*%
G36*
X90805285Y-71991427D02*
G01*
X90806502Y-71992857D01*
X91015592Y-72282829D01*
X91017651Y-72291544D01*
X91016998Y-72293935D01*
X90801424Y-72844911D01*
X90795218Y-72851367D01*
X90786265Y-72851544D01*
X90780132Y-72846016D01*
X90779561Y-72844911D01*
X90493890Y-72291660D01*
X90492821Y-72283961D01*
X90551095Y-71997369D01*
X90556101Y-71989944D01*
X90562560Y-71988000D01*
X90797012Y-71988000D01*
X90805285Y-71991427D01*
G37*
%TD.AperFunction*%
%TD*%
%TA.AperFunction,Conductor*%
%TO.N,Net-(J3-Pin_3)*%
G36*
X88265362Y-72141427D02*
G01*
X88268630Y-72147777D01*
X88291592Y-72285552D01*
X88291380Y-72290400D01*
X88153329Y-72825119D01*
X88147942Y-72832273D01*
X88139075Y-72833523D01*
X88131921Y-72828136D01*
X88130671Y-72825119D01*
X88130289Y-72823641D01*
X87992618Y-72290397D01*
X87992407Y-72285556D01*
X88015370Y-72147774D01*
X88020111Y-72140179D01*
X88026911Y-72138000D01*
X88257089Y-72138000D01*
X88265362Y-72141427D01*
G37*
%TD.AperFunction*%
%TD*%
%TA.AperFunction,Conductor*%
%TO.N,Net-(J1-Pin_1)*%
G36*
X97773878Y-94278637D02*
G01*
X98584768Y-95115514D01*
X98588064Y-95123840D01*
X98584716Y-95131850D01*
X97768783Y-95963432D01*
X97760543Y-95966937D01*
X97754068Y-95965056D01*
X96729994Y-95301277D01*
X96724916Y-95293901D01*
X96726540Y-95285095D01*
X96728080Y-95283191D01*
X97071412Y-94939860D01*
X97757355Y-94278355D01*
X97765687Y-94275081D01*
X97773878Y-94278637D01*
G37*
%TD.AperFunction*%
%TD*%
%TA.AperFunction,Conductor*%
%TO.N,Low_Batt*%
G36*
X80091836Y-97009791D02*
G01*
X80092413Y-97010049D01*
X81449366Y-97661814D01*
X81455339Y-97668484D01*
X81456000Y-97672360D01*
X81456000Y-97907639D01*
X81452573Y-97915912D01*
X81449366Y-97918186D01*
X80092413Y-98569950D01*
X80083471Y-98570442D01*
X80076800Y-98564469D01*
X80076542Y-98563892D01*
X79756865Y-97794489D01*
X79756856Y-97785534D01*
X79756865Y-97785511D01*
X80076542Y-97016107D01*
X80082881Y-97009782D01*
X80091836Y-97009791D01*
G37*
%TD.AperFunction*%
%TD*%
%TA.AperFunction,Conductor*%
%TO.N,Net-(LD3-A)*%
G36*
X95927159Y-83046889D02*
G01*
X95931272Y-83050112D01*
X96260032Y-83455900D01*
X96262577Y-83464485D01*
X96258799Y-83471933D01*
X95861862Y-83831772D01*
X95853431Y-83834790D01*
X95847467Y-83832807D01*
X95358663Y-83503478D01*
X95353716Y-83496013D01*
X95353500Y-83493775D01*
X95353500Y-83258219D01*
X95356927Y-83249946D01*
X95361229Y-83247214D01*
X95918216Y-83046470D01*
X95927159Y-83046889D01*
G37*
%TD.AperFunction*%
%TD*%
%TA.AperFunction,Conductor*%
%TO.N,CHG*%
G36*
X80091836Y-91929791D02*
G01*
X80092413Y-91930049D01*
X81449366Y-92581814D01*
X81455339Y-92588484D01*
X81456000Y-92592360D01*
X81456000Y-92827639D01*
X81452573Y-92835912D01*
X81449366Y-92838186D01*
X80092413Y-93489950D01*
X80083471Y-93490442D01*
X80076800Y-93484469D01*
X80076542Y-93483892D01*
X79756865Y-92714489D01*
X79756856Y-92705534D01*
X79756865Y-92705511D01*
X80076542Y-91936107D01*
X80082881Y-91929782D01*
X80091836Y-91929791D01*
G37*
%TD.AperFunction*%
%TD*%
%TA.AperFunction,Conductor*%
%TO.N,Net-(J3-Pin_4)*%
G36*
X88136705Y-76076427D02*
G01*
X88139103Y-76079903D01*
X88592729Y-77089018D01*
X88592996Y-77097969D01*
X88586855Y-77104486D01*
X88586551Y-77104618D01*
X88015493Y-77342131D01*
X88006538Y-77342144D01*
X88006507Y-77342131D01*
X87739966Y-77231272D01*
X87435447Y-77104617D01*
X87429125Y-77098277D01*
X87429138Y-77089322D01*
X87429243Y-77089078D01*
X87882896Y-76079903D01*
X87889414Y-76073762D01*
X87893568Y-76073000D01*
X88128432Y-76073000D01*
X88136705Y-76076427D01*
G37*
%TD.AperFunction*%
%TD*%
%TA.AperFunction,Conductor*%
%TO.N,Low_Batt*%
G36*
X101914443Y-84353932D02*
G01*
X102403501Y-84834561D01*
X102407000Y-84842804D01*
X102407000Y-85081149D01*
X102403573Y-85089422D01*
X102401026Y-85091352D01*
X101915592Y-85363769D01*
X101906700Y-85364830D01*
X101900786Y-85360944D01*
X101479781Y-84842804D01*
X101413392Y-84761098D01*
X101410835Y-84752517D01*
X101415095Y-84744641D01*
X101415113Y-84744626D01*
X101898886Y-84353182D01*
X101907471Y-84350643D01*
X101914443Y-84353932D01*
G37*
%TD.AperFunction*%
%TD*%
%TA.AperFunction,Conductor*%
%TO.N,VBUS*%
G36*
X94419345Y-72024124D02*
G01*
X94992208Y-72260437D01*
X94998549Y-72266760D01*
X94998562Y-72266791D01*
X95234874Y-72839653D01*
X95234861Y-72848608D01*
X95229342Y-72854554D01*
X94282313Y-73333973D01*
X94273384Y-73334652D01*
X94268756Y-73331807D01*
X93927192Y-72990243D01*
X93923765Y-72981970D01*
X93925025Y-72976688D01*
X94404445Y-72029656D01*
X94411239Y-72023823D01*
X94419345Y-72024124D01*
G37*
%TD.AperFunction*%
%TD*%
%TA.AperFunction,Conductor*%
%TO.N,Net-(J3-Pin_7)*%
G36*
X80091836Y-84309791D02*
G01*
X80092413Y-84310049D01*
X81449366Y-84961814D01*
X81455339Y-84968484D01*
X81456000Y-84972360D01*
X81456000Y-85207639D01*
X81452573Y-85215912D01*
X81449366Y-85218186D01*
X80092413Y-85869950D01*
X80083471Y-85870442D01*
X80076800Y-85864469D01*
X80076542Y-85863892D01*
X79756865Y-85094488D01*
X79756856Y-85085533D01*
X79756856Y-85085532D01*
X80076542Y-84316106D01*
X80082881Y-84309782D01*
X80091836Y-84309791D01*
G37*
%TD.AperFunction*%
%TD*%
%TA.AperFunction,Conductor*%
%TO.N,VBUS*%
G36*
X94518144Y-80787348D02*
G01*
X94521551Y-80789715D01*
X94862375Y-81130539D01*
X94863835Y-81132319D01*
X95039822Y-81396136D01*
X95041562Y-81404920D01*
X95037061Y-81412025D01*
X94622491Y-81719624D01*
X94613805Y-81721802D01*
X94607155Y-81718409D01*
X94300530Y-81404920D01*
X94253226Y-81356557D01*
X94249892Y-81348247D01*
X94250951Y-81343511D01*
X94347967Y-81131358D01*
X94502638Y-80793121D01*
X94509195Y-80787024D01*
X94518144Y-80787348D01*
G37*
%TD.AperFunction*%
%TD*%
%TA.AperFunction,Conductor*%
%TO.N,VBUS*%
G36*
X90805285Y-71991427D02*
G01*
X90806502Y-71992857D01*
X91015592Y-72282829D01*
X91017651Y-72291544D01*
X91016998Y-72293935D01*
X90801424Y-72844911D01*
X90795218Y-72851367D01*
X90786265Y-72851544D01*
X90780132Y-72846016D01*
X90779561Y-72844911D01*
X90493890Y-72291660D01*
X90492821Y-72283961D01*
X90551095Y-71997369D01*
X90556101Y-71989944D01*
X90562560Y-71988000D01*
X90797012Y-71988000D01*
X90805285Y-71991427D01*
G37*
%TD.AperFunction*%
%TD*%
%TA.AperFunction,Conductor*%
%TO.N,Net-(J2-CC1)*%
G36*
X89652079Y-72907863D02*
G01*
X89653329Y-72910880D01*
X89791380Y-73445599D01*
X89791592Y-73450447D01*
X89768630Y-73588223D01*
X89763890Y-73595821D01*
X89757089Y-73598000D01*
X89526911Y-73598000D01*
X89518638Y-73594573D01*
X89515370Y-73588223D01*
X89492407Y-73450443D01*
X89492618Y-73445603D01*
X89630671Y-72910879D01*
X89636058Y-72903726D01*
X89644925Y-72902476D01*
X89652079Y-72907863D01*
G37*
%TD.AperFunction*%
%TD*%
%TA.AperFunction,Conductor*%
%TO.N,Low_Batt*%
G36*
X103068919Y-84969798D02*
G01*
X103428503Y-85323899D01*
X103431994Y-85332145D01*
X103430251Y-85338378D01*
X103125429Y-85832443D01*
X103118169Y-85837685D01*
X103115472Y-85838000D01*
X102880116Y-85838000D01*
X102871843Y-85834573D01*
X102869157Y-85830399D01*
X102678989Y-85321930D01*
X102679301Y-85312980D01*
X102682042Y-85309205D01*
X103052806Y-84969506D01*
X103061221Y-84966445D01*
X103068919Y-84969798D01*
G37*
%TD.AperFunction*%
%TD*%
%TA.AperFunction,Conductor*%
%TO.N,VOUTB*%
G36*
X80091836Y-81769791D02*
G01*
X80092413Y-81770049D01*
X81449366Y-82421814D01*
X81455339Y-82428484D01*
X81456000Y-82432360D01*
X81456000Y-82667639D01*
X81452573Y-82675912D01*
X81449366Y-82678186D01*
X80092413Y-83329950D01*
X80083471Y-83330442D01*
X80076800Y-83324469D01*
X80076542Y-83323892D01*
X79756865Y-82554488D01*
X79756856Y-82545533D01*
X79756856Y-82545532D01*
X80076542Y-81776106D01*
X80082881Y-81769782D01*
X80091836Y-81769791D01*
G37*
%TD.AperFunction*%
%TD*%
%TA.AperFunction,Conductor*%
%TO.N,Net-(U1-SW)*%
G36*
X88121546Y-80413383D02*
G01*
X88472933Y-80802358D01*
X88475936Y-80810794D01*
X88472524Y-80818474D01*
X88303838Y-80987160D01*
X88303829Y-80987169D01*
X88303611Y-80987388D01*
X88303424Y-80987620D01*
X88303410Y-80987637D01*
X88074554Y-81273401D01*
X88066708Y-81277716D01*
X88058108Y-81275219D01*
X88056097Y-81273153D01*
X87839547Y-80987388D01*
X87682529Y-80780182D01*
X87680264Y-80771519D01*
X87684349Y-80764140D01*
X88105362Y-80412248D01*
X88113906Y-80409573D01*
X88121546Y-80413383D01*
G37*
%TD.AperFunction*%
%TD*%
%TA.AperFunction,Conductor*%
%TO.N,Net-(U1-ICHG)*%
G36*
X91344110Y-88709278D02*
G01*
X91347677Y-88711930D01*
X91685930Y-89082102D01*
X91688981Y-89090521D01*
X91685185Y-89098631D01*
X91684227Y-89099418D01*
X91269957Y-89404241D01*
X91261263Y-89406384D01*
X91255380Y-89403676D01*
X90809855Y-89019322D01*
X90805831Y-89011324D01*
X90808640Y-89002821D01*
X90809212Y-89002205D01*
X90975213Y-88836204D01*
X90979609Y-88833440D01*
X91335169Y-88708781D01*
X91344110Y-88709278D01*
G37*
%TD.AperFunction*%
%TD*%
%TA.AperFunction,Conductor*%
%TO.N,Net-(U1-NTC)*%
G36*
X93979733Y-95521427D02*
G01*
X93981426Y-95523570D01*
X94285696Y-96018264D01*
X94287111Y-96027107D01*
X94283927Y-96032742D01*
X93923919Y-96386224D01*
X93915615Y-96389576D01*
X93907818Y-96386503D01*
X93537054Y-96046804D01*
X93533269Y-96038688D01*
X93534005Y-96034064D01*
X93725149Y-95525582D01*
X93731268Y-95519045D01*
X93736101Y-95518000D01*
X93971460Y-95518000D01*
X93979733Y-95521427D01*
G37*
%TD.AperFunction*%
%TD*%
%TA.AperFunction,Conductor*%
%TO.N,Net-(J3-Pin_3)*%
G36*
X92584144Y-81282719D02*
G01*
X92586696Y-81286539D01*
X92822343Y-81857791D01*
X92822330Y-81866746D01*
X92818016Y-81871988D01*
X92018497Y-82404940D01*
X92009713Y-82406678D01*
X92003735Y-82403478D01*
X91837760Y-82237503D01*
X91834333Y-82229230D01*
X91834416Y-82227838D01*
X91877060Y-81871988D01*
X91946766Y-81290295D01*
X91951153Y-81282489D01*
X91958368Y-81279988D01*
X92575868Y-81279301D01*
X92584144Y-81282719D01*
G37*
%TD.AperFunction*%
%TD*%
%TA.AperFunction,Conductor*%
%TO.N,VBUS*%
G36*
X93343259Y-82331920D02*
G01*
X93343406Y-82332065D01*
X93684227Y-82672886D01*
X93687654Y-82681159D01*
X93684227Y-82689432D01*
X93683286Y-82690276D01*
X93170829Y-83102401D01*
X93162235Y-83104916D01*
X93156818Y-83102890D01*
X92713339Y-82794520D01*
X92708502Y-82786983D01*
X92708479Y-82786846D01*
X92692313Y-82690276D01*
X92636084Y-82354388D01*
X92638097Y-82345664D01*
X92645691Y-82340919D01*
X92647407Y-82340760D01*
X93334928Y-82328640D01*
X93343259Y-82331920D01*
G37*
%TD.AperFunction*%
%TD*%
%TA.AperFunction,Conductor*%
%TO.N,Net-(J3-Pin_4)*%
G36*
X88652079Y-72907863D02*
G01*
X88653329Y-72910880D01*
X88791380Y-73445599D01*
X88791592Y-73450447D01*
X88768630Y-73588223D01*
X88763890Y-73595821D01*
X88757089Y-73598000D01*
X88526911Y-73598000D01*
X88518638Y-73594573D01*
X88515370Y-73588223D01*
X88492407Y-73450443D01*
X88492618Y-73445603D01*
X88630671Y-72910879D01*
X88636058Y-72903726D01*
X88644925Y-72902476D01*
X88652079Y-72907863D01*
G37*
%TD.AperFunction*%
%TD*%
%TA.AperFunction,Conductor*%
%TO.N,Net-(J3-Pin_3)*%
G36*
X93755391Y-79517350D02*
G01*
X94327708Y-79753437D01*
X94334049Y-79759760D01*
X94334062Y-79759791D01*
X94569630Y-80330848D01*
X94569617Y-80339803D01*
X94563276Y-80346126D01*
X94562305Y-80346477D01*
X93489567Y-80681854D01*
X93480648Y-80681052D01*
X93477803Y-80678960D01*
X93311699Y-80512856D01*
X93308272Y-80504583D01*
X93309267Y-80499861D01*
X93740225Y-79523441D01*
X93746701Y-79517257D01*
X93755391Y-79517350D01*
G37*
%TD.AperFunction*%
%TD*%
M02*
