M48
; DRILL file {KiCad 7.0.2} date Tue Mar  4 18:43:14 2025
; FORMAT={3:3/ absolute / metric / keep zeros}
; #@! TF.CreationDate,2025-03-04T18:43:14-05:00
; #@! TF.GenerationSoftware,Kicad,Pcbnew,7.0.2
; #@! TF.FileFunction,MixedPlating,1,2
FMAT,2
METRIC
; #@! TA.AperFunction,Plated,PTH,ViaDrill
T1C0.600
; #@! TA.AperFunction,Plated,PTH,ComponentDrill
T2C0.600
; #@! TA.AperFunction,Plated,PTH,ViaDrill
T3C0.700
; #@! TA.AperFunction,Plated,PTH,ComponentDrill
T4C1.000
; #@! TA.AperFunction,Plated,PTH,ComponentDrill
T5C2.300
; #@! TA.AperFunction,NonPlated,NPTH,ComponentDrill
T6C0.600
; #@! TA.AperFunction,NonPlated,NPTH,ComponentDrill
T7C2.200
%
G90
G05
T1
X092329Y-087249
X093853Y-094488
T3
X082296Y-082550
X084836Y-097790
X085471Y-076962
X085598Y-082550
X088011Y-077343
X088011Y-091567
X089789Y-089662
X089789Y-092771
X091313Y-080010
X092329Y-076835
X092583Y-081280
X094332Y-079756
X094967Y-074422
X094996Y-072263
X094996Y-076327
X102997Y-087122
X105029Y-086995
T4
X079756Y-069850
X079756Y-072390
X079756Y-074930
X079756Y-077470
X079756Y-080010
X079756Y-082550
X079756Y-085090
X079756Y-087630
X079756Y-090170
X079756Y-092710
X079756Y-095250
X079756Y-097790
X098592Y-095123
X101092Y-095123
X108077Y-085984
X108077Y-088524
T5
X101440Y-068614
X101440Y-081754
T6
X085502Y-071808
X091282Y-071808
T7
X108331Y-097282
T2
X084072Y-067718G85X084072Y-068518
G05
X084072Y-071738G85X084072Y-072838
G05
X092712Y-067718G85X092712Y-068518
G05
X092712Y-071738G85X092712Y-072838
G05
T0
M30
