M48
; DRILL file {KiCad 7.0.2} date Tue Mar  4 18:56:31 2025
; FORMAT={3:3/ absolute / metric / keep zeros}
; #@! TF.CreationDate,2025-03-04T18:56:31-05:00
; #@! TF.GenerationSoftware,Kicad,Pcbnew,7.0.2
; #@! TF.FileFunction,MixedPlating,1,2
FMAT,2
METRIC
; #@! TA.AperFunction,Plated,PTH,ViaDrill
T1C0.600
; #@! TA.AperFunction,Plated,PTH,ViaDrill
T2C0.670
; #@! TA.AperFunction,Plated,PTH,ViaDrill
T3C0.700
; #@! TA.AperFunction,Plated,PTH,ComponentDrill
T4C1.000
; #@! TA.AperFunction,NonPlated,NPTH,ComponentDrill
T5C2.200
%
G90
G05
T1
X062992Y-080772
T2
X067183Y-100330
T3
X065151Y-097282
X066929Y-089027
X067183Y-091186
X067310Y-097536
X067564Y-096012
X067818Y-086741
X068641Y-093599
X070104Y-086995
X070612Y-089281
X072009Y-085217
X072263Y-092190
T4
X062865Y-083312
X062865Y-085852
X062865Y-088392
X062865Y-090932
X062865Y-093472
X062865Y-096012
X062865Y-098552
T5
X070739Y-099314
X070866Y-082169
T0
M30
