%TF.GenerationSoftware,KiCad,Pcbnew,7.0.2*%
%TF.CreationDate,2025-03-07T15:43:59-05:00*%
%TF.ProjectId,2BMA400,32424d41-3430-4302-9e6b-696361645f70,rev?*%
%TF.SameCoordinates,Original*%
%TF.FileFunction,Copper,L1,Top*%
%TF.FilePolarity,Positive*%
%FSLAX46Y46*%
G04 Gerber Fmt 4.6, Leading zero omitted, Abs format (unit mm)*
G04 Created by KiCad (PCBNEW 7.0.2) date 2025-03-07 15:43:59*
%MOMM*%
%LPD*%
G01*
G04 APERTURE LIST*
G04 Aperture macros list*
%AMRoundRect*
0 Rectangle with rounded corners*
0 $1 Rounding radius*
0 $2 $3 $4 $5 $6 $7 $8 $9 X,Y pos of 4 corners*
0 Add a 4 corners polygon primitive as box body*
4,1,4,$2,$3,$4,$5,$6,$7,$8,$9,$2,$3,0*
0 Add four circle primitives for the rounded corners*
1,1,$1+$1,$2,$3*
1,1,$1+$1,$4,$5*
1,1,$1+$1,$6,$7*
1,1,$1+$1,$8,$9*
0 Add four rect primitives between the rounded corners*
20,1,$1+$1,$2,$3,$4,$5,0*
20,1,$1+$1,$4,$5,$6,$7,0*
20,1,$1+$1,$6,$7,$8,$9,0*
20,1,$1+$1,$8,$9,$2,$3,0*%
G04 Aperture macros list end*
%TA.AperFunction,NonConductor*%
%ADD10C,0.200000*%
%TD*%
%TA.AperFunction,NonConductor*%
%ADD11C,1.150000*%
%TD*%
%TA.AperFunction,SMDPad,CuDef*%
%ADD12RoundRect,0.225000X-0.250000X0.225000X-0.250000X-0.225000X0.250000X-0.225000X0.250000X0.225000X0*%
%TD*%
%TA.AperFunction,SMDPad,CuDef*%
%ADD13R,0.350000X0.300000*%
%TD*%
%TA.AperFunction,SMDPad,CuDef*%
%ADD14R,0.300000X0.350000*%
%TD*%
%TA.AperFunction,ComponentPad*%
%ADD15R,1.700000X1.700000*%
%TD*%
%TA.AperFunction,ComponentPad*%
%ADD16O,1.700000X1.700000*%
%TD*%
%TA.AperFunction,ViaPad*%
%ADD17C,1.270000*%
%TD*%
%TA.AperFunction,ViaPad*%
%ADD18C,1.200000*%
%TD*%
%TA.AperFunction,Conductor*%
%ADD19C,0.250000*%
%TD*%
%TA.AperFunction,Conductor*%
%ADD20C,0.500000*%
%TD*%
%TA.AperFunction,Conductor*%
%ADD21C,0.600000*%
%TD*%
%TA.AperFunction,Conductor*%
%ADD22C,0.270000*%
%TD*%
G04 APERTURE END LIST*
D10*
X60452000Y-79375000D02*
X60452000Y-102108000D01*
X73660000Y-102108000D02*
X73660000Y-79375000D01*
D11*
X71314000Y-99314000D02*
G75*
G03*
X71314000Y-99314000I-575000J0D01*
G01*
D10*
X60452000Y-102108000D02*
X73660000Y-102108000D01*
D11*
X71441000Y-82176800D02*
G75*
G03*
X71441000Y-82176800I-575000J0D01*
G01*
D10*
X73660000Y-79375000D02*
X60452000Y-79375000D01*
D12*
%TO.P,C1,1*%
%TO.N,VDDIO*%
X67056000Y-92824000D03*
%TO.P,C1,2*%
%TO.N,GND*%
X67056000Y-94374000D03*
%TD*%
%TO.P,C2,1*%
%TO.N,VDD*%
X71120000Y-94221000D03*
%TO.P,C2,2*%
%TO.N,GND*%
X71120000Y-95771000D03*
%TD*%
D13*
%TO.P,U1,1,SDO*%
%TO.N,GND*%
X69075000Y-90690000D03*
%TO.P,U1,2,SDX*%
%TO.N,SDA*%
X69075000Y-91190000D03*
%TO.P,U1,3,VDDIO*%
%TO.N,VDDIO*%
X69075000Y-91690000D03*
%TO.P,U1,4*%
%TO.N,N/C*%
X69075000Y-92190000D03*
D14*
%TO.P,U1,5,INT1*%
%TO.N,INT1*%
X69600000Y-92215000D03*
%TO.P,U1,6,INT2*%
%TO.N,INT2*%
X70100000Y-92215000D03*
D13*
%TO.P,U1,7,VDD*%
%TO.N,VDD*%
X70625000Y-92190000D03*
%TO.P,U1,8,GNDIO*%
%TO.N,GND*%
X70625000Y-91690000D03*
%TO.P,U1,9,GND*%
X70625000Y-91190000D03*
%TO.P,U1,10,~{CSB}*%
%TO.N,VDDIO*%
X70625000Y-90690000D03*
D14*
%TO.P,U1,11*%
%TO.N,N/C*%
X70100000Y-90665000D03*
%TO.P,U1,12,SCX*%
%TO.N,SCL*%
X69600000Y-90665000D03*
%TD*%
D15*
%TO.P,J1,1,Pin_1*%
%TO.N,VDD*%
X62865000Y-83312000D03*
D16*
%TO.P,J1,2,Pin_2*%
%TO.N,VDDIO*%
X62865000Y-85852000D03*
%TO.P,J1,3,Pin_3*%
%TO.N,GND*%
X62865000Y-88392000D03*
%TO.P,J1,4,Pin_4*%
%TO.N,SCL*%
X62865000Y-90932000D03*
%TO.P,J1,5,Pin_5*%
%TO.N,SDA*%
X62865000Y-93472000D03*
%TO.P,J1,6,Pin_6*%
%TO.N,INT1*%
X62865000Y-96012000D03*
%TO.P,J1,7,Pin_7*%
%TO.N,INT2*%
X62865000Y-98552000D03*
%TD*%
D17*
%TO.N,VDDIO*%
X67818000Y-86741000D03*
X70612000Y-89281000D03*
X68640500Y-93599000D03*
%TO.N,GND*%
X72009000Y-85217000D03*
X70104000Y-86995000D03*
X65151000Y-97282000D03*
D18*
X62992000Y-80772000D03*
D17*
X67183000Y-100330000D03*
%TO.N,VDD*%
X72263000Y-92190000D03*
%TO.N,INT2*%
X67310000Y-97536000D03*
%TO.N,INT1*%
X67564000Y-96012000D03*
%TO.N,SCL*%
X66929000Y-89027000D03*
%TO.N,SDA*%
X67183000Y-91186000D03*
%TD*%
D19*
%TO.N,VDDIO*%
X68326000Y-93284500D02*
X68640500Y-93599000D01*
X68584000Y-91690000D02*
X68326000Y-91948000D01*
D20*
X67831000Y-92824000D02*
X67056000Y-92824000D01*
X68326000Y-92329000D02*
X67831000Y-92824000D01*
D19*
X68326000Y-91948000D02*
X68326000Y-92329000D01*
D21*
X64770000Y-85852000D02*
X62865000Y-85852000D01*
D19*
X70612000Y-89281000D02*
X70625000Y-89294000D01*
D21*
X65659000Y-86741000D02*
X64770000Y-85852000D01*
D19*
X69075000Y-91690000D02*
X68584000Y-91690000D01*
D20*
X68326000Y-92329000D02*
X68326000Y-93284500D01*
D19*
X70625000Y-89294000D02*
X70625000Y-90690000D01*
D21*
X67818000Y-86741000D02*
X65659000Y-86741000D01*
D19*
%TO.N,GND*%
X66167000Y-90170000D02*
X66167000Y-94107000D01*
X64389000Y-88392000D02*
X64897000Y-87884000D01*
X66434000Y-94374000D02*
X67056000Y-94374000D01*
X64897000Y-87884000D02*
X71120000Y-87884000D01*
X66167000Y-94107000D02*
X66167000Y-98552000D01*
X66167000Y-90170000D02*
X64389000Y-88392000D01*
X67184396Y-99060000D02*
X70473396Y-95771000D01*
X70625000Y-91690000D02*
X70625000Y-91190000D01*
X70473396Y-95771000D02*
X71120000Y-95771000D01*
X71370000Y-91190000D02*
X70625000Y-91190000D01*
X64389000Y-88392000D02*
X62865000Y-88392000D01*
X66167000Y-98552000D02*
X66675000Y-99060000D01*
X71755000Y-88519000D02*
X71755000Y-90805000D01*
X66167000Y-94107000D02*
X66434000Y-94374000D01*
X66675000Y-99060000D02*
X67184396Y-99060000D01*
X68555000Y-90170000D02*
X66167000Y-90170000D01*
X71120000Y-87884000D02*
X71755000Y-88519000D01*
X71755000Y-90805000D02*
X71370000Y-91190000D01*
X69075000Y-90690000D02*
X68555000Y-90170000D01*
%TO.N,VDD*%
X70625000Y-92190000D02*
X70625000Y-92723000D01*
X70625000Y-92723000D02*
X71120000Y-93218000D01*
X71120000Y-93218000D02*
X71120000Y-94221000D01*
D22*
X72378000Y-92190000D02*
X70625000Y-92190000D01*
D19*
X72263000Y-92190000D02*
X72378000Y-92190000D01*
%TO.N,INT2*%
X68072000Y-97536000D02*
X70104000Y-95504000D01*
X70104000Y-92964000D02*
X70100000Y-92960000D01*
X70100000Y-92960000D02*
X70100000Y-92215000D01*
X70104000Y-95504000D02*
X70104000Y-92964000D01*
X67310000Y-97536000D02*
X68072000Y-97536000D01*
%TO.N,INT1*%
X69600000Y-94609604D02*
X69600000Y-92215000D01*
X67564000Y-96012000D02*
X67437000Y-96012000D01*
X68197604Y-96012000D02*
X67564000Y-96012000D01*
X68197604Y-96012000D02*
X69600000Y-94609604D01*
%TO.N,SCL*%
X68387000Y-89027000D02*
X69600000Y-90240000D01*
X69600000Y-90240000D02*
X69600000Y-90665000D01*
X66929000Y-89027000D02*
X68387000Y-89027000D01*
%TO.N,SDA*%
X67187000Y-91190000D02*
X69075000Y-91190000D01*
X67183000Y-91186000D02*
X67187000Y-91190000D01*
%TD*%
%TA.AperFunction,Conductor*%
%TO.N,VDDIO*%
G36*
X67573913Y-86158195D02*
G01*
X67578972Y-86163895D01*
X67817131Y-86736507D01*
X67817144Y-86745462D01*
X67817131Y-86745493D01*
X67578972Y-87318104D01*
X67572631Y-87324427D01*
X67565023Y-87324880D01*
X66556554Y-87043387D01*
X66549507Y-87037862D01*
X66548000Y-87032118D01*
X66548000Y-86449881D01*
X66551427Y-86441608D01*
X66556552Y-86438612D01*
X67565024Y-86157119D01*
X67573913Y-86158195D01*
G37*
%TD.AperFunction*%
%TD*%
%TA.AperFunction,Conductor*%
%TO.N,SDA*%
G36*
X67436661Y-90604178D02*
G01*
X67436999Y-90604325D01*
X68445340Y-91061885D01*
X68451456Y-91068423D01*
X68452204Y-91072538D01*
X68452204Y-91307407D01*
X68448777Y-91315680D01*
X68445272Y-91318091D01*
X67540688Y-91721517D01*
X67436964Y-91767776D01*
X67428012Y-91768016D01*
X67421512Y-91761856D01*
X67421395Y-91761583D01*
X67183867Y-91190491D01*
X67183855Y-91181539D01*
X67421366Y-90610486D01*
X67427706Y-90604165D01*
X67436661Y-90604178D01*
G37*
%TD.AperFunction*%
%TD*%
%TA.AperFunction,Conductor*%
%TO.N,VDDIO*%
G36*
X71181975Y-89517063D02*
G01*
X71187657Y-89519426D01*
X71193980Y-89525767D01*
X71193967Y-89534722D01*
X71193881Y-89534923D01*
X70753068Y-90541408D01*
X70746610Y-90547611D01*
X70742351Y-90548414D01*
X70507474Y-90548414D01*
X70499201Y-90544987D01*
X70496858Y-90541633D01*
X70441094Y-90421284D01*
X70440235Y-90418647D01*
X70438867Y-90411768D01*
X70432256Y-90401874D01*
X70431368Y-90400293D01*
X70030454Y-89535050D01*
X70030085Y-89526103D01*
X70036151Y-89519515D01*
X70036548Y-89519340D01*
X70607508Y-89281867D01*
X70616460Y-89281855D01*
X71181975Y-89517063D01*
G37*
%TD.AperFunction*%
%TD*%
%TA.AperFunction,Conductor*%
%TO.N,SCL*%
G36*
X69723362Y-90343427D02*
G01*
X69726630Y-90349777D01*
X69749105Y-90484630D01*
X69747085Y-90493354D01*
X69746469Y-90494142D01*
X69608904Y-90655551D01*
X69600929Y-90659625D01*
X69592410Y-90656867D01*
X69591098Y-90655555D01*
X69453529Y-90494141D01*
X69450772Y-90485623D01*
X69450890Y-90484655D01*
X69473370Y-90349774D01*
X69478111Y-90342179D01*
X69484911Y-90340000D01*
X69715089Y-90340000D01*
X69723362Y-90343427D01*
G37*
%TD.AperFunction*%
%TD*%
%TA.AperFunction,Conductor*%
%TO.N,VDD*%
G36*
X70633246Y-92197301D02*
G01*
X70770774Y-92335746D01*
X70774173Y-92344030D01*
X70774014Y-92345914D01*
X70751630Y-92480223D01*
X70746890Y-92487821D01*
X70740089Y-92490000D01*
X70509911Y-92490000D01*
X70501638Y-92486573D01*
X70498370Y-92480223D01*
X70475985Y-92345912D01*
X70478005Y-92337191D01*
X70479214Y-92335757D01*
X70616699Y-92197355D01*
X70624961Y-92193902D01*
X70633246Y-92197301D01*
G37*
%TD.AperFunction*%
%TD*%
%TA.AperFunction,Conductor*%
%TO.N,VDDIO*%
G36*
X68904020Y-91543428D02*
G01*
X68904139Y-91543528D01*
X68987100Y-91614233D01*
X69065551Y-91681095D01*
X69069625Y-91689070D01*
X69066867Y-91697589D01*
X69065551Y-91698905D01*
X68904143Y-91836469D01*
X68895624Y-91839227D01*
X68894631Y-91839105D01*
X68759777Y-91816629D01*
X68752179Y-91811888D01*
X68750000Y-91805088D01*
X68750000Y-91574911D01*
X68753427Y-91566638D01*
X68759775Y-91563370D01*
X68894320Y-91540946D01*
X68895094Y-91540845D01*
X68895457Y-91540810D01*
X68904020Y-91543428D01*
G37*
%TD.AperFunction*%
%TD*%
%TA.AperFunction,Conductor*%
%TO.N,INT1*%
G36*
X67576805Y-95378240D02*
G01*
X68555214Y-95473030D01*
X68562359Y-95476402D01*
X68728354Y-95642397D01*
X68731781Y-95650670D01*
X68728813Y-95658458D01*
X68021245Y-96451782D01*
X68013180Y-96455675D01*
X68004725Y-96452726D01*
X68004253Y-96452280D01*
X67566738Y-96016141D01*
X67563298Y-96007873D01*
X67563298Y-96007842D01*
X67563985Y-95389871D01*
X67567421Y-95381604D01*
X67575698Y-95378186D01*
X67576805Y-95378240D01*
G37*
%TD.AperFunction*%
%TD*%
%TA.AperFunction,Conductor*%
%TO.N,INT2*%
G36*
X70107588Y-92223132D02*
G01*
X70108904Y-92224448D01*
X70246469Y-92385857D01*
X70249227Y-92394376D01*
X70249105Y-92395369D01*
X70226630Y-92530223D01*
X70221890Y-92537821D01*
X70215089Y-92540000D01*
X69984912Y-92540000D01*
X69976639Y-92536573D01*
X69973371Y-92530224D01*
X69968886Y-92503317D01*
X69950942Y-92395652D01*
X69950847Y-92394931D01*
X69950809Y-92394534D01*
X69953430Y-92385977D01*
X69953487Y-92385908D01*
X70091096Y-92224446D01*
X70099069Y-92220374D01*
X70107588Y-92223132D01*
G37*
%TD.AperFunction*%
%TD*%
%TA.AperFunction,Conductor*%
%TO.N,VDDIO*%
G36*
X70748362Y-90393427D02*
G01*
X70751630Y-90399777D01*
X70774014Y-90534085D01*
X70771994Y-90542809D01*
X70770774Y-90544254D01*
X70633301Y-90682643D01*
X70625039Y-90686097D01*
X70616754Y-90682698D01*
X70616699Y-90682643D01*
X70555940Y-90621480D01*
X70479224Y-90544252D01*
X70475826Y-90535969D01*
X70475984Y-90534095D01*
X70498370Y-90399775D01*
X70503111Y-90392179D01*
X70509911Y-90390000D01*
X70740089Y-90390000D01*
X70748362Y-90393427D01*
G37*
%TD.AperFunction*%
%TD*%
%TA.AperFunction,Conductor*%
%TO.N,GND*%
G36*
X72976609Y-79944866D02*
G01*
X73051964Y-79999615D01*
X73098537Y-80080280D01*
X73109500Y-80149500D01*
X73109500Y-91035241D01*
X73090134Y-91126350D01*
X73035385Y-91201705D01*
X72954720Y-91248278D01*
X72862086Y-91258014D01*
X72773500Y-91229231D01*
X72767580Y-91225690D01*
X72748923Y-91214138D01*
X72561333Y-91141465D01*
X72363586Y-91104500D01*
X72162414Y-91104500D01*
X71964666Y-91141466D01*
X71964664Y-91141466D01*
X71964662Y-91141467D01*
X71872081Y-91177331D01*
X71849787Y-91184650D01*
X71825689Y-91191183D01*
X71614177Y-91284205D01*
X71522981Y-91303157D01*
X71431961Y-91283377D01*
X71356856Y-91228286D01*
X71310651Y-91147409D01*
X71300000Y-91079159D01*
X71300000Y-90998166D01*
X71299358Y-90986201D01*
X71293598Y-90932623D01*
X71264623Y-90854936D01*
X71250500Y-90776658D01*
X71250500Y-90587945D01*
X71269316Y-90498080D01*
X71611205Y-89717460D01*
X71618704Y-89697333D01*
X71628094Y-89675693D01*
X71628535Y-89674808D01*
X71683588Y-89481315D01*
X71702150Y-89281000D01*
X71683588Y-89080685D01*
X71683588Y-89080684D01*
X71628536Y-88887194D01*
X71593559Y-88816952D01*
X71538864Y-88707110D01*
X71417631Y-88546571D01*
X71313343Y-88451500D01*
X71268959Y-88411039D01*
X71097924Y-88305138D01*
X70910333Y-88232465D01*
X70712586Y-88195500D01*
X70511414Y-88195500D01*
X70313666Y-88232465D01*
X70126075Y-88305138D01*
X69955040Y-88411039D01*
X69806368Y-88546571D01*
X69685136Y-88707109D01*
X69595464Y-88887192D01*
X69581408Y-88936596D01*
X69537848Y-89018927D01*
X69464567Y-89076423D01*
X69374236Y-89099142D01*
X69282473Y-89083156D01*
X69207567Y-89033687D01*
X68830990Y-88657110D01*
X68811671Y-88635081D01*
X68797450Y-88616548D01*
X68767270Y-88593390D01*
X68765461Y-88591272D01*
X68759897Y-88587340D01*
X68767249Y-88593373D01*
X68706571Y-88546813D01*
X68690716Y-88529885D01*
X68537235Y-88466312D01*
X68424759Y-88451504D01*
X68424727Y-88451500D01*
X68424720Y-88451500D01*
X68424717Y-88451500D01*
X68424707Y-88451499D01*
X68386998Y-88446534D01*
X68380243Y-88447424D01*
X68287386Y-88440115D01*
X68259175Y-88429650D01*
X67863528Y-88251815D01*
X67788367Y-88196800D01*
X67742081Y-88115970D01*
X67732672Y-88023302D01*
X67761769Y-87934819D01*
X67824340Y-87865820D01*
X67909565Y-87828236D01*
X67914201Y-87827319D01*
X67918582Y-87826500D01*
X67918586Y-87826500D01*
X68116334Y-87789534D01*
X68303922Y-87716862D01*
X68398054Y-87658578D01*
X68474959Y-87610960D01*
X68474959Y-87610959D01*
X68474962Y-87610958D01*
X68623631Y-87475429D01*
X68744864Y-87314890D01*
X68834535Y-87134808D01*
X68889588Y-86941315D01*
X68908150Y-86741000D01*
X68903530Y-86691139D01*
X68889588Y-86540684D01*
X68834536Y-86347194D01*
X68810287Y-86298496D01*
X68744864Y-86167110D01*
X68623631Y-86006571D01*
X68474962Y-85871042D01*
X68474959Y-85871039D01*
X68303924Y-85765138D01*
X68116333Y-85692465D01*
X67918586Y-85655500D01*
X67717414Y-85655500D01*
X67651498Y-85667822D01*
X67519664Y-85692466D01*
X67483423Y-85706506D01*
X67458422Y-85712787D01*
X67458727Y-85713878D01*
X67442562Y-85718389D01*
X67442562Y-85718390D01*
X66537086Y-85971134D01*
X66497251Y-85982253D01*
X66437028Y-85990500D01*
X66062651Y-85990500D01*
X65971542Y-85971134D01*
X65904259Y-85924892D01*
X65634867Y-85655500D01*
X65350878Y-85371510D01*
X65329595Y-85346882D01*
X65319610Y-85333470D01*
X65285008Y-85304435D01*
X65272327Y-85292815D01*
X65279254Y-85299350D01*
X65274381Y-85295013D01*
X65269777Y-85290409D01*
X65264676Y-85286375D01*
X65264664Y-85286365D01*
X65246599Y-85272082D01*
X65241548Y-85267967D01*
X65178162Y-85214781D01*
X65175023Y-85212780D01*
X65124644Y-85189288D01*
X65099984Y-85177789D01*
X65094146Y-85174962D01*
X65020196Y-85137823D01*
X65016688Y-85136604D01*
X64935614Y-85119863D01*
X64929257Y-85118454D01*
X64918169Y-85115826D01*
X64857721Y-85101500D01*
X64857720Y-85101500D01*
X64848745Y-85099373D01*
X64845067Y-85098997D01*
X64762348Y-85101405D01*
X64755832Y-85101500D01*
X64695581Y-85101500D01*
X64621015Y-85088725D01*
X64070266Y-84894301D01*
X63990800Y-84845711D01*
X63937967Y-84769000D01*
X63920903Y-84677432D01*
X63942559Y-84586839D01*
X63999189Y-84512888D01*
X64011801Y-84502858D01*
X64037150Y-84484150D01*
X64117793Y-84374882D01*
X64162646Y-84246699D01*
X64165500Y-84216266D01*
X64165500Y-82407734D01*
X64162646Y-82377301D01*
X64117793Y-82249118D01*
X64117792Y-82249116D01*
X64064420Y-82176799D01*
X69260550Y-82176799D01*
X69280316Y-82427946D01*
X69339126Y-82672911D01*
X69435533Y-82905659D01*
X69567164Y-83120459D01*
X69730775Y-83312024D01*
X69894387Y-83451761D01*
X69922341Y-83475636D01*
X70005510Y-83526602D01*
X70137140Y-83607266D01*
X70369888Y-83703673D01*
X70492370Y-83733078D01*
X70614852Y-83762483D01*
X70866000Y-83782249D01*
X71117148Y-83762483D01*
X71362111Y-83703673D01*
X71594859Y-83607266D01*
X71809659Y-83475636D01*
X72001224Y-83312024D01*
X72164836Y-83120459D01*
X72296466Y-82905659D01*
X72392873Y-82672911D01*
X72451683Y-82427948D01*
X72471449Y-82176800D01*
X72451683Y-81925652D01*
X72392873Y-81680689D01*
X72296466Y-81447941D01*
X72296466Y-81447940D01*
X72164835Y-81233140D01*
X72001224Y-81041575D01*
X71809659Y-80877964D01*
X71594859Y-80746333D01*
X71362111Y-80649926D01*
X71117146Y-80591116D01*
X70865999Y-80571350D01*
X70614853Y-80591116D01*
X70369888Y-80649926D01*
X70137140Y-80746333D01*
X69922340Y-80877964D01*
X69730775Y-81041575D01*
X69567164Y-81233140D01*
X69435533Y-81447940D01*
X69339126Y-81680688D01*
X69280316Y-81925653D01*
X69260550Y-82176799D01*
X64064420Y-82176799D01*
X64037150Y-82139849D01*
X63927883Y-82059207D01*
X63799700Y-82014354D01*
X63796676Y-82014070D01*
X63769266Y-82011500D01*
X61960734Y-82011500D01*
X61936345Y-82013787D01*
X61930299Y-82014354D01*
X61802116Y-82059207D01*
X61692849Y-82139849D01*
X61612207Y-82249116D01*
X61567354Y-82377299D01*
X61567353Y-82377301D01*
X61567354Y-82377301D01*
X61564500Y-82407734D01*
X61564500Y-84216266D01*
X61567070Y-84243676D01*
X61567354Y-84246700D01*
X61612207Y-84374883D01*
X61692849Y-84484150D01*
X61802115Y-84564791D01*
X61802118Y-84564793D01*
X61844101Y-84579483D01*
X61923698Y-84627851D01*
X61976743Y-84704415D01*
X61994061Y-84795936D01*
X61972656Y-84886588D01*
X61928510Y-84949303D01*
X61864952Y-85012861D01*
X61734431Y-85199265D01*
X61638260Y-85405504D01*
X61579365Y-85625304D01*
X61559532Y-85852000D01*
X61579365Y-86078695D01*
X61638260Y-86298495D01*
X61734431Y-86504734D01*
X61864951Y-86691137D01*
X62025861Y-86852047D01*
X62106192Y-86908295D01*
X62169717Y-86976417D01*
X62200042Y-87064486D01*
X62191924Y-87157277D01*
X62146767Y-87238743D01*
X62106195Y-87275275D01*
X61993922Y-87353890D01*
X61826891Y-87520921D01*
X61691399Y-87714423D01*
X61591568Y-87928511D01*
X61534364Y-88142000D01*
X62431314Y-88142000D01*
X62405507Y-88182156D01*
X62365000Y-88320111D01*
X62365000Y-88463889D01*
X62405507Y-88601844D01*
X62431314Y-88642000D01*
X61534364Y-88642000D01*
X61591568Y-88855490D01*
X61691398Y-89069575D01*
X61826891Y-89263079D01*
X61993922Y-89430110D01*
X62106193Y-89508723D01*
X62169717Y-89576844D01*
X62200042Y-89664914D01*
X62191924Y-89757704D01*
X62146767Y-89839170D01*
X62106194Y-89875703D01*
X62025860Y-89931953D01*
X61864951Y-90092862D01*
X61734431Y-90279265D01*
X61638260Y-90485504D01*
X61579365Y-90705304D01*
X61559532Y-90931999D01*
X61579365Y-91158695D01*
X61638260Y-91378495D01*
X61734431Y-91584734D01*
X61864951Y-91771137D01*
X62025862Y-91932048D01*
X62149343Y-92018510D01*
X62212867Y-92086631D01*
X62243192Y-92174701D01*
X62235074Y-92267491D01*
X62189917Y-92348957D01*
X62149343Y-92385490D01*
X62025862Y-92471951D01*
X61864951Y-92632862D01*
X61734431Y-92819265D01*
X61638260Y-93025504D01*
X61579365Y-93245304D01*
X61559532Y-93472000D01*
X61579365Y-93698695D01*
X61638260Y-93918495D01*
X61734431Y-94124734D01*
X61864951Y-94311137D01*
X62025862Y-94472048D01*
X62149343Y-94558510D01*
X62212867Y-94626631D01*
X62243192Y-94714701D01*
X62235074Y-94807491D01*
X62189917Y-94888957D01*
X62149343Y-94925490D01*
X62025862Y-95011951D01*
X61864951Y-95172862D01*
X61734431Y-95359265D01*
X61638260Y-95565504D01*
X61579365Y-95785304D01*
X61559532Y-96012000D01*
X61579365Y-96238695D01*
X61638260Y-96458495D01*
X61734431Y-96664734D01*
X61864951Y-96851137D01*
X62025862Y-97012048D01*
X62149343Y-97098510D01*
X62212867Y-97166631D01*
X62243192Y-97254701D01*
X62235074Y-97347491D01*
X62189917Y-97428957D01*
X62149343Y-97465490D01*
X62025862Y-97551951D01*
X61864951Y-97712862D01*
X61734431Y-97899265D01*
X61638260Y-98105504D01*
X61579365Y-98325304D01*
X61559532Y-98551999D01*
X61559532Y-98552000D01*
X61564490Y-98608672D01*
X61579365Y-98778695D01*
X61638260Y-98998495D01*
X61734431Y-99204734D01*
X61864951Y-99391137D01*
X62025862Y-99552048D01*
X62212265Y-99682568D01*
X62418504Y-99778739D01*
X62535586Y-99810111D01*
X62638308Y-99837635D01*
X62865000Y-99857468D01*
X63091692Y-99837635D01*
X63311496Y-99778739D01*
X63517734Y-99682568D01*
X63704139Y-99552047D01*
X63865047Y-99391139D01*
X63919061Y-99313999D01*
X69133550Y-99313999D01*
X69153316Y-99565146D01*
X69212126Y-99810111D01*
X69308533Y-100042859D01*
X69440164Y-100257659D01*
X69603775Y-100449224D01*
X69767387Y-100588961D01*
X69795341Y-100612836D01*
X69878509Y-100663802D01*
X70010140Y-100744466D01*
X70242888Y-100840873D01*
X70365370Y-100870278D01*
X70487852Y-100899683D01*
X70739000Y-100919449D01*
X70990148Y-100899683D01*
X71235111Y-100840873D01*
X71467859Y-100744466D01*
X71682659Y-100612836D01*
X71874224Y-100449224D01*
X72037836Y-100257659D01*
X72169466Y-100042859D01*
X72265873Y-99810111D01*
X72324683Y-99565148D01*
X72344449Y-99314000D01*
X72324683Y-99062852D01*
X72265873Y-98817889D01*
X72249639Y-98778695D01*
X72169466Y-98585140D01*
X72059662Y-98405958D01*
X72037836Y-98370341D01*
X71952503Y-98270429D01*
X71874224Y-98178775D01*
X71682659Y-98015164D01*
X71467859Y-97883533D01*
X71235111Y-97787126D01*
X70990146Y-97728316D01*
X70738999Y-97708550D01*
X70487853Y-97728316D01*
X70242888Y-97787126D01*
X70010140Y-97883533D01*
X69795340Y-98015164D01*
X69603775Y-98178775D01*
X69440164Y-98370340D01*
X69308533Y-98585140D01*
X69212126Y-98817888D01*
X69153316Y-99062853D01*
X69133550Y-99313999D01*
X63919061Y-99313999D01*
X63995568Y-99204734D01*
X64091739Y-98998496D01*
X64150635Y-98778692D01*
X64170468Y-98552000D01*
X64150635Y-98325308D01*
X64091739Y-98105504D01*
X64052212Y-98020739D01*
X63995568Y-97899265D01*
X63865048Y-97712862D01*
X63704139Y-97551953D01*
X63697632Y-97547397D01*
X63580656Y-97465490D01*
X63517132Y-97397370D01*
X63486807Y-97309300D01*
X63494924Y-97216510D01*
X63540081Y-97135044D01*
X63580657Y-97098509D01*
X63704139Y-97012047D01*
X63865047Y-96851139D01*
X63995568Y-96664734D01*
X64091739Y-96458496D01*
X64150635Y-96238692D01*
X64170468Y-96012000D01*
X64150635Y-95785308D01*
X64091739Y-95565504D01*
X64080648Y-95541720D01*
X63995568Y-95359265D01*
X63865048Y-95172862D01*
X63704139Y-95011953D01*
X63686997Y-94999950D01*
X63580656Y-94925490D01*
X63517132Y-94857370D01*
X63486807Y-94769300D01*
X63494924Y-94676510D01*
X63540081Y-94595044D01*
X63580657Y-94558509D01*
X63704139Y-94472047D01*
X63865047Y-94311139D01*
X63995568Y-94124734D01*
X64091739Y-93918496D01*
X64150635Y-93698692D01*
X64170468Y-93472000D01*
X64150635Y-93245308D01*
X64091739Y-93025504D01*
X63995568Y-92819266D01*
X63995568Y-92819265D01*
X63865048Y-92632862D01*
X63704139Y-92471953D01*
X63580657Y-92385491D01*
X63517132Y-92317370D01*
X63486807Y-92229300D01*
X63494924Y-92136510D01*
X63540081Y-92055044D01*
X63580657Y-92018509D01*
X63704139Y-91932047D01*
X63865047Y-91771139D01*
X63995568Y-91584734D01*
X64091739Y-91378496D01*
X64150635Y-91158692D01*
X64170468Y-90932000D01*
X64150635Y-90705308D01*
X64091739Y-90485504D01*
X64006652Y-90303035D01*
X63995568Y-90279265D01*
X63865048Y-90092862D01*
X63704137Y-89931951D01*
X63623806Y-89875703D01*
X63560282Y-89807582D01*
X63529957Y-89719512D01*
X63538075Y-89626722D01*
X63583232Y-89545256D01*
X63623807Y-89508722D01*
X63736078Y-89430109D01*
X63903108Y-89263079D01*
X64038601Y-89069575D01*
X64138431Y-88855490D01*
X64195636Y-88642000D01*
X63298686Y-88642000D01*
X63324493Y-88601844D01*
X63365000Y-88463889D01*
X63365000Y-88320111D01*
X63324493Y-88182156D01*
X63298686Y-88142000D01*
X64195636Y-88142000D01*
X64138431Y-87928511D01*
X64038600Y-87714423D01*
X63903108Y-87520921D01*
X63736077Y-87353890D01*
X63688093Y-87320290D01*
X63624570Y-87252168D01*
X63594245Y-87164098D01*
X63602364Y-87071308D01*
X63647522Y-86989842D01*
X63721911Y-86933787D01*
X63741990Y-86925583D01*
X64377684Y-86701173D01*
X64470041Y-86689107D01*
X64559323Y-86715649D01*
X64610639Y-86754007D01*
X65078120Y-87221488D01*
X65099401Y-87246113D01*
X65109389Y-87259529D01*
X65143982Y-87288556D01*
X65156647Y-87300161D01*
X65149741Y-87293646D01*
X65154618Y-87297986D01*
X65159223Y-87302591D01*
X65182430Y-87320940D01*
X65187417Y-87325002D01*
X65221844Y-87353890D01*
X65250845Y-87378225D01*
X65253966Y-87380213D01*
X65262320Y-87384108D01*
X65262323Y-87384111D01*
X65329002Y-87415204D01*
X65334867Y-87418044D01*
X65400567Y-87451040D01*
X65400568Y-87451040D01*
X65408813Y-87455181D01*
X65412295Y-87456392D01*
X65493385Y-87473136D01*
X65499736Y-87474543D01*
X65571279Y-87491500D01*
X65571280Y-87491500D01*
X65580250Y-87493626D01*
X65583932Y-87494002D01*
X65593143Y-87493733D01*
X65593144Y-87493734D01*
X65666652Y-87491594D01*
X65673168Y-87491500D01*
X66437033Y-87491500D01*
X66497255Y-87499747D01*
X66573114Y-87520921D01*
X66650202Y-87542438D01*
X66732749Y-87585585D01*
X66790611Y-87658578D01*
X66813782Y-87748794D01*
X66798255Y-87840635D01*
X66746716Y-87918221D01*
X66668075Y-87968136D01*
X66631145Y-87978376D01*
X66630668Y-87978465D01*
X66443075Y-88051138D01*
X66272040Y-88157039D01*
X66123368Y-88292571D01*
X66002136Y-88453109D01*
X65912463Y-88633194D01*
X65857411Y-88826684D01*
X65838849Y-89027000D01*
X65857411Y-89227315D01*
X65912463Y-89420805D01*
X66002136Y-89600890D01*
X66050484Y-89664914D01*
X66123369Y-89761429D01*
X66272038Y-89896958D01*
X66443078Y-90002862D01*
X66443082Y-90002863D01*
X66444874Y-90003973D01*
X66512141Y-90068401D01*
X66547388Y-90154619D01*
X66544520Y-90247719D01*
X66504032Y-90331604D01*
X66477862Y-90359959D01*
X66377369Y-90451570D01*
X66256136Y-90612109D01*
X66166463Y-90792194D01*
X66111411Y-90985684D01*
X66092849Y-91185999D01*
X66111411Y-91386315D01*
X66166463Y-91579805D01*
X66256136Y-91759890D01*
X66325258Y-91851422D01*
X66364709Y-91935799D01*
X66366430Y-92028928D01*
X66330124Y-92114705D01*
X66304897Y-92144801D01*
X66270353Y-92179345D01*
X66185486Y-92319732D01*
X66136684Y-92476340D01*
X66130958Y-92539355D01*
X66130957Y-92539376D01*
X66130500Y-92544406D01*
X66130500Y-93103594D01*
X66130957Y-93108624D01*
X66130958Y-93108644D01*
X66136684Y-93171659D01*
X66185487Y-93328270D01*
X66251407Y-93437315D01*
X66281968Y-93525303D01*
X66274099Y-93618114D01*
X66244301Y-93672213D01*
X66247172Y-93673984D01*
X66144452Y-93840517D01*
X66091143Y-94001392D01*
X66081580Y-94095005D01*
X66081000Y-94106392D01*
X66081000Y-94124000D01*
X67082000Y-94124000D01*
X67173109Y-94143366D01*
X67248464Y-94198115D01*
X67295037Y-94278780D01*
X67306000Y-94348000D01*
X67306000Y-94400000D01*
X67286634Y-94491109D01*
X67231885Y-94566464D01*
X67151220Y-94613037D01*
X67082000Y-94624000D01*
X66081001Y-94624000D01*
X66081001Y-94641605D01*
X66081581Y-94652996D01*
X66091143Y-94746606D01*
X66144452Y-94907482D01*
X66233426Y-95051731D01*
X66353268Y-95171573D01*
X66497870Y-95260765D01*
X66565248Y-95325078D01*
X66600642Y-95411235D01*
X66597933Y-95504340D01*
X66580792Y-95551259D01*
X66547464Y-95618190D01*
X66492411Y-95811684D01*
X66473849Y-96012000D01*
X66492411Y-96212315D01*
X66547464Y-96405808D01*
X66594150Y-96499565D01*
X66617426Y-96589755D01*
X66602006Y-96681614D01*
X66550556Y-96759259D01*
X66544542Y-96764949D01*
X66504369Y-96801571D01*
X66383136Y-96962109D01*
X66293463Y-97142194D01*
X66238411Y-97335684D01*
X66219849Y-97536000D01*
X66238411Y-97736315D01*
X66293463Y-97929805D01*
X66383136Y-98109890D01*
X66504368Y-98270428D01*
X66653040Y-98405960D01*
X66824075Y-98511861D01*
X66927686Y-98552000D01*
X67011666Y-98584534D01*
X67209414Y-98621500D01*
X67410586Y-98621500D01*
X67608334Y-98584534D01*
X67795922Y-98511862D01*
X67966962Y-98405958D01*
X68044182Y-98335561D01*
X68067080Y-98317282D01*
X68080369Y-98308029D01*
X68368020Y-98035762D01*
X68385621Y-98020750D01*
X68440115Y-97978937D01*
X68452268Y-97969612D01*
X68452268Y-97969610D01*
X68481623Y-97947087D01*
X68481657Y-97947059D01*
X68482451Y-97946451D01*
X68496671Y-97927917D01*
X68515982Y-97905896D01*
X68704171Y-97717707D01*
X68708547Y-97713451D01*
X68824104Y-97604077D01*
X68825728Y-97602490D01*
X68828599Y-97599642D01*
X68833057Y-97595184D01*
X68861715Y-97563714D01*
X68861715Y-97563713D01*
X68876574Y-97547397D01*
X68876873Y-97547670D01*
X68886442Y-97535436D01*
X69976899Y-96444979D01*
X70055011Y-96394253D01*
X70147009Y-96379682D01*
X70236980Y-96403789D01*
X70293678Y-96444983D01*
X70417268Y-96568573D01*
X70561517Y-96657547D01*
X70722392Y-96710856D01*
X70816007Y-96720419D01*
X70827390Y-96720999D01*
X70869999Y-96720998D01*
X70870000Y-96720998D01*
X70870000Y-96021000D01*
X71370000Y-96021000D01*
X71370000Y-96720999D01*
X71412605Y-96720999D01*
X71423996Y-96720418D01*
X71517606Y-96710856D01*
X71678482Y-96657547D01*
X71822731Y-96568573D01*
X71942573Y-96448731D01*
X72031547Y-96304482D01*
X72084856Y-96143607D01*
X72094419Y-96049994D01*
X72095000Y-96038607D01*
X72095000Y-96021000D01*
X71370000Y-96021000D01*
X70870000Y-96021000D01*
X70870000Y-95745000D01*
X70889366Y-95653891D01*
X70944115Y-95578536D01*
X71024780Y-95531963D01*
X71094000Y-95521000D01*
X72094999Y-95521000D01*
X72094999Y-95503394D01*
X72094418Y-95492003D01*
X72084856Y-95398393D01*
X72031547Y-95237517D01*
X71928828Y-95070984D01*
X71932144Y-95068938D01*
X71907165Y-95030472D01*
X71892594Y-94938475D01*
X71916702Y-94848504D01*
X71924580Y-94834334D01*
X71990512Y-94725270D01*
X71990513Y-94725267D01*
X72039315Y-94568659D01*
X72045041Y-94505644D01*
X72045500Y-94500594D01*
X72045500Y-93941406D01*
X72039315Y-93873343D01*
X72039315Y-93873340D01*
X71990513Y-93716732D01*
X71976009Y-93692739D01*
X71968960Y-93678275D01*
X71961756Y-93665482D01*
X71928263Y-93606007D01*
X71900432Y-93517121D01*
X71911160Y-93424596D01*
X71958594Y-93344434D01*
X72034532Y-93290496D01*
X72125844Y-93272108D01*
X72160434Y-93275500D01*
X72162414Y-93275500D01*
X72363586Y-93275500D01*
X72561334Y-93238534D01*
X72748922Y-93165862D01*
X72767579Y-93154309D01*
X72855232Y-93122812D01*
X72948123Y-93129690D01*
X73030185Y-93173754D01*
X73087230Y-93247387D01*
X73109394Y-93337856D01*
X73109500Y-93344758D01*
X73109500Y-101333500D01*
X73090134Y-101424609D01*
X73035385Y-101499964D01*
X72954720Y-101546537D01*
X72885500Y-101557500D01*
X61226500Y-101557500D01*
X61135391Y-101538134D01*
X61060036Y-101483385D01*
X61013463Y-101402720D01*
X61002500Y-101333500D01*
X61002500Y-80149500D01*
X61021866Y-80058391D01*
X61076615Y-79983036D01*
X61157280Y-79936463D01*
X61226500Y-79925500D01*
X72885500Y-79925500D01*
X72976609Y-79944866D01*
G37*
%TD.AperFunction*%
%TA.AperFunction,Conductor*%
G36*
X68239243Y-89714573D02*
G01*
X68307260Y-89761140D01*
X68485243Y-89939123D01*
X68535973Y-90017241D01*
X68550544Y-90109238D01*
X68526436Y-90199209D01*
X68506172Y-90231754D01*
X68456645Y-90297913D01*
X68454735Y-90303035D01*
X68404751Y-90381631D01*
X68327120Y-90433103D01*
X68235265Y-90448548D01*
X68152308Y-90428740D01*
X67766617Y-90253747D01*
X67691650Y-90198468D01*
X67645648Y-90117475D01*
X67636566Y-90024775D01*
X67665974Y-89936395D01*
X67728786Y-89867616D01*
X67767318Y-89845459D01*
X68057031Y-89715224D01*
X68148065Y-89695533D01*
X68239243Y-89714573D01*
G37*
%TD.AperFunction*%
%TD*%
%TA.AperFunction,Conductor*%
%TO.N,VDD*%
G36*
X72024487Y-91614142D02*
G01*
X72024580Y-91614359D01*
X72262131Y-92185507D01*
X72262144Y-92194462D01*
X72262131Y-92194493D01*
X72024580Y-92765640D01*
X72018239Y-92771963D01*
X72009284Y-92771950D01*
X72009067Y-92771857D01*
X70999990Y-92328074D01*
X70993796Y-92321607D01*
X70993000Y-92317364D01*
X70993000Y-92062635D01*
X70996427Y-92054362D01*
X70999986Y-92051927D01*
X72009068Y-91608141D01*
X72018020Y-91607948D01*
X72024487Y-91614142D01*
G37*
%TD.AperFunction*%
%TD*%
%TA.AperFunction,Conductor*%
%TO.N,SCL*%
G36*
X67182677Y-88445138D02*
G01*
X67182950Y-88445256D01*
X68192098Y-88898897D01*
X68198238Y-88905413D01*
X68199000Y-88909567D01*
X68199000Y-89144432D01*
X68195573Y-89152705D01*
X68192097Y-89155103D01*
X67182981Y-89608729D01*
X67174030Y-89608996D01*
X67167513Y-89602855D01*
X67167402Y-89602600D01*
X66929867Y-89031491D01*
X66929855Y-89022539D01*
X67167383Y-88451445D01*
X67173722Y-88445125D01*
X67182677Y-88445138D01*
G37*
%TD.AperFunction*%
%TD*%
%TA.AperFunction,Conductor*%
%TO.N,VDDIO*%
G36*
X67400317Y-92394473D02*
G01*
X67758103Y-92540267D01*
X67761960Y-92542828D01*
X68102296Y-92883164D01*
X68105723Y-92891437D01*
X68102296Y-92899710D01*
X68099197Y-92901931D01*
X67435928Y-93228970D01*
X67426992Y-93229555D01*
X67422115Y-93226366D01*
X67125819Y-92901931D01*
X67061941Y-92831987D01*
X67058893Y-92823568D01*
X67061340Y-92816922D01*
X67386663Y-92398130D01*
X67394445Y-92393700D01*
X67400317Y-92394473D01*
G37*
%TD.AperFunction*%
%TD*%
%TA.AperFunction,Conductor*%
%TO.N,VDDIO*%
G36*
X64557196Y-85549245D02*
G01*
X64563855Y-85555230D01*
X64565000Y-85560277D01*
X64565000Y-86143722D01*
X64561573Y-86151995D01*
X64557195Y-86154755D01*
X63200729Y-86633609D01*
X63191787Y-86633131D01*
X63186029Y-86627065D01*
X62865865Y-85856488D01*
X62865856Y-85847533D01*
X62865856Y-85847532D01*
X63186030Y-85076932D01*
X63192368Y-85070609D01*
X63200728Y-85070390D01*
X64557196Y-85549245D01*
G37*
%TD.AperFunction*%
%TD*%
%TA.AperFunction,Conductor*%
%TO.N,VDD*%
G36*
X71246434Y-93324427D02*
G01*
X71248356Y-93326959D01*
X71564863Y-93888991D01*
X71565936Y-93897881D01*
X71561503Y-93904228D01*
X71126835Y-94217080D01*
X71118118Y-94219132D01*
X71113165Y-94217080D01*
X70678496Y-93904228D01*
X70673783Y-93896614D01*
X70675135Y-93888993D01*
X70991644Y-93326958D01*
X70998690Y-93321432D01*
X71001839Y-93321000D01*
X71238161Y-93321000D01*
X71246434Y-93324427D01*
G37*
%TD.AperFunction*%
%TD*%
%TA.AperFunction,Conductor*%
%TO.N,SDA*%
G36*
X68903354Y-91042914D02*
G01*
X68904129Y-91043519D01*
X69018473Y-91140971D01*
X69065551Y-91181095D01*
X69069625Y-91189070D01*
X69066867Y-91197589D01*
X69065551Y-91198905D01*
X68904143Y-91336469D01*
X68895624Y-91339227D01*
X68894631Y-91339105D01*
X68759777Y-91316629D01*
X68752179Y-91311888D01*
X68750000Y-91305088D01*
X68750000Y-91074911D01*
X68753427Y-91066638D01*
X68759775Y-91063370D01*
X68894633Y-91040894D01*
X68903354Y-91042914D01*
G37*
%TD.AperFunction*%
%TD*%
%TA.AperFunction,Conductor*%
%TO.N,INT1*%
G36*
X69607589Y-92223132D02*
G01*
X69608901Y-92224444D01*
X69746469Y-92385857D01*
X69749227Y-92394375D01*
X69749105Y-92395368D01*
X69726630Y-92530223D01*
X69721890Y-92537821D01*
X69715089Y-92540000D01*
X69484911Y-92540000D01*
X69476638Y-92536573D01*
X69473370Y-92530223D01*
X69450894Y-92395366D01*
X69452914Y-92386646D01*
X69453519Y-92385870D01*
X69591095Y-92224447D01*
X69599070Y-92220374D01*
X69607589Y-92223132D01*
G37*
%TD.AperFunction*%
%TD*%
%TA.AperFunction,Conductor*%
%TO.N,VDDIO*%
G36*
X68578223Y-92428535D02*
G01*
X68579497Y-92430045D01*
X69083812Y-93141940D01*
X69085798Y-93150671D01*
X69082547Y-93156967D01*
X68643936Y-93596556D01*
X68635667Y-93599992D01*
X68635636Y-93599992D01*
X68017904Y-93599019D01*
X68009636Y-93595579D01*
X68006222Y-93587301D01*
X68006242Y-93586639D01*
X68075339Y-92436105D01*
X68079256Y-92428054D01*
X68087018Y-92425108D01*
X68569950Y-92425108D01*
X68578223Y-92428535D01*
G37*
%TD.AperFunction*%
%TD*%
%TA.AperFunction,Conductor*%
%TO.N,INT2*%
G36*
X67323772Y-96903498D02*
G01*
X68339223Y-97087749D01*
X68345407Y-97090988D01*
X68510970Y-97256551D01*
X68514397Y-97264824D01*
X68510970Y-97273097D01*
X68506512Y-97277555D01*
X68506281Y-97277780D01*
X67767266Y-97977201D01*
X67758902Y-97980399D01*
X67750964Y-97976989D01*
X67312738Y-97540141D01*
X67309298Y-97531873D01*
X67309298Y-97531842D01*
X67309595Y-97264824D01*
X67309984Y-96914996D01*
X67313420Y-96906729D01*
X67321697Y-96903311D01*
X67323772Y-96903498D01*
G37*
%TD.AperFunction*%
%TD*%
M02*
