%TF.GenerationSoftware,KiCad,Pcbnew,7.0.2*%
%TF.CreationDate,2025-03-07T15:43:59-05:00*%
%TF.ProjectId,2BMA400,32424d41-3430-4302-9e6b-696361645f70,rev?*%
%TF.SameCoordinates,Original*%
%TF.FileFunction,Legend,Top*%
%TF.FilePolarity,Positive*%
%FSLAX46Y46*%
G04 Gerber Fmt 4.6, Leading zero omitted, Abs format (unit mm)*
G04 Created by KiCad (PCBNEW 7.0.2) date 2025-03-07 15:43:59*
%MOMM*%
%LPD*%
G01*
G04 APERTURE LIST*
%ADD10C,0.150000*%
%ADD11C,1.150000*%
%ADD12C,1.160000*%
%ADD13C,0.125000*%
%ADD14C,0.120000*%
%ADD15C,0.127000*%
G04 APERTURE END LIST*
D10*
X73660000Y-102108000D02*
X60452000Y-102108000D01*
X60452000Y-79375000D02*
X73660000Y-79375000D01*
X60452000Y-102108000D02*
X60452000Y-79375000D01*
X73660000Y-79375000D02*
X73660000Y-102108000D01*
D11*
X71441000Y-82170000D02*
G75*
G03*
X71441000Y-82170000I-575000J0D01*
G01*
D12*
X71319000Y-99314000D02*
G75*
G03*
X71319000Y-99314000I-580000J0D01*
G01*
D13*
X64865238Y-91228000D02*
X64936666Y-91251809D01*
X64936666Y-91251809D02*
X65055714Y-91251809D01*
X65055714Y-91251809D02*
X65103333Y-91228000D01*
X65103333Y-91228000D02*
X65127142Y-91204190D01*
X65127142Y-91204190D02*
X65150952Y-91156571D01*
X65150952Y-91156571D02*
X65150952Y-91108952D01*
X65150952Y-91108952D02*
X65127142Y-91061333D01*
X65127142Y-91061333D02*
X65103333Y-91037523D01*
X65103333Y-91037523D02*
X65055714Y-91013714D01*
X65055714Y-91013714D02*
X64960476Y-90989904D01*
X64960476Y-90989904D02*
X64912857Y-90966095D01*
X64912857Y-90966095D02*
X64889047Y-90942285D01*
X64889047Y-90942285D02*
X64865238Y-90894666D01*
X64865238Y-90894666D02*
X64865238Y-90847047D01*
X64865238Y-90847047D02*
X64889047Y-90799428D01*
X64889047Y-90799428D02*
X64912857Y-90775619D01*
X64912857Y-90775619D02*
X64960476Y-90751809D01*
X64960476Y-90751809D02*
X65079523Y-90751809D01*
X65079523Y-90751809D02*
X65150952Y-90775619D01*
X65650951Y-91204190D02*
X65627142Y-91228000D01*
X65627142Y-91228000D02*
X65555713Y-91251809D01*
X65555713Y-91251809D02*
X65508094Y-91251809D01*
X65508094Y-91251809D02*
X65436666Y-91228000D01*
X65436666Y-91228000D02*
X65389047Y-91180380D01*
X65389047Y-91180380D02*
X65365237Y-91132761D01*
X65365237Y-91132761D02*
X65341428Y-91037523D01*
X65341428Y-91037523D02*
X65341428Y-90966095D01*
X65341428Y-90966095D02*
X65365237Y-90870857D01*
X65365237Y-90870857D02*
X65389047Y-90823238D01*
X65389047Y-90823238D02*
X65436666Y-90775619D01*
X65436666Y-90775619D02*
X65508094Y-90751809D01*
X65508094Y-90751809D02*
X65555713Y-90751809D01*
X65555713Y-90751809D02*
X65627142Y-90775619D01*
X65627142Y-90775619D02*
X65650951Y-90799428D01*
X66103332Y-91251809D02*
X65865237Y-91251809D01*
X65865237Y-91251809D02*
X65865237Y-90751809D01*
X64817619Y-85417809D02*
X64984285Y-85917809D01*
X64984285Y-85917809D02*
X65150952Y-85417809D01*
X65317618Y-85917809D02*
X65317618Y-85417809D01*
X65317618Y-85417809D02*
X65436666Y-85417809D01*
X65436666Y-85417809D02*
X65508094Y-85441619D01*
X65508094Y-85441619D02*
X65555713Y-85489238D01*
X65555713Y-85489238D02*
X65579523Y-85536857D01*
X65579523Y-85536857D02*
X65603332Y-85632095D01*
X65603332Y-85632095D02*
X65603332Y-85703523D01*
X65603332Y-85703523D02*
X65579523Y-85798761D01*
X65579523Y-85798761D02*
X65555713Y-85846380D01*
X65555713Y-85846380D02*
X65508094Y-85894000D01*
X65508094Y-85894000D02*
X65436666Y-85917809D01*
X65436666Y-85917809D02*
X65317618Y-85917809D01*
X65817618Y-85917809D02*
X65817618Y-85417809D01*
X65817618Y-85417809D02*
X65936666Y-85417809D01*
X65936666Y-85417809D02*
X66008094Y-85441619D01*
X66008094Y-85441619D02*
X66055713Y-85489238D01*
X66055713Y-85489238D02*
X66079523Y-85536857D01*
X66079523Y-85536857D02*
X66103332Y-85632095D01*
X66103332Y-85632095D02*
X66103332Y-85703523D01*
X66103332Y-85703523D02*
X66079523Y-85798761D01*
X66079523Y-85798761D02*
X66055713Y-85846380D01*
X66055713Y-85846380D02*
X66008094Y-85894000D01*
X66008094Y-85894000D02*
X65936666Y-85917809D01*
X65936666Y-85917809D02*
X65817618Y-85917809D01*
X66317618Y-85917809D02*
X66317618Y-85417809D01*
X66650951Y-85417809D02*
X66746189Y-85417809D01*
X66746189Y-85417809D02*
X66793808Y-85441619D01*
X66793808Y-85441619D02*
X66841427Y-85489238D01*
X66841427Y-85489238D02*
X66865237Y-85584476D01*
X66865237Y-85584476D02*
X66865237Y-85751142D01*
X66865237Y-85751142D02*
X66841427Y-85846380D01*
X66841427Y-85846380D02*
X66793808Y-85894000D01*
X66793808Y-85894000D02*
X66746189Y-85917809D01*
X66746189Y-85917809D02*
X66650951Y-85917809D01*
X66650951Y-85917809D02*
X66603332Y-85894000D01*
X66603332Y-85894000D02*
X66555713Y-85846380D01*
X66555713Y-85846380D02*
X66531904Y-85751142D01*
X66531904Y-85751142D02*
X66531904Y-85584476D01*
X66531904Y-85584476D02*
X66555713Y-85489238D01*
X66555713Y-85489238D02*
X66603332Y-85441619D01*
X66603332Y-85441619D02*
X66650951Y-85417809D01*
X64889047Y-96204809D02*
X64889047Y-95704809D01*
X65127142Y-96204809D02*
X65127142Y-95704809D01*
X65127142Y-95704809D02*
X65412856Y-96204809D01*
X65412856Y-96204809D02*
X65412856Y-95704809D01*
X65579524Y-95704809D02*
X65865238Y-95704809D01*
X65722381Y-96204809D02*
X65722381Y-95704809D01*
X66293809Y-96204809D02*
X66008095Y-96204809D01*
X66150952Y-96204809D02*
X66150952Y-95704809D01*
X66150952Y-95704809D02*
X66103333Y-95776238D01*
X66103333Y-95776238D02*
X66055714Y-95823857D01*
X66055714Y-95823857D02*
X66008095Y-95847666D01*
X65023952Y-88108619D02*
X64976333Y-88084809D01*
X64976333Y-88084809D02*
X64904904Y-88084809D01*
X64904904Y-88084809D02*
X64833476Y-88108619D01*
X64833476Y-88108619D02*
X64785857Y-88156238D01*
X64785857Y-88156238D02*
X64762047Y-88203857D01*
X64762047Y-88203857D02*
X64738238Y-88299095D01*
X64738238Y-88299095D02*
X64738238Y-88370523D01*
X64738238Y-88370523D02*
X64762047Y-88465761D01*
X64762047Y-88465761D02*
X64785857Y-88513380D01*
X64785857Y-88513380D02*
X64833476Y-88561000D01*
X64833476Y-88561000D02*
X64904904Y-88584809D01*
X64904904Y-88584809D02*
X64952523Y-88584809D01*
X64952523Y-88584809D02*
X65023952Y-88561000D01*
X65023952Y-88561000D02*
X65047761Y-88537190D01*
X65047761Y-88537190D02*
X65047761Y-88370523D01*
X65047761Y-88370523D02*
X64952523Y-88370523D01*
X65262047Y-88584809D02*
X65262047Y-88084809D01*
X65262047Y-88084809D02*
X65547761Y-88584809D01*
X65547761Y-88584809D02*
X65547761Y-88084809D01*
X65785857Y-88584809D02*
X65785857Y-88084809D01*
X65785857Y-88084809D02*
X65904905Y-88084809D01*
X65904905Y-88084809D02*
X65976333Y-88108619D01*
X65976333Y-88108619D02*
X66023952Y-88156238D01*
X66023952Y-88156238D02*
X66047762Y-88203857D01*
X66047762Y-88203857D02*
X66071571Y-88299095D01*
X66071571Y-88299095D02*
X66071571Y-88370523D01*
X66071571Y-88370523D02*
X66047762Y-88465761D01*
X66047762Y-88465761D02*
X66023952Y-88513380D01*
X66023952Y-88513380D02*
X65976333Y-88561000D01*
X65976333Y-88561000D02*
X65904905Y-88584809D01*
X65904905Y-88584809D02*
X65785857Y-88584809D01*
D10*
X64846190Y-82922095D02*
X65112857Y-83722095D01*
X65112857Y-83722095D02*
X65379523Y-82922095D01*
X65646190Y-83722095D02*
X65646190Y-82922095D01*
X65646190Y-82922095D02*
X65836666Y-82922095D01*
X65836666Y-82922095D02*
X65950952Y-82960190D01*
X65950952Y-82960190D02*
X66027142Y-83036380D01*
X66027142Y-83036380D02*
X66065237Y-83112571D01*
X66065237Y-83112571D02*
X66103333Y-83264952D01*
X66103333Y-83264952D02*
X66103333Y-83379238D01*
X66103333Y-83379238D02*
X66065237Y-83531619D01*
X66065237Y-83531619D02*
X66027142Y-83607809D01*
X66027142Y-83607809D02*
X65950952Y-83684000D01*
X65950952Y-83684000D02*
X65836666Y-83722095D01*
X65836666Y-83722095D02*
X65646190Y-83722095D01*
X66446190Y-83722095D02*
X66446190Y-82922095D01*
X66446190Y-82922095D02*
X66636666Y-82922095D01*
X66636666Y-82922095D02*
X66750952Y-82960190D01*
X66750952Y-82960190D02*
X66827142Y-83036380D01*
X66827142Y-83036380D02*
X66865237Y-83112571D01*
X66865237Y-83112571D02*
X66903333Y-83264952D01*
X66903333Y-83264952D02*
X66903333Y-83379238D01*
X66903333Y-83379238D02*
X66865237Y-83531619D01*
X66865237Y-83531619D02*
X66827142Y-83607809D01*
X66827142Y-83607809D02*
X66750952Y-83684000D01*
X66750952Y-83684000D02*
X66636666Y-83722095D01*
X66636666Y-83722095D02*
X66446190Y-83722095D01*
D13*
X64738238Y-93768000D02*
X64809666Y-93791809D01*
X64809666Y-93791809D02*
X64928714Y-93791809D01*
X64928714Y-93791809D02*
X64976333Y-93768000D01*
X64976333Y-93768000D02*
X65000142Y-93744190D01*
X65000142Y-93744190D02*
X65023952Y-93696571D01*
X65023952Y-93696571D02*
X65023952Y-93648952D01*
X65023952Y-93648952D02*
X65000142Y-93601333D01*
X65000142Y-93601333D02*
X64976333Y-93577523D01*
X64976333Y-93577523D02*
X64928714Y-93553714D01*
X64928714Y-93553714D02*
X64833476Y-93529904D01*
X64833476Y-93529904D02*
X64785857Y-93506095D01*
X64785857Y-93506095D02*
X64762047Y-93482285D01*
X64762047Y-93482285D02*
X64738238Y-93434666D01*
X64738238Y-93434666D02*
X64738238Y-93387047D01*
X64738238Y-93387047D02*
X64762047Y-93339428D01*
X64762047Y-93339428D02*
X64785857Y-93315619D01*
X64785857Y-93315619D02*
X64833476Y-93291809D01*
X64833476Y-93291809D02*
X64952523Y-93291809D01*
X64952523Y-93291809D02*
X65023952Y-93315619D01*
X65238237Y-93791809D02*
X65238237Y-93291809D01*
X65238237Y-93291809D02*
X65357285Y-93291809D01*
X65357285Y-93291809D02*
X65428713Y-93315619D01*
X65428713Y-93315619D02*
X65476332Y-93363238D01*
X65476332Y-93363238D02*
X65500142Y-93410857D01*
X65500142Y-93410857D02*
X65523951Y-93506095D01*
X65523951Y-93506095D02*
X65523951Y-93577523D01*
X65523951Y-93577523D02*
X65500142Y-93672761D01*
X65500142Y-93672761D02*
X65476332Y-93720380D01*
X65476332Y-93720380D02*
X65428713Y-93768000D01*
X65428713Y-93768000D02*
X65357285Y-93791809D01*
X65357285Y-93791809D02*
X65238237Y-93791809D01*
X65714428Y-93648952D02*
X65952523Y-93648952D01*
X65666809Y-93791809D02*
X65833475Y-93291809D01*
X65833475Y-93291809D02*
X66000142Y-93791809D01*
X64889047Y-98871809D02*
X64889047Y-98371809D01*
X65127142Y-98871809D02*
X65127142Y-98371809D01*
X65127142Y-98371809D02*
X65412856Y-98871809D01*
X65412856Y-98871809D02*
X65412856Y-98371809D01*
X65579524Y-98371809D02*
X65865238Y-98371809D01*
X65722381Y-98871809D02*
X65722381Y-98371809D01*
X66008095Y-98419428D02*
X66031904Y-98395619D01*
X66031904Y-98395619D02*
X66079523Y-98371809D01*
X66079523Y-98371809D02*
X66198571Y-98371809D01*
X66198571Y-98371809D02*
X66246190Y-98395619D01*
X66246190Y-98395619D02*
X66269999Y-98419428D01*
X66269999Y-98419428D02*
X66293809Y-98467047D01*
X66293809Y-98467047D02*
X66293809Y-98514666D01*
X66293809Y-98514666D02*
X66269999Y-98586095D01*
X66269999Y-98586095D02*
X65984285Y-98871809D01*
X65984285Y-98871809D02*
X66293809Y-98871809D01*
%TO.C,C1*%
X68669690Y-94952333D02*
X68693500Y-94976142D01*
X68693500Y-94976142D02*
X68717309Y-95047571D01*
X68717309Y-95047571D02*
X68717309Y-95095190D01*
X68717309Y-95095190D02*
X68693500Y-95166618D01*
X68693500Y-95166618D02*
X68645880Y-95214237D01*
X68645880Y-95214237D02*
X68598261Y-95238047D01*
X68598261Y-95238047D02*
X68503023Y-95261856D01*
X68503023Y-95261856D02*
X68431595Y-95261856D01*
X68431595Y-95261856D02*
X68336357Y-95238047D01*
X68336357Y-95238047D02*
X68288738Y-95214237D01*
X68288738Y-95214237D02*
X68241119Y-95166618D01*
X68241119Y-95166618D02*
X68217309Y-95095190D01*
X68217309Y-95095190D02*
X68217309Y-95047571D01*
X68217309Y-95047571D02*
X68241119Y-94976142D01*
X68241119Y-94976142D02*
X68264928Y-94952333D01*
X68717309Y-94476142D02*
X68717309Y-94761856D01*
X68717309Y-94618999D02*
X68217309Y-94618999D01*
X68217309Y-94618999D02*
X68288738Y-94666618D01*
X68288738Y-94666618D02*
X68336357Y-94714237D01*
X68336357Y-94714237D02*
X68360166Y-94761856D01*
%TO.C,C2*%
X72573690Y-95206333D02*
X72597500Y-95230142D01*
X72597500Y-95230142D02*
X72621309Y-95301571D01*
X72621309Y-95301571D02*
X72621309Y-95349190D01*
X72621309Y-95349190D02*
X72597500Y-95420618D01*
X72597500Y-95420618D02*
X72549880Y-95468237D01*
X72549880Y-95468237D02*
X72502261Y-95492047D01*
X72502261Y-95492047D02*
X72407023Y-95515856D01*
X72407023Y-95515856D02*
X72335595Y-95515856D01*
X72335595Y-95515856D02*
X72240357Y-95492047D01*
X72240357Y-95492047D02*
X72192738Y-95468237D01*
X72192738Y-95468237D02*
X72145119Y-95420618D01*
X72145119Y-95420618D02*
X72121309Y-95349190D01*
X72121309Y-95349190D02*
X72121309Y-95301571D01*
X72121309Y-95301571D02*
X72145119Y-95230142D01*
X72145119Y-95230142D02*
X72168928Y-95206333D01*
X72168928Y-95015856D02*
X72145119Y-94992047D01*
X72145119Y-94992047D02*
X72121309Y-94944428D01*
X72121309Y-94944428D02*
X72121309Y-94825380D01*
X72121309Y-94825380D02*
X72145119Y-94777761D01*
X72145119Y-94777761D02*
X72168928Y-94753952D01*
X72168928Y-94753952D02*
X72216547Y-94730142D01*
X72216547Y-94730142D02*
X72264166Y-94730142D01*
X72264166Y-94730142D02*
X72335595Y-94753952D01*
X72335595Y-94753952D02*
X72621309Y-95039666D01*
X72621309Y-95039666D02*
X72621309Y-94730142D01*
D10*
%TO.C,U1*%
X71521380Y-89318076D02*
X71521380Y-89836171D01*
X71521380Y-89836171D02*
X71551857Y-89897123D01*
X71551857Y-89897123D02*
X71582333Y-89927600D01*
X71582333Y-89927600D02*
X71643285Y-89958076D01*
X71643285Y-89958076D02*
X71765190Y-89958076D01*
X71765190Y-89958076D02*
X71826142Y-89927600D01*
X71826142Y-89927600D02*
X71856619Y-89897123D01*
X71856619Y-89897123D02*
X71887095Y-89836171D01*
X71887095Y-89836171D02*
X71887095Y-89318076D01*
X72527095Y-89958076D02*
X72161380Y-89958076D01*
X72344237Y-89958076D02*
X72344237Y-89318076D01*
X72344237Y-89318076D02*
X72283285Y-89409504D01*
X72283285Y-89409504D02*
X72222333Y-89470457D01*
X72222333Y-89470457D02*
X72161380Y-89500933D01*
D14*
%TO.C,C1*%
X67566000Y-93458420D02*
X67566000Y-93739580D01*
X66546000Y-93458420D02*
X66546000Y-93739580D01*
%TO.C,C2*%
X71630000Y-94855420D02*
X71630000Y-95136580D01*
X70610000Y-94855420D02*
X70610000Y-95136580D01*
D15*
%TO.C,U1*%
X68580000Y-90170000D02*
X68580000Y-90640000D01*
X68580000Y-90170000D02*
X69050000Y-90170000D01*
X68580000Y-92710000D02*
X68580000Y-92240000D01*
X68580000Y-92710000D02*
X69050000Y-92710000D01*
X71120000Y-90170000D02*
X70650000Y-90170000D01*
X71120000Y-90170000D02*
X71120000Y-90640000D01*
X71120000Y-92710000D02*
X70650000Y-92710000D01*
X71120000Y-92710000D02*
X71120000Y-92240000D01*
D10*
X68425000Y-90540000D02*
G75*
G03*
X68425000Y-90540000I-75000J0D01*
G01*
D14*
%TO.C,J1*%
X61535000Y-84582000D02*
X61535000Y-99882000D01*
X61535000Y-84582000D02*
X64195000Y-84582000D01*
X61535000Y-99882000D02*
X64195000Y-99882000D01*
X62865000Y-81982000D02*
X64195000Y-81982000D01*
X64195000Y-81982000D02*
X64195000Y-83312000D01*
X64195000Y-84582000D02*
X64195000Y-99882000D01*
%TD*%
M02*
