%TF.GenerationSoftware,KiCad,Pcbnew,7.0.2*%
%TF.CreationDate,2025-03-07T15:43:59-05:00*%
%TF.ProjectId,2BMA400,32424d41-3430-4302-9e6b-696361645f70,rev?*%
%TF.SameCoordinates,Original*%
%TF.FileFunction,Soldermask,Top*%
%TF.FilePolarity,Negative*%
%FSLAX46Y46*%
G04 Gerber Fmt 4.6, Leading zero omitted, Abs format (unit mm)*
G04 Created by KiCad (PCBNEW 7.0.2) date 2025-03-07 15:43:59*
%MOMM*%
%LPD*%
G01*
G04 APERTURE LIST*
G04 Aperture macros list*
%AMRoundRect*
0 Rectangle with rounded corners*
0 $1 Rounding radius*
0 $2 $3 $4 $5 $6 $7 $8 $9 X,Y pos of 4 corners*
0 Add a 4 corners polygon primitive as box body*
4,1,4,$2,$3,$4,$5,$6,$7,$8,$9,$2,$3,0*
0 Add four circle primitives for the rounded corners*
1,1,$1+$1,$2,$3*
1,1,$1+$1,$4,$5*
1,1,$1+$1,$6,$7*
1,1,$1+$1,$8,$9*
0 Add four rect primitives between the rounded corners*
20,1,$1+$1,$2,$3,$4,$5,0*
20,1,$1+$1,$4,$5,$6,$7,0*
20,1,$1+$1,$6,$7,$8,$9,0*
20,1,$1+$1,$8,$9,$2,$3,0*%
G04 Aperture macros list end*
%ADD10C,0.150000*%
%ADD11C,0.010000*%
%ADD12C,2.200000*%
%ADD13RoundRect,0.225000X-0.250000X0.225000X-0.250000X-0.225000X0.250000X-0.225000X0.250000X0.225000X0*%
%ADD14R,1.700000X1.700000*%
%ADD15O,1.700000X1.700000*%
G04 APERTURE END LIST*
D10*
X60452000Y-102108000D02*
X60452000Y-79400400D01*
X73660000Y-102108000D02*
X60452000Y-102108000D01*
X73660000Y-102057200D02*
X73660000Y-102108000D01*
X73660000Y-79400400D02*
X73660000Y-102057200D01*
X60452000Y-79400400D02*
X73660000Y-79400400D01*
%TO.C,U1*%
D11*
X69300000Y-90890000D02*
X68850000Y-90890000D01*
X68850000Y-90490000D01*
X69300000Y-90490000D01*
X69300000Y-90890000D01*
G36*
X69300000Y-90890000D02*
G01*
X68850000Y-90890000D01*
X68850000Y-90490000D01*
X69300000Y-90490000D01*
X69300000Y-90890000D01*
G37*
X69300000Y-91390000D02*
X68850000Y-91390000D01*
X68850000Y-90990000D01*
X69300000Y-90990000D01*
X69300000Y-91390000D01*
G36*
X69300000Y-91390000D02*
G01*
X68850000Y-91390000D01*
X68850000Y-90990000D01*
X69300000Y-90990000D01*
X69300000Y-91390000D01*
G37*
X69300000Y-91890000D02*
X68850000Y-91890000D01*
X68850000Y-91490000D01*
X69300000Y-91490000D01*
X69300000Y-91890000D01*
G36*
X69300000Y-91890000D02*
G01*
X68850000Y-91890000D01*
X68850000Y-91490000D01*
X69300000Y-91490000D01*
X69300000Y-91890000D01*
G37*
X69300000Y-92390000D02*
X68850000Y-92390000D01*
X68850000Y-91990000D01*
X69300000Y-91990000D01*
X69300000Y-92390000D01*
G36*
X69300000Y-92390000D02*
G01*
X68850000Y-92390000D01*
X68850000Y-91990000D01*
X69300000Y-91990000D01*
X69300000Y-92390000D01*
G37*
X69800000Y-90890000D02*
X69400000Y-90890000D01*
X69400000Y-90440000D01*
X69800000Y-90440000D01*
X69800000Y-90890000D01*
G36*
X69800000Y-90890000D02*
G01*
X69400000Y-90890000D01*
X69400000Y-90440000D01*
X69800000Y-90440000D01*
X69800000Y-90890000D01*
G37*
X69800000Y-92440000D02*
X69400000Y-92440000D01*
X69400000Y-91990000D01*
X69800000Y-91990000D01*
X69800000Y-92440000D01*
G36*
X69800000Y-92440000D02*
G01*
X69400000Y-92440000D01*
X69400000Y-91990000D01*
X69800000Y-91990000D01*
X69800000Y-92440000D01*
G37*
X70300000Y-90890000D02*
X69900000Y-90890000D01*
X69900000Y-90440000D01*
X70300000Y-90440000D01*
X70300000Y-90890000D01*
G36*
X70300000Y-90890000D02*
G01*
X69900000Y-90890000D01*
X69900000Y-90440000D01*
X70300000Y-90440000D01*
X70300000Y-90890000D01*
G37*
X70300000Y-92440000D02*
X69900000Y-92440000D01*
X69900000Y-91990000D01*
X70300000Y-91990000D01*
X70300000Y-92440000D01*
G36*
X70300000Y-92440000D02*
G01*
X69900000Y-92440000D01*
X69900000Y-91990000D01*
X70300000Y-91990000D01*
X70300000Y-92440000D01*
G37*
X70850000Y-90890000D02*
X70400000Y-90890000D01*
X70400000Y-90490000D01*
X70850000Y-90490000D01*
X70850000Y-90890000D01*
G36*
X70850000Y-90890000D02*
G01*
X70400000Y-90890000D01*
X70400000Y-90490000D01*
X70850000Y-90490000D01*
X70850000Y-90890000D01*
G37*
X70850000Y-91390000D02*
X70400000Y-91390000D01*
X70400000Y-90990000D01*
X70850000Y-90990000D01*
X70850000Y-91390000D01*
G36*
X70850000Y-91390000D02*
G01*
X70400000Y-91390000D01*
X70400000Y-90990000D01*
X70850000Y-90990000D01*
X70850000Y-91390000D01*
G37*
X70850000Y-91890000D02*
X70400000Y-91890000D01*
X70400000Y-91490000D01*
X70850000Y-91490000D01*
X70850000Y-91890000D01*
G36*
X70850000Y-91890000D02*
G01*
X70400000Y-91890000D01*
X70400000Y-91490000D01*
X70850000Y-91490000D01*
X70850000Y-91890000D01*
G37*
X70850000Y-92390000D02*
X70400000Y-92390000D01*
X70400000Y-91990000D01*
X70850000Y-91990000D01*
X70850000Y-92390000D01*
G36*
X70850000Y-92390000D02*
G01*
X70400000Y-92390000D01*
X70400000Y-91990000D01*
X70850000Y-91990000D01*
X70850000Y-92390000D01*
G37*
%TD*%
D12*
%TO.C,REF\u002A\u002A*%
X70866000Y-82169000D03*
%TD*%
D13*
%TO.C,C1*%
X67056000Y-92824000D03*
X67056000Y-94374000D03*
%TD*%
%TO.C,C2*%
X71120000Y-94221000D03*
X71120000Y-95771000D03*
%TD*%
D14*
%TO.C,J1*%
X62865000Y-83312000D03*
D15*
X62865000Y-85852000D03*
X62865000Y-88392000D03*
X62865000Y-90932000D03*
X62865000Y-93472000D03*
X62865000Y-96012000D03*
X62865000Y-98552000D03*
%TD*%
D12*
%TO.C,REF\u002A\u002A*%
X70739000Y-99314000D03*
%TD*%
M02*
