%TF.GenerationSoftware,KiCad,Pcbnew,7.0.2*%
%TF.CreationDate,2025-03-07T15:31:29-05:00*%
%TF.ProjectId,3BQ5101eBRHLR,33425135-3130-4316-9542-52484c522e6b,rev?*%
%TF.SameCoordinates,Original*%
%TF.FileFunction,Copper,L1,Top*%
%TF.FilePolarity,Positive*%
%FSLAX46Y46*%
G04 Gerber Fmt 4.6, Leading zero omitted, Abs format (unit mm)*
G04 Created by KiCad (PCBNEW 7.0.2) date 2025-03-07 15:31:29*
%MOMM*%
%LPD*%
G01*
G04 APERTURE LIST*
G04 Aperture macros list*
%AMRoundRect*
0 Rectangle with rounded corners*
0 $1 Rounding radius*
0 $2 $3 $4 $5 $6 $7 $8 $9 X,Y pos of 4 corners*
0 Add a 4 corners polygon primitive as box body*
4,1,4,$2,$3,$4,$5,$6,$7,$8,$9,$2,$3,0*
0 Add four circle primitives for the rounded corners*
1,1,$1+$1,$2,$3*
1,1,$1+$1,$4,$5*
1,1,$1+$1,$6,$7*
1,1,$1+$1,$8,$9*
0 Add four rect primitives between the rounded corners*
20,1,$1+$1,$2,$3,$4,$5,0*
20,1,$1+$1,$4,$5,$6,$7,0*
20,1,$1+$1,$6,$7,$8,$9,0*
20,1,$1+$1,$8,$9,$2,$3,0*%
G04 Aperture macros list end*
%TA.AperFunction,NonConductor*%
%ADD10C,0.200000*%
%TD*%
%TA.AperFunction,NonConductor*%
%ADD11C,1.150000*%
%TD*%
%TA.AperFunction,SMDPad,CuDef*%
%ADD12RoundRect,0.225000X0.225000X0.250000X-0.225000X0.250000X-0.225000X-0.250000X0.225000X-0.250000X0*%
%TD*%
%TA.AperFunction,SMDPad,CuDef*%
%ADD13RoundRect,0.225000X-0.250000X0.225000X-0.250000X-0.225000X0.250000X-0.225000X0.250000X0.225000X0*%
%TD*%
%TA.AperFunction,SMDPad,CuDef*%
%ADD14RoundRect,0.200000X0.200000X0.275000X-0.200000X0.275000X-0.200000X-0.275000X0.200000X-0.275000X0*%
%TD*%
%TA.AperFunction,SMDPad,CuDef*%
%ADD15R,1.300000X0.600000*%
%TD*%
%TA.AperFunction,SMDPad,CuDef*%
%ADD16RoundRect,0.225000X-0.225000X-0.250000X0.225000X-0.250000X0.225000X0.250000X-0.225000X0.250000X0*%
%TD*%
%TA.AperFunction,SMDPad,CuDef*%
%ADD17RoundRect,0.200000X-0.200000X-0.275000X0.200000X-0.275000X0.200000X0.275000X-0.200000X0.275000X0*%
%TD*%
%TA.AperFunction,ComponentPad*%
%ADD18R,1.700000X1.700000*%
%TD*%
%TA.AperFunction,ComponentPad*%
%ADD19O,1.700000X1.700000*%
%TD*%
%TA.AperFunction,SMDPad,CuDef*%
%ADD20RoundRect,0.200000X0.275000X-0.200000X0.275000X0.200000X-0.275000X0.200000X-0.275000X-0.200000X0*%
%TD*%
%TA.AperFunction,SMDPad,CuDef*%
%ADD21R,1.160000X0.600000*%
%TD*%
%TA.AperFunction,SMDPad,CuDef*%
%ADD22R,1.160000X0.300000*%
%TD*%
%TA.AperFunction,ComponentPad*%
%ADD23O,2.000000X0.900000*%
%TD*%
%TA.AperFunction,ComponentPad*%
%ADD24O,1.700000X0.900000*%
%TD*%
%TA.AperFunction,SMDPad,CuDef*%
%ADD25RoundRect,0.225000X0.250000X-0.225000X0.250000X0.225000X-0.250000X0.225000X-0.250000X-0.225000X0*%
%TD*%
%TA.AperFunction,SMDPad,CuDef*%
%ADD26R,0.280000X0.850000*%
%TD*%
%TA.AperFunction,SMDPad,CuDef*%
%ADD27R,0.850000X0.280000*%
%TD*%
%TA.AperFunction,SMDPad,CuDef*%
%ADD28R,2.050000X3.049999*%
%TD*%
%TA.AperFunction,ComponentPad*%
%ADD29C,0.508000*%
%TD*%
%TA.AperFunction,SMDPad,CuDef*%
%ADD30R,0.900000X1.400000*%
%TD*%
%TA.AperFunction,ComponentPad*%
%ADD31R,3.000000X3.000000*%
%TD*%
%TA.AperFunction,ComponentPad*%
%ADD32C,3.000000*%
%TD*%
%TA.AperFunction,ViaPad*%
%ADD33C,1.270000*%
%TD*%
%TA.AperFunction,ViaPad*%
%ADD34C,1.200000*%
%TD*%
%TA.AperFunction,Conductor*%
%ADD35C,0.250000*%
%TD*%
%TA.AperFunction,Conductor*%
%ADD36C,0.500000*%
%TD*%
%TA.AperFunction,Conductor*%
%ADD37C,0.550000*%
%TD*%
G04 APERTURE END LIST*
D10*
X158750000Y-91948000D02*
X158750000Y-87376000D01*
D11*
X175073000Y-118618000D02*
G75*
G03*
X175073000Y-118618000I-575000J0D01*
G01*
D10*
X177546000Y-91948000D02*
X158750000Y-91948000D01*
D11*
X154753000Y-118618000D02*
G75*
G03*
X154753000Y-118618000I-575000J0D01*
G01*
D10*
X145415000Y-99314000D02*
X149098000Y-99314000D01*
X149098000Y-121666000D02*
X177546000Y-121666000D01*
X158750000Y-87376000D02*
X145415000Y-87376000D01*
X177546000Y-121666000D02*
X177546000Y-91948000D01*
X145415000Y-87376000D02*
X145415000Y-99314000D01*
X149098000Y-99314000D02*
X149098000Y-121666000D01*
%TA.AperFunction,EtchedComponent*%
%TO.C,U1*%
G36*
X164292300Y-107295001D02*
G01*
X164612300Y-107295001D01*
X164612300Y-106570001D01*
X164827300Y-106570001D01*
X164827300Y-107695001D01*
X164077300Y-107695001D01*
X164077300Y-106570001D01*
X164292300Y-106570001D01*
X164292300Y-107295001D01*
G37*
%TD.AperFunction*%
%TA.AperFunction,EtchedComponent*%
G36*
X164827300Y-111869999D02*
G01*
X164612300Y-111869999D01*
X164612300Y-111144999D01*
X164292300Y-111144999D01*
X164292300Y-111869999D01*
X164077300Y-111869999D01*
X164077300Y-110744999D01*
X164827300Y-110744999D01*
X164827300Y-111869999D01*
G37*
%TD.AperFunction*%
%TD*%
D12*
%TO.P,C5,1*%
%TO.N,Net-(U1-CLMP1)*%
X158377099Y-105918000D03*
%TO.P,C5,2*%
%TO.N,AC1*%
X156827099Y-105918000D03*
%TD*%
D13*
%TO.P,C12,1*%
%TO.N,Net-(Coil1-Pin_2)*%
X162814000Y-98412000D03*
%TO.P,C12,2*%
%TO.N,AC1*%
X162814000Y-99962000D03*
%TD*%
D14*
%TO.P,R3,1*%
%TO.N,Net-(R3-Pad1)*%
X171259000Y-114554000D03*
%TO.P,R3,2*%
%TO.N,Net-(U1-TS-CTRL)*%
X169609000Y-114554000D03*
%TD*%
D15*
%TO.P,Q1,1,G*%
%TO.N,Net-(Q1-G)*%
X153704000Y-102804000D03*
%TO.P,Q1,2,S*%
%TO.N,OUT*%
X153704000Y-100904000D03*
%TO.P,Q1,3,D*%
%TO.N,Net-(Q1-D)*%
X151604000Y-101854000D03*
%TD*%
D14*
%TO.P,RCC2,1*%
%TO.N,GND*%
X157035000Y-94742000D03*
%TO.P,RCC2,2*%
%TO.N,Net-(J3-CC2)*%
X155385000Y-94742000D03*
%TD*%
D16*
%TO.P,C6,1*%
%TO.N,Net-(U1-CLMP2)*%
X170543099Y-108085000D03*
%TO.P,C6,2*%
%TO.N,AC2*%
X172093099Y-108085000D03*
%TD*%
D17*
%TO.P,RFOD1,1*%
%TO.N,FOD*%
X170493099Y-111133000D03*
%TO.P,RFOD1,2*%
%TO.N,GND*%
X172143099Y-111133000D03*
%TD*%
D18*
%TO.P,Out1,1,Pin_1*%
%TO.N,GND*%
X163048000Y-95021000D03*
D19*
%TO.P,Out1,2,Pin_2*%
%TO.N,OUT*%
X160508000Y-95021000D03*
%TD*%
D12*
%TO.P,C1,1*%
%TO.N,Net-(U1-COM1)*%
X158377099Y-107442000D03*
%TO.P,C1,2*%
%TO.N,AC1*%
X156827099Y-107442000D03*
%TD*%
D20*
%TO.P,R1,1*%
%TO.N,FOD*%
X167762099Y-115768000D03*
%TO.P,R1,2*%
%TO.N,Net-(U1-ILIM)*%
X167762099Y-114118000D03*
%TD*%
D16*
%TO.P,C4,1*%
%TO.N,Net-(U1-BOOT2)*%
X170543099Y-106561000D03*
%TO.P,C4,2*%
%TO.N,AC2*%
X172093099Y-106561000D03*
%TD*%
D12*
%TO.P,C11,1*%
%TO.N,AC2*%
X165875000Y-101600000D03*
%TO.P,C11,2*%
%TO.N,AC1*%
X164325000Y-101600000D03*
%TD*%
D16*
%TO.P,C8,1*%
%TO.N,Net-(U1-RECT)*%
X170543099Y-105037000D03*
%TO.P,C8,2*%
%TO.N,GND*%
X172093099Y-105037000D03*
%TD*%
D21*
%TO.P,J3,A1,GND*%
%TO.N,Net-(U1-AD)*%
X152243000Y-89891000D03*
%TO.P,J3,A4,VBUS*%
%TO.N,Net-(Q1-D)*%
X152243000Y-90691000D03*
D22*
%TO.P,J3,A5,CC1*%
%TO.N,Net-(J3-CC1)*%
X152243000Y-91841000D03*
%TO.P,J3,A6,D+*%
%TO.N,unconnected-(J3-D+-PadA6)*%
X152243000Y-92841000D03*
%TO.P,J3,A7,D-*%
%TO.N,unconnected-(J3-D--PadA7)*%
X152243000Y-93341000D03*
%TO.P,J3,A8,SBU1*%
%TO.N,unconnected-(J3-SBU1-PadA8)*%
X152243000Y-94341000D03*
D21*
%TO.P,J3,A9,VBUS*%
%TO.N,Net-(Q1-D)*%
X152243000Y-95491000D03*
%TO.P,J3,A12,GND*%
%TO.N,Net-(U1-AD)*%
X152243000Y-96291000D03*
%TO.P,J3,B1,GND*%
X152243000Y-96291000D03*
%TO.P,J3,B4,VBUS*%
%TO.N,Net-(Q1-D)*%
X152243000Y-95491000D03*
D22*
%TO.P,J3,B5,CC2*%
%TO.N,Net-(J3-CC2)*%
X152243000Y-94841000D03*
%TO.P,J3,B6,D+*%
%TO.N,unconnected-(J3-D+-PadB6)*%
X152243000Y-93841000D03*
%TO.P,J3,B7,D-*%
%TO.N,unconnected-(J3-D--PadB7)*%
X152243000Y-92341000D03*
%TO.P,J3,B8,SBU2*%
%TO.N,unconnected-(J3-SBU2-PadB8)*%
X152243000Y-91341000D03*
D21*
%TO.P,J3,B9,VBUS*%
%TO.N,Net-(Q1-D)*%
X152243000Y-90691000D03*
%TO.P,J3,B12,GND*%
%TO.N,Net-(U1-AD)*%
X152243000Y-89891000D03*
D23*
%TO.P,J3,S1,SHIELD*%
%TO.N,GND*%
X151663000Y-88771000D03*
D24*
X147493000Y-88771000D03*
D23*
X151663000Y-97411000D03*
D24*
X147493000Y-97411000D03*
%TD*%
D16*
%TO.P,C2,1*%
%TO.N,Net-(U1-COM2)*%
X170543099Y-109609000D03*
%TO.P,C2,2*%
%TO.N,AC2*%
X172093099Y-109609000D03*
%TD*%
D25*
%TO.P,C10,1*%
%TO.N,GND*%
X160650099Y-113178000D03*
%TO.P,C10,2*%
%TO.N,Net-(U1-AD)*%
X160650099Y-111628000D03*
%TD*%
D26*
%TO.P,U1,1,PGND*%
%TO.N,GND*%
X163702299Y-106995001D03*
D27*
%TO.P,U1,2,AC1*%
%TO.N,AC1*%
X162727300Y-107470001D03*
%TO.P,U1,3,BOOT1*%
%TO.N,Net-(U1-BOOT1)*%
X162727300Y-107970000D03*
%TO.P,U1,4,OUT*%
%TO.N,OUT*%
X162727300Y-108469999D03*
%TO.P,U1,5,CLMP1*%
%TO.N,Net-(U1-CLMP1)*%
X162727300Y-108970000D03*
%TO.P,U1,6,COM1*%
%TO.N,Net-(U1-COM1)*%
X162727300Y-109470000D03*
%TO.P,U1,7,\u002ACHG*%
%TO.N,Net-(EN1-Pin_3)*%
X162727300Y-109970001D03*
%TO.P,U1,8,\u002AAD-EN*%
%TO.N,Net-(Q1-G)*%
X162727300Y-110470000D03*
%TO.P,U1,9,AD*%
%TO.N,Net-(U1-AD)*%
X162727300Y-110969999D03*
D26*
%TO.P,U1,10,EN1*%
%TO.N,Net-(EN1-Pin_2)*%
X163702299Y-111444999D03*
%TO.P,U1,11,EN2*%
%TO.N,Net-(EN1-Pin_1)*%
X165202301Y-111444999D03*
D27*
%TO.P,U1,12,ILIM*%
%TO.N,Net-(U1-ILIM)*%
X166177300Y-110969999D03*
%TO.P,U1,13,TS-CTRL*%
%TO.N,Net-(U1-TS-CTRL)*%
X166177300Y-110470000D03*
%TO.P,U1,14,FOD*%
%TO.N,FOD*%
X166177300Y-109970001D03*
%TO.P,U1,15,COM2*%
%TO.N,Net-(U1-COM2)*%
X166177300Y-109470000D03*
%TO.P,U1,16,CLMP2*%
%TO.N,Net-(U1-CLMP2)*%
X166177300Y-108970000D03*
%TO.P,U1,17,BOOT2*%
%TO.N,Net-(U1-BOOT2)*%
X166177300Y-108469999D03*
%TO.P,U1,18,RECT*%
%TO.N,Net-(U1-RECT)*%
X166177300Y-107970000D03*
%TO.P,U1,19,AC2*%
%TO.N,AC2*%
X166177300Y-107470001D03*
D26*
%TO.P,U1,20,PGND*%
%TO.N,GND*%
X165202301Y-106995001D03*
D28*
%TO.P,U1,21,EPAD*%
%TO.N,unconnected-(U1-EPAD-Pad21)*%
X164452300Y-109220000D03*
D29*
%TO.P,U1,V*%
%TO.N,N/C*%
X164058600Y-108432600D03*
X164058600Y-109220000D03*
X164058600Y-110007400D03*
X164846000Y-108432600D03*
X164846000Y-109220000D03*
X164846000Y-110007400D03*
%TD*%
D20*
%TO.P,R2,1*%
%TO.N,GND*%
X169926000Y-118173000D03*
%TO.P,R2,2*%
%TO.N,Net-(U1-TS-CTRL)*%
X169926000Y-116523000D03*
%TD*%
D18*
%TO.P,EN1,1,Pin_1*%
%TO.N,Net-(EN1-Pin_1)*%
X164592000Y-116586000D03*
D19*
%TO.P,EN1,2,Pin_2*%
%TO.N,Net-(EN1-Pin_2)*%
X162052000Y-116586000D03*
%TO.P,EN1,3,Pin_3*%
%TO.N,Net-(EN1-Pin_3)*%
X159512000Y-116586000D03*
%TD*%
D30*
%TO.P,RT1,1,1*%
%TO.N,GND*%
X175371000Y-114554000D03*
%TO.P,RT1,2,2*%
%TO.N,Net-(R3-Pad1)*%
X173371000Y-114554000D03*
%TD*%
D13*
%TO.P,C7,1*%
%TO.N,Net-(Coil1-Pin_2)*%
X164338000Y-98412000D03*
%TO.P,C7,2*%
%TO.N,AC1*%
X164338000Y-99962000D03*
%TD*%
D12*
%TO.P,C13,1*%
%TO.N,AC2*%
X165875000Y-103251000D03*
%TO.P,C13,2*%
%TO.N,AC1*%
X164325000Y-103251000D03*
%TD*%
D17*
%TO.P,RFOD2,1*%
%TO.N,Net-(U1-RECT)*%
X170498000Y-103505000D03*
%TO.P,RFOD2,2*%
%TO.N,FOD*%
X172148000Y-103505000D03*
%TD*%
D16*
%TO.P,C3,1*%
%TO.N,Net-(U1-BOOT1)*%
X161023000Y-105283000D03*
%TO.P,C3,2*%
%TO.N,AC1*%
X162573000Y-105283000D03*
%TD*%
D14*
%TO.P,RCC1,1*%
%TO.N,GND*%
X157035000Y-91694000D03*
%TO.P,RCC1,2*%
%TO.N,Net-(J3-CC1)*%
X155385000Y-91694000D03*
%TD*%
D31*
%TO.P,Coil1,1,Pin_1*%
%TO.N,AC2*%
X173990000Y-96266000D03*
D32*
%TO.P,Coil1,2,Pin_2*%
%TO.N,Net-(Coil1-Pin_2)*%
X168910000Y-96266000D03*
%TD*%
D12*
%TO.P,C9,1*%
%TO.N,OUT*%
X158377099Y-104394000D03*
%TO.P,C9,2*%
%TO.N,GND*%
X156827099Y-104394000D03*
%TD*%
D33*
%TO.N,AC1*%
X154813000Y-107569000D03*
X162679000Y-102751000D03*
%TO.N,AC2*%
X167640000Y-106299000D03*
X173736000Y-108077000D03*
X167513000Y-102362000D03*
X173736000Y-106553000D03*
X173736000Y-109601000D03*
D34*
%TO.N,FOD*%
X172085000Y-101854000D03*
D33*
X167767000Y-117475000D03*
X171450000Y-112776000D03*
D34*
%TO.N,GND*%
X174752000Y-111506000D03*
D33*
X158750000Y-100838000D03*
X156464000Y-113792000D03*
X164719000Y-105283000D03*
X152527000Y-111506000D03*
%TO.N,Net-(EN1-Pin_3)*%
X158496000Y-109220000D03*
X158496000Y-114046000D03*
%TO.N,Net-(Q1-G)*%
X157226000Y-110363000D03*
X153704000Y-104394000D03*
%TO.N,Net-(U1-AD)*%
X156083000Y-111628000D03*
X154015500Y-96755279D03*
X153924000Y-89916000D03*
%TD*%
D35*
%TO.N,Net-(U1-COM1)*%
X161270307Y-109470000D02*
X159242307Y-107442000D01*
X159242307Y-107442000D02*
X158377099Y-107442000D01*
X162727300Y-109470000D02*
X161270307Y-109470000D01*
D36*
%TO.N,AC1*%
X163690000Y-102616000D02*
X164325000Y-103251000D01*
D35*
X155702000Y-105918000D02*
X156827099Y-105918000D01*
D36*
X162814000Y-102616000D02*
X163690000Y-102616000D01*
X164325000Y-102616000D02*
X164325000Y-103251000D01*
D35*
X162679000Y-102751000D02*
X162814000Y-102616000D01*
D36*
X164325000Y-99975000D02*
X164338000Y-99962000D01*
D35*
X154940000Y-107442000D02*
X156827099Y-107442000D01*
X154813000Y-107569000D02*
X154813000Y-106807000D01*
X154813000Y-106807000D02*
X155702000Y-105918000D01*
D36*
X164325000Y-101600000D02*
X164325000Y-99975000D01*
X164338000Y-99962000D02*
X162814000Y-99962000D01*
D35*
X162727300Y-102799300D02*
X162727300Y-107470001D01*
X162687000Y-107429701D02*
X162727300Y-107470001D01*
X162679000Y-102751000D02*
X162727300Y-102799300D01*
D36*
X164325000Y-102616000D02*
X164325000Y-101600000D01*
D35*
X154813000Y-107569000D02*
X154940000Y-107442000D01*
%TO.N,Net-(U1-COM2)*%
X170543099Y-109609000D02*
X170404099Y-109470000D01*
X170404099Y-109470000D02*
X166177300Y-109470000D01*
D36*
%TO.N,AC2*%
X173728000Y-108085000D02*
X172093099Y-108085000D01*
D35*
X173736000Y-109601000D02*
X173728000Y-109609000D01*
D37*
X165989000Y-101714000D02*
X165875000Y-101600000D01*
D36*
X167513000Y-101727000D02*
X170434000Y-98806000D01*
D37*
X165989000Y-102362000D02*
X165989000Y-101714000D01*
D36*
X173728000Y-109609000D02*
X172093099Y-109609000D01*
X173101000Y-98806000D02*
X173990000Y-99695000D01*
D37*
X165989000Y-103137000D02*
X165875000Y-103251000D01*
D35*
X173736000Y-108077000D02*
X173728000Y-108085000D01*
X167640000Y-106934000D02*
X167103999Y-107470001D01*
X172101099Y-106553000D02*
X172093099Y-106561000D01*
D36*
X173990000Y-99695000D02*
X173990000Y-97155000D01*
X167513000Y-102362000D02*
X167513000Y-101727000D01*
D35*
X167640000Y-106299000D02*
X167640000Y-106934000D01*
D37*
X165989000Y-102362000D02*
X165989000Y-103137000D01*
D35*
X172093099Y-106561000D02*
X172093099Y-108085000D01*
D36*
X173736000Y-106553000D02*
X172101099Y-106553000D01*
D37*
X166637000Y-102362000D02*
X165875000Y-101600000D01*
D35*
X167103999Y-107470001D02*
X166177300Y-107470001D01*
D36*
X170434000Y-98806000D02*
X173101000Y-98806000D01*
D35*
X172093099Y-109609000D02*
X172093099Y-108085000D01*
D37*
X167513000Y-102362000D02*
X166637000Y-102362000D01*
D35*
%TO.N,Net-(U1-BOOT1)*%
X162727300Y-107970000D02*
X162012299Y-107970000D01*
X161023000Y-105283000D02*
X161023000Y-106980701D01*
X162012299Y-107970000D02*
X161023000Y-106980701D01*
%TO.N,Net-(U1-BOOT2)*%
X166177300Y-108469999D02*
X167885100Y-108469999D01*
X167885100Y-108469999D02*
X169794099Y-106561000D01*
X169794099Y-106561000D02*
X170543099Y-106561000D01*
%TO.N,Net-(U1-CLMP1)*%
X159258000Y-105918000D02*
X159570000Y-106230000D01*
X159570000Y-106230000D02*
X159570000Y-107133297D01*
X159570000Y-107133297D02*
X161406703Y-108970000D01*
X161406703Y-108970000D02*
X162727300Y-108970000D01*
X158377099Y-105918000D02*
X159258000Y-105918000D01*
%TO.N,Net-(U1-CLMP2)*%
X168147099Y-108970000D02*
X166177300Y-108970000D01*
X170543099Y-108085000D02*
X169032099Y-108085000D01*
X169032099Y-108085000D02*
X168147099Y-108970000D01*
D36*
%TO.N,Net-(Coil1-Pin_2)*%
X164338000Y-98412000D02*
X164338000Y-97409000D01*
X164338000Y-98412000D02*
X162814000Y-98412000D01*
X165354000Y-96393000D02*
X168910000Y-96393000D01*
X164338000Y-97409000D02*
X165354000Y-96393000D01*
X168910000Y-96393000D02*
X168910000Y-97155000D01*
D35*
%TO.N,FOD*%
X168123100Y-109970001D02*
X169286099Y-111133000D01*
X172085000Y-101854000D02*
X172085000Y-103442000D01*
X170493099Y-111819099D02*
X170493099Y-111133000D01*
X167762099Y-117470099D02*
X167767000Y-117475000D01*
X166177300Y-109970001D02*
X168123100Y-109970001D01*
X171450000Y-112776000D02*
X170493099Y-111819099D01*
X172085000Y-103442000D02*
X172148000Y-103505000D01*
X169286099Y-111133000D02*
X170493099Y-111133000D01*
X167762099Y-115768000D02*
X167762099Y-117470099D01*
%TO.N,GND*%
X164719000Y-105283000D02*
X165202301Y-105766301D01*
X164719000Y-105303300D02*
X163702299Y-106320001D01*
X163702299Y-106320001D02*
X163702299Y-106995001D01*
X165202301Y-105766301D02*
X165202301Y-106995001D01*
X164719000Y-105283000D02*
X164719000Y-105303300D01*
D36*
%TO.N,OUT*%
X158242000Y-97282000D02*
X160020000Y-97282000D01*
D35*
X158377099Y-104394000D02*
X159258000Y-104394000D01*
X153704000Y-100904000D02*
X154112000Y-100904000D01*
D36*
X157200500Y-101574500D02*
X158377099Y-102751099D01*
D35*
X159258000Y-104394000D02*
X160020000Y-105156000D01*
D36*
X157200500Y-98323500D02*
X158242000Y-97282000D01*
D35*
X160508000Y-95021000D02*
X160254000Y-94767000D01*
D36*
X160020000Y-97282000D02*
X160508000Y-96794000D01*
X157200500Y-99187000D02*
X157200500Y-101574500D01*
X155128000Y-100904000D02*
X156845000Y-99187000D01*
D35*
X161543098Y-108469999D02*
X162727300Y-108469999D01*
D36*
X156845000Y-99187000D02*
X157200500Y-99187000D01*
X160508000Y-96794000D02*
X160508000Y-95021000D01*
D35*
X160020000Y-105156000D02*
X160020000Y-106946901D01*
D36*
X157200500Y-99187000D02*
X157200500Y-98323500D01*
X153704000Y-100904000D02*
X155128000Y-100904000D01*
D35*
X160020000Y-106946901D02*
X161543098Y-108469999D01*
D36*
X158377099Y-102751099D02*
X158377099Y-104394000D01*
%TO.N,Net-(Q1-D)*%
X151638000Y-101820000D02*
X151638000Y-101346000D01*
X154673000Y-95491000D02*
X152243000Y-95491000D01*
D35*
X151647594Y-95491000D02*
X152243000Y-95491000D01*
X150898594Y-94742000D02*
X151647594Y-95491000D01*
X151647594Y-90691000D02*
X152243000Y-90691000D01*
X151647594Y-90691000D02*
X150876000Y-91462594D01*
X151638000Y-101820000D02*
X151604000Y-101854000D01*
D36*
X155194000Y-97790000D02*
X155194000Y-96012000D01*
X151638000Y-101346000D02*
X155194000Y-97790000D01*
D35*
X150876000Y-91462594D02*
X150876000Y-94742000D01*
X150876000Y-94742000D02*
X150898594Y-94742000D01*
D36*
X155194000Y-96012000D02*
X154673000Y-95491000D01*
D35*
%TO.N,Net-(EN1-Pin_1)*%
X165202301Y-111444999D02*
X165202301Y-114197699D01*
X164592000Y-114808000D02*
X164592000Y-116586000D01*
X165202301Y-114197699D02*
X164592000Y-114808000D01*
%TO.N,Net-(EN1-Pin_2)*%
X162052000Y-114554000D02*
X162052000Y-116586000D01*
X163702299Y-111444999D02*
X163702299Y-112903701D01*
X163702299Y-112903701D02*
X162052000Y-114554000D01*
%TO.N,Net-(EN1-Pin_3)*%
X158496000Y-114046000D02*
X159512000Y-115062000D01*
X159766000Y-109220000D02*
X160516001Y-109970001D01*
X160516001Y-109970001D02*
X162727300Y-109970001D01*
X159512000Y-115062000D02*
X159512000Y-116586000D01*
X158496000Y-109220000D02*
X159766000Y-109220000D01*
%TO.N,Net-(J3-CC1)*%
X152243000Y-91841000D02*
X155238000Y-91841000D01*
X155238000Y-91841000D02*
X155385000Y-91694000D01*
%TO.N,Net-(J3-CC2)*%
X155286000Y-94841000D02*
X155385000Y-94742000D01*
X152243000Y-94841000D02*
X155286000Y-94841000D01*
%TO.N,Net-(Q1-G)*%
X157119000Y-110470000D02*
X157226000Y-110363000D01*
X157226000Y-110363000D02*
X157333000Y-110470000D01*
X153704000Y-104394000D02*
X153704000Y-102804000D01*
X157333000Y-110470000D02*
X162727300Y-110470000D01*
%TO.N,Net-(U1-ILIM)*%
X167762099Y-111895000D02*
X167762099Y-114118000D01*
X166182099Y-110935000D02*
X166802099Y-110935000D01*
X166177300Y-110969999D02*
X166177300Y-110939799D01*
X166802099Y-110935000D02*
X167762099Y-111895000D01*
X166177300Y-110939799D02*
X166182099Y-110935000D01*
%TO.N,Net-(U1-TS-CTRL)*%
X169482000Y-112840000D02*
X169482000Y-113919000D01*
X169482000Y-112840000D02*
X169482000Y-114554000D01*
X168910000Y-112268000D02*
X169482000Y-112840000D01*
X169926000Y-115443000D02*
X169926000Y-116523000D01*
X169609000Y-114554000D02*
X169609000Y-115126000D01*
X166177300Y-110470000D02*
X167112000Y-110470000D01*
X169609000Y-115126000D02*
X169926000Y-115443000D01*
X167112000Y-110470000D02*
X169482000Y-112840000D01*
D36*
%TO.N,Net-(U1-AD)*%
X152243000Y-89891000D02*
X153899000Y-89891000D01*
X153551221Y-96291000D02*
X152243000Y-96291000D01*
D35*
X161410549Y-111628000D02*
X160650099Y-111628000D01*
X162727300Y-110969999D02*
X162068550Y-110969999D01*
X153899000Y-89891000D02*
X153924000Y-89916000D01*
D36*
X156083000Y-111628000D02*
X160650099Y-111628000D01*
D35*
X162068550Y-110969999D02*
X161410549Y-111628000D01*
D36*
X153551221Y-96291000D02*
X154015500Y-96755279D01*
D35*
%TO.N,Net-(U1-RECT)*%
X170498000Y-104991901D02*
X170543099Y-105037000D01*
X167623099Y-107970000D02*
X169286099Y-106307000D01*
X169794099Y-105037000D02*
X170543099Y-105037000D01*
X170498000Y-103505000D02*
X170498000Y-104991901D01*
X169286099Y-106307000D02*
X169286099Y-105545000D01*
X166177300Y-107970000D02*
X167623099Y-107970000D01*
X169286099Y-105545000D02*
X169794099Y-105037000D01*
%TO.N,Net-(R3-Pad1)*%
X173371000Y-114554000D02*
X171259000Y-114554000D01*
%TD*%
%TA.AperFunction,Conductor*%
%TO.N,GND*%
G36*
X150200844Y-87945866D02*
G01*
X150276199Y-88000615D01*
X150322772Y-88081280D01*
X150332508Y-88173914D01*
X150310843Y-88249148D01*
X150217540Y-88439359D01*
X150196402Y-88520998D01*
X150196404Y-88521000D01*
X150946889Y-88521000D01*
X150907390Y-88545457D01*
X150839799Y-88634962D01*
X150809105Y-88742840D01*
X150819454Y-88854521D01*
X150869448Y-88954922D01*
X150941931Y-89021000D01*
X150192529Y-89021000D01*
X150255687Y-89191531D01*
X150357886Y-89355495D01*
X150491007Y-89495538D01*
X150652029Y-89607613D01*
X150715745Y-89675556D01*
X150746318Y-89763540D01*
X150738461Y-89856352D01*
X150707067Y-89920639D01*
X150689622Y-89945352D01*
X150638946Y-90087941D01*
X150628618Y-90238921D01*
X150659408Y-90387086D01*
X150743193Y-90548783D01*
X150740784Y-90550031D01*
X150761741Y-90584852D01*
X150773159Y-90677294D01*
X150745990Y-90766388D01*
X150708389Y-90816323D01*
X150506108Y-91018604D01*
X150484086Y-91037917D01*
X150465550Y-91052140D01*
X150442389Y-91082324D01*
X150443876Y-91080364D01*
X150383860Y-91158602D01*
X150373301Y-91172361D01*
X150315313Y-91312356D01*
X150300500Y-91424875D01*
X150300500Y-91424880D01*
X150295535Y-91462593D01*
X150298584Y-91485754D01*
X150300500Y-91514991D01*
X150300500Y-94689595D01*
X150298584Y-94718831D01*
X150295533Y-94742000D01*
X150302764Y-94796913D01*
X150315312Y-94892238D01*
X150373301Y-95032232D01*
X150440317Y-95119569D01*
X150465549Y-95152451D01*
X150538965Y-95208785D01*
X150581190Y-95241186D01*
X150603219Y-95260505D01*
X150712800Y-95370086D01*
X150763530Y-95448204D01*
X150778101Y-95540201D01*
X150753993Y-95630172D01*
X150737410Y-95657654D01*
X150689621Y-95725354D01*
X150638946Y-95867941D01*
X150628618Y-96018921D01*
X150659408Y-96167086D01*
X150723915Y-96291579D01*
X150748637Y-96381383D01*
X150734694Y-96473478D01*
X150684499Y-96551940D01*
X150633738Y-96590487D01*
X150567499Y-96627252D01*
X150420894Y-96753107D01*
X150302628Y-96905895D01*
X150217540Y-97079359D01*
X150196402Y-97160998D01*
X150196404Y-97161000D01*
X150946889Y-97161000D01*
X150907390Y-97185457D01*
X150839799Y-97274962D01*
X150809105Y-97382840D01*
X150819454Y-97494521D01*
X150869448Y-97594922D01*
X150941931Y-97661000D01*
X150192529Y-97661000D01*
X150255687Y-97831531D01*
X150357886Y-97995495D01*
X150491007Y-98135538D01*
X150649586Y-98245913D01*
X150827135Y-98322105D01*
X151016395Y-98361000D01*
X151413000Y-98361000D01*
X151413000Y-97711000D01*
X151913000Y-97711000D01*
X151913000Y-98361000D01*
X152255493Y-98361000D01*
X152266823Y-98360425D01*
X152405222Y-98346351D01*
X152589570Y-98288511D01*
X152758499Y-98194748D01*
X152905105Y-98068892D01*
X153023370Y-97916106D01*
X153102028Y-97755749D01*
X153159538Y-97682479D01*
X153241878Y-97638935D01*
X153334810Y-97632647D01*
X153421056Y-97663947D01*
X153529578Y-97731141D01*
X153712109Y-97801854D01*
X153736521Y-97811311D01*
X153734825Y-97815686D01*
X153783374Y-97835872D01*
X153847399Y-97903523D01*
X153878374Y-97991366D01*
X153870941Y-98084214D01*
X153826386Y-98166011D01*
X153814643Y-98178698D01*
X151162417Y-100830924D01*
X151152567Y-100840196D01*
X151109816Y-100878070D01*
X151077366Y-100925081D01*
X151069354Y-100935970D01*
X151017353Y-101002348D01*
X151017303Y-101002309D01*
X150980914Y-101051969D01*
X150900060Y-101098213D01*
X150882016Y-101101904D01*
X150741116Y-101151207D01*
X150631849Y-101231849D01*
X150551207Y-101341116D01*
X150506354Y-101469299D01*
X150506353Y-101469301D01*
X150506354Y-101469301D01*
X150503500Y-101499734D01*
X150503500Y-102208266D01*
X150506070Y-102235676D01*
X150506354Y-102238700D01*
X150551207Y-102366883D01*
X150631849Y-102476150D01*
X150741116Y-102556792D01*
X150741117Y-102556792D01*
X150741118Y-102556793D01*
X150869301Y-102601646D01*
X150899734Y-102604500D01*
X150904974Y-102604500D01*
X152303026Y-102604500D01*
X152308266Y-102604500D01*
X152338699Y-102601646D01*
X152338699Y-102601645D01*
X152358585Y-102599781D01*
X152451104Y-102610555D01*
X152531242Y-102658028D01*
X152585143Y-102733993D01*
X152603500Y-102822802D01*
X152603500Y-103158266D01*
X152606070Y-103185676D01*
X152606354Y-103188700D01*
X152651207Y-103316883D01*
X152731848Y-103426148D01*
X152731849Y-103426148D01*
X152731850Y-103426150D01*
X152755264Y-103443430D01*
X152769740Y-103454114D01*
X152831546Y-103523799D01*
X152859666Y-103612597D01*
X152849237Y-103705156D01*
X152815481Y-103769333D01*
X152777136Y-103820109D01*
X152687463Y-104000194D01*
X152632411Y-104193684D01*
X152613849Y-104394000D01*
X152632411Y-104594315D01*
X152687463Y-104787805D01*
X152777136Y-104967890D01*
X152892247Y-105120323D01*
X152898369Y-105128429D01*
X152938188Y-105164729D01*
X153047040Y-105263960D01*
X153218075Y-105369861D01*
X153370831Y-105429039D01*
X153405666Y-105442534D01*
X153603414Y-105479500D01*
X153804586Y-105479500D01*
X154002334Y-105442534D01*
X154189922Y-105369862D01*
X154210190Y-105357313D01*
X154360959Y-105263960D01*
X154360959Y-105263959D01*
X154360962Y-105263958D01*
X154509631Y-105128429D01*
X154630864Y-104967890D01*
X154720535Y-104787808D01*
X154746089Y-104697996D01*
X154775588Y-104594315D01*
X154786318Y-104478517D01*
X154794150Y-104394000D01*
X154793465Y-104386602D01*
X154775588Y-104193684D01*
X154761452Y-104144000D01*
X155877099Y-104144000D01*
X156577099Y-104144000D01*
X156577099Y-103419000D01*
X156577098Y-103418999D01*
X156559476Y-103419000D01*
X156548119Y-103419579D01*
X156454492Y-103429143D01*
X156293616Y-103482452D01*
X156149367Y-103571426D01*
X156029525Y-103691268D01*
X155940551Y-103835517D01*
X155887242Y-103996392D01*
X155877679Y-104090005D01*
X155877099Y-104101392D01*
X155877099Y-104144000D01*
X154761452Y-104144000D01*
X154720536Y-104000194D01*
X154680928Y-103920652D01*
X154630864Y-103820110D01*
X154592517Y-103769330D01*
X154553068Y-103684957D01*
X154551347Y-103591829D01*
X154587653Y-103506052D01*
X154638256Y-103454116D01*
X154676150Y-103426150D01*
X154756793Y-103316882D01*
X154801646Y-103188699D01*
X154804500Y-103158266D01*
X154804500Y-102449734D01*
X154801646Y-102419301D01*
X154756793Y-102291118D01*
X154750929Y-102283172D01*
X154676150Y-102181849D01*
X154566881Y-102101206D01*
X154464635Y-102065428D01*
X154385035Y-102017058D01*
X154331992Y-101940492D01*
X154314675Y-101848972D01*
X154336081Y-101758320D01*
X154392508Y-101684213D01*
X154464633Y-101642571D01*
X154537515Y-101617068D01*
X154611494Y-101604500D01*
X155100065Y-101604500D01*
X155113592Y-101604909D01*
X155170606Y-101608358D01*
X155226805Y-101598059D01*
X155240171Y-101596024D01*
X155296872Y-101589140D01*
X155297846Y-101588770D01*
X155336900Y-101577884D01*
X155337932Y-101577695D01*
X155390043Y-101554240D01*
X155402505Y-101549078D01*
X155455930Y-101528818D01*
X155456791Y-101528223D01*
X155492111Y-101508303D01*
X155493057Y-101507878D01*
X155538032Y-101472641D01*
X155548921Y-101464630D01*
X155549913Y-101463945D01*
X155595929Y-101432183D01*
X155633811Y-101389420D01*
X155643054Y-101379601D01*
X156117610Y-100905045D01*
X156195726Y-100854317D01*
X156287723Y-100839746D01*
X156377694Y-100863854D01*
X156450081Y-100922471D01*
X156492367Y-101005464D01*
X156500000Y-101063439D01*
X156500000Y-101546565D01*
X156499591Y-101560093D01*
X156496141Y-101617105D01*
X156506438Y-101673293D01*
X156508473Y-101686664D01*
X156515359Y-101743371D01*
X156515729Y-101744345D01*
X156526615Y-101783394D01*
X156526805Y-101784433D01*
X156550253Y-101836532D01*
X156555430Y-101849031D01*
X156575683Y-101902434D01*
X156576277Y-101903294D01*
X156596188Y-101938596D01*
X156596619Y-101939553D01*
X156631853Y-101984527D01*
X156639870Y-101995422D01*
X156672317Y-102042429D01*
X156715068Y-102080303D01*
X156724920Y-102089577D01*
X157610991Y-102975648D01*
X157661721Y-103053766D01*
X157676599Y-103134040D01*
X157676599Y-103276966D01*
X157657233Y-103368075D01*
X157602484Y-103443430D01*
X157521819Y-103490003D01*
X157429185Y-103499739D01*
X157382141Y-103489596D01*
X157199706Y-103429143D01*
X157106093Y-103419580D01*
X157094707Y-103419000D01*
X157077099Y-103419000D01*
X157077099Y-104420000D01*
X157057733Y-104511109D01*
X157002984Y-104586464D01*
X156922319Y-104633037D01*
X156853099Y-104644000D01*
X155877100Y-104644000D01*
X155877100Y-104686604D01*
X155877680Y-104697996D01*
X155887242Y-104791606D01*
X155940550Y-104952480D01*
X155970419Y-105000904D01*
X156001767Y-105088615D01*
X155994729Y-105181493D01*
X155950523Y-105263479D01*
X155876792Y-105320397D01*
X155786285Y-105342405D01*
X155779769Y-105342500D01*
X155754397Y-105342500D01*
X155725161Y-105340584D01*
X155722846Y-105340279D01*
X155701999Y-105337534D01*
X155664291Y-105342499D01*
X155664281Y-105342500D01*
X155664280Y-105342500D01*
X155551764Y-105357313D01*
X155551762Y-105357313D01*
X155551760Y-105357314D01*
X155521467Y-105369862D01*
X155411763Y-105415301D01*
X155321751Y-105484372D01*
X155321937Y-105484230D01*
X155291546Y-105507550D01*
X155277323Y-105526086D01*
X155258010Y-105548108D01*
X154443108Y-106363010D01*
X154421086Y-106382323D01*
X154402550Y-106396546D01*
X154381667Y-106423761D01*
X154381659Y-106423771D01*
X154379390Y-106426729D01*
X154379388Y-106426732D01*
X154376682Y-106430257D01*
X154376679Y-106430261D01*
X154363629Y-106447270D01*
X154310301Y-106516767D01*
X154289602Y-106566740D01*
X154236843Y-106643502D01*
X154200579Y-106671462D01*
X154156039Y-106699040D01*
X154007368Y-106834571D01*
X153886136Y-106995109D01*
X153796463Y-107175194D01*
X153741411Y-107368684D01*
X153722849Y-107569000D01*
X153741411Y-107769315D01*
X153796463Y-107962805D01*
X153886136Y-108142890D01*
X154007368Y-108303428D01*
X154156040Y-108438960D01*
X154327075Y-108544861D01*
X154327078Y-108544862D01*
X154514666Y-108617534D01*
X154712414Y-108654500D01*
X154913586Y-108654500D01*
X155111334Y-108617534D01*
X155298922Y-108544862D01*
X155388120Y-108489633D01*
X155469959Y-108438960D01*
X155469959Y-108438959D01*
X155469962Y-108438958D01*
X155618631Y-108303429D01*
X155738693Y-108144439D01*
X155809050Y-108083406D01*
X155898152Y-108056265D01*
X155990591Y-108067711D01*
X156070382Y-108115765D01*
X156075809Y-108121011D01*
X156182446Y-108227648D01*
X156322829Y-108312512D01*
X156322831Y-108312513D01*
X156479439Y-108361315D01*
X156540858Y-108366896D01*
X156547505Y-108367500D01*
X156552575Y-108367500D01*
X157101623Y-108367500D01*
X157106693Y-108367500D01*
X157174756Y-108361315D01*
X157308305Y-108319698D01*
X157401050Y-108311082D01*
X157489282Y-108340933D01*
X157557744Y-108404090D01*
X157594599Y-108489633D01*
X157593474Y-108582771D01*
X157575463Y-108633402D01*
X157479464Y-108826192D01*
X157424411Y-109019684D01*
X157419363Y-109074169D01*
X157391673Y-109163102D01*
X157330205Y-109233084D01*
X157245586Y-109272015D01*
X157196319Y-109277500D01*
X157125414Y-109277500D01*
X156927666Y-109314465D01*
X156740075Y-109387138D01*
X156569040Y-109493039D01*
X156420368Y-109628571D01*
X156299136Y-109789109D01*
X156209463Y-109969194D01*
X156154411Y-110162685D01*
X156137235Y-110348041D01*
X156109545Y-110436975D01*
X156048076Y-110506957D01*
X155963458Y-110545887D01*
X155955353Y-110547558D01*
X155784665Y-110579466D01*
X155597075Y-110652138D01*
X155426040Y-110758039D01*
X155277368Y-110893571D01*
X155156136Y-111054109D01*
X155066463Y-111234194D01*
X155011411Y-111427684D01*
X154992849Y-111627999D01*
X155011411Y-111828315D01*
X155066463Y-112021805D01*
X155156136Y-112201890D01*
X155266371Y-112347866D01*
X155277369Y-112362429D01*
X155306130Y-112388648D01*
X155426040Y-112497960D01*
X155597075Y-112603861D01*
X155597078Y-112603862D01*
X155784666Y-112676534D01*
X155982414Y-112713500D01*
X156183586Y-112713500D01*
X156381334Y-112676534D01*
X156568922Y-112603862D01*
X156614060Y-112575914D01*
X156739959Y-112497960D01*
X156739959Y-112497959D01*
X156739962Y-112497958D01*
X156861719Y-112386961D01*
X156942098Y-112339893D01*
X157012628Y-112328500D01*
X159533065Y-112328500D01*
X159624174Y-112347866D01*
X159699529Y-112402615D01*
X159746102Y-112483280D01*
X159755838Y-112575914D01*
X159745695Y-112622958D01*
X159685242Y-112805392D01*
X159675679Y-112899005D01*
X159675099Y-112910392D01*
X159675099Y-112928000D01*
X161625098Y-112928000D01*
X161625098Y-112910395D01*
X161624517Y-112899003D01*
X161614955Y-112805393D01*
X161561647Y-112644519D01*
X161475618Y-112505046D01*
X161444270Y-112417335D01*
X161451308Y-112324457D01*
X161495514Y-112242471D01*
X161569245Y-112185553D01*
X161580538Y-112180504D01*
X161700782Y-112130698D01*
X161707262Y-112125725D01*
X161728628Y-112109332D01*
X161820251Y-112039026D01*
X161820253Y-112039023D01*
X161821000Y-112038451D01*
X161835220Y-112019917D01*
X161854540Y-111997888D01*
X162226323Y-111626107D01*
X162304440Y-111575377D01*
X162384714Y-111560499D01*
X162887799Y-111560499D01*
X162978908Y-111579865D01*
X163054263Y-111634614D01*
X163100836Y-111715279D01*
X163111799Y-111784499D01*
X163111799Y-111924265D01*
X163114653Y-111954698D01*
X163114923Y-111957576D01*
X163126799Y-112027469D01*
X163126799Y-112572536D01*
X163107433Y-112663645D01*
X163061191Y-112730928D01*
X161972752Y-113819366D01*
X161894634Y-113870096D01*
X161802637Y-113884667D01*
X161712666Y-113860559D01*
X161640279Y-113801942D01*
X161597993Y-113718949D01*
X161593118Y-113625933D01*
X161601730Y-113590514D01*
X161614955Y-113550603D01*
X161624518Y-113456994D01*
X161625099Y-113445607D01*
X161625099Y-113428000D01*
X160900099Y-113428000D01*
X160900099Y-114127999D01*
X160942704Y-114127999D01*
X160954095Y-114127418D01*
X161047705Y-114117856D01*
X161233436Y-114056312D01*
X161234872Y-114060647D01*
X161274982Y-114046290D01*
X161367864Y-114053280D01*
X161449872Y-114097445D01*
X161506827Y-114171147D01*
X161528881Y-114261643D01*
X161512220Y-114353285D01*
X161511929Y-114353991D01*
X161493887Y-114397549D01*
X161491313Y-114403764D01*
X161486568Y-114439808D01*
X161476500Y-114516281D01*
X161476500Y-114516286D01*
X161471535Y-114553999D01*
X161474584Y-114577160D01*
X161476500Y-114606397D01*
X161476500Y-115284744D01*
X161457134Y-115375853D01*
X161402385Y-115451208D01*
X161380981Y-115468234D01*
X161212862Y-115585951D01*
X161051951Y-115746862D01*
X160965490Y-115870343D01*
X160897369Y-115933867D01*
X160809299Y-115964192D01*
X160716509Y-115956074D01*
X160635043Y-115910917D01*
X160598510Y-115870343D01*
X160512048Y-115746862D01*
X160351137Y-115585951D01*
X160183019Y-115468234D01*
X160119495Y-115400113D01*
X160089170Y-115312043D01*
X160087500Y-115284744D01*
X160087500Y-115114397D01*
X160089416Y-115085160D01*
X160092465Y-115062000D01*
X160087500Y-115024285D01*
X160087500Y-115024280D01*
X160072687Y-114911764D01*
X160014698Y-114771767D01*
X160013557Y-114770280D01*
X159974872Y-114719864D01*
X159957627Y-114697391D01*
X159945612Y-114681732D01*
X159945609Y-114681729D01*
X159927219Y-114657762D01*
X159922452Y-114651550D01*
X159922451Y-114651549D01*
X159903910Y-114637322D01*
X159881889Y-114618009D01*
X159637075Y-114373195D01*
X159586345Y-114295077D01*
X159571774Y-114203080D01*
X159572423Y-114194135D01*
X159578552Y-114127999D01*
X159578728Y-114126093D01*
X159606417Y-114037160D01*
X159667886Y-113967178D01*
X159752504Y-113928247D01*
X159845642Y-113927100D01*
X159931194Y-113963934D01*
X159938531Y-113970123D01*
X160091616Y-114064547D01*
X160252491Y-114117856D01*
X160346106Y-114127419D01*
X160357489Y-114127999D01*
X160400098Y-114127998D01*
X160400099Y-114127998D01*
X160400099Y-113428000D01*
X159664663Y-113428000D01*
X159616310Y-113459400D01*
X159524312Y-113473970D01*
X159434342Y-113449861D01*
X159361956Y-113391243D01*
X159357329Y-113385328D01*
X159301631Y-113311571D01*
X159152962Y-113176042D01*
X159152959Y-113176039D01*
X158981924Y-113070138D01*
X158794333Y-112997465D01*
X158596586Y-112960500D01*
X158395414Y-112960500D01*
X158197666Y-112997465D01*
X158010075Y-113070138D01*
X157839040Y-113176039D01*
X157690368Y-113311571D01*
X157569136Y-113472109D01*
X157479463Y-113652194D01*
X157424411Y-113845684D01*
X157405849Y-114045999D01*
X157424411Y-114246315D01*
X157479463Y-114439805D01*
X157569136Y-114619890D01*
X157690368Y-114780428D01*
X157839040Y-114915960D01*
X158010075Y-115021861D01*
X158197666Y-115094534D01*
X158395414Y-115131500D01*
X158611450Y-115131500D01*
X158702559Y-115150866D01*
X158777914Y-115205615D01*
X158824487Y-115286280D01*
X158834223Y-115378914D01*
X158805440Y-115467500D01*
X158743114Y-115536720D01*
X158739931Y-115538990D01*
X158672862Y-115585951D01*
X158511951Y-115746862D01*
X158381431Y-115933265D01*
X158285260Y-116139504D01*
X158226365Y-116359304D01*
X158206532Y-116586000D01*
X158226365Y-116812695D01*
X158285260Y-117032495D01*
X158381431Y-117238734D01*
X158511951Y-117425137D01*
X158672862Y-117586048D01*
X158859265Y-117716568D01*
X158948438Y-117758150D01*
X159065504Y-117812739D01*
X159285308Y-117871635D01*
X159512000Y-117891468D01*
X159738692Y-117871635D01*
X159958496Y-117812739D01*
X160164734Y-117716568D01*
X160351139Y-117586047D01*
X160512047Y-117425139D01*
X160598509Y-117301656D01*
X160666630Y-117238132D01*
X160754700Y-117207807D01*
X160847490Y-117215924D01*
X160928956Y-117261081D01*
X160965491Y-117301657D01*
X161051953Y-117425139D01*
X161212862Y-117586048D01*
X161399265Y-117716568D01*
X161488438Y-117758150D01*
X161605504Y-117812739D01*
X161825308Y-117871635D01*
X162052000Y-117891468D01*
X162278692Y-117871635D01*
X162498496Y-117812739D01*
X162704734Y-117716568D01*
X162891139Y-117586047D01*
X162954696Y-117522489D01*
X163032811Y-117471761D01*
X163124809Y-117457189D01*
X163214780Y-117481296D01*
X163287167Y-117539913D01*
X163324517Y-117606900D01*
X163339207Y-117648883D01*
X163419849Y-117758150D01*
X163529116Y-117838792D01*
X163529117Y-117838792D01*
X163529118Y-117838793D01*
X163657301Y-117883646D01*
X163687734Y-117886500D01*
X163692974Y-117886500D01*
X165491026Y-117886500D01*
X165496266Y-117886500D01*
X165526699Y-117883646D01*
X165654882Y-117838793D01*
X165764150Y-117758150D01*
X165844793Y-117648882D01*
X165889646Y-117520699D01*
X165892500Y-117490266D01*
X165892500Y-115681734D01*
X165889646Y-115651301D01*
X165844793Y-115523118D01*
X165844792Y-115523116D01*
X165764150Y-115413849D01*
X165654883Y-115333207D01*
X165526700Y-115288354D01*
X165523676Y-115288070D01*
X165496266Y-115285500D01*
X165491026Y-115285500D01*
X165469164Y-115285500D01*
X165378055Y-115266134D01*
X165302700Y-115211385D01*
X165256127Y-115130720D01*
X165246391Y-115038086D01*
X165275174Y-114949500D01*
X165310771Y-114903109D01*
X165494015Y-114719864D01*
X165572196Y-114641682D01*
X165594218Y-114622370D01*
X165612752Y-114608150D01*
X165613322Y-114607406D01*
X165613326Y-114607403D01*
X165636532Y-114577160D01*
X165705000Y-114487932D01*
X165762988Y-114347934D01*
X165776367Y-114246315D01*
X165777799Y-114235438D01*
X165777801Y-114235413D01*
X165780711Y-114213306D01*
X165782766Y-114197699D01*
X165779717Y-114174538D01*
X165777801Y-114145301D01*
X165777801Y-112027469D01*
X165789676Y-111957576D01*
X165789945Y-111954702D01*
X165789947Y-111954698D01*
X165792801Y-111924265D01*
X165792801Y-111784498D01*
X165812167Y-111693390D01*
X165866916Y-111618035D01*
X165947581Y-111571462D01*
X166016801Y-111560499D01*
X166520934Y-111560499D01*
X166612043Y-111579865D01*
X166679326Y-111626107D01*
X167120991Y-112067772D01*
X167171721Y-112145890D01*
X167186599Y-112226164D01*
X167186599Y-113212204D01*
X167167233Y-113303313D01*
X167112484Y-113378668D01*
X167089879Y-113395273D01*
X166969018Y-113516134D01*
X166885355Y-113657602D01*
X166839499Y-113815435D01*
X166836945Y-113847895D01*
X166836943Y-113847923D01*
X166836599Y-113852306D01*
X166836599Y-114383694D01*
X166836943Y-114388077D01*
X166836945Y-114388104D01*
X166839499Y-114420564D01*
X166859072Y-114487932D01*
X166885355Y-114578398D01*
X166969017Y-114719864D01*
X166969018Y-114719865D01*
X167033761Y-114784608D01*
X167084491Y-114862726D01*
X167099062Y-114954723D01*
X167074954Y-115044694D01*
X167033761Y-115101392D01*
X166969018Y-115166134D01*
X166885355Y-115307602D01*
X166839499Y-115465435D01*
X166836945Y-115497895D01*
X166836943Y-115497923D01*
X166836599Y-115502306D01*
X166836599Y-116033694D01*
X166836943Y-116038077D01*
X166836945Y-116038104D01*
X166839499Y-116070564D01*
X166869454Y-116173669D01*
X166885355Y-116228398D01*
X166928266Y-116300957D01*
X166969018Y-116369865D01*
X166993408Y-116394255D01*
X167044138Y-116472373D01*
X167058709Y-116564370D01*
X167034601Y-116654341D01*
X166985928Y-116718181D01*
X166961371Y-116740568D01*
X166840136Y-116901109D01*
X166750463Y-117081194D01*
X166695411Y-117274684D01*
X166676849Y-117474999D01*
X166695411Y-117675315D01*
X166750463Y-117868805D01*
X166840136Y-118048890D01*
X166961368Y-118209428D01*
X167110040Y-118344960D01*
X167281075Y-118450861D01*
X167281078Y-118450862D01*
X167468666Y-118523534D01*
X167666414Y-118560500D01*
X167867586Y-118560500D01*
X168065334Y-118523534D01*
X168252922Y-118450862D01*
X168297921Y-118423000D01*
X168380601Y-118371806D01*
X168423962Y-118344958D01*
X168572631Y-118209429D01*
X168572635Y-118209422D01*
X168576092Y-118206272D01*
X168656469Y-118159204D01*
X168749041Y-118148897D01*
X168837802Y-118177134D01*
X168907405Y-118239032D01*
X168945814Y-118323888D01*
X168951000Y-118371806D01*
X168951000Y-118424498D01*
X168951460Y-118434628D01*
X168957408Y-118500101D01*
X169007982Y-118662400D01*
X169095925Y-118807874D01*
X169216125Y-118928074D01*
X169361602Y-119016019D01*
X169523892Y-119066590D01*
X169589376Y-119072541D01*
X169599495Y-119072999D01*
X169675999Y-119072999D01*
X169676000Y-119072998D01*
X169676000Y-118423000D01*
X170176000Y-118423000D01*
X170176000Y-119072999D01*
X170252501Y-119072999D01*
X170262628Y-119072539D01*
X170328101Y-119066591D01*
X170490400Y-119016017D01*
X170635874Y-118928074D01*
X170756074Y-118807874D01*
X170844019Y-118662397D01*
X170857853Y-118618000D01*
X172892550Y-118618000D01*
X172912316Y-118869146D01*
X172971126Y-119114111D01*
X173067533Y-119346859D01*
X173199164Y-119561659D01*
X173362775Y-119753224D01*
X173526386Y-119892961D01*
X173554341Y-119916836D01*
X173637510Y-119967802D01*
X173769140Y-120048466D01*
X174001888Y-120144873D01*
X174124370Y-120174277D01*
X174246852Y-120203683D01*
X174498000Y-120223449D01*
X174749148Y-120203683D01*
X174994111Y-120144873D01*
X175226859Y-120048466D01*
X175441659Y-119916836D01*
X175633224Y-119753224D01*
X175796836Y-119561659D01*
X175928466Y-119346859D01*
X176024873Y-119114111D01*
X176083683Y-118869148D01*
X176103449Y-118618000D01*
X176083683Y-118366852D01*
X176038136Y-118177134D01*
X176024873Y-118121888D01*
X175928466Y-117889140D01*
X175802509Y-117683599D01*
X175796836Y-117674341D01*
X175667144Y-117522491D01*
X175633224Y-117482775D01*
X175441659Y-117319164D01*
X175226859Y-117187533D01*
X174994111Y-117091126D01*
X174749146Y-117032316D01*
X174498000Y-117012550D01*
X174246853Y-117032316D01*
X174001888Y-117091126D01*
X173769140Y-117187533D01*
X173554340Y-117319164D01*
X173362775Y-117482775D01*
X173199164Y-117674340D01*
X173067533Y-117889140D01*
X172971126Y-118121888D01*
X172912316Y-118366853D01*
X172892550Y-118618000D01*
X170857853Y-118618000D01*
X170894590Y-118500107D01*
X170900541Y-118434624D01*
X170901000Y-118424503D01*
X170901000Y-118423000D01*
X170176000Y-118423000D01*
X169676000Y-118423000D01*
X169676000Y-118147000D01*
X169695366Y-118055891D01*
X169750115Y-117980536D01*
X169830780Y-117933963D01*
X169900000Y-117923000D01*
X170900999Y-117923000D01*
X170900999Y-117921499D01*
X170900539Y-117911371D01*
X170894591Y-117845898D01*
X170844017Y-117683599D01*
X170756074Y-117538125D01*
X170689339Y-117471390D01*
X170638609Y-117393272D01*
X170624038Y-117301275D01*
X170648146Y-117211304D01*
X170689338Y-117154607D01*
X170719081Y-117124865D01*
X170802744Y-116983398D01*
X170848598Y-116825569D01*
X170848598Y-116825566D01*
X170848599Y-116825564D01*
X170851153Y-116793104D01*
X170851153Y-116793102D01*
X170851500Y-116788694D01*
X170851500Y-116257306D01*
X170851153Y-116252895D01*
X170848599Y-116220435D01*
X170825086Y-116139504D01*
X170802744Y-116062602D01*
X170719081Y-115921135D01*
X170612209Y-115814263D01*
X170561479Y-115736145D01*
X170546908Y-115644148D01*
X170571016Y-115554177D01*
X170629633Y-115481790D01*
X170712626Y-115439504D01*
X170805642Y-115434629D01*
X170833088Y-115440763D01*
X170956431Y-115476598D01*
X170956435Y-115476599D01*
X170988895Y-115479153D01*
X170988898Y-115479153D01*
X170993306Y-115479500D01*
X170997713Y-115479500D01*
X171520287Y-115479500D01*
X171524694Y-115479500D01*
X171529102Y-115479153D01*
X171529104Y-115479153D01*
X171561564Y-115476599D01*
X171561566Y-115476598D01*
X171561569Y-115476598D01*
X171719398Y-115430744D01*
X171860865Y-115347081D01*
X171977081Y-115230865D01*
X171977081Y-115230864D01*
X171997091Y-115210855D01*
X171997724Y-115211488D01*
X172035039Y-115170910D01*
X172120523Y-115133919D01*
X172164796Y-115129500D01*
X172249759Y-115129500D01*
X172340868Y-115148866D01*
X172416223Y-115203615D01*
X172462796Y-115284280D01*
X172472781Y-115332586D01*
X172473354Y-115338700D01*
X172518207Y-115466883D01*
X172598849Y-115576150D01*
X172708116Y-115656792D01*
X172708117Y-115656792D01*
X172708118Y-115656793D01*
X172836301Y-115701646D01*
X172866734Y-115704500D01*
X172871974Y-115704500D01*
X173870026Y-115704500D01*
X173875266Y-115704500D01*
X173905699Y-115701646D01*
X174033882Y-115656793D01*
X174143150Y-115576150D01*
X174160010Y-115553304D01*
X174229694Y-115491498D01*
X174318492Y-115463377D01*
X174411051Y-115473806D01*
X174491366Y-115520979D01*
X174519562Y-115552080D01*
X174563810Y-115611189D01*
X174678912Y-115697353D01*
X174813625Y-115747598D01*
X174867201Y-115753358D01*
X174879166Y-115754000D01*
X175121000Y-115754000D01*
X175121000Y-114804000D01*
X175621000Y-114804000D01*
X175621000Y-115754000D01*
X175862834Y-115754000D01*
X175874798Y-115753358D01*
X175928374Y-115747598D01*
X176063087Y-115697353D01*
X176178189Y-115611189D01*
X176264353Y-115496087D01*
X176314598Y-115361374D01*
X176320358Y-115307798D01*
X176321000Y-115295833D01*
X176321000Y-114804000D01*
X175621000Y-114804000D01*
X175121000Y-114804000D01*
X175121000Y-113354000D01*
X175621000Y-113354000D01*
X175621000Y-114304000D01*
X176321000Y-114304000D01*
X176321000Y-113812166D01*
X176320358Y-113800201D01*
X176314598Y-113746625D01*
X176264353Y-113611912D01*
X176178189Y-113496810D01*
X176063087Y-113410646D01*
X175928374Y-113360401D01*
X175874798Y-113354641D01*
X175862834Y-113354000D01*
X175621000Y-113354000D01*
X175121000Y-113354000D01*
X174879166Y-113354000D01*
X174867201Y-113354641D01*
X174813625Y-113360401D01*
X174678912Y-113410646D01*
X174563809Y-113496811D01*
X174519561Y-113555920D01*
X174449458Y-113617250D01*
X174360470Y-113644765D01*
X174267984Y-113633706D01*
X174187993Y-113585986D01*
X174160011Y-113554696D01*
X174143149Y-113531848D01*
X174033883Y-113451207D01*
X173905700Y-113406354D01*
X173902676Y-113406070D01*
X173875266Y-113403500D01*
X172866734Y-113403500D01*
X172846053Y-113405439D01*
X172836297Y-113406354D01*
X172758517Y-113433571D01*
X172666124Y-113445383D01*
X172576915Y-113418595D01*
X172506315Y-113357837D01*
X172466530Y-113273617D01*
X172464440Y-113180496D01*
X172469086Y-113160841D01*
X172521588Y-112976315D01*
X172540150Y-112776000D01*
X172535973Y-112730928D01*
X172521588Y-112575684D01*
X172466536Y-112382195D01*
X172463317Y-112375730D01*
X172440039Y-112285542D01*
X172455456Y-112193682D01*
X172506903Y-112116035D01*
X172585484Y-112066026D01*
X172597191Y-112062020D01*
X172632497Y-112051018D01*
X172777973Y-111963074D01*
X172898173Y-111842874D01*
X172986118Y-111697397D01*
X173036689Y-111535107D01*
X173042640Y-111469624D01*
X173043099Y-111459503D01*
X173043099Y-111383000D01*
X172117099Y-111383000D01*
X172025990Y-111363634D01*
X171950635Y-111308885D01*
X171904062Y-111228220D01*
X171893099Y-111159000D01*
X171893099Y-111107000D01*
X171912465Y-111015891D01*
X171967214Y-110940536D01*
X172047879Y-110893963D01*
X172117099Y-110883000D01*
X173043098Y-110883000D01*
X173043098Y-110823677D01*
X173062464Y-110732568D01*
X173117213Y-110657213D01*
X173197878Y-110610640D01*
X173290512Y-110600904D01*
X173348011Y-110614801D01*
X173437666Y-110649534D01*
X173635414Y-110686500D01*
X173836586Y-110686500D01*
X174034334Y-110649534D01*
X174221922Y-110576862D01*
X174269250Y-110547558D01*
X174392959Y-110470960D01*
X174392959Y-110470959D01*
X174392962Y-110470958D01*
X174541631Y-110335429D01*
X174662864Y-110174890D01*
X174752535Y-109994808D01*
X174807588Y-109801315D01*
X174826150Y-109601000D01*
X174807588Y-109400685D01*
X174783057Y-109314465D01*
X174752536Y-109207194D01*
X174751807Y-109205732D01*
X174662864Y-109027110D01*
X174622747Y-108973987D01*
X174583298Y-108889613D01*
X174581577Y-108796485D01*
X174617883Y-108710707D01*
X174622729Y-108704037D01*
X174662864Y-108650890D01*
X174752535Y-108470808D01*
X174761597Y-108438960D01*
X174807588Y-108277315D01*
X174826150Y-108077000D01*
X174807588Y-107876684D01*
X174752536Y-107683194D01*
X174751807Y-107681731D01*
X174662864Y-107503110D01*
X174622747Y-107449987D01*
X174583298Y-107365613D01*
X174581577Y-107272485D01*
X174617883Y-107186707D01*
X174622729Y-107180037D01*
X174662864Y-107126890D01*
X174752535Y-106946808D01*
X174764323Y-106905379D01*
X174807588Y-106753315D01*
X174826150Y-106552999D01*
X174807588Y-106352684D01*
X174752536Y-106159194D01*
X174728265Y-106110452D01*
X174662864Y-105979110D01*
X174541631Y-105818571D01*
X174392962Y-105683042D01*
X174392959Y-105683039D01*
X174221924Y-105577138D01*
X174034333Y-105504465D01*
X173836586Y-105467500D01*
X173635414Y-105467500D01*
X173437666Y-105504465D01*
X173348017Y-105539196D01*
X173256064Y-105554050D01*
X173166020Y-105530219D01*
X173093453Y-105471825D01*
X173050911Y-105388963D01*
X173043099Y-105330322D01*
X173043099Y-105287000D01*
X172067099Y-105287000D01*
X171975990Y-105267634D01*
X171900635Y-105212885D01*
X171854062Y-105132220D01*
X171843099Y-105063000D01*
X171843099Y-105011000D01*
X171862465Y-104919891D01*
X171917214Y-104844536D01*
X171997879Y-104797963D01*
X172067099Y-104787000D01*
X173043098Y-104787000D01*
X173043098Y-104744395D01*
X173042517Y-104733003D01*
X173032955Y-104639393D01*
X172979646Y-104478517D01*
X172903135Y-104354474D01*
X172871787Y-104266764D01*
X172878825Y-104173885D01*
X172900977Y-104122858D01*
X172949744Y-104040398D01*
X172995598Y-103882569D01*
X172995598Y-103882566D01*
X172995599Y-103882564D01*
X172998153Y-103850104D01*
X172998153Y-103850102D01*
X172998500Y-103845694D01*
X172998500Y-103164306D01*
X172998025Y-103158266D01*
X172995599Y-103127435D01*
X172986591Y-103096429D01*
X172949744Y-102969602D01*
X172866081Y-102828135D01*
X172866080Y-102828134D01*
X172853092Y-102806172D01*
X172823383Y-102717892D01*
X172832149Y-102625161D01*
X172872742Y-102550046D01*
X172962685Y-102440450D01*
X173060232Y-102257954D01*
X173120300Y-102059934D01*
X173140583Y-101854000D01*
X173120300Y-101648066D01*
X173060232Y-101450046D01*
X172962685Y-101267550D01*
X172831410Y-101107590D01*
X172671450Y-100976315D01*
X172488954Y-100878768D01*
X172290934Y-100818700D01*
X172290932Y-100818699D01*
X172290930Y-100818699D01*
X172085000Y-100798416D01*
X171879069Y-100818699D01*
X171879065Y-100818700D01*
X171879066Y-100818700D01*
X171681046Y-100878768D01*
X171681044Y-100878768D01*
X171681044Y-100878769D01*
X171498553Y-100976313D01*
X171498551Y-100976314D01*
X171498550Y-100976315D01*
X171338590Y-101107590D01*
X171214274Y-101259071D01*
X171207313Y-101267553D01*
X171119316Y-101432183D01*
X171109768Y-101450046D01*
X171086051Y-101528232D01*
X171049699Y-101648069D01*
X171029416Y-101854000D01*
X171049699Y-102059930D01*
X171049699Y-102059932D01*
X171049700Y-102059934D01*
X171109768Y-102257954D01*
X171121177Y-102279300D01*
X171147047Y-102368776D01*
X171134285Y-102461042D01*
X171085099Y-102540141D01*
X171007993Y-102592396D01*
X170916300Y-102608771D01*
X170861134Y-102599997D01*
X170800567Y-102582401D01*
X170768104Y-102579846D01*
X170768077Y-102579844D01*
X170763694Y-102579500D01*
X170232306Y-102579500D01*
X170227923Y-102579844D01*
X170227895Y-102579846D01*
X170195435Y-102582400D01*
X170037602Y-102628256D01*
X169896134Y-102711919D01*
X169779919Y-102828134D01*
X169696256Y-102969602D01*
X169650400Y-103127435D01*
X169647846Y-103159895D01*
X169647844Y-103159923D01*
X169647500Y-103164306D01*
X169647500Y-103845694D01*
X169647844Y-103850077D01*
X169647846Y-103850104D01*
X169650400Y-103882564D01*
X169696256Y-104040399D01*
X169759047Y-104146573D01*
X169788756Y-104234852D01*
X169779990Y-104327583D01*
X169734264Y-104408732D01*
X169659486Y-104464266D01*
X169598264Y-104481878D01*
X169552794Y-104514014D01*
X169550095Y-104515153D01*
X169503866Y-104534301D01*
X169444244Y-104580051D01*
X169413832Y-104603387D01*
X169413794Y-104603415D01*
X169383645Y-104626550D01*
X169369422Y-104645086D01*
X169350109Y-104667108D01*
X168916207Y-105101010D01*
X168894185Y-105120323D01*
X168875649Y-105134546D01*
X168852488Y-105164730D01*
X168853975Y-105162770D01*
X168825759Y-105199565D01*
X168783399Y-105254769D01*
X168719753Y-105408423D01*
X168666995Y-105485186D01*
X168587576Y-105533853D01*
X168495229Y-105546010D01*
X168405920Y-105519555D01*
X168361901Y-105488242D01*
X168296962Y-105429042D01*
X168296959Y-105429040D01*
X168296958Y-105429039D01*
X168125924Y-105323138D01*
X167938333Y-105250465D01*
X167740586Y-105213500D01*
X167539414Y-105213500D01*
X167341666Y-105250465D01*
X167154075Y-105323138D01*
X166983040Y-105429039D01*
X166834368Y-105564571D01*
X166713136Y-105725109D01*
X166623463Y-105905194D01*
X166568411Y-106098684D01*
X166549849Y-106298999D01*
X166568411Y-106499315D01*
X166595409Y-106594202D01*
X166601715Y-106687132D01*
X166569678Y-106774594D01*
X166504837Y-106841463D01*
X166418403Y-106876178D01*
X166379960Y-106879501D01*
X166066301Y-106879501D01*
X165975192Y-106860135D01*
X165899837Y-106805386D01*
X165853264Y-106724721D01*
X165842301Y-106655501D01*
X165842301Y-106528167D01*
X165841659Y-106516202D01*
X165835899Y-106462626D01*
X165785654Y-106327913D01*
X165699490Y-106212811D01*
X165584388Y-106126647D01*
X165449675Y-106076402D01*
X165396099Y-106070642D01*
X165384135Y-106070001D01*
X165020467Y-106070001D01*
X165008502Y-106070642D01*
X164954924Y-106076402D01*
X164877237Y-106105378D01*
X164798959Y-106119501D01*
X164688300Y-106119501D01*
X164651207Y-106115321D01*
X164603793Y-106118875D01*
X164587053Y-106119501D01*
X164578533Y-106119501D01*
X164570090Y-106120773D01*
X164553462Y-106122646D01*
X164477260Y-106128358D01*
X164477224Y-106127882D01*
X164434689Y-106134942D01*
X164378736Y-106125217D01*
X164355544Y-106118063D01*
X164331207Y-106115321D01*
X164283793Y-106118875D01*
X164267053Y-106119501D01*
X164153300Y-106119501D01*
X164116209Y-106115321D01*
X164113412Y-106115531D01*
X164021111Y-106103027D01*
X164018395Y-106102034D01*
X163949673Y-106076402D01*
X163896097Y-106070642D01*
X163884133Y-106070001D01*
X163642625Y-106070001D01*
X163551516Y-106050635D01*
X163476161Y-105995886D01*
X163429588Y-105915221D01*
X163419852Y-105822587D01*
X163428768Y-105779360D01*
X163467315Y-105655659D01*
X163473041Y-105592644D01*
X163473500Y-105587594D01*
X163473500Y-104978406D01*
X163467315Y-104910343D01*
X163467315Y-104910340D01*
X163418513Y-104753732D01*
X163385181Y-104698594D01*
X163335104Y-104615756D01*
X163304544Y-104527770D01*
X163302800Y-104499874D01*
X163302800Y-104199884D01*
X163322166Y-104108775D01*
X163376915Y-104033420D01*
X163457580Y-103986847D01*
X163550214Y-103977111D01*
X163638800Y-104005894D01*
X163673424Y-104032462D01*
X163680344Y-104036645D01*
X163680347Y-104036648D01*
X163820730Y-104121512D01*
X163820732Y-104121513D01*
X163977340Y-104170315D01*
X164038759Y-104175896D01*
X164045406Y-104176500D01*
X164050476Y-104176500D01*
X164599524Y-104176500D01*
X164604594Y-104176500D01*
X164633371Y-104173885D01*
X164672659Y-104170315D01*
X164829267Y-104121513D01*
X164829267Y-104121512D01*
X164829270Y-104121512D01*
X164969653Y-104036648D01*
X164969655Y-104036645D01*
X164984116Y-104027904D01*
X165072104Y-103997343D01*
X165164915Y-104005212D01*
X165215884Y-104027904D01*
X165230344Y-104036645D01*
X165230347Y-104036648D01*
X165370730Y-104121512D01*
X165370732Y-104121513D01*
X165527340Y-104170315D01*
X165588759Y-104175896D01*
X165595406Y-104176500D01*
X165600476Y-104176500D01*
X166149524Y-104176500D01*
X166154594Y-104176500D01*
X166183371Y-104173885D01*
X166222659Y-104170315D01*
X166379267Y-104121513D01*
X166379267Y-104121512D01*
X166379270Y-104121512D01*
X166519653Y-104036648D01*
X166635648Y-103920653D01*
X166720512Y-103780270D01*
X166737320Y-103726331D01*
X166769315Y-103623659D01*
X166775041Y-103560643D01*
X166775500Y-103555595D01*
X166775470Y-103556029D01*
X166798675Y-103466914D01*
X166856780Y-103394115D01*
X166939472Y-103351243D01*
X167032452Y-103345712D01*
X167079889Y-103358321D01*
X167214666Y-103410534D01*
X167412414Y-103447500D01*
X167613586Y-103447500D01*
X167811334Y-103410534D01*
X167998922Y-103337862D01*
X168019873Y-103324890D01*
X168169959Y-103231960D01*
X168169959Y-103231959D01*
X168169962Y-103231958D01*
X168318631Y-103096429D01*
X168439864Y-102935890D01*
X168529535Y-102755808D01*
X168558983Y-102652310D01*
X168584588Y-102562315D01*
X168595503Y-102444526D01*
X168603150Y-102362000D01*
X168602705Y-102357192D01*
X168584588Y-102161684D01*
X168529535Y-101968192D01*
X168512596Y-101934173D01*
X168489320Y-101843984D01*
X168504740Y-101752125D01*
X168554717Y-101675938D01*
X170658548Y-99572108D01*
X170736667Y-99521378D01*
X170816941Y-99506500D01*
X172718059Y-99506500D01*
X172809168Y-99525866D01*
X172876451Y-99572108D01*
X173435266Y-100130923D01*
X173461221Y-100162066D01*
X173461818Y-100162931D01*
X173504566Y-100200802D01*
X173514417Y-100210074D01*
X173524633Y-100220290D01*
X173536005Y-100229199D01*
X173546394Y-100237857D01*
X173589149Y-100275735D01*
X173590066Y-100276216D01*
X173624121Y-100298234D01*
X173624943Y-100298878D01*
X173677032Y-100322321D01*
X173689189Y-100328240D01*
X173739775Y-100354790D01*
X173740378Y-100354938D01*
X173740780Y-100355038D01*
X173779115Y-100368265D01*
X173780069Y-100368695D01*
X173836285Y-100378996D01*
X173849468Y-100381826D01*
X173904944Y-100395500D01*
X173905986Y-100395500D01*
X173946360Y-100399168D01*
X173947394Y-100399358D01*
X173947396Y-100399357D01*
X173947397Y-100399358D01*
X174004408Y-100395909D01*
X174017935Y-100395500D01*
X174075056Y-100395500D01*
X174076070Y-100395249D01*
X174116151Y-100389149D01*
X174117196Y-100389086D01*
X174171727Y-100372092D01*
X174184742Y-100368464D01*
X174240225Y-100354790D01*
X174241140Y-100354309D01*
X174278612Y-100338787D01*
X174279606Y-100338478D01*
X174328513Y-100308911D01*
X174340253Y-100302290D01*
X174390852Y-100275734D01*
X174391629Y-100275045D01*
X174424289Y-100251013D01*
X174425185Y-100250472D01*
X174465599Y-100210056D01*
X174475419Y-100200812D01*
X174518183Y-100162929D01*
X174518774Y-100162071D01*
X174544736Y-100130920D01*
X174545472Y-100130185D01*
X174575032Y-100081285D01*
X174582357Y-100069956D01*
X174614818Y-100022930D01*
X174615188Y-100021951D01*
X174632935Y-99985503D01*
X174633478Y-99984606D01*
X174650475Y-99930056D01*
X174654881Y-99917289D01*
X174675140Y-99863872D01*
X174675265Y-99862841D01*
X174683778Y-99823182D01*
X174684086Y-99822196D01*
X174687535Y-99765163D01*
X174688759Y-99751707D01*
X174689684Y-99744090D01*
X174689684Y-99744089D01*
X174690500Y-99737372D01*
X174690500Y-99722932D01*
X174690909Y-99709405D01*
X174694358Y-99652394D01*
X174694169Y-99651362D01*
X174690500Y-99610985D01*
X174690500Y-98440500D01*
X174709866Y-98349391D01*
X174764615Y-98274036D01*
X174845280Y-98227463D01*
X174914500Y-98216500D01*
X175539026Y-98216500D01*
X175544266Y-98216500D01*
X175574699Y-98213646D01*
X175702882Y-98168793D01*
X175812150Y-98088150D01*
X175892793Y-97978882D01*
X175937646Y-97850699D01*
X175940500Y-97820266D01*
X175940500Y-94711734D01*
X175937646Y-94681301D01*
X175892793Y-94553118D01*
X175880396Y-94536320D01*
X175812150Y-94443849D01*
X175702883Y-94363207D01*
X175574700Y-94318354D01*
X175571676Y-94318070D01*
X175544266Y-94315500D01*
X172435734Y-94315500D01*
X172411345Y-94317787D01*
X172405299Y-94318354D01*
X172277116Y-94363207D01*
X172167849Y-94443849D01*
X172087207Y-94553116D01*
X172042354Y-94681299D01*
X172042353Y-94681301D01*
X172042354Y-94681301D01*
X172039500Y-94711734D01*
X172039500Y-97820266D01*
X172042354Y-97850699D01*
X172042354Y-97850701D01*
X172043282Y-97860586D01*
X172032507Y-97953105D01*
X171985033Y-98033243D01*
X171909068Y-98087143D01*
X171820260Y-98105500D01*
X170461935Y-98105500D01*
X170448408Y-98105091D01*
X170440647Y-98104621D01*
X170364244Y-98099999D01*
X170364486Y-98095994D01*
X170321375Y-98094774D01*
X170237390Y-98054496D01*
X170177048Y-97983540D01*
X170150784Y-97894175D01*
X170163138Y-97801854D01*
X170211974Y-97722539D01*
X170215697Y-97718725D01*
X170387855Y-97546568D01*
X170555056Y-97323213D01*
X170688769Y-97078337D01*
X170786271Y-96816923D01*
X170845578Y-96544294D01*
X170865482Y-96266000D01*
X170845578Y-95987706D01*
X170786271Y-95715077D01*
X170688769Y-95453663D01*
X170555056Y-95208787D01*
X170387855Y-94985432D01*
X170190568Y-94788145D01*
X169967213Y-94620944D01*
X169842996Y-94553116D01*
X169722336Y-94487230D01*
X169530015Y-94415499D01*
X169460923Y-94389729D01*
X169227094Y-94338862D01*
X169188290Y-94330421D01*
X168910000Y-94310517D01*
X168631709Y-94330421D01*
X168527896Y-94353004D01*
X168359077Y-94389729D01*
X168328038Y-94401306D01*
X168097663Y-94487230D01*
X167852785Y-94620945D01*
X167629434Y-94788143D01*
X167432143Y-94985434D01*
X167264945Y-95208785D01*
X167131230Y-95453663D01*
X167096501Y-95546779D01*
X167046517Y-95625376D01*
X166968887Y-95676848D01*
X166886624Y-95692500D01*
X165381935Y-95692500D01*
X165368408Y-95692091D01*
X165364518Y-95691855D01*
X165311391Y-95688641D01*
X165255190Y-95698940D01*
X165241821Y-95700975D01*
X165185124Y-95707860D01*
X165184139Y-95708234D01*
X165145115Y-95719113D01*
X165144070Y-95719304D01*
X165091967Y-95742753D01*
X165079474Y-95747927D01*
X165026069Y-95768181D01*
X165025201Y-95768781D01*
X164989903Y-95788689D01*
X164988945Y-95789120D01*
X164943970Y-95824354D01*
X164933081Y-95832366D01*
X164886070Y-95864816D01*
X164848196Y-95907567D01*
X164838924Y-95917417D01*
X164780392Y-95975949D01*
X164702274Y-96026679D01*
X164610277Y-96041250D01*
X164520306Y-96017142D01*
X164447919Y-95958525D01*
X164405633Y-95875532D01*
X164398000Y-95817557D01*
X164398000Y-95271000D01*
X163481686Y-95271000D01*
X163507493Y-95230844D01*
X163548000Y-95092889D01*
X163548000Y-94949111D01*
X163507493Y-94811156D01*
X163481686Y-94771000D01*
X164398000Y-94771000D01*
X164398000Y-94129166D01*
X164397358Y-94117201D01*
X164391598Y-94063625D01*
X164341353Y-93928912D01*
X164255189Y-93813810D01*
X164140087Y-93727646D01*
X164005374Y-93677401D01*
X163951798Y-93671641D01*
X163939834Y-93671000D01*
X163298000Y-93671000D01*
X163298000Y-94585498D01*
X163190315Y-94536320D01*
X163083763Y-94521000D01*
X163012237Y-94521000D01*
X162905685Y-94536320D01*
X162798000Y-94585498D01*
X162798000Y-93671000D01*
X162156166Y-93671000D01*
X162144201Y-93671641D01*
X162090625Y-93677401D01*
X161955912Y-93727646D01*
X161840810Y-93813810D01*
X161754645Y-93928912D01*
X161740745Y-93966181D01*
X161690760Y-94044777D01*
X161613129Y-94096248D01*
X161521274Y-94111693D01*
X161431078Y-94088443D01*
X161372477Y-94046291D01*
X161347137Y-94020951D01*
X161160734Y-93890431D01*
X160954495Y-93794260D01*
X160734695Y-93735365D01*
X160508000Y-93715532D01*
X160281304Y-93735365D01*
X160061504Y-93794260D01*
X159855265Y-93890431D01*
X159668862Y-94020951D01*
X159507951Y-94181862D01*
X159377431Y-94368265D01*
X159281260Y-94574504D01*
X159222365Y-94794304D01*
X159202532Y-95021000D01*
X159222365Y-95247695D01*
X159281260Y-95467495D01*
X159377431Y-95673734D01*
X159507951Y-95860137D01*
X159507953Y-95860139D01*
X159668861Y-96021047D01*
X159711979Y-96051238D01*
X159775504Y-96119357D01*
X159805830Y-96207427D01*
X159807500Y-96234729D01*
X159807500Y-96357500D01*
X159788134Y-96448609D01*
X159733385Y-96523964D01*
X159652720Y-96570537D01*
X159583500Y-96581500D01*
X158269921Y-96581500D01*
X158256396Y-96581091D01*
X158199394Y-96577643D01*
X158199393Y-96577643D01*
X158143188Y-96587941D01*
X158129822Y-96589975D01*
X158073129Y-96596859D01*
X158072416Y-96597129D01*
X158072142Y-96597233D01*
X158033107Y-96608115D01*
X158032071Y-96608304D01*
X157979985Y-96631746D01*
X157967489Y-96636922D01*
X157914063Y-96657184D01*
X157913196Y-96657783D01*
X157877901Y-96677690D01*
X157876944Y-96678120D01*
X157831977Y-96713348D01*
X157821089Y-96721360D01*
X157774072Y-96753815D01*
X157736196Y-96796567D01*
X157726924Y-96806417D01*
X156724917Y-97808424D01*
X156715067Y-97817696D01*
X156672316Y-97855570D01*
X156639866Y-97902581D01*
X156631854Y-97913470D01*
X156596620Y-97958445D01*
X156596189Y-97959403D01*
X156576281Y-97994701D01*
X156575681Y-97995569D01*
X156555427Y-98048974D01*
X156550253Y-98061467D01*
X156526804Y-98113570D01*
X156526613Y-98114615D01*
X156515734Y-98153639D01*
X156515360Y-98154624D01*
X156508475Y-98211321D01*
X156506440Y-98224690D01*
X156496141Y-98280891D01*
X156499591Y-98337905D01*
X156500000Y-98351433D01*
X156500000Y-98456400D01*
X156480634Y-98547509D01*
X156425885Y-98622864D01*
X156403250Y-98640746D01*
X156377069Y-98658817D01*
X156339196Y-98701567D01*
X156329924Y-98711417D01*
X154903451Y-100137892D01*
X154825334Y-100188622D01*
X154745059Y-100203500D01*
X154611494Y-100203500D01*
X154537512Y-100190930D01*
X154490460Y-100174465D01*
X154438700Y-100156354D01*
X154435676Y-100156070D01*
X154408266Y-100153500D01*
X154403026Y-100153500D01*
X154361941Y-100153500D01*
X154270832Y-100134134D01*
X154195477Y-100079385D01*
X154148904Y-99998720D01*
X154139168Y-99906086D01*
X154167951Y-99817500D01*
X154203549Y-99771108D01*
X154567061Y-99407596D01*
X155669601Y-98305054D01*
X155679401Y-98295828D01*
X155722183Y-98257929D01*
X155754642Y-98210902D01*
X155762639Y-98200033D01*
X155797877Y-98155057D01*
X155798298Y-98154119D01*
X155818224Y-98118789D01*
X155818818Y-98117930D01*
X155839085Y-98064487D01*
X155844246Y-98052028D01*
X155867694Y-97999932D01*
X155867881Y-97998906D01*
X155878768Y-97959851D01*
X155879140Y-97958872D01*
X155886026Y-97902155D01*
X155888061Y-97888790D01*
X155898357Y-97832606D01*
X155894909Y-97775602D01*
X155894500Y-97762076D01*
X155894500Y-96039922D01*
X155894909Y-96026395D01*
X155895233Y-96021048D01*
X155897249Y-95987706D01*
X155898357Y-95969395D01*
X155888061Y-95913211D01*
X155886025Y-95899834D01*
X155882153Y-95867944D01*
X155879140Y-95843128D01*
X155878770Y-95842152D01*
X155867881Y-95803091D01*
X155863362Y-95778427D01*
X155865991Y-95685319D01*
X155906262Y-95601331D01*
X155969670Y-95545250D01*
X155986865Y-95535081D01*
X156016606Y-95505339D01*
X156094721Y-95454610D01*
X156186719Y-95440038D01*
X156276690Y-95464145D01*
X156333390Y-95505339D01*
X156400125Y-95572074D01*
X156545602Y-95660019D01*
X156707892Y-95710590D01*
X156773361Y-95716539D01*
X156783510Y-95716999D01*
X156785000Y-95716999D01*
X156785000Y-95716998D01*
X157284999Y-95716998D01*
X157285000Y-95716999D01*
X157286501Y-95716999D01*
X157296628Y-95716539D01*
X157362101Y-95710591D01*
X157524400Y-95660017D01*
X157669874Y-95572074D01*
X157790074Y-95451874D01*
X157878019Y-95306397D01*
X157928590Y-95144107D01*
X157934541Y-95078624D01*
X157935000Y-95068503D01*
X157935000Y-94992000D01*
X157285000Y-94992000D01*
X157284999Y-95716998D01*
X156785000Y-95716998D01*
X156785000Y-93767000D01*
X157285000Y-93767000D01*
X157285000Y-94492000D01*
X157934999Y-94492000D01*
X157934999Y-94415499D01*
X157934539Y-94405371D01*
X157928591Y-94339898D01*
X157878017Y-94177599D01*
X157790074Y-94032125D01*
X157669874Y-93911925D01*
X157524397Y-93823980D01*
X157362107Y-93773409D01*
X157296624Y-93767458D01*
X157286503Y-93767000D01*
X157285000Y-93767000D01*
X156785000Y-93767000D01*
X156783485Y-93767000D01*
X156773384Y-93767459D01*
X156707898Y-93773408D01*
X156545599Y-93823982D01*
X156400125Y-93911925D01*
X156333389Y-93978661D01*
X156255271Y-94029390D01*
X156163273Y-94043961D01*
X156073303Y-94019853D01*
X156016606Y-93978660D01*
X155986865Y-93948919D01*
X155887968Y-93890432D01*
X155845398Y-93865256D01*
X155790669Y-93849355D01*
X155687564Y-93819400D01*
X155655104Y-93816846D01*
X155655077Y-93816844D01*
X155650694Y-93816500D01*
X155119306Y-93816500D01*
X155114923Y-93816844D01*
X155114895Y-93816846D01*
X155082435Y-93819400D01*
X154924602Y-93865256D01*
X154783134Y-93948919D01*
X154666917Y-94065136D01*
X154613462Y-94155525D01*
X154550415Y-94224088D01*
X154464932Y-94261081D01*
X154420656Y-94265500D01*
X153497500Y-94265500D01*
X153406391Y-94246134D01*
X153331036Y-94191385D01*
X153284463Y-94110720D01*
X153273500Y-94041500D01*
X153273500Y-93641973D01*
X153273500Y-93636734D01*
X153271172Y-93611909D01*
X153271172Y-93570090D01*
X153273500Y-93545266D01*
X153273500Y-93136734D01*
X153271172Y-93111909D01*
X153271172Y-93070090D01*
X153273500Y-93045266D01*
X153273500Y-92640500D01*
X153292866Y-92549391D01*
X153347615Y-92474036D01*
X153428280Y-92427463D01*
X153497500Y-92416500D01*
X154619770Y-92416500D01*
X154710879Y-92435866D01*
X154778162Y-92482108D01*
X154783135Y-92487081D01*
X154924602Y-92570744D01*
X155082431Y-92616598D01*
X155082435Y-92616599D01*
X155114895Y-92619153D01*
X155114898Y-92619153D01*
X155119306Y-92619500D01*
X155123713Y-92619500D01*
X155646287Y-92619500D01*
X155650694Y-92619500D01*
X155655102Y-92619153D01*
X155655104Y-92619153D01*
X155687564Y-92616599D01*
X155687566Y-92616598D01*
X155687569Y-92616598D01*
X155845398Y-92570744D01*
X155986865Y-92487081D01*
X156016606Y-92457339D01*
X156094721Y-92406610D01*
X156186719Y-92392038D01*
X156276690Y-92416145D01*
X156333390Y-92457339D01*
X156400125Y-92524074D01*
X156545602Y-92612019D01*
X156707892Y-92662590D01*
X156773361Y-92668539D01*
X156783510Y-92668999D01*
X156785000Y-92668999D01*
X156785000Y-90719000D01*
X156783485Y-90719000D01*
X156773384Y-90719459D01*
X156707898Y-90725408D01*
X156545599Y-90775982D01*
X156400125Y-90863925D01*
X156333389Y-90930661D01*
X156255271Y-90981390D01*
X156163273Y-90995961D01*
X156073303Y-90971853D01*
X156016606Y-90930660D01*
X155986865Y-90900919D01*
X155924311Y-90863925D01*
X155845398Y-90817256D01*
X155790669Y-90801355D01*
X155687564Y-90771400D01*
X155655104Y-90768846D01*
X155655077Y-90768844D01*
X155650694Y-90768500D01*
X155119306Y-90768500D01*
X155114934Y-90768844D01*
X155114910Y-90768845D01*
X155089983Y-90770807D01*
X154997635Y-90758647D01*
X154918218Y-90709978D01*
X154865461Y-90633214D01*
X154848489Y-90541629D01*
X154870235Y-90451059D01*
X154871819Y-90447806D01*
X154940535Y-90309808D01*
X154995588Y-90116315D01*
X155014150Y-89916000D01*
X155005414Y-89821722D01*
X154995588Y-89715684D01*
X154940536Y-89522194D01*
X154896326Y-89433409D01*
X154850864Y-89342110D01*
X154729631Y-89181571D01*
X154684578Y-89140500D01*
X154580959Y-89046039D01*
X154409924Y-88940138D01*
X154222333Y-88867465D01*
X154024586Y-88830500D01*
X153823414Y-88830500D01*
X153625666Y-88867465D01*
X153438077Y-88940138D01*
X153358777Y-88989238D01*
X153271120Y-89020734D01*
X153239474Y-89018390D01*
X153239474Y-89021000D01*
X152379111Y-89021000D01*
X152418610Y-88996543D01*
X152486201Y-88907038D01*
X152516895Y-88799160D01*
X152506546Y-88687479D01*
X152456552Y-88587078D01*
X152384069Y-88521000D01*
X153133471Y-88521000D01*
X153133471Y-88520999D01*
X153070312Y-88350468D01*
X153019526Y-88268988D01*
X152987767Y-88181425D01*
X152994369Y-88088515D01*
X153038190Y-88006322D01*
X153111654Y-87949060D01*
X153202057Y-87926628D01*
X153209622Y-87926500D01*
X157975500Y-87926500D01*
X158066609Y-87945866D01*
X158141964Y-88000615D01*
X158188537Y-88081280D01*
X158199500Y-88150500D01*
X158199500Y-90857870D01*
X158180134Y-90948979D01*
X158125385Y-91024334D01*
X158044720Y-91070907D01*
X157952086Y-91080643D01*
X157863500Y-91051860D01*
X157809461Y-91003203D01*
X157809307Y-91003358D01*
X157806358Y-91000409D01*
X157794280Y-90989534D01*
X157791905Y-90985956D01*
X157669874Y-90863925D01*
X157524397Y-90775980D01*
X157362107Y-90725409D01*
X157296624Y-90719458D01*
X157286503Y-90719000D01*
X157285000Y-90719000D01*
X157285000Y-92668999D01*
X157286501Y-92668999D01*
X157296628Y-92668539D01*
X157362101Y-92662591D01*
X157524400Y-92612017D01*
X157669874Y-92524074D01*
X157790075Y-92403873D01*
X157890261Y-92238146D01*
X157953968Y-92170195D01*
X158039805Y-92134031D01*
X158132930Y-92135906D01*
X158217242Y-92175497D01*
X158252116Y-92215834D01*
X158255795Y-92212842D01*
X158272724Y-92233652D01*
X158294408Y-92266712D01*
X158329615Y-92304409D01*
X158339667Y-92315937D01*
X158372224Y-92355955D01*
X158397283Y-92377805D01*
X158399319Y-92379043D01*
X158399320Y-92379044D01*
X158441355Y-92404606D01*
X158454141Y-92412992D01*
X158496299Y-92442751D01*
X158526322Y-92457029D01*
X158575995Y-92470947D01*
X158590573Y-92475574D01*
X158639187Y-92492851D01*
X158671947Y-92498500D01*
X158674335Y-92498500D01*
X158723528Y-92498500D01*
X158738812Y-92499021D01*
X158787921Y-92502381D01*
X158787922Y-92502380D01*
X158790294Y-92502543D01*
X158829627Y-92498500D01*
X176771500Y-92498500D01*
X176862609Y-92517866D01*
X176937964Y-92572615D01*
X176984537Y-92653280D01*
X176995500Y-92722500D01*
X176995500Y-120891500D01*
X176976134Y-120982609D01*
X176921385Y-121057964D01*
X176840720Y-121104537D01*
X176771500Y-121115500D01*
X149872500Y-121115500D01*
X149781391Y-121096134D01*
X149706036Y-121041385D01*
X149659463Y-120960720D01*
X149648500Y-120891500D01*
X149648500Y-118617999D01*
X152572550Y-118617999D01*
X152592316Y-118869146D01*
X152651126Y-119114111D01*
X152747533Y-119346859D01*
X152879164Y-119561659D01*
X153042775Y-119753224D01*
X153206386Y-119892961D01*
X153234341Y-119916836D01*
X153317510Y-119967802D01*
X153449140Y-120048466D01*
X153681888Y-120144873D01*
X153804370Y-120174278D01*
X153926852Y-120203683D01*
X154178000Y-120223449D01*
X154429148Y-120203683D01*
X154674111Y-120144873D01*
X154906859Y-120048466D01*
X155121659Y-119916836D01*
X155313224Y-119753224D01*
X155476836Y-119561659D01*
X155608466Y-119346859D01*
X155704873Y-119114111D01*
X155763683Y-118869148D01*
X155783449Y-118618000D01*
X155763683Y-118366852D01*
X155718136Y-118177134D01*
X155704873Y-118121888D01*
X155608466Y-117889140D01*
X155482509Y-117683599D01*
X155476836Y-117674341D01*
X155347144Y-117522491D01*
X155313224Y-117482775D01*
X155121659Y-117319164D01*
X154906859Y-117187533D01*
X154674111Y-117091126D01*
X154429146Y-117032316D01*
X154178000Y-117012550D01*
X153926853Y-117032316D01*
X153681888Y-117091126D01*
X153449140Y-117187533D01*
X153234340Y-117319164D01*
X153042775Y-117482775D01*
X152879164Y-117674340D01*
X152747533Y-117889140D01*
X152651126Y-118121888D01*
X152592316Y-118366853D01*
X152572550Y-118617999D01*
X149648500Y-118617999D01*
X149648500Y-99340471D01*
X149649022Y-99325185D01*
X149650547Y-99302884D01*
X149652381Y-99276079D01*
X149642367Y-99227890D01*
X149639768Y-99212816D01*
X149633070Y-99164080D01*
X149633068Y-99164075D01*
X149632744Y-99161718D01*
X149622690Y-99130035D01*
X149621592Y-99127916D01*
X149621592Y-99127915D01*
X149598938Y-99084195D01*
X149592378Y-99070400D01*
X149571832Y-99023097D01*
X149553596Y-98995293D01*
X149518385Y-98957592D01*
X149508337Y-98946069D01*
X149484094Y-98916270D01*
X149475775Y-98906044D01*
X149450717Y-98884195D01*
X149406644Y-98857393D01*
X149393858Y-98849006D01*
X149351704Y-98819251D01*
X149321677Y-98804971D01*
X149272001Y-98791052D01*
X149257429Y-98786426D01*
X149208819Y-98769150D01*
X149176047Y-98763500D01*
X149173665Y-98763500D01*
X149124472Y-98763500D01*
X149109187Y-98762978D01*
X149106355Y-98762784D01*
X149057705Y-98759456D01*
X149018373Y-98763500D01*
X148217867Y-98763500D01*
X148126758Y-98744134D01*
X148051403Y-98689385D01*
X148004830Y-98608720D01*
X147995094Y-98516086D01*
X148023877Y-98427500D01*
X148086203Y-98358280D01*
X148150810Y-98325773D01*
X148269570Y-98288511D01*
X148438499Y-98194748D01*
X148585105Y-98068892D01*
X148703371Y-97916104D01*
X148788459Y-97742640D01*
X148809597Y-97661001D01*
X148809597Y-97661000D01*
X148059111Y-97661000D01*
X148098610Y-97636543D01*
X148166201Y-97547038D01*
X148196895Y-97439160D01*
X148186546Y-97327479D01*
X148136552Y-97227078D01*
X148064069Y-97161000D01*
X148813471Y-97161000D01*
X148813471Y-97160999D01*
X148750312Y-96990468D01*
X148648113Y-96826504D01*
X148514992Y-96686461D01*
X148356413Y-96576086D01*
X148178864Y-96499894D01*
X147989605Y-96461000D01*
X147743000Y-96461000D01*
X147743000Y-97111000D01*
X147243000Y-97111000D01*
X147243000Y-96461000D01*
X147050507Y-96461000D01*
X147039176Y-96461574D01*
X146900777Y-96475648D01*
X146716429Y-96533488D01*
X146547500Y-96627251D01*
X146400893Y-96753108D01*
X146366633Y-96797369D01*
X146295550Y-96857561D01*
X146206130Y-96883638D01*
X146113835Y-96871090D01*
X146034623Y-96822086D01*
X145982190Y-96745101D01*
X145965500Y-96660256D01*
X145965500Y-89524518D01*
X145984866Y-89433409D01*
X146039615Y-89358054D01*
X146120280Y-89311481D01*
X146212914Y-89301745D01*
X146301500Y-89330528D01*
X146351854Y-89370189D01*
X146471007Y-89495538D01*
X146629586Y-89605913D01*
X146807135Y-89682105D01*
X146996395Y-89721000D01*
X147243000Y-89721000D01*
X147243000Y-89071000D01*
X147743000Y-89071000D01*
X147743000Y-89721000D01*
X147935493Y-89721000D01*
X147946823Y-89720425D01*
X148085222Y-89706351D01*
X148269570Y-89648511D01*
X148438499Y-89554748D01*
X148585105Y-89428892D01*
X148703371Y-89276104D01*
X148788459Y-89102640D01*
X148809597Y-89021001D01*
X148809597Y-89021000D01*
X148059111Y-89021000D01*
X148098610Y-88996543D01*
X148166201Y-88907038D01*
X148196895Y-88799160D01*
X148186546Y-88687479D01*
X148136552Y-88587078D01*
X148064069Y-88521000D01*
X148813471Y-88521000D01*
X148813471Y-88520999D01*
X148750312Y-88350468D01*
X148699526Y-88268988D01*
X148667767Y-88181425D01*
X148674369Y-88088515D01*
X148718190Y-88006322D01*
X148791654Y-87949060D01*
X148882057Y-87926628D01*
X148889622Y-87926500D01*
X150109735Y-87926500D01*
X150200844Y-87945866D01*
G37*
%TD.AperFunction*%
%TA.AperFunction,Conductor*%
G36*
X163298000Y-96371000D02*
G01*
X163844558Y-96371000D01*
X163935667Y-96390366D01*
X164011022Y-96445115D01*
X164057595Y-96525780D01*
X164067331Y-96618414D01*
X164038548Y-96707000D01*
X164002949Y-96753392D01*
X163862416Y-96893924D01*
X163852567Y-96903196D01*
X163809816Y-96941070D01*
X163777366Y-96988081D01*
X163769354Y-96998970D01*
X163734120Y-97043945D01*
X163733689Y-97044903D01*
X163713781Y-97080201D01*
X163713181Y-97081069D01*
X163692927Y-97134474D01*
X163687753Y-97146967D01*
X163664304Y-97199070D01*
X163664113Y-97200115D01*
X163653234Y-97239139D01*
X163652860Y-97240124D01*
X163645975Y-97296821D01*
X163643940Y-97310192D01*
X163628844Y-97392570D01*
X163593373Y-97478696D01*
X163525938Y-97542949D01*
X163438199Y-97574218D01*
X163345327Y-97567098D01*
X163341872Y-97566051D01*
X163186659Y-97517684D01*
X163123644Y-97511958D01*
X163123624Y-97511957D01*
X163118594Y-97511500D01*
X162509406Y-97511500D01*
X162504376Y-97511957D01*
X162504355Y-97511958D01*
X162441340Y-97517684D01*
X162284732Y-97566486D01*
X162144347Y-97651352D01*
X162028352Y-97767347D01*
X161943486Y-97907732D01*
X161894684Y-98064340D01*
X161888958Y-98127355D01*
X161888957Y-98127376D01*
X161888500Y-98132406D01*
X161888500Y-98691594D01*
X161888957Y-98696624D01*
X161888958Y-98696644D01*
X161894684Y-98759659D01*
X161943487Y-98916270D01*
X162037095Y-99071117D01*
X162067656Y-99159105D01*
X162059787Y-99251916D01*
X162037095Y-99302883D01*
X161943487Y-99457729D01*
X161894684Y-99614340D01*
X161888958Y-99677355D01*
X161888957Y-99677376D01*
X161888500Y-99682406D01*
X161888500Y-100241594D01*
X161888957Y-100246624D01*
X161888958Y-100246644D01*
X161894684Y-100309659D01*
X161943486Y-100466267D01*
X161943488Y-100466270D01*
X162028352Y-100606653D01*
X162144347Y-100722648D01*
X162269685Y-100798417D01*
X162284732Y-100807513D01*
X162441340Y-100856315D01*
X162502759Y-100861896D01*
X162509406Y-100862500D01*
X162514476Y-100862500D01*
X163113524Y-100862500D01*
X163118594Y-100862500D01*
X163141142Y-100860451D01*
X163210332Y-100854164D01*
X163210508Y-100856100D01*
X163270240Y-100850548D01*
X163358473Y-100880394D01*
X163426939Y-100943547D01*
X163463798Y-101029088D01*
X163462678Y-101122226D01*
X163458006Y-101139664D01*
X163430684Y-101227340D01*
X163424958Y-101290355D01*
X163424957Y-101290376D01*
X163424500Y-101295406D01*
X163424500Y-101300475D01*
X163424500Y-101300476D01*
X163424500Y-101548699D01*
X163405134Y-101639808D01*
X163350385Y-101715163D01*
X163269720Y-101761736D01*
X163177086Y-101771472D01*
X163119582Y-101757573D01*
X162977333Y-101702465D01*
X162779586Y-101665500D01*
X162578414Y-101665500D01*
X162380666Y-101702465D01*
X162193075Y-101775138D01*
X162022040Y-101881039D01*
X161873368Y-102016571D01*
X161752136Y-102177109D01*
X161662463Y-102357194D01*
X161607411Y-102550684D01*
X161588849Y-102751000D01*
X161607411Y-102951315D01*
X161662463Y-103144805D01*
X161752136Y-103324890D01*
X161823641Y-103419579D01*
X161873369Y-103485429D01*
X162022038Y-103620958D01*
X162045720Y-103635621D01*
X162112987Y-103700048D01*
X162148235Y-103786265D01*
X162151800Y-103826070D01*
X162151800Y-104235933D01*
X162132434Y-104327042D01*
X162077685Y-104402397D01*
X162043684Y-104427628D01*
X161913884Y-104506095D01*
X161825896Y-104536656D01*
X161733084Y-104528787D01*
X161682117Y-104506095D01*
X161527270Y-104412487D01*
X161370659Y-104363684D01*
X161307644Y-104357958D01*
X161307624Y-104357957D01*
X161302594Y-104357500D01*
X160743406Y-104357500D01*
X160738376Y-104357957D01*
X160738355Y-104357958D01*
X160675340Y-104363684D01*
X160518730Y-104412487D01*
X160401939Y-104483089D01*
X160313951Y-104513649D01*
X160221140Y-104505780D01*
X160139553Y-104460841D01*
X160127665Y-104449785D01*
X159701990Y-104024110D01*
X159682671Y-104002081D01*
X159681222Y-104000192D01*
X159668451Y-103983549D01*
X159638270Y-103960390D01*
X159638268Y-103960388D01*
X159548233Y-103891302D01*
X159548232Y-103891301D01*
X159487639Y-103866203D01*
X159408238Y-103833314D01*
X159408236Y-103833313D01*
X159295723Y-103818500D01*
X159305380Y-103819479D01*
X159295671Y-103818494D01*
X159292644Y-103818095D01*
X159204847Y-103786989D01*
X159158014Y-103742532D01*
X159156973Y-103743574D01*
X159143201Y-103729801D01*
X159140948Y-103726331D01*
X159137293Y-103722862D01*
X159130224Y-103711903D01*
X159123678Y-103701075D01*
X159124302Y-103700697D01*
X159092474Y-103651682D01*
X159077599Y-103571415D01*
X159077599Y-102779021D01*
X159078008Y-102765494D01*
X159081456Y-102708494D01*
X159071160Y-102652310D01*
X159069124Y-102638933D01*
X159062239Y-102582227D01*
X159061869Y-102581251D01*
X159050980Y-102542189D01*
X159050793Y-102541167D01*
X159027344Y-102489067D01*
X159022183Y-102476608D01*
X159001917Y-102423169D01*
X159001320Y-102422304D01*
X158981399Y-102386982D01*
X158980976Y-102386042D01*
X158962140Y-102362000D01*
X158945749Y-102341078D01*
X158937736Y-102330187D01*
X158905284Y-102283172D01*
X158890024Y-102269653D01*
X158862521Y-102245287D01*
X158852686Y-102236029D01*
X157966608Y-101349950D01*
X157915878Y-101271832D01*
X157901000Y-101191558D01*
X157901000Y-98706441D01*
X157920366Y-98615332D01*
X157966608Y-98548049D01*
X158466549Y-98048108D01*
X158544667Y-97997378D01*
X158624941Y-97982500D01*
X159992065Y-97982500D01*
X160005592Y-97982909D01*
X160062606Y-97986358D01*
X160118805Y-97976059D01*
X160132171Y-97974024D01*
X160188872Y-97967140D01*
X160189846Y-97966770D01*
X160228900Y-97955884D01*
X160229932Y-97955695D01*
X160282043Y-97932240D01*
X160294505Y-97927078D01*
X160347930Y-97906818D01*
X160348791Y-97906223D01*
X160384111Y-97886303D01*
X160385057Y-97885878D01*
X160430032Y-97850641D01*
X160440921Y-97842630D01*
X160443603Y-97840779D01*
X160487929Y-97810183D01*
X160525811Y-97767420D01*
X160535054Y-97757601D01*
X160983601Y-97309054D01*
X160993420Y-97299811D01*
X161036183Y-97261929D01*
X161068637Y-97214910D01*
X161076633Y-97204042D01*
X161111878Y-97159057D01*
X161112306Y-97158105D01*
X161132229Y-97122783D01*
X161132818Y-97121930D01*
X161153082Y-97068495D01*
X161158237Y-97056048D01*
X161181694Y-97003932D01*
X161181881Y-97002909D01*
X161192773Y-96963839D01*
X161193140Y-96962872D01*
X161200026Y-96906155D01*
X161202061Y-96892790D01*
X161212357Y-96836606D01*
X161208909Y-96779602D01*
X161208500Y-96766076D01*
X161208500Y-96234729D01*
X161227866Y-96143620D01*
X161282615Y-96068265D01*
X161304016Y-96051241D01*
X161347139Y-96021047D01*
X161372477Y-95995708D01*
X161450592Y-95944979D01*
X161542589Y-95930407D01*
X161632560Y-95954513D01*
X161704948Y-96013130D01*
X161740745Y-96075819D01*
X161754645Y-96113086D01*
X161840810Y-96228189D01*
X161955912Y-96314353D01*
X162090625Y-96364598D01*
X162144201Y-96370358D01*
X162156166Y-96371000D01*
X162798000Y-96371000D01*
X162798000Y-95456501D01*
X162905685Y-95505680D01*
X163012237Y-95521000D01*
X163083763Y-95521000D01*
X163190315Y-95505680D01*
X163298000Y-95456501D01*
X163298000Y-96371000D01*
G37*
%TD.AperFunction*%
%TD*%
M02*
