M48
; DRILL file {KiCad 7.0.2} date Tue Mar  4 18:49:49 2025
; FORMAT={3:3/ absolute / metric / keep zeros}
; #@! TF.CreationDate,2025-03-04T18:49:49-05:00
; #@! TF.GenerationSoftware,Kicad,Pcbnew,7.0.2
; #@! TF.FileFunction,MixedPlating,1,2
FMAT,2
METRIC
; #@! TA.AperFunction,Plated,PTH,ComponentDrill
T1C0.254
; #@! TA.AperFunction,Plated,PTH,ViaDrill
T2C0.600
; #@! TA.AperFunction,Plated,PTH,ComponentDrill
T3C0.600
; #@! TA.AperFunction,Plated,PTH,ViaDrill
T4C0.670
; #@! TA.AperFunction,Plated,PTH,ViaDrill
T5C0.700
; #@! TA.AperFunction,Plated,PTH,ComponentDrill
T6C1.000
; #@! TA.AperFunction,Plated,PTH,ComponentDrill
T7C1.520
; #@! TA.AperFunction,NonPlated,NPTH,ComponentDrill
T8C0.600
; #@! TA.AperFunction,NonPlated,NPTH,ComponentDrill
T9C2.200
%
G90
G05
T1
X164059Y-108433
X164059Y-109220
X164059Y-110007
X164846Y-108433
X164846Y-109220
X164846Y-110007
T2
X172085Y-101854
X174752Y-111506
T4
X164719Y-105283
T5
X152527Y-111506
X153704Y-104394
X153924Y-089916
X154016Y-096755
X154813Y-107569
X156083Y-111628
X156464Y-113792
X157226Y-110363
X158496Y-109220
X158496Y-114046
X158750Y-100838
X162679Y-102751
X167513Y-102362
X167640Y-106299
X167767Y-117475
X171450Y-112776
X173736Y-106553
X173736Y-108077
X173736Y-109601
T6
X159512Y-116586
X160508Y-095021
X162052Y-116586
X163048Y-095021
X164592Y-116586
T7
X168910Y-096266
X173990Y-096266
T8
X151183Y-090201
X151183Y-095981
T9
X154178Y-118618
X174498Y-118618
T3
X147093Y-088771G85X147893Y-088771
G05
X147093Y-097411G85X147893Y-097411
G05
X151113Y-088771G85X152213Y-088771
G05
X151113Y-097411G85X152213Y-097411
G05
T0
M30
