%TF.GenerationSoftware,KiCad,Pcbnew,7.0.2*%
%TF.CreationDate,2025-03-07T15:31:29-05:00*%
%TF.ProjectId,3BQ5101eBRHLR,33425135-3130-4316-9542-52484c522e6b,rev?*%
%TF.SameCoordinates,Original*%
%TF.FileFunction,Soldermask,Top*%
%TF.FilePolarity,Negative*%
%FSLAX46Y46*%
G04 Gerber Fmt 4.6, Leading zero omitted, Abs format (unit mm)*
G04 Created by KiCad (PCBNEW 7.0.2) date 2025-03-07 15:31:29*
%MOMM*%
%LPD*%
G01*
G04 APERTURE LIST*
G04 Aperture macros list*
%AMRoundRect*
0 Rectangle with rounded corners*
0 $1 Rounding radius*
0 $2 $3 $4 $5 $6 $7 $8 $9 X,Y pos of 4 corners*
0 Add a 4 corners polygon primitive as box body*
4,1,4,$2,$3,$4,$5,$6,$7,$8,$9,$2,$3,0*
0 Add four circle primitives for the rounded corners*
1,1,$1+$1,$2,$3*
1,1,$1+$1,$4,$5*
1,1,$1+$1,$6,$7*
1,1,$1+$1,$8,$9*
0 Add four rect primitives between the rounded corners*
20,1,$1+$1,$2,$3,$4,$5,0*
20,1,$1+$1,$4,$5,$6,$7,0*
20,1,$1+$1,$6,$7,$8,$9,0*
20,1,$1+$1,$8,$9,$2,$3,0*%
G04 Aperture macros list end*
%ADD10C,0.150000*%
%ADD11RoundRect,0.225000X0.225000X0.250000X-0.225000X0.250000X-0.225000X-0.250000X0.225000X-0.250000X0*%
%ADD12RoundRect,0.225000X-0.250000X0.225000X-0.250000X-0.225000X0.250000X-0.225000X0.250000X0.225000X0*%
%ADD13RoundRect,0.200000X0.200000X0.275000X-0.200000X0.275000X-0.200000X-0.275000X0.200000X-0.275000X0*%
%ADD14R,1.300000X0.600000*%
%ADD15RoundRect,0.225000X-0.225000X-0.250000X0.225000X-0.250000X0.225000X0.250000X-0.225000X0.250000X0*%
%ADD16RoundRect,0.200000X-0.200000X-0.275000X0.200000X-0.275000X0.200000X0.275000X-0.200000X0.275000X0*%
%ADD17R,1.700000X1.700000*%
%ADD18O,1.700000X1.700000*%
%ADD19RoundRect,0.200000X0.275000X-0.200000X0.275000X0.200000X-0.275000X0.200000X-0.275000X-0.200000X0*%
%ADD20C,0.600000*%
%ADD21R,1.160000X0.600000*%
%ADD22R,1.160000X0.300000*%
%ADD23O,2.000000X0.900000*%
%ADD24O,1.700000X0.900000*%
%ADD25RoundRect,0.225000X0.250000X-0.225000X0.250000X0.225000X-0.250000X0.225000X-0.250000X-0.225000X0*%
%ADD26C,2.200000*%
%ADD27R,0.280000X0.850000*%
%ADD28R,0.850000X0.280000*%
%ADD29C,0.508000*%
%ADD30R,0.900000X1.400000*%
%ADD31R,3.000000X3.000000*%
%ADD32C,3.000000*%
G04 APERTURE END LIST*
D10*
X158750000Y-87376000D02*
X145415000Y-87376000D01*
X158750000Y-91948000D02*
X158750000Y-87376000D01*
X177546000Y-91948000D02*
X158750000Y-91948000D01*
X177546000Y-121666000D02*
X177546000Y-91948000D01*
X149098000Y-121666000D02*
X177546000Y-121666000D01*
X149098000Y-99314000D02*
X149098000Y-121666000D01*
X145415000Y-99314000D02*
X149098000Y-99314000D01*
X145415000Y-87376000D02*
X145415000Y-99314000D01*
%TO.C,U1*%
G36*
X163222300Y-107680001D02*
G01*
X162232299Y-107680001D01*
X162232299Y-107259999D01*
X163222300Y-107259999D01*
X163222300Y-107680001D01*
G37*
G36*
X163222300Y-108180000D02*
G01*
X162232299Y-108180000D01*
X162232299Y-107760000D01*
X163222300Y-107760000D01*
X163222300Y-108180000D01*
G37*
G36*
X163222300Y-108680001D02*
G01*
X162232299Y-108680001D01*
X162232299Y-108259999D01*
X163222300Y-108259999D01*
X163222300Y-108680001D01*
G37*
G36*
X163222300Y-109180000D02*
G01*
X162232299Y-109180000D01*
X162232299Y-108760001D01*
X163222300Y-108760001D01*
X163222300Y-109180000D01*
G37*
G36*
X163222300Y-109679999D02*
G01*
X162232299Y-109679999D01*
X162232299Y-109260000D01*
X163222300Y-109260000D01*
X163222300Y-109679999D01*
G37*
G36*
X163222300Y-110180001D02*
G01*
X162232299Y-110180001D01*
X162232299Y-109759999D01*
X163222300Y-109759999D01*
X163222300Y-110180001D01*
G37*
G36*
X163222300Y-110680000D02*
G01*
X162232299Y-110680000D01*
X162232299Y-110260000D01*
X163222300Y-110260000D01*
X163222300Y-110680000D01*
G37*
G36*
X163222300Y-111180001D02*
G01*
X162232299Y-111180001D01*
X162232299Y-110759999D01*
X163222300Y-110759999D01*
X163222300Y-111180001D01*
G37*
G36*
X163858600Y-110808499D02*
G01*
X163363800Y-110808499D01*
X163363800Y-107631501D01*
X163858600Y-107631501D01*
X163858600Y-110808499D01*
G37*
G36*
X165540800Y-108232600D02*
G01*
X163363800Y-108232600D01*
X163363800Y-107631501D01*
X165540800Y-107631501D01*
X165540800Y-108232600D01*
G37*
G36*
X165540800Y-109020000D02*
G01*
X163363800Y-109020000D01*
X163363800Y-108632600D01*
X165540800Y-108632600D01*
X165540800Y-109020000D01*
G37*
G36*
X165540800Y-109807400D02*
G01*
X163363800Y-109807400D01*
X163363800Y-109420000D01*
X165540800Y-109420000D01*
X165540800Y-109807400D01*
G37*
G36*
X165540800Y-110808499D02*
G01*
X163363800Y-110808499D01*
X163363800Y-110207400D01*
X165540800Y-110207400D01*
X165540800Y-110808499D01*
G37*
G36*
X163912301Y-107489998D02*
G01*
X163492299Y-107489998D01*
X163492299Y-106500000D01*
X163912301Y-106500000D01*
X163912301Y-107489998D01*
G37*
G36*
X163912301Y-111940000D02*
G01*
X163492299Y-111940000D01*
X163492299Y-110950002D01*
X163912301Y-110950002D01*
X163912301Y-111940000D01*
G37*
G36*
X164646000Y-110808499D02*
G01*
X164258600Y-110808499D01*
X164258600Y-107631501D01*
X164646000Y-107631501D01*
X164646000Y-110808499D01*
G37*
G36*
X165412301Y-107489998D02*
G01*
X164992299Y-107489998D01*
X164992299Y-106500000D01*
X165412301Y-106500000D01*
X165412301Y-107489998D01*
G37*
G36*
X165412301Y-111940000D02*
G01*
X164992299Y-111940000D01*
X164992299Y-110950002D01*
X165412301Y-110950002D01*
X165412301Y-111940000D01*
G37*
G36*
X165540800Y-110808499D02*
G01*
X165046000Y-110808499D01*
X165046000Y-107631501D01*
X165540800Y-107631501D01*
X165540800Y-110808499D01*
G37*
G36*
X166672301Y-107680001D02*
G01*
X165682300Y-107680001D01*
X165682300Y-107259999D01*
X166672301Y-107259999D01*
X166672301Y-107680001D01*
G37*
G36*
X166672301Y-108180000D02*
G01*
X165682300Y-108180000D01*
X165682300Y-107760000D01*
X166672301Y-107760000D01*
X166672301Y-108180000D01*
G37*
G36*
X166672301Y-108680001D02*
G01*
X165682300Y-108680001D01*
X165682300Y-108259999D01*
X166672301Y-108259999D01*
X166672301Y-108680001D01*
G37*
G36*
X166672301Y-109180000D02*
G01*
X165682300Y-109180000D01*
X165682300Y-108760001D01*
X166672301Y-108760001D01*
X166672301Y-109180000D01*
G37*
G36*
X166672301Y-109679999D02*
G01*
X165682300Y-109679999D01*
X165682300Y-109260000D01*
X166672301Y-109260000D01*
X166672301Y-109679999D01*
G37*
G36*
X166672301Y-110180001D02*
G01*
X165682300Y-110180001D01*
X165682300Y-109759999D01*
X166672301Y-109759999D01*
X166672301Y-110180001D01*
G37*
G36*
X166672301Y-110680000D02*
G01*
X165682300Y-110680000D01*
X165682300Y-110260000D01*
X166672301Y-110260000D01*
X166672301Y-110680000D01*
G37*
G36*
X166672301Y-111180001D02*
G01*
X165682300Y-111180001D01*
X165682300Y-110759999D01*
X166672301Y-110759999D01*
X166672301Y-111180001D01*
G37*
G36*
X164292300Y-107295001D02*
G01*
X164612300Y-107295001D01*
X164612300Y-106570001D01*
X164827300Y-106570001D01*
X164827300Y-107695001D01*
X164077300Y-107695001D01*
X164077300Y-106570001D01*
X164292300Y-106570001D01*
X164292300Y-107295001D01*
G37*
G36*
X164827300Y-111869999D02*
G01*
X164612300Y-111869999D01*
X164612300Y-111144999D01*
X164292300Y-111144999D01*
X164292300Y-111869999D01*
X164077300Y-111869999D01*
X164077300Y-110744999D01*
X164827300Y-110744999D01*
X164827300Y-111869999D01*
G37*
%TD*%
D11*
%TO.C,C5*%
X158377099Y-105918000D03*
X156827099Y-105918000D03*
%TD*%
D12*
%TO.C,C12*%
X162814000Y-98412000D03*
X162814000Y-99962000D03*
%TD*%
D13*
%TO.C,R3*%
X171259000Y-114554000D03*
X169609000Y-114554000D03*
%TD*%
D14*
%TO.C,Q1*%
X153704000Y-102804000D03*
X153704000Y-100904000D03*
X151604000Y-101854000D03*
%TD*%
D13*
%TO.C,RCC2*%
X157035000Y-94742000D03*
X155385000Y-94742000D03*
%TD*%
D15*
%TO.C,C6*%
X170543099Y-108085000D03*
X172093099Y-108085000D03*
%TD*%
D16*
%TO.C,RFOD1*%
X170493099Y-111133000D03*
X172143099Y-111133000D03*
%TD*%
D17*
%TO.C,Out1*%
X163048000Y-95021000D03*
D18*
X160508000Y-95021000D03*
%TD*%
D11*
%TO.C,C1*%
X158377099Y-107442000D03*
X156827099Y-107442000D03*
%TD*%
D19*
%TO.C,R1*%
X167762099Y-115768000D03*
X167762099Y-114118000D03*
%TD*%
D15*
%TO.C,C4*%
X170543099Y-106561000D03*
X172093099Y-106561000D03*
%TD*%
D11*
%TO.C,C11*%
X165875000Y-101600000D03*
X164325000Y-101600000D03*
%TD*%
D15*
%TO.C,C8*%
X170543099Y-105037000D03*
X172093099Y-105037000D03*
%TD*%
D20*
%TO.C,J3*%
X151183000Y-90201000D03*
X151183000Y-95981000D03*
D21*
X152243000Y-89891000D03*
X152243000Y-90691000D03*
D22*
X152243000Y-91841000D03*
X152243000Y-92841000D03*
X152243000Y-93341000D03*
X152243000Y-94341000D03*
D21*
X152243000Y-95491000D03*
X152243000Y-96291000D03*
X152243000Y-96291000D03*
X152243000Y-95491000D03*
D22*
X152243000Y-94841000D03*
X152243000Y-93841000D03*
X152243000Y-92341000D03*
X152243000Y-91341000D03*
D21*
X152243000Y-90691000D03*
X152243000Y-89891000D03*
D23*
X151663000Y-88771000D03*
D24*
X147493000Y-88771000D03*
D23*
X151663000Y-97411000D03*
D24*
X147493000Y-97411000D03*
%TD*%
D15*
%TO.C,C2*%
X170543099Y-109609000D03*
X172093099Y-109609000D03*
%TD*%
D25*
%TO.C,C10*%
X160650099Y-113178000D03*
X160650099Y-111628000D03*
%TD*%
D26*
%TO.C,REF\u002A\u002A*%
X174498000Y-118618000D03*
%TD*%
D27*
%TO.C,U1*%
X163702299Y-106995001D03*
D28*
X162727300Y-107470001D03*
X162727300Y-107970000D03*
X162727300Y-108469999D03*
X162727300Y-108970000D03*
X162727300Y-109470000D03*
X162727300Y-109970001D03*
X162727300Y-110470000D03*
X162727300Y-110969999D03*
D27*
X163702299Y-111444999D03*
X165202301Y-111444999D03*
D28*
X166177300Y-110969999D03*
X166177300Y-110470000D03*
X166177300Y-109970001D03*
X166177300Y-109470000D03*
X166177300Y-108970000D03*
X166177300Y-108469999D03*
X166177300Y-107970000D03*
X166177300Y-107470001D03*
D27*
X165202301Y-106995001D03*
D29*
X164058600Y-108432600D03*
X164058600Y-109220000D03*
X164058600Y-110007400D03*
X164846000Y-108432600D03*
X164846000Y-109220000D03*
X164846000Y-110007400D03*
%TD*%
D19*
%TO.C,R2*%
X169926000Y-118173000D03*
X169926000Y-116523000D03*
%TD*%
D17*
%TO.C,EN1*%
X164592000Y-116586000D03*
D18*
X162052000Y-116586000D03*
X159512000Y-116586000D03*
%TD*%
D30*
%TO.C,RT1*%
X175371000Y-114554000D03*
X173371000Y-114554000D03*
%TD*%
D12*
%TO.C,C7*%
X164338000Y-98412000D03*
X164338000Y-99962000D03*
%TD*%
D11*
%TO.C,C13*%
X165875000Y-103251000D03*
X164325000Y-103251000D03*
%TD*%
D16*
%TO.C,RFOD2*%
X170498000Y-103505000D03*
X172148000Y-103505000D03*
%TD*%
D15*
%TO.C,C3*%
X161023000Y-105283000D03*
X162573000Y-105283000D03*
%TD*%
D13*
%TO.C,RCC1*%
X157035000Y-91694000D03*
X155385000Y-91694000D03*
%TD*%
D31*
%TO.C,Coil1*%
X173990000Y-96266000D03*
D32*
X168910000Y-96266000D03*
%TD*%
D26*
%TO.C,REF\u002A\u002A*%
X154178000Y-118618000D03*
%TD*%
D11*
%TO.C,C9*%
X158377099Y-104394000D03*
X156827099Y-104394000D03*
%TD*%
M02*
