%TF.GenerationSoftware,KiCad,Pcbnew,7.0.2*%
%TF.CreationDate,2025-03-07T15:31:29-05:00*%
%TF.ProjectId,3BQ5101eBRHLR,33425135-3130-4316-9542-52484c522e6b,rev?*%
%TF.SameCoordinates,Original*%
%TF.FileFunction,Copper,L2,Bot*%
%TF.FilePolarity,Positive*%
%FSLAX46Y46*%
G04 Gerber Fmt 4.6, Leading zero omitted, Abs format (unit mm)*
G04 Created by KiCad (PCBNEW 7.0.2) date 2025-03-07 15:31:29*
%MOMM*%
%LPD*%
G01*
G04 APERTURE LIST*
%TA.AperFunction,NonConductor*%
%ADD10C,0.200000*%
%TD*%
%TA.AperFunction,NonConductor*%
%ADD11C,1.150000*%
%TD*%
%ADD12C,0.300000*%
%TA.AperFunction,NonConductor*%
%ADD13C,0.300000*%
%TD*%
%TA.AperFunction,ComponentPad*%
%ADD14R,1.700000X1.700000*%
%TD*%
%TA.AperFunction,ComponentPad*%
%ADD15O,1.700000X1.700000*%
%TD*%
%TA.AperFunction,ComponentPad*%
%ADD16O,2.000000X0.900000*%
%TD*%
%TA.AperFunction,ComponentPad*%
%ADD17O,1.700000X0.900000*%
%TD*%
%TA.AperFunction,ComponentPad*%
%ADD18C,0.508000*%
%TD*%
%TA.AperFunction,ComponentPad*%
%ADD19R,3.000000X3.000000*%
%TD*%
%TA.AperFunction,ComponentPad*%
%ADD20C,3.000000*%
%TD*%
%TA.AperFunction,ViaPad*%
%ADD21C,1.270000*%
%TD*%
%TA.AperFunction,ViaPad*%
%ADD22C,1.200000*%
%TD*%
%TA.AperFunction,Conductor*%
%ADD23C,0.500000*%
%TD*%
%TA.AperFunction,Conductor*%
%ADD24C,0.250000*%
%TD*%
%TA.AperFunction,Conductor*%
%ADD25C,0.550000*%
%TD*%
%TA.AperFunction,Conductor*%
%ADD26C,0.750000*%
%TD*%
G04 APERTURE END LIST*
D10*
X158750000Y-87376000D02*
X145415000Y-87376000D01*
X177546000Y-91948000D02*
X158750000Y-91948000D01*
X145415000Y-99314000D02*
X149098000Y-99314000D01*
D11*
X175073000Y-118618000D02*
G75*
G03*
X175073000Y-118618000I-575000J0D01*
G01*
D10*
X158750000Y-91948000D02*
X158750000Y-87376000D01*
X149098000Y-99314000D02*
X149098000Y-121666000D01*
X145415000Y-87376000D02*
X145415000Y-99314000D01*
X149098000Y-121666000D02*
X177546000Y-121666000D01*
X177546000Y-121666000D02*
X177546000Y-91948000D01*
D11*
X154753000Y-118618000D02*
G75*
G03*
X154753000Y-118618000I-575000J0D01*
G01*
D12*
D13*
X153638285Y-115315000D02*
X153424000Y-115386428D01*
X153424000Y-115386428D02*
X153066857Y-115386428D01*
X153066857Y-115386428D02*
X152924000Y-115315000D01*
X152924000Y-115315000D02*
X152852571Y-115243571D01*
X152852571Y-115243571D02*
X152781142Y-115100714D01*
X152781142Y-115100714D02*
X152781142Y-114957857D01*
X152781142Y-114957857D02*
X152852571Y-114815000D01*
X152852571Y-114815000D02*
X152924000Y-114743571D01*
X152924000Y-114743571D02*
X153066857Y-114672142D01*
X153066857Y-114672142D02*
X153352571Y-114600714D01*
X153352571Y-114600714D02*
X153495428Y-114529285D01*
X153495428Y-114529285D02*
X153566857Y-114457857D01*
X153566857Y-114457857D02*
X153638285Y-114315000D01*
X153638285Y-114315000D02*
X153638285Y-114172142D01*
X153638285Y-114172142D02*
X153566857Y-114029285D01*
X153566857Y-114029285D02*
X153495428Y-113957857D01*
X153495428Y-113957857D02*
X153352571Y-113886428D01*
X153352571Y-113886428D02*
X152995428Y-113886428D01*
X152995428Y-113886428D02*
X152781142Y-113957857D01*
X152209714Y-114029285D02*
X152138286Y-113957857D01*
X152138286Y-113957857D02*
X151995429Y-113886428D01*
X151995429Y-113886428D02*
X151638286Y-113886428D01*
X151638286Y-113886428D02*
X151495429Y-113957857D01*
X151495429Y-113957857D02*
X151424000Y-114029285D01*
X151424000Y-114029285D02*
X151352571Y-114172142D01*
X151352571Y-114172142D02*
X151352571Y-114315000D01*
X151352571Y-114315000D02*
X151424000Y-114529285D01*
X151424000Y-114529285D02*
X152281143Y-115386428D01*
X152281143Y-115386428D02*
X151352571Y-115386428D01*
D14*
%TO.P,Out1,1,Pin_1*%
%TO.N,GND*%
X163048000Y-95021000D03*
D15*
%TO.P,Out1,2,Pin_2*%
%TO.N,OUT*%
X160508000Y-95021000D03*
%TD*%
D16*
%TO.P,J3,S1,SHIELD*%
%TO.N,GND*%
X151663000Y-88771000D03*
D17*
X147493000Y-88771000D03*
D16*
X151663000Y-97411000D03*
D17*
X147493000Y-97411000D03*
%TD*%
D18*
%TO.P,U1,V*%
%TO.N,N/C*%
X164058600Y-108432600D03*
X164058600Y-109220000D03*
X164058600Y-110007400D03*
X164846000Y-108432600D03*
X164846000Y-109220000D03*
X164846000Y-110007400D03*
%TD*%
D14*
%TO.P,EN1,1,Pin_1*%
%TO.N,Net-(EN1-Pin_1)*%
X164592000Y-116586000D03*
D15*
%TO.P,EN1,2,Pin_2*%
%TO.N,Net-(EN1-Pin_2)*%
X162052000Y-116586000D03*
%TO.P,EN1,3,Pin_3*%
%TO.N,Net-(EN1-Pin_3)*%
X159512000Y-116586000D03*
%TD*%
D19*
%TO.P,Coil1,1,Pin_1*%
%TO.N,AC2*%
X173990000Y-96266000D03*
D20*
%TO.P,Coil1,2,Pin_2*%
%TO.N,Net-(Coil1-Pin_2)*%
X168910000Y-96266000D03*
%TD*%
D21*
%TO.N,AC1*%
X154813000Y-107569000D03*
X162679000Y-102751000D03*
%TO.N,AC2*%
X167640000Y-106299000D03*
X173736000Y-108077000D03*
X167513000Y-102362000D03*
X173736000Y-106553000D03*
X173736000Y-109601000D03*
D22*
%TO.N,FOD*%
X172085000Y-101854000D03*
D21*
X167767000Y-117475000D03*
X171450000Y-112776000D03*
D22*
%TO.N,GND*%
X174752000Y-111506000D03*
D21*
X158750000Y-100838000D03*
X156464000Y-113792000D03*
X164719000Y-105283000D03*
X152527000Y-111506000D03*
%TO.N,Net-(EN1-Pin_3)*%
X158496000Y-109220000D03*
X158496000Y-114046000D03*
%TO.N,Net-(Q1-G)*%
X157226000Y-110363000D03*
X153704000Y-104394000D03*
%TO.N,Net-(U1-AD)*%
X156083000Y-111628000D03*
X154015500Y-96755279D03*
X153924000Y-89916000D03*
%TD*%
D23*
%TO.N,AC1*%
X154813000Y-107569000D02*
X154813000Y-104016099D01*
X156078099Y-102751000D02*
X162679000Y-102751000D01*
X154813000Y-104016099D02*
X156078099Y-102751000D01*
D24*
%TO.N,AC2*%
X173736000Y-107696000D02*
X173736000Y-108077000D01*
X167513000Y-102362000D02*
X167640000Y-102489000D01*
X167640000Y-106553000D02*
X167640000Y-106299000D01*
D25*
X167640000Y-102489000D02*
X167640000Y-106553000D01*
D26*
X173990000Y-97155000D02*
X173990000Y-106299000D01*
X173736000Y-106553000D02*
X173736000Y-108077000D01*
X173736000Y-109601000D02*
X173736000Y-107696000D01*
D23*
X173990000Y-106299000D02*
X173736000Y-106553000D01*
D24*
%TO.N,FOD*%
X172080099Y-113419000D02*
X171450000Y-112788901D01*
X172085000Y-101854000D02*
X172085000Y-102425500D01*
X172085000Y-102425500D02*
X170556099Y-103954401D01*
X167775000Y-117483000D02*
X171572099Y-117483000D01*
X167767000Y-117475000D02*
X167775000Y-117483000D01*
X171572099Y-117483000D02*
X172080099Y-116975000D01*
X172080099Y-116975000D02*
X172080099Y-113419000D01*
X170556099Y-103954401D02*
X170556099Y-111882099D01*
X170556099Y-111882099D02*
X171450000Y-112776000D01*
X171450000Y-112788901D02*
X171450000Y-112776000D01*
%TO.N,Net-(EN1-Pin_3)*%
X158496000Y-109220000D02*
X158496000Y-114046000D01*
%TO.N,Net-(Q1-G)*%
X153704000Y-109254000D02*
X154813000Y-110363000D01*
X153704000Y-104394000D02*
X153704000Y-109254000D01*
X154813000Y-110363000D02*
X157226000Y-110363000D01*
D23*
%TO.N,Net-(U1-AD)*%
X153924000Y-96663779D02*
X153924000Y-89916000D01*
X155062000Y-111628000D02*
X156083000Y-111628000D01*
X151384000Y-107950000D02*
X152019000Y-108585000D01*
D24*
X154015500Y-96755279D02*
X153924000Y-96846779D01*
D23*
X151384000Y-103505000D02*
X151384000Y-107950000D01*
X153924000Y-96846779D02*
X153924000Y-100965000D01*
X153924000Y-100965000D02*
X151384000Y-103505000D01*
D24*
X154015500Y-96755279D02*
X153924000Y-96663779D01*
D23*
X152019000Y-108585000D02*
X155062000Y-111628000D01*
%TD*%
%TA.AperFunction,Conductor*%
%TO.N,GND*%
G36*
X150200844Y-87945866D02*
G01*
X150276199Y-88000615D01*
X150322772Y-88081280D01*
X150332508Y-88173914D01*
X150310843Y-88249148D01*
X150217540Y-88439359D01*
X150196402Y-88520998D01*
X150196404Y-88521000D01*
X150946889Y-88521000D01*
X150907390Y-88545457D01*
X150839799Y-88634962D01*
X150809105Y-88742840D01*
X150819454Y-88854521D01*
X150869448Y-88954922D01*
X150941931Y-89021000D01*
X150192529Y-89021000D01*
X150255687Y-89191531D01*
X150357886Y-89355495D01*
X150491007Y-89495538D01*
X150652029Y-89607613D01*
X150715745Y-89675556D01*
X150746318Y-89763540D01*
X150738461Y-89856352D01*
X150707067Y-89920639D01*
X150689622Y-89945352D01*
X150638946Y-90087941D01*
X150628618Y-90238921D01*
X150659408Y-90387086D01*
X150729028Y-90521446D01*
X150832318Y-90632043D01*
X150832320Y-90632044D01*
X150961618Y-90710672D01*
X151107335Y-90751500D01*
X151107336Y-90751500D01*
X151213007Y-90751500D01*
X151220658Y-90751500D01*
X151332920Y-90736070D01*
X151471720Y-90675780D01*
X151589108Y-90580278D01*
X151676377Y-90456647D01*
X151727054Y-90314056D01*
X151737381Y-90163079D01*
X151706592Y-90014915D01*
X151701534Y-89990574D01*
X151701958Y-89897431D01*
X151740231Y-89812512D01*
X151809733Y-89750502D01*
X151898449Y-89722123D01*
X151920849Y-89721000D01*
X152255493Y-89721000D01*
X152266823Y-89720425D01*
X152405222Y-89706351D01*
X152545534Y-89662328D01*
X152638262Y-89653531D01*
X152726551Y-89683210D01*
X152795136Y-89746234D01*
X152832157Y-89831705D01*
X152835636Y-89896721D01*
X152833849Y-89916002D01*
X152852411Y-90116315D01*
X152907463Y-90309805D01*
X152945945Y-90387086D01*
X152997136Y-90489890D01*
X153104485Y-90632044D01*
X153118370Y-90650430D01*
X153150406Y-90679634D01*
X153204691Y-90755324D01*
X153223500Y-90845173D01*
X153223500Y-95927722D01*
X153204134Y-96018831D01*
X153178257Y-96062711D01*
X153088636Y-96181389D01*
X152998964Y-96361471D01*
X152979155Y-96431094D01*
X152935595Y-96513425D01*
X152862314Y-96570921D01*
X152771982Y-96593640D01*
X152680220Y-96577654D01*
X152675370Y-96575639D01*
X152498864Y-96499894D01*
X152309605Y-96461000D01*
X151913978Y-96461000D01*
X151822869Y-96441634D01*
X151747514Y-96386885D01*
X151700941Y-96306220D01*
X151691205Y-96213586D01*
X151702912Y-96161987D01*
X151727053Y-96094058D01*
X151727054Y-96094056D01*
X151737381Y-95943079D01*
X151706592Y-95794915D01*
X151636971Y-95660553D01*
X151636970Y-95660552D01*
X151533681Y-95549956D01*
X151404382Y-95471328D01*
X151390702Y-95467495D01*
X151258665Y-95430500D01*
X151145342Y-95430500D01*
X151137770Y-95431540D01*
X151137766Y-95431541D01*
X151033079Y-95445930D01*
X150894279Y-95506220D01*
X150776892Y-95601721D01*
X150689621Y-95725354D01*
X150638946Y-95867941D01*
X150628618Y-96018921D01*
X150659408Y-96167086D01*
X150723915Y-96291579D01*
X150748637Y-96381383D01*
X150734694Y-96473478D01*
X150684499Y-96551940D01*
X150633738Y-96590487D01*
X150567499Y-96627252D01*
X150420894Y-96753107D01*
X150302628Y-96905895D01*
X150217540Y-97079359D01*
X150196402Y-97160998D01*
X150196404Y-97161000D01*
X150946889Y-97161000D01*
X150907390Y-97185457D01*
X150839799Y-97274962D01*
X150809105Y-97382840D01*
X150819454Y-97494521D01*
X150869448Y-97594922D01*
X150941931Y-97661000D01*
X150192529Y-97661000D01*
X150255687Y-97831531D01*
X150357886Y-97995495D01*
X150491007Y-98135538D01*
X150649586Y-98245913D01*
X150827135Y-98322105D01*
X151016395Y-98361000D01*
X151413000Y-98361000D01*
X151413000Y-97711000D01*
X151913000Y-97711000D01*
X151913000Y-98361000D01*
X152255493Y-98361000D01*
X152266823Y-98360425D01*
X152405222Y-98346351D01*
X152589570Y-98288511D01*
X152758502Y-98194746D01*
X152853593Y-98113114D01*
X152935337Y-98068462D01*
X153028175Y-98060919D01*
X153116055Y-98091789D01*
X153183782Y-98155734D01*
X153219645Y-98241697D01*
X153223500Y-98283076D01*
X153223500Y-100582058D01*
X153204134Y-100673167D01*
X153157892Y-100740450D01*
X150908417Y-102989924D01*
X150898567Y-102999196D01*
X150855816Y-103037070D01*
X150823366Y-103084081D01*
X150815354Y-103094970D01*
X150780120Y-103139945D01*
X150779689Y-103140903D01*
X150759781Y-103176201D01*
X150759181Y-103177069D01*
X150738927Y-103230474D01*
X150733753Y-103242967D01*
X150710304Y-103295070D01*
X150710113Y-103296115D01*
X150699234Y-103335139D01*
X150698860Y-103336124D01*
X150691975Y-103392821D01*
X150689940Y-103406190D01*
X150679641Y-103462391D01*
X150683091Y-103519405D01*
X150683500Y-103532933D01*
X150683500Y-107922065D01*
X150683091Y-107935593D01*
X150679641Y-107992605D01*
X150689938Y-108048793D01*
X150691973Y-108062164D01*
X150698859Y-108118871D01*
X150699229Y-108119845D01*
X150710115Y-108158894D01*
X150710305Y-108159933D01*
X150733753Y-108212032D01*
X150738930Y-108224531D01*
X150759183Y-108277934D01*
X150759777Y-108278794D01*
X150779688Y-108314096D01*
X150780119Y-108315053D01*
X150815353Y-108360027D01*
X150823370Y-108370922D01*
X150855817Y-108417929D01*
X150898568Y-108455803D01*
X150908420Y-108465077D01*
X151493706Y-109050362D01*
X151493710Y-109050367D01*
X154546930Y-112103587D01*
X154556188Y-112113422D01*
X154594071Y-112156183D01*
X154617464Y-112172330D01*
X154641081Y-112188632D01*
X154651977Y-112196650D01*
X154718355Y-112248654D01*
X154717354Y-112249931D01*
X154761118Y-112281995D01*
X154761683Y-112282983D01*
X154788231Y-112281592D01*
X154845127Y-112298571D01*
X154850713Y-112301085D01*
X154852069Y-112301695D01*
X154853095Y-112301883D01*
X154892158Y-112312772D01*
X154893128Y-112313140D01*
X154949818Y-112320023D01*
X154963195Y-112322059D01*
X155019393Y-112332358D01*
X155019393Y-112332357D01*
X155019394Y-112332358D01*
X155076407Y-112328909D01*
X155089935Y-112328500D01*
X155153372Y-112328500D01*
X155244481Y-112347866D01*
X155304279Y-112386961D01*
X155426040Y-112497960D01*
X155597075Y-112603861D01*
X155659034Y-112627864D01*
X155784666Y-112676534D01*
X155982414Y-112713500D01*
X156183586Y-112713500D01*
X156381334Y-112676534D01*
X156568922Y-112603862D01*
X156605686Y-112581099D01*
X156739959Y-112497960D01*
X156739959Y-112497959D01*
X156739962Y-112497958D01*
X156888631Y-112362429D01*
X157009864Y-112201890D01*
X157099535Y-112021808D01*
X157154588Y-111828315D01*
X157163933Y-111727465D01*
X157171764Y-111642959D01*
X157199453Y-111554025D01*
X157260922Y-111484043D01*
X157345540Y-111445112D01*
X157353639Y-111443442D01*
X157524334Y-111411534D01*
X157615583Y-111376183D01*
X157707534Y-111361330D01*
X157797578Y-111385160D01*
X157870146Y-111443555D01*
X157912688Y-111526416D01*
X157920500Y-111585058D01*
X157920500Y-113002874D01*
X157901134Y-113093983D01*
X157847408Y-113168412D01*
X157690368Y-113311571D01*
X157569136Y-113472109D01*
X157479463Y-113652194D01*
X157424411Y-113845684D01*
X157405849Y-114045999D01*
X157424411Y-114246315D01*
X157479463Y-114439805D01*
X157569136Y-114619890D01*
X157690368Y-114780428D01*
X157839040Y-114915960D01*
X158010075Y-115021861D01*
X158197666Y-115094534D01*
X158395414Y-115131500D01*
X158611450Y-115131500D01*
X158702559Y-115150866D01*
X158777914Y-115205615D01*
X158824487Y-115286280D01*
X158834223Y-115378914D01*
X158805440Y-115467500D01*
X158743114Y-115536720D01*
X158739931Y-115538990D01*
X158672862Y-115585951D01*
X158511951Y-115746862D01*
X158381431Y-115933265D01*
X158285260Y-116139504D01*
X158226365Y-116359304D01*
X158206532Y-116586000D01*
X158226365Y-116812695D01*
X158285260Y-117032495D01*
X158381431Y-117238734D01*
X158511951Y-117425137D01*
X158672862Y-117586048D01*
X158859265Y-117716568D01*
X158948438Y-117758150D01*
X159065504Y-117812739D01*
X159285308Y-117871635D01*
X159512000Y-117891468D01*
X159738692Y-117871635D01*
X159958496Y-117812739D01*
X160164734Y-117716568D01*
X160351139Y-117586047D01*
X160512047Y-117425139D01*
X160598509Y-117301656D01*
X160666630Y-117238132D01*
X160754700Y-117207807D01*
X160847490Y-117215924D01*
X160928956Y-117261081D01*
X160965489Y-117301655D01*
X161040379Y-117408609D01*
X161051953Y-117425139D01*
X161212862Y-117586048D01*
X161399265Y-117716568D01*
X161488438Y-117758150D01*
X161605504Y-117812739D01*
X161825308Y-117871635D01*
X162052000Y-117891468D01*
X162278692Y-117871635D01*
X162498496Y-117812739D01*
X162704734Y-117716568D01*
X162891139Y-117586047D01*
X162954696Y-117522489D01*
X163032811Y-117471761D01*
X163124809Y-117457189D01*
X163214780Y-117481296D01*
X163287167Y-117539913D01*
X163324517Y-117606900D01*
X163339207Y-117648883D01*
X163419849Y-117758150D01*
X163529116Y-117838792D01*
X163529117Y-117838792D01*
X163529118Y-117838793D01*
X163657301Y-117883646D01*
X163687734Y-117886500D01*
X163692974Y-117886500D01*
X165491026Y-117886500D01*
X165496266Y-117886500D01*
X165526699Y-117883646D01*
X165654882Y-117838793D01*
X165764150Y-117758150D01*
X165844793Y-117648882D01*
X165889646Y-117520699D01*
X165892500Y-117490266D01*
X165892500Y-117474999D01*
X166676849Y-117474999D01*
X166695411Y-117675315D01*
X166750463Y-117868805D01*
X166840136Y-118048890D01*
X166961368Y-118209428D01*
X167110040Y-118344960D01*
X167281075Y-118450861D01*
X167281078Y-118450862D01*
X167468666Y-118523534D01*
X167666414Y-118560500D01*
X167867586Y-118560500D01*
X168065334Y-118523534D01*
X168252922Y-118450862D01*
X168423962Y-118344958D01*
X168572631Y-118209429D01*
X168619390Y-118147509D01*
X168689750Y-118086473D01*
X168778853Y-118059332D01*
X168798146Y-118058500D01*
X171519702Y-118058500D01*
X171548938Y-118060415D01*
X171572099Y-118063465D01*
X171609807Y-118058500D01*
X171609818Y-118058500D01*
X171609819Y-118058500D01*
X171722335Y-118043687D01*
X171862332Y-117985698D01*
X171884732Y-117968509D01*
X171921666Y-117940170D01*
X171981793Y-117894033D01*
X171981802Y-117894024D01*
X171982550Y-117893451D01*
X171996770Y-117874917D01*
X172016081Y-117852896D01*
X172449995Y-117418982D01*
X172472016Y-117399671D01*
X172490550Y-117385451D01*
X172491120Y-117384707D01*
X172491124Y-117384704D01*
X172541414Y-117319164D01*
X172582797Y-117265233D01*
X172640786Y-117125236D01*
X172645244Y-117091373D01*
X172645277Y-117091127D01*
X172652995Y-117032496D01*
X172655599Y-117012720D01*
X172655599Y-117012714D01*
X172660564Y-116975000D01*
X172657515Y-116951839D01*
X172655599Y-116922602D01*
X172655599Y-113471404D01*
X172657515Y-113442167D01*
X172657618Y-113441382D01*
X172660565Y-113419000D01*
X172640786Y-113268765D01*
X172637417Y-113260632D01*
X172616284Y-113209612D01*
X172582798Y-113128768D01*
X172569010Y-113110799D01*
X172528911Y-113026730D01*
X172523677Y-112953768D01*
X172540150Y-112775999D01*
X172521588Y-112575684D01*
X172466536Y-112382194D01*
X172456694Y-112362428D01*
X172376864Y-112202110D01*
X172255631Y-112041571D01*
X172106962Y-111906042D01*
X172106959Y-111906039D01*
X171935924Y-111800138D01*
X171748333Y-111727465D01*
X171550586Y-111690500D01*
X171355599Y-111690500D01*
X171264490Y-111671134D01*
X171189135Y-111616385D01*
X171142562Y-111535720D01*
X171131599Y-111466500D01*
X171131599Y-104285564D01*
X171150965Y-104194455D01*
X171197204Y-104127175D01*
X172454896Y-102869482D01*
X172476909Y-102850177D01*
X172495451Y-102835951D01*
X172495452Y-102835948D01*
X172518853Y-102817994D01*
X172521281Y-102821158D01*
X172550033Y-102796589D01*
X172551095Y-102796015D01*
X172671450Y-102731685D01*
X172798398Y-102627501D01*
X172881109Y-102584674D01*
X172974092Y-102579190D01*
X173061267Y-102612000D01*
X173127560Y-102677431D01*
X173161508Y-102764168D01*
X173164500Y-102800657D01*
X173164500Y-105506227D01*
X173145134Y-105597336D01*
X173091408Y-105671765D01*
X172930369Y-105818571D01*
X172809136Y-105979109D01*
X172719463Y-106159194D01*
X172664411Y-106352684D01*
X172645849Y-106552999D01*
X172664411Y-106753315D01*
X172719463Y-106946805D01*
X172809135Y-107126887D01*
X172809136Y-107126890D01*
X172849250Y-107180010D01*
X172888701Y-107264386D01*
X172890422Y-107357515D01*
X172854116Y-107443292D01*
X172849251Y-107449988D01*
X172809134Y-107503111D01*
X172719464Y-107683192D01*
X172664411Y-107876684D01*
X172645849Y-108077000D01*
X172664411Y-108277315D01*
X172719463Y-108470805D01*
X172794030Y-108620553D01*
X172809136Y-108650890D01*
X172849250Y-108704010D01*
X172888701Y-108788386D01*
X172890422Y-108881515D01*
X172854116Y-108967292D01*
X172849251Y-108973988D01*
X172809134Y-109027111D01*
X172719464Y-109207192D01*
X172664411Y-109400684D01*
X172645849Y-109600999D01*
X172664411Y-109801315D01*
X172719463Y-109994805D01*
X172809136Y-110174890D01*
X172930368Y-110335428D01*
X173079040Y-110470960D01*
X173250075Y-110576861D01*
X173250078Y-110576862D01*
X173437666Y-110649534D01*
X173635414Y-110686500D01*
X173836586Y-110686500D01*
X174034334Y-110649534D01*
X174221922Y-110576862D01*
X174392962Y-110470958D01*
X174541631Y-110335429D01*
X174662864Y-110174890D01*
X174752535Y-109994808D01*
X174807588Y-109801315D01*
X174826150Y-109601000D01*
X174807588Y-109400685D01*
X174777117Y-109293591D01*
X174752535Y-109207192D01*
X174662865Y-109027110D01*
X174622750Y-108973990D01*
X174583298Y-108889613D01*
X174581577Y-108796484D01*
X174617883Y-108710707D01*
X174622699Y-108704077D01*
X174662864Y-108650890D01*
X174752535Y-108470808D01*
X174761597Y-108438960D01*
X174807588Y-108277315D01*
X174826150Y-108077000D01*
X174807588Y-107876684D01*
X174752535Y-107683192D01*
X174662865Y-107503110D01*
X174622750Y-107449990D01*
X174583298Y-107365613D01*
X174581577Y-107272484D01*
X174617883Y-107186707D01*
X174622699Y-107180077D01*
X174662864Y-107126890D01*
X174752535Y-106946808D01*
X174784470Y-106834569D01*
X174807588Y-106753315D01*
X174826150Y-106553001D01*
X174821175Y-106499315D01*
X174815505Y-106438130D01*
X174817062Y-106413147D01*
X174815500Y-106413147D01*
X174815500Y-98440500D01*
X174834866Y-98349391D01*
X174889615Y-98274036D01*
X174970280Y-98227463D01*
X175039500Y-98216500D01*
X175539026Y-98216500D01*
X175544266Y-98216500D01*
X175574699Y-98213646D01*
X175702882Y-98168793D01*
X175812150Y-98088150D01*
X175892793Y-97978882D01*
X175937646Y-97850699D01*
X175940500Y-97820266D01*
X175940500Y-94711734D01*
X175937646Y-94681301D01*
X175892793Y-94553118D01*
X175880396Y-94536320D01*
X175812150Y-94443849D01*
X175702883Y-94363207D01*
X175574700Y-94318354D01*
X175571676Y-94318070D01*
X175544266Y-94315500D01*
X172435734Y-94315500D01*
X172411345Y-94317787D01*
X172405299Y-94318354D01*
X172277116Y-94363207D01*
X172167849Y-94443849D01*
X172087207Y-94553116D01*
X172042354Y-94681299D01*
X172042353Y-94681301D01*
X172042354Y-94681301D01*
X172039500Y-94711734D01*
X172039500Y-97820266D01*
X172042070Y-97847676D01*
X172042354Y-97850700D01*
X172087207Y-97978883D01*
X172167849Y-98088150D01*
X172277116Y-98168792D01*
X172277117Y-98168792D01*
X172277118Y-98168793D01*
X172405301Y-98213646D01*
X172435734Y-98216500D01*
X172940500Y-98216500D01*
X173031609Y-98235866D01*
X173106964Y-98290615D01*
X173153537Y-98371280D01*
X173164500Y-98440500D01*
X173164500Y-100907342D01*
X173145134Y-100998451D01*
X173090385Y-101073806D01*
X173009720Y-101120379D01*
X172917086Y-101130115D01*
X172828500Y-101101332D01*
X172798401Y-101080500D01*
X172671450Y-100976315D01*
X172671448Y-100976314D01*
X172671447Y-100976313D01*
X172587508Y-100931447D01*
X172488954Y-100878768D01*
X172290934Y-100818700D01*
X172290932Y-100818699D01*
X172290930Y-100818699D01*
X172085000Y-100798416D01*
X171879069Y-100818699D01*
X171879065Y-100818700D01*
X171879066Y-100818700D01*
X171681046Y-100878768D01*
X171681044Y-100878768D01*
X171681044Y-100878769D01*
X171498553Y-100976313D01*
X171498551Y-100976314D01*
X171498550Y-100976315D01*
X171338590Y-101107590D01*
X171316228Y-101134839D01*
X171207313Y-101267553D01*
X171147025Y-101380344D01*
X171109768Y-101450046D01*
X171102110Y-101475291D01*
X171049699Y-101648069D01*
X171029416Y-101854000D01*
X171049699Y-102059930D01*
X171049699Y-102059932D01*
X171049700Y-102059934D01*
X171099109Y-102222817D01*
X171109769Y-102257956D01*
X171146018Y-102325773D01*
X171171888Y-102415253D01*
X171159126Y-102507519D01*
X171109939Y-102586618D01*
X171106860Y-102589758D01*
X170186207Y-103510411D01*
X170164185Y-103529724D01*
X170145649Y-103543947D01*
X170122488Y-103574131D01*
X170122487Y-103574133D01*
X170111513Y-103588435D01*
X170053401Y-103664166D01*
X169995412Y-103804163D01*
X169980599Y-103916682D01*
X169980599Y-103916687D01*
X169975634Y-103954400D01*
X169978683Y-103977561D01*
X169980599Y-104006798D01*
X169980599Y-111829701D01*
X169978683Y-111858938D01*
X169975633Y-111882098D01*
X169980599Y-111919813D01*
X169980599Y-111919818D01*
X169995412Y-112032336D01*
X170046712Y-112156182D01*
X170046712Y-112156183D01*
X170053401Y-112172332D01*
X170122487Y-112262367D01*
X170122489Y-112262369D01*
X170128964Y-112270807D01*
X170128965Y-112270809D01*
X170145647Y-112292549D01*
X170164180Y-112306770D01*
X170186209Y-112326089D01*
X170308924Y-112448804D01*
X170359654Y-112526922D01*
X170374225Y-112618919D01*
X170373576Y-112627864D01*
X170359849Y-112775999D01*
X170378411Y-112976315D01*
X170433463Y-113169805D01*
X170523136Y-113349890D01*
X170644368Y-113510428D01*
X170793040Y-113645960D01*
X170964075Y-113751861D01*
X170964078Y-113751862D01*
X171151666Y-113824534D01*
X171321760Y-113856330D01*
X171407758Y-113892107D01*
X171471770Y-113959771D01*
X171502727Y-114047620D01*
X171504599Y-114076516D01*
X171504598Y-116643836D01*
X171485232Y-116734945D01*
X171438994Y-116802224D01*
X171399328Y-116841890D01*
X171321216Y-116892620D01*
X171240936Y-116907500D01*
X168810228Y-116907500D01*
X168719119Y-116888134D01*
X168643764Y-116833385D01*
X168631472Y-116818490D01*
X168572631Y-116740571D01*
X168423959Y-116605039D01*
X168252924Y-116499138D01*
X168065333Y-116426465D01*
X167867586Y-116389500D01*
X167666414Y-116389500D01*
X167468666Y-116426465D01*
X167281075Y-116499138D01*
X167110040Y-116605039D01*
X166961368Y-116740571D01*
X166840136Y-116901109D01*
X166750463Y-117081194D01*
X166695411Y-117274684D01*
X166676849Y-117474999D01*
X165892500Y-117474999D01*
X165892500Y-115681734D01*
X165889646Y-115651301D01*
X165844793Y-115523118D01*
X165844792Y-115523116D01*
X165764150Y-115413849D01*
X165654883Y-115333207D01*
X165526700Y-115288354D01*
X165523676Y-115288070D01*
X165496266Y-115285500D01*
X163687734Y-115285500D01*
X163663345Y-115287787D01*
X163657299Y-115288354D01*
X163529116Y-115333207D01*
X163419849Y-115413849D01*
X163339207Y-115523116D01*
X163324517Y-115565100D01*
X163276146Y-115644700D01*
X163199581Y-115697744D01*
X163108061Y-115715061D01*
X163017409Y-115693655D01*
X162954695Y-115649509D01*
X162891137Y-115585951D01*
X162704734Y-115455431D01*
X162498495Y-115359260D01*
X162278695Y-115300365D01*
X162052000Y-115280532D01*
X161825304Y-115300365D01*
X161605504Y-115359260D01*
X161399265Y-115455431D01*
X161212862Y-115585951D01*
X161051951Y-115746862D01*
X160965490Y-115870343D01*
X160897369Y-115933867D01*
X160809299Y-115964192D01*
X160716509Y-115956074D01*
X160635043Y-115910917D01*
X160598510Y-115870343D01*
X160512048Y-115746862D01*
X160351137Y-115585951D01*
X160164734Y-115455431D01*
X159958495Y-115359260D01*
X159738695Y-115300365D01*
X159561618Y-115284873D01*
X159512000Y-115280532D01*
X159511999Y-115280532D01*
X159332627Y-115296225D01*
X159240177Y-115284873D01*
X159160336Y-115236900D01*
X159106911Y-115160601D01*
X159089138Y-115069167D01*
X159110091Y-114978410D01*
X159162194Y-114907541D01*
X159301631Y-114780429D01*
X159422864Y-114619890D01*
X159512535Y-114439808D01*
X159567588Y-114246315D01*
X159586150Y-114046000D01*
X159569054Y-113861500D01*
X159567588Y-113845684D01*
X159512536Y-113652194D01*
X159509431Y-113645958D01*
X159422864Y-113472110D01*
X159301631Y-113311571D01*
X159152962Y-113176042D01*
X159152961Y-113176041D01*
X159144592Y-113168412D01*
X159090309Y-113092721D01*
X159071500Y-113002874D01*
X159071500Y-110263126D01*
X159090866Y-110172017D01*
X159144592Y-110097588D01*
X159152962Y-110089958D01*
X159243524Y-110007400D01*
X163348926Y-110007400D01*
X163369548Y-110177236D01*
X163430215Y-110337202D01*
X163527401Y-110478001D01*
X163655459Y-110591450D01*
X163806946Y-110670957D01*
X163973058Y-110711900D01*
X164144142Y-110711900D01*
X164310254Y-110670957D01*
X164348201Y-110651040D01*
X164437873Y-110625847D01*
X164530040Y-110639305D01*
X164556396Y-110651039D01*
X164594346Y-110670957D01*
X164760458Y-110711900D01*
X164931542Y-110711900D01*
X165097654Y-110670957D01*
X165249141Y-110591450D01*
X165377199Y-110478001D01*
X165474385Y-110337202D01*
X165535052Y-110177236D01*
X165555674Y-110007400D01*
X165535052Y-109837564D01*
X165480274Y-109693126D01*
X165466075Y-109601076D01*
X165480273Y-109534275D01*
X165535052Y-109389836D01*
X165555674Y-109220000D01*
X165535052Y-109050164D01*
X165480274Y-108905726D01*
X165466075Y-108813676D01*
X165480273Y-108746875D01*
X165535052Y-108602436D01*
X165555674Y-108432600D01*
X165535052Y-108262764D01*
X165474385Y-108102798D01*
X165377199Y-107961999D01*
X165249141Y-107848550D01*
X165097654Y-107769043D01*
X165097653Y-107769042D01*
X165097652Y-107769042D01*
X164931542Y-107728100D01*
X164760458Y-107728100D01*
X164594346Y-107769042D01*
X164556397Y-107788960D01*
X164466724Y-107814152D01*
X164374557Y-107800693D01*
X164348203Y-107788960D01*
X164310253Y-107769042D01*
X164144142Y-107728100D01*
X163973058Y-107728100D01*
X163806947Y-107769042D01*
X163655458Y-107848550D01*
X163527401Y-107961999D01*
X163430215Y-108102798D01*
X163369548Y-108262763D01*
X163348926Y-108432600D01*
X163369548Y-108602436D01*
X163424324Y-108746869D01*
X163438524Y-108838925D01*
X163424324Y-108905731D01*
X163369548Y-109050163D01*
X163348926Y-109219999D01*
X163369548Y-109389836D01*
X163424324Y-109534269D01*
X163438524Y-109626325D01*
X163424324Y-109693131D01*
X163388535Y-109787500D01*
X163369548Y-109837564D01*
X163348926Y-110007400D01*
X159243524Y-110007400D01*
X159301631Y-109954429D01*
X159422864Y-109793890D01*
X159512535Y-109613808D01*
X159516180Y-109600999D01*
X159567588Y-109420315D01*
X159586150Y-109220000D01*
X159567588Y-109019684D01*
X159512536Y-108826194D01*
X159473036Y-108746868D01*
X159422864Y-108646110D01*
X159301631Y-108485571D01*
X159181541Y-108376095D01*
X159152959Y-108350039D01*
X158981924Y-108244138D01*
X158794333Y-108171465D01*
X158596586Y-108134500D01*
X158395414Y-108134500D01*
X158197666Y-108171465D01*
X158010075Y-108244138D01*
X157839040Y-108350039D01*
X157690368Y-108485571D01*
X157569136Y-108646109D01*
X157479463Y-108826194D01*
X157424411Y-109019684D01*
X157419363Y-109074169D01*
X157391673Y-109163102D01*
X157330205Y-109233084D01*
X157245586Y-109272015D01*
X157196319Y-109277500D01*
X157125414Y-109277500D01*
X156927666Y-109314465D01*
X156740075Y-109387138D01*
X156569040Y-109493039D01*
X156420368Y-109628571D01*
X156367569Y-109698490D01*
X156297209Y-109759526D01*
X156208107Y-109786668D01*
X156188813Y-109787500D01*
X155144164Y-109787500D01*
X155053055Y-109768134D01*
X154985772Y-109721892D01*
X154345108Y-109081228D01*
X154294378Y-109003110D01*
X154279500Y-108922836D01*
X154279500Y-108843326D01*
X154298866Y-108752217D01*
X154353615Y-108676862D01*
X154434280Y-108630289D01*
X154526914Y-108620553D01*
X154544633Y-108623136D01*
X154712414Y-108654500D01*
X154712416Y-108654500D01*
X154913586Y-108654500D01*
X155111334Y-108617534D01*
X155298922Y-108544862D01*
X155346502Y-108515402D01*
X155469959Y-108438960D01*
X155469959Y-108438959D01*
X155469962Y-108438958D01*
X155618631Y-108303429D01*
X155739864Y-108142890D01*
X155829535Y-107962808D01*
X155884588Y-107769315D01*
X155903150Y-107569000D01*
X155891501Y-107443292D01*
X155884588Y-107368684D01*
X155829536Y-107175194D01*
X155805482Y-107126887D01*
X155739864Y-106995110D01*
X155618631Y-106834571D01*
X155618629Y-106834569D01*
X155586590Y-106805361D01*
X155532307Y-106729669D01*
X155513500Y-106639825D01*
X155513500Y-104399040D01*
X155532866Y-104307931D01*
X155579108Y-104240648D01*
X156302648Y-103517108D01*
X156380766Y-103466378D01*
X156461040Y-103451500D01*
X161749372Y-103451500D01*
X161840481Y-103470866D01*
X161900279Y-103509961D01*
X162022040Y-103620960D01*
X162193075Y-103726861D01*
X162193078Y-103726862D01*
X162380666Y-103799534D01*
X162578414Y-103836500D01*
X162779586Y-103836500D01*
X162977334Y-103799534D01*
X163164922Y-103726862D01*
X163335962Y-103620958D01*
X163484631Y-103485429D01*
X163605864Y-103324890D01*
X163695535Y-103144808D01*
X163709301Y-103096427D01*
X163750588Y-102951315D01*
X163764549Y-102800657D01*
X163769150Y-102751000D01*
X163750588Y-102550685D01*
X163750588Y-102550684D01*
X163696903Y-102361999D01*
X166422849Y-102361999D01*
X166441411Y-102562315D01*
X166496463Y-102755805D01*
X166547903Y-102859109D01*
X166586136Y-102935890D01*
X166707369Y-103096429D01*
X166841409Y-103218622D01*
X166895691Y-103294310D01*
X166914500Y-103384158D01*
X166914500Y-105392616D01*
X166895134Y-105483725D01*
X166841411Y-105558151D01*
X166834370Y-105564569D01*
X166713136Y-105725109D01*
X166623463Y-105905194D01*
X166568411Y-106098684D01*
X166549849Y-106298999D01*
X166568411Y-106499315D01*
X166623463Y-106692805D01*
X166713136Y-106872890D01*
X166834368Y-107033428D01*
X166983040Y-107168960D01*
X167154075Y-107274861D01*
X167154078Y-107274862D01*
X167341666Y-107347534D01*
X167539414Y-107384500D01*
X167740586Y-107384500D01*
X167938334Y-107347534D01*
X168125922Y-107274862D01*
X168142842Y-107264386D01*
X168296959Y-107168960D01*
X168296959Y-107168959D01*
X168296962Y-107168958D01*
X168445631Y-107033429D01*
X168566864Y-106872890D01*
X168656535Y-106692808D01*
X168711588Y-106499315D01*
X168730150Y-106299000D01*
X168711588Y-106098685D01*
X168711588Y-106098684D01*
X168656536Y-105905194D01*
X168613402Y-105818571D01*
X168566864Y-105725110D01*
X168445631Y-105564571D01*
X168438589Y-105558151D01*
X168384307Y-105482459D01*
X168365500Y-105392616D01*
X168365500Y-103109440D01*
X168384866Y-103018331D01*
X168410742Y-102974452D01*
X168439864Y-102935890D01*
X168529535Y-102755808D01*
X168584588Y-102562315D01*
X168603150Y-102362000D01*
X168602705Y-102357192D01*
X168584588Y-102161684D01*
X168529536Y-101968194D01*
X168486139Y-101881042D01*
X168439864Y-101788110D01*
X168318631Y-101627571D01*
X168169962Y-101492042D01*
X168169959Y-101492039D01*
X167998924Y-101386138D01*
X167811333Y-101313465D01*
X167613586Y-101276500D01*
X167412414Y-101276500D01*
X167214666Y-101313465D01*
X167027075Y-101386138D01*
X166856040Y-101492039D01*
X166707368Y-101627571D01*
X166586136Y-101788109D01*
X166496463Y-101968194D01*
X166441411Y-102161684D01*
X166422849Y-102361999D01*
X163696903Y-102361999D01*
X163695536Y-102357194D01*
X163679890Y-102325773D01*
X163605864Y-102177110D01*
X163484631Y-102016571D01*
X163431564Y-101968194D01*
X163335959Y-101881039D01*
X163164924Y-101775138D01*
X162977333Y-101702465D01*
X162779586Y-101665500D01*
X162578414Y-101665500D01*
X162380666Y-101702465D01*
X162193075Y-101775138D01*
X162022040Y-101881039D01*
X161900279Y-101992039D01*
X161819902Y-102039107D01*
X161749372Y-102050500D01*
X156106021Y-102050500D01*
X156092497Y-102050091D01*
X156035492Y-102046642D01*
X155979287Y-102056941D01*
X155965921Y-102058975D01*
X155909226Y-102065859D01*
X155908240Y-102066234D01*
X155869208Y-102077115D01*
X155868170Y-102077305D01*
X155868168Y-102077305D01*
X155868167Y-102077306D01*
X155816073Y-102100750D01*
X155803589Y-102105922D01*
X155750165Y-102126183D01*
X155749294Y-102126785D01*
X155714003Y-102146689D01*
X155713040Y-102147122D01*
X155668068Y-102182354D01*
X155657180Y-102190365D01*
X155610171Y-102222815D01*
X155572295Y-102265567D01*
X155563023Y-102275417D01*
X154457665Y-103380775D01*
X154379547Y-103431505D01*
X154287550Y-103446076D01*
X154209463Y-103425152D01*
X154209276Y-103425637D01*
X154204799Y-103423902D01*
X154197579Y-103421968D01*
X154192666Y-103419202D01*
X154189926Y-103418140D01*
X154189922Y-103418138D01*
X154002334Y-103345466D01*
X154002331Y-103345465D01*
X154002330Y-103345465D01*
X153804586Y-103308500D01*
X153603414Y-103308500D01*
X153405666Y-103345465D01*
X153218075Y-103418138D01*
X153047040Y-103524039D01*
X152898368Y-103659571D01*
X152777136Y-103820109D01*
X152687463Y-104000194D01*
X152632411Y-104193684D01*
X152613849Y-104394000D01*
X152632411Y-104594315D01*
X152687463Y-104787805D01*
X152777136Y-104967890D01*
X152898368Y-105128428D01*
X153055408Y-105271588D01*
X153109691Y-105347279D01*
X153128500Y-105437126D01*
X153128500Y-108163058D01*
X153109134Y-108254167D01*
X153054385Y-108329522D01*
X152973720Y-108376095D01*
X152881086Y-108385831D01*
X152792500Y-108357048D01*
X152746108Y-108321450D01*
X152484376Y-108059719D01*
X152484367Y-108059710D01*
X152484362Y-108059706D01*
X152346721Y-107922065D01*
X152150108Y-107725451D01*
X152099378Y-107647333D01*
X152084500Y-107567059D01*
X152084500Y-103887940D01*
X152103866Y-103796831D01*
X152150108Y-103729548D01*
X153267656Y-102612000D01*
X154399600Y-101480055D01*
X154409420Y-101470811D01*
X154452183Y-101432929D01*
X154484642Y-101385902D01*
X154492639Y-101375033D01*
X154527877Y-101330057D01*
X154528298Y-101329119D01*
X154548224Y-101293789D01*
X154548818Y-101292930D01*
X154569085Y-101239487D01*
X154574246Y-101227028D01*
X154597694Y-101174932D01*
X154597881Y-101173906D01*
X154608768Y-101134851D01*
X154609140Y-101133872D01*
X154616026Y-101077155D01*
X154618061Y-101063790D01*
X154628357Y-101007606D01*
X154624909Y-100950602D01*
X154624500Y-100937076D01*
X154624500Y-97767865D01*
X154643866Y-97676756D01*
X154697590Y-97602329D01*
X154821131Y-97489708D01*
X154942364Y-97329169D01*
X155032035Y-97149087D01*
X155087088Y-96955594D01*
X155105650Y-96755279D01*
X155096845Y-96660256D01*
X155087088Y-96554963D01*
X155032036Y-96361473D01*
X155002146Y-96301447D01*
X154942364Y-96181389D01*
X154821131Y-96020850D01*
X154697591Y-95908229D01*
X154643308Y-95832539D01*
X154624500Y-95742692D01*
X154624500Y-95021000D01*
X159202532Y-95021000D01*
X159222365Y-95247695D01*
X159281260Y-95467495D01*
X159377431Y-95673734D01*
X159507951Y-95860137D01*
X159668862Y-96021048D01*
X159855265Y-96151568D01*
X159988263Y-96213586D01*
X160061504Y-96247739D01*
X160281308Y-96306635D01*
X160508000Y-96326468D01*
X160734692Y-96306635D01*
X160954496Y-96247739D01*
X161160734Y-96151568D01*
X161347139Y-96021047D01*
X161372477Y-95995708D01*
X161450592Y-95944979D01*
X161542589Y-95930407D01*
X161632560Y-95954513D01*
X161704948Y-96013130D01*
X161740745Y-96075819D01*
X161754645Y-96113086D01*
X161840810Y-96228189D01*
X161955912Y-96314353D01*
X162090625Y-96364598D01*
X162144201Y-96370358D01*
X162156166Y-96371000D01*
X162798000Y-96371000D01*
X162798000Y-95456501D01*
X162905685Y-95505680D01*
X163012237Y-95521000D01*
X163083763Y-95521000D01*
X163190315Y-95505680D01*
X163298000Y-95456501D01*
X163298000Y-96371000D01*
X163939834Y-96371000D01*
X163951798Y-96370358D01*
X164005374Y-96364598D01*
X164140087Y-96314353D01*
X164204679Y-96266000D01*
X166954517Y-96266000D01*
X166974421Y-96544290D01*
X166974422Y-96544294D01*
X167033729Y-96816923D01*
X167066914Y-96905895D01*
X167131230Y-97078336D01*
X167186943Y-97180366D01*
X167264944Y-97323213D01*
X167432145Y-97546568D01*
X167629432Y-97743855D01*
X167852787Y-97911056D01*
X168097663Y-98044769D01*
X168359077Y-98142271D01*
X168631706Y-98201578D01*
X168800425Y-98213645D01*
X168909999Y-98221482D01*
X168909999Y-98221481D01*
X168910000Y-98221482D01*
X169188294Y-98201578D01*
X169460923Y-98142271D01*
X169722337Y-98044769D01*
X169967213Y-97911056D01*
X170190568Y-97743855D01*
X170387855Y-97546568D01*
X170555056Y-97323213D01*
X170688769Y-97078337D01*
X170786271Y-96816923D01*
X170845578Y-96544294D01*
X170865482Y-96266000D01*
X170845578Y-95987706D01*
X170786271Y-95715077D01*
X170688769Y-95453663D01*
X170555056Y-95208787D01*
X170387855Y-94985432D01*
X170190568Y-94788145D01*
X169967213Y-94620944D01*
X169842996Y-94553116D01*
X169722336Y-94487230D01*
X169591630Y-94438480D01*
X169460923Y-94389729D01*
X169227094Y-94338862D01*
X169188290Y-94330421D01*
X168910000Y-94310517D01*
X168631709Y-94330421D01*
X168527896Y-94353004D01*
X168359077Y-94389729D01*
X168306118Y-94409481D01*
X168097663Y-94487230D01*
X167852785Y-94620945D01*
X167629434Y-94788143D01*
X167432143Y-94985434D01*
X167264945Y-95208785D01*
X167131230Y-95453663D01*
X167076008Y-95601721D01*
X167033729Y-95715077D01*
X167008177Y-95832539D01*
X166974421Y-95987709D01*
X166954517Y-96266000D01*
X164204679Y-96266000D01*
X164255189Y-96228189D01*
X164341353Y-96113087D01*
X164391598Y-95978374D01*
X164397358Y-95924798D01*
X164398000Y-95912833D01*
X164398000Y-95271000D01*
X163481686Y-95271000D01*
X163507493Y-95230844D01*
X163548000Y-95092889D01*
X163548000Y-94949111D01*
X163507493Y-94811156D01*
X163481686Y-94771000D01*
X164398000Y-94771000D01*
X164398000Y-94129166D01*
X164397358Y-94117201D01*
X164391598Y-94063625D01*
X164341353Y-93928912D01*
X164255189Y-93813810D01*
X164140087Y-93727646D01*
X164005374Y-93677401D01*
X163951798Y-93671641D01*
X163939834Y-93671000D01*
X163298000Y-93671000D01*
X163298000Y-94585498D01*
X163190315Y-94536320D01*
X163083763Y-94521000D01*
X163012237Y-94521000D01*
X162905685Y-94536320D01*
X162798000Y-94585498D01*
X162798000Y-93671000D01*
X162156166Y-93671000D01*
X162144201Y-93671641D01*
X162090625Y-93677401D01*
X161955912Y-93727646D01*
X161840810Y-93813810D01*
X161754645Y-93928912D01*
X161740745Y-93966181D01*
X161690760Y-94044777D01*
X161613129Y-94096248D01*
X161521274Y-94111693D01*
X161431078Y-94088443D01*
X161372477Y-94046291D01*
X161347137Y-94020951D01*
X161160734Y-93890431D01*
X160954495Y-93794260D01*
X160734695Y-93735365D01*
X160508000Y-93715532D01*
X160281304Y-93735365D01*
X160061504Y-93794260D01*
X159855265Y-93890431D01*
X159668862Y-94020951D01*
X159507951Y-94181862D01*
X159377431Y-94368265D01*
X159281260Y-94574504D01*
X159222365Y-94794304D01*
X159202532Y-95021000D01*
X154624500Y-95021000D01*
X154624500Y-90845173D01*
X154643866Y-90754064D01*
X154697594Y-90679634D01*
X154701823Y-90675779D01*
X154729631Y-90650429D01*
X154850864Y-90489890D01*
X154940535Y-90309808D01*
X154995588Y-90116315D01*
X155014150Y-89916000D01*
X155000617Y-89769956D01*
X154995588Y-89715684D01*
X154940536Y-89522194D01*
X154896326Y-89433409D01*
X154850864Y-89342110D01*
X154729631Y-89181571D01*
X154729630Y-89181571D01*
X154580959Y-89046039D01*
X154409924Y-88940138D01*
X154222333Y-88867465D01*
X154024586Y-88830500D01*
X153823414Y-88830500D01*
X153625666Y-88867465D01*
X153438077Y-88940138D01*
X153358777Y-88989238D01*
X153271120Y-89020734D01*
X153239474Y-89018390D01*
X153239474Y-89021000D01*
X152379111Y-89021000D01*
X152418610Y-88996543D01*
X152486201Y-88907038D01*
X152516895Y-88799160D01*
X152506546Y-88687479D01*
X152456552Y-88587078D01*
X152384069Y-88521000D01*
X153133471Y-88521000D01*
X153133471Y-88520999D01*
X153070312Y-88350468D01*
X153019526Y-88268988D01*
X152987767Y-88181425D01*
X152994369Y-88088515D01*
X153038190Y-88006322D01*
X153111654Y-87949060D01*
X153202057Y-87926628D01*
X153209622Y-87926500D01*
X157975500Y-87926500D01*
X158066609Y-87945866D01*
X158141964Y-88000615D01*
X158188537Y-88081280D01*
X158199500Y-88150500D01*
X158199500Y-91921527D01*
X158198978Y-91936813D01*
X158195618Y-91985921D01*
X158205632Y-92034109D01*
X158208230Y-92049179D01*
X158215253Y-92100275D01*
X158225314Y-92131975D01*
X158249055Y-92177794D01*
X158255621Y-92191600D01*
X158276169Y-92238904D01*
X158294408Y-92266712D01*
X158329615Y-92304409D01*
X158339667Y-92315937D01*
X158372224Y-92355955D01*
X158397283Y-92377805D01*
X158399319Y-92379043D01*
X158399320Y-92379044D01*
X158441355Y-92404606D01*
X158454141Y-92412992D01*
X158496299Y-92442751D01*
X158526322Y-92457029D01*
X158575995Y-92470947D01*
X158590573Y-92475574D01*
X158639187Y-92492851D01*
X158671947Y-92498500D01*
X158674335Y-92498500D01*
X158723528Y-92498500D01*
X158738812Y-92499021D01*
X158787921Y-92502381D01*
X158787922Y-92502380D01*
X158790294Y-92502543D01*
X158829627Y-92498500D01*
X176771500Y-92498500D01*
X176862609Y-92517866D01*
X176937964Y-92572615D01*
X176984537Y-92653280D01*
X176995500Y-92722500D01*
X176995500Y-120891500D01*
X176976134Y-120982609D01*
X176921385Y-121057964D01*
X176840720Y-121104537D01*
X176771500Y-121115500D01*
X149872500Y-121115500D01*
X149781391Y-121096134D01*
X149706036Y-121041385D01*
X149659463Y-120960720D01*
X149648500Y-120891500D01*
X149648500Y-118617999D01*
X152572550Y-118617999D01*
X152592316Y-118869146D01*
X152651126Y-119114111D01*
X152747533Y-119346859D01*
X152879164Y-119561659D01*
X153042775Y-119753224D01*
X153206386Y-119892961D01*
X153234341Y-119916836D01*
X153317510Y-119967802D01*
X153449140Y-120048466D01*
X153681888Y-120144873D01*
X153804370Y-120174278D01*
X153926852Y-120203683D01*
X154178000Y-120223449D01*
X154429148Y-120203683D01*
X154674111Y-120144873D01*
X154906859Y-120048466D01*
X155121659Y-119916836D01*
X155313224Y-119753224D01*
X155476836Y-119561659D01*
X155608466Y-119346859D01*
X155704873Y-119114111D01*
X155763683Y-118869148D01*
X155783449Y-118618000D01*
X172892550Y-118618000D01*
X172912316Y-118869146D01*
X172971126Y-119114111D01*
X173067533Y-119346859D01*
X173199164Y-119561659D01*
X173362775Y-119753224D01*
X173526386Y-119892961D01*
X173554341Y-119916836D01*
X173637510Y-119967802D01*
X173769140Y-120048466D01*
X174001888Y-120144873D01*
X174124370Y-120174277D01*
X174246852Y-120203683D01*
X174498000Y-120223449D01*
X174749148Y-120203683D01*
X174994111Y-120144873D01*
X175226859Y-120048466D01*
X175441659Y-119916836D01*
X175633224Y-119753224D01*
X175796836Y-119561659D01*
X175928466Y-119346859D01*
X176024873Y-119114111D01*
X176083683Y-118869148D01*
X176103449Y-118618000D01*
X176083683Y-118366852D01*
X176024873Y-118121889D01*
X176010204Y-118086473D01*
X175928466Y-117889140D01*
X175822713Y-117716568D01*
X175796836Y-117674341D01*
X175667144Y-117522491D01*
X175633224Y-117482775D01*
X175441659Y-117319164D01*
X175226859Y-117187533D01*
X174994111Y-117091126D01*
X174749146Y-117032316D01*
X174498000Y-117012550D01*
X174246853Y-117032316D01*
X174001888Y-117091126D01*
X173769140Y-117187533D01*
X173554340Y-117319164D01*
X173362775Y-117482775D01*
X173199164Y-117674340D01*
X173067533Y-117889140D01*
X172971126Y-118121888D01*
X172912316Y-118366853D01*
X172892550Y-118618000D01*
X155783449Y-118618000D01*
X155763683Y-118366852D01*
X155704873Y-118121889D01*
X155690204Y-118086473D01*
X155608466Y-117889140D01*
X155502713Y-117716568D01*
X155476836Y-117674341D01*
X155347144Y-117522491D01*
X155313224Y-117482775D01*
X155121659Y-117319164D01*
X154906859Y-117187533D01*
X154674111Y-117091126D01*
X154429146Y-117032316D01*
X154178000Y-117012550D01*
X153926853Y-117032316D01*
X153681888Y-117091126D01*
X153449140Y-117187533D01*
X153234340Y-117319164D01*
X153042775Y-117482775D01*
X152879164Y-117674340D01*
X152747533Y-117889140D01*
X152651126Y-118121888D01*
X152592316Y-118366853D01*
X152572550Y-118617999D01*
X149648500Y-118617999D01*
X149648500Y-116458786D01*
X149667866Y-116367677D01*
X149722615Y-116292322D01*
X149803280Y-116245749D01*
X149872500Y-116234786D01*
X154588786Y-116234786D01*
X154588786Y-112655214D01*
X149952072Y-112655214D01*
X149872500Y-112655214D01*
X149781391Y-112635848D01*
X149706036Y-112581099D01*
X149659463Y-112500434D01*
X149648500Y-112431214D01*
X149648500Y-99340471D01*
X149649022Y-99325185D01*
X149651074Y-99295182D01*
X149652381Y-99276079D01*
X149642367Y-99227890D01*
X149639768Y-99212816D01*
X149633070Y-99164080D01*
X149633068Y-99164075D01*
X149632744Y-99161718D01*
X149622690Y-99130035D01*
X149621592Y-99127916D01*
X149621592Y-99127915D01*
X149598938Y-99084195D01*
X149592378Y-99070400D01*
X149571832Y-99023097D01*
X149553596Y-98995293D01*
X149518385Y-98957592D01*
X149508337Y-98946069D01*
X149477278Y-98907892D01*
X149475775Y-98906044D01*
X149450717Y-98884195D01*
X149406644Y-98857393D01*
X149393858Y-98849006D01*
X149351704Y-98819251D01*
X149321677Y-98804971D01*
X149272001Y-98791052D01*
X149257429Y-98786426D01*
X149208819Y-98769150D01*
X149176047Y-98763500D01*
X149173665Y-98763500D01*
X149124472Y-98763500D01*
X149109187Y-98762978D01*
X149106355Y-98762784D01*
X149057705Y-98759456D01*
X149018373Y-98763500D01*
X148217867Y-98763500D01*
X148126758Y-98744134D01*
X148051403Y-98689385D01*
X148004830Y-98608720D01*
X147995094Y-98516086D01*
X148023877Y-98427500D01*
X148086203Y-98358280D01*
X148150810Y-98325773D01*
X148269570Y-98288511D01*
X148438499Y-98194748D01*
X148585105Y-98068892D01*
X148703371Y-97916104D01*
X148788459Y-97742640D01*
X148809597Y-97661001D01*
X148809597Y-97661000D01*
X148059111Y-97661000D01*
X148098610Y-97636543D01*
X148166201Y-97547038D01*
X148196895Y-97439160D01*
X148186546Y-97327479D01*
X148136552Y-97227078D01*
X148064069Y-97161000D01*
X148813471Y-97161000D01*
X148813471Y-97160999D01*
X148750312Y-96990468D01*
X148648113Y-96826504D01*
X148514992Y-96686461D01*
X148356413Y-96576086D01*
X148178864Y-96499894D01*
X147989605Y-96461000D01*
X147743000Y-96461000D01*
X147743000Y-97111000D01*
X147243000Y-97111000D01*
X147243000Y-96461000D01*
X147050507Y-96461000D01*
X147039176Y-96461574D01*
X146900777Y-96475648D01*
X146716429Y-96533488D01*
X146547500Y-96627251D01*
X146400893Y-96753108D01*
X146366633Y-96797369D01*
X146295550Y-96857561D01*
X146206130Y-96883638D01*
X146113835Y-96871090D01*
X146034623Y-96822086D01*
X145982190Y-96745101D01*
X145965500Y-96660256D01*
X145965500Y-89524518D01*
X145984866Y-89433409D01*
X146039615Y-89358054D01*
X146120280Y-89311481D01*
X146212914Y-89301745D01*
X146301500Y-89330528D01*
X146351854Y-89370189D01*
X146471007Y-89495538D01*
X146629586Y-89605913D01*
X146807135Y-89682105D01*
X146996395Y-89721000D01*
X147243000Y-89721000D01*
X147243000Y-89071000D01*
X147743000Y-89071000D01*
X147743000Y-89721000D01*
X147935493Y-89721000D01*
X147946823Y-89720425D01*
X148085222Y-89706351D01*
X148269570Y-89648511D01*
X148438499Y-89554748D01*
X148585105Y-89428892D01*
X148703371Y-89276104D01*
X148788459Y-89102640D01*
X148809597Y-89021001D01*
X148809597Y-89021000D01*
X148059111Y-89021000D01*
X148098610Y-88996543D01*
X148166201Y-88907038D01*
X148196895Y-88799160D01*
X148186546Y-88687479D01*
X148136552Y-88587078D01*
X148064069Y-88521000D01*
X148813471Y-88521000D01*
X148813471Y-88520999D01*
X148750312Y-88350468D01*
X148699526Y-88268988D01*
X148667767Y-88181425D01*
X148674369Y-88088515D01*
X148718190Y-88006322D01*
X148791654Y-87949060D01*
X148882057Y-87926628D01*
X148889622Y-87926500D01*
X150109735Y-87926500D01*
X150200844Y-87945866D01*
G37*
%TD.AperFunction*%
%TD*%
M02*
