%TF.GenerationSoftware,KiCad,Pcbnew,7.0.2*%
%TF.CreationDate,2025-03-07T16:02:18-05:00*%
%TF.ProjectId,2PAM8904,3250414d-3839-4303-942e-6b696361645f,rev?*%
%TF.SameCoordinates,Original*%
%TF.FileFunction,Soldermask,Top*%
%TF.FilePolarity,Negative*%
%FSLAX46Y46*%
G04 Gerber Fmt 4.6, Leading zero omitted, Abs format (unit mm)*
G04 Created by KiCad (PCBNEW 7.0.2) date 2025-03-07 16:02:18*
%MOMM*%
%LPD*%
G01*
G04 APERTURE LIST*
G04 Aperture macros list*
%AMRoundRect*
0 Rectangle with rounded corners*
0 $1 Rounding radius*
0 $2 $3 $4 $5 $6 $7 $8 $9 X,Y pos of 4 corners*
0 Add a 4 corners polygon primitive as box body*
4,1,4,$2,$3,$4,$5,$6,$7,$8,$9,$2,$3,0*
0 Add four circle primitives for the rounded corners*
1,1,$1+$1,$2,$3*
1,1,$1+$1,$4,$5*
1,1,$1+$1,$6,$7*
1,1,$1+$1,$8,$9*
0 Add four rect primitives between the rounded corners*
20,1,$1+$1,$2,$3,$4,$5,0*
20,1,$1+$1,$4,$5,$6,$7,0*
20,1,$1+$1,$6,$7,$8,$9,0*
20,1,$1+$1,$8,$9,$2,$3,0*%
G04 Aperture macros list end*
%ADD10C,0.150000*%
%ADD11C,2.200000*%
%ADD12RoundRect,0.225000X-0.225000X-0.250000X0.225000X-0.250000X0.225000X0.250000X-0.225000X0.250000X0*%
%ADD13R,1.700000X1.700000*%
%ADD14O,1.700000X1.700000*%
%ADD15RoundRect,0.225000X0.250000X-0.225000X0.250000X0.225000X-0.250000X0.225000X-0.250000X-0.225000X0*%
%ADD16R,0.660400X0.203200*%
%ADD17R,0.203200X0.660400*%
%ADD18R,0.939800X0.939800*%
%ADD19RoundRect,0.225000X-0.250000X0.225000X-0.250000X-0.225000X0.250000X-0.225000X0.250000X0.225000X0*%
G04 APERTURE END LIST*
D10*
X125069600Y-94945200D02*
X125069600Y-94996000D01*
X125069600Y-80670400D02*
X125069600Y-94996000D01*
X107594400Y-94996000D02*
X107594400Y-80670400D01*
X107594400Y-94996000D02*
X107594400Y-80670400D01*
X125069600Y-94996000D02*
X107594400Y-94996000D01*
X107594400Y-80670400D02*
X125069600Y-80670400D01*
X125069600Y-80670400D02*
X125069600Y-94945200D01*
D11*
%TO.C,REF\u002A\u002A*%
X122377200Y-83439000D03*
%TD*%
D12*
%TO.C,C_IN*%
X112636000Y-87630000D03*
X114186000Y-87630000D03*
%TD*%
D13*
%TO.C,OUT*%
X122428000Y-92202000D03*
D14*
X122428000Y-89662000D03*
%TD*%
D11*
%TO.C,REF\u002A\u002A*%
X110490000Y-83439000D03*
%TD*%
D12*
%TO.C,C1*%
X113652000Y-93599000D03*
X115202000Y-93599000D03*
%TD*%
D13*
%TO.C,EN1*%
X109957000Y-92837000D03*
D14*
X109957000Y-90297000D03*
X109957000Y-87757000D03*
%TD*%
D15*
%TO.C,C_OUT*%
X117475000Y-88265000D03*
X117475000Y-86715000D03*
%TD*%
D16*
%TO.C,PAM8904EGPR1*%
X113563400Y-90132002D03*
X113563400Y-90532001D03*
X113563400Y-90932000D03*
D17*
X114166701Y-91535301D03*
X114566700Y-91535301D03*
X114966699Y-91535301D03*
D16*
X115570000Y-90932000D03*
X115570000Y-90532001D03*
X115570000Y-90132002D03*
D17*
X114966699Y-89528701D03*
X114566700Y-89528701D03*
X114166701Y-89528701D03*
D18*
X114566700Y-90532001D03*
%TD*%
D13*
%TO.C,IN*%
X117963000Y-82702000D03*
D14*
X115423000Y-82702000D03*
%TD*%
D19*
%TO.C,C2*%
X115824000Y-86093000D03*
X115824000Y-87643000D03*
%TD*%
M02*
